<svg xmlns="http://www.w3.org/2000/svg" viewBox="0 0 403.07 177.8"><g id="Layer_2" data-name="Layer 2"><g id="BACKGROUND"><path id="Path_4425" data-name="Path 4425" d="M284.84,163.56S226,168.7,210.39,149.94,208,113.8,225.2,102.21a187.14,187.14,0,0,0,27.28-23,57.83,57.83,0,0,0,16.08-28.07c4.82-21.27-4.74-36.2-17.31-44.33-17.86-11.53-40.42.23-40.42.23L53.33,74.28" style="fill:none;stroke:#2e3233;stroke-miterlimit:10;stroke-width:3.52800011634827px"/><path id="Path_4426" data-name="Path 4426" d="M21.87,84.85c.55-.75,33.76-15,33.76-15l5.24,4.57L29.31,88.25Z" style="fill:#2e3233"/><path id="Path_4427" data-name="Path 4427" d="M0,78.83,46.9,110l1.4-3.71c1.49-4-1.67-9.39-5.25-11.72L14.57,76A9.37,9.37,0,0,0,4.31,76Z" style="fill:#2e3233"/><path id="Path_4428" data-name="Path 4428" d="M2.91,76.9l45.21,30.15,1.4-3.7A9,9,0,0,0,46,92.61L17.47,74a9.37,9.37,0,0,0-10.26,0Z" style="fill:#ecc363"/><path id="Path_4429" data-name="Path 4429" d="M282.58,169.49l16.27-1.36-1-11.32-16.27,1.36Z" style="fill:#212326"/><path id="Path_4430" data-name="Path 4430" d="M354.28,172.75l-49.63,4.15A14.25,14.25,0,0,1,289.11,164a14,14,0,0,1,.16-3.87l4.91-25.78a20.16,20.16,0,0,1,18.21-16.2l52.75-4.42A20.19,20.19,0,0,1,387.06,132l3.26,37.77Z" style="fill:#ecc363"/><line id="Line_41" data-name="Line 41" x1="292.87" y1="141.3" x2="361.87" y2="135.52" style="fill:none;stroke:#e6a527;stroke-miterlimit:10;stroke-width:2.01600003242493px"/><path id="Path_4431" data-name="Path 4431" d="M343,157.34a30.09,30.09,0,0,1,60-5A29,29,0,0,1,399.41,169l-50,4.19A29.21,29.21,0,0,1,343,157.34" style="fill:#f1cc78"/><path id="Path_4432" data-name="Path 4432" d="M350.45,156.71a22.61,22.61,0,1,0,21-24.08l-.42,0a22.51,22.51,0,0,0-20.62,24.05" style="fill:#40434a"/><path id="Path_4433" data-name="Path 4433" d="M363.61,155.61a9.41,9.41,0,1,0,8.75-10h-.18a9.36,9.36,0,0,0-8.57,10" style="fill:#212326"/></g></g></svg>