<svg xmlns="http://www.w3.org/2000/svg" viewBox="0 0 83.24 58.57"><g id="Layer_2" data-name="Layer 2"><g id="Group_4090" data-name="Group 4090"><path id="Path_4990" data-name="Path 4990" d="M25.13,22.71c-2.13-3.77-4.22-8.06-8-10.5a16.61,16.61,0,0,0-5.94-2C6.85,9.4,0,8.21,0,3.91A1.81,1.81,0,0,1,.47,2.73C3.14-.43,16.68-.57,21.12.9c2.19.72,3.3,1.31,3.95,2.05.83.93.94,2.13,1.58,4.17,1.14,3.66,6.66,7.55,6.66,7.55,3,7.59-7.23,9.72-8.19,8" style="fill:#d7e5f4"/><path id="Path_4991" data-name="Path 4991" d="M25.07,3a44.37,44.37,0,0,1-12,1.38c-5.31,0-10-.64-12.62-1.59C3.14-.43,16.68-.56,21.11.9c2.19.72,3.3,1.31,4,2.05" style="fill:#f2f2f2"/><path id="Path_4992" data-name="Path 4992" d="M79.49,57.16a13.16,13.16,0,0,1-5.17,1.41C57.91,57.41,25,30,22,24.6A7.17,7.17,0,0,1,22,17.81a17.88,17.88,0,0,1,5-6c2-1.51,6.6-3.06,10.15,3.29,2.08,3.7,5.79,6.54,9.3,8.81,3.86,2.5,7.2,2.5,11.66,2.89A30.25,30.25,0,0,1,66.5,29c2.34.94,5.42,2.35,7.13,4.32C87.1,48.88,83.74,54.86,79.5,57.16" style="fill:#7cb5d8"/><path id="Path_4993" data-name="Path 4993" d="M79.49,57.16a13.16,13.16,0,0,1-5.17,1.41C57.91,57.41,25,30,22,24.6A7.17,7.17,0,0,1,22,17.81C30.77,28.48,50.18,49,74.32,55.68q2.82.76,5.17,1.48" style="fill:#6aa7c6"/></g></g></svg>