<svg xmlns="http://www.w3.org/2000/svg" xmlns:xlink="http://www.w3.org/1999/xlink" viewBox="0 0 94.55 284.23"><defs><clipPath id="clip-path"><rect x="50.93" y="174.57" width="4.84" height="98.92" style="fill:none"/></clipPath><clipPath id="clip-path-2"><rect x="40.83" y="174.57" width="10.15" height="98.92" style="fill:none"/></clipPath><clipPath id="clip-path-3"><rect x="11.49" y="110.8" width="73.27" height="34.15" style="fill:none"/></clipPath><clipPath id="clip-path-5"><rect x="12.04" y="139.04" width="71.83" height="8.26" style="fill:none"/></clipPath></defs><g id="Layer_2" data-name="Layer 2"><g id="BACKGROUND"><path d="M84.73,226c-.36-1.59-.74-3.08-1.14-4.4Z" style="fill:#b5cfd1"/><path id="Path_4488" data-name="Path 4488" d="M12.07,138.82a154.16,154.16,0,0,0,.66,46.78c1.82,10.82,2.23,21.93,6.4,32.08,0,0,7.28,44.18,13.14,55.81h13L51,174.57v98.92H63.72c5.86-11.63,13.08-55,13.08-55,4.18-10.14,4.58-21.26,6.4-32.08a162.79,162.79,0,0,0,.66-48.08" style="fill:#c37f6c"/><path id="Path_4489" data-name="Path 4489" d="M55.77,273.49h7.95c5.86-11.64,13.08-55,13.08-55,4.18-10.14,4.58-21.26,6.4-32.08a162.79,162.79,0,0,0,.66-48.08" style="fill:#c37f6c"/><path id="Path_4490" data-name="Path 4490" d="M51,174.57v98.92h4.78" style="fill:#c37f6c"/><g id="Group_3774" data-name="Group 3774" style="opacity:0.300000011920929"><g id="Group_3773" data-name="Group 3773"><g style="clip-path:url(#clip-path)"><g id="Group_3772" data-name="Group 3772"><path id="Path_4491" data-name="Path 4491" d="M51,174.57s2,97.52,4.79,98.92l-4.85,0" style="fill:#c37f6c"/></g></g></g></g><g id="Group_3777" data-name="Group 3777" style="opacity:0.300000011920929"><g id="Group_3776" data-name="Group 3776"><g style="clip-path:url(#clip-path-2)"><g id="Group_3775" data-name="Group 3775"><path id="Path_4492" data-name="Path 4492" d="M40.83,273.49h4.46L51,174.57s-5.82,87.95-10.16,98.92" style="fill:#c37f6c"/></g></g></g></g><g id="Group_3783" data-name="Group 3783" style="opacity:0.699999988079071"><g id="Group_3782" data-name="Group 3782"><g style="clip-path:url(#clip-path-3)"><g id="Group_3781" data-name="Group 3781"><g id="Group_3780" data-name="Group 3780" style="opacity:0.850000023841858"><g id="Group_3779" data-name="Group 3779"><g style="clip-path:url(#clip-path-3)"><g id="Group_3778" data-name="Group 3778"><path id="Path_4494" data-name="Path 4494" d="M79.72,110.82c1.92,9,3.36,20.81,5,28,0,0-14.48,5.86-36.43,6.13s-36.85-6.13-36.85-6.13c1.69-7.2,3.13-19,5-28,0,0-6,16,4.78,25.13,4.89,4.16,14.83,5,27.55,5.67,42.55,2.24,30.85-30.78,30.85-30.78" style="fill:#b5cfd1"/></g></g></g></g></g></g></g></g><g id="Group_3786" data-name="Group 3786" style="opacity:0.300000011920929"><g id="Group_3785" data-name="Group 3785"><g style="clip-path:url(#clip-path-5)"><g id="Group_3784" data-name="Group 3784"><path id="Path_4522" data-name="Path 4522" d="M12,139s15.87,6.82,38.34,5.87,33.49-5.74,33.49-5.74-7.56,8.64-37.64,8.1C16.5,146.73,12,139,12,139" style="fill:#c37f6c"/></g></g></g></g><path d="M94.33,117.29a98.19,98.19,0,0,0-.25-16.07A93.16,93.16,0,0,0,80.77,60.55,33.43,33.43,0,0,0,73.86,52a14.85,14.85,0,0,0-10.14-3.7H32.53A14.88,14.88,0,0,0,22.39,52a33.65,33.65,0,0,0-6.91,8.57C8,72.87.83,89.29,0,118l7.67-6.67a45.54,45.54,0,0,1,4.75-4.5l2-2.41c1.25-1.44,2.71-2.59,5.12-4.84.11-.1,1-4.32,1.13-4.28s.05-.12,0,0c-1.94,4.65-2.63,8.95-3.69,13.4-2.16,9.17-3.7,22.37-5.53,30.15,0,0,14.9,6.4,36.85,6.13s36.42-6.13,36.42-6.13c-2.09-8.91-3.68-24.6-7.51-37.93C83.83,113.29,94.33,117.29,94.33,117.29Z" style="fill:#b5cfd1"/><path id="Path_4501" data-name="Path 4501" d="M32.26,273.46a31.19,31.19,0,0,0-7.75,6.3c-.77.83-1.55,2-1,3a2.41,2.41,0,0,0,1.37,1,12.14,12.14,0,0,0,5.36.33,33.37,33.37,0,0,0,13.17-4.44A3.68,3.68,0,0,0,45,278.15a4,4,0,0,0,.24-1.53l.06-3.15Z" style="fill:#3e3e3d"/><path id="Path_4502" data-name="Path 4502" d="M63.72,273.49a32,32,0,0,1,8,6.28c.78.83,1.55,2,1,3a2.32,2.32,0,0,1-1.37,1,12.11,12.11,0,0,1-5.35.33,33.49,33.49,0,0,1-13.17-4.45,3.68,3.68,0,0,1-1.58-1.47,4,4,0,0,1-.24-1.53l-.06-3.15Z" style="fill:#3e3e3d"/><path id="Path_4503" data-name="Path 4503" d="M61.52,48.32s-.41,8.06-14,7.57c0,0-12.06.2-13.61-7.57l6.21-.38.63-3.75H55.46l.62,4.07Z" style="fill:#e9c3b2"/><path id="Path_4504" data-name="Path 4504" d="M66.24,13.18c.88,7.34-.66,15.78-2.58,21.45a18.16,18.16,0,0,1-3.25,6.5c-8,8.93-17.81,5.33-20.95,3a15.19,15.19,0,0,1-5.36-7.2c-2.56-7.42-3.23-10.34-2.64-17.55,0,0-1.74-19.35,19.1-18,0,0,14.2-.39,15.68,11.87" style="fill:#e9c3b2"/><path id="Path_4505" data-name="Path 4505" d="M37.65,27A1.07,1.07,0,1,0,38.73,26,1.06,1.06,0,0,0,37.65,27" style="fill:#3e3e3d"/><path id="Path_4506" data-name="Path 4506" d="M57,27.25a1.07,1.07,0,1,0,1.08-1.05A1.06,1.06,0,0,0,57,27.25" style="fill:#3e3e3d"/><path id="Path_4507" data-name="Path 4507" d="M39.76,20.9a9.15,9.15,0,0,0-5.54,2.35.28.28,0,0,1-.4,0,.27.27,0,0,1,0-.34,6.16,6.16,0,0,1,6-2.5.25.25,0,0,1,.19.31.24.24,0,0,1-.22.2" style="fill:#3e3e3d"/><path id="Path_4508" data-name="Path 4508" d="M46.49,32.57a4.21,4.21,0,0,0,4,0,.19.19,0,0,1,.24.07h0a.18.18,0,0,1,0,.22,3.45,3.45,0,0,1-4.36,0,.17.17,0,0,1,.19-.27" style="fill:#3e3e3d"/><path id="Path_4509" data-name="Path 4509" d="M40.59,44.84a16.08,16.08,0,0,0,11.69,1.5s-4.57,3.4-12,.29Z" style="fill:#3e3e3d"/><path id="Path_4510" data-name="Path 4510" d="M47.33,26c.1,1,0,2.16.11,3.13.29,1,1.6.54,2.3.09a.19.19,0,0,1,.24.07.18.18,0,0,1,0,.23,3.07,3.07,0,0,1-1.54.73c-1.72.08-1.59-1.45-1.5-2.66,0-.54.07-1.08.12-1.61a.16.16,0,0,1,.18-.14.15.15,0,0,1,.14.16" style="fill:#3e3e3d"/><path id="Path_4511" data-name="Path 4511" d="M57.52,20.63a6.18,6.18,0,0,1,6,2.5.29.29,0,0,1-.08.4h0a.3.3,0,0,1-.35,0,9.4,9.4,0,0,0-2.57-1.65,9.22,9.22,0,0,0-3-.71.25.25,0,0,1-.23-.29.24.24,0,0,1,.2-.22" style="fill:#3e3e3d"/><path id="Path_4512" data-name="Path 4512" d="M34.06,27c.27,6.19,9.25,6.23,9.43,0-.22-6.24-9.14-6.16-9.43,0m-.36,0c.17-6.89,10.16-6.86,10.38,0-.26,6.88-10.19,6.88-10.38,0" style="fill:#3e3e3d"/><path id="Path_4513" data-name="Path 4513" d="M53.59,27c.27,6.19,9.25,6.23,9.43,0-.22-6.24-9.14-6.16-9.43,0m-.36,0c.16-6.89,10.16-6.86,10.38,0-.26,6.88-10.19,6.88-10.38,0" style="fill:#3e3e3d"/><path id="Path_4514" data-name="Path 4514" d="M53.52,26.06s-5.61-2.43-9.83,0" style="fill:none;stroke:#3e3e3d;stroke-miterlimit:10;stroke-width:0.481000006198883px"/><path id="Path_4515" data-name="Path 4515" d="M31.5,27.27c3-4.71,2.66-10.65,3.36-16.16,15,7.66,24.6,1.66,26.66.81,0,0,2.09,14.61,5,14.27,0,0,5.69-18.84-7.31-24.1s-22.29,1-22.29,1S28.44,8.05,31,26Z" style="fill:#e9eff1"/><path id="Path_4516" data-name="Path 4516" d="M32.62,31.2a2.2,2.2,0,0,1-2.36.82,3.45,3.45,0,0,1-1.63-1.24,6.1,6.1,0,0,1-1.57-5,2.22,2.22,0,0,1,.6-1.2,2,2,0,0,1,2.13-.22,16.3,16.3,0,0,1,2.83,2.49Z" style="fill:#e9c3b2"/><path id="Path_4517" data-name="Path 4517" d="M28.71,25.87a5.3,5.3,0,0,1,3.57,3.34.14.14,0,0,1-.1.18.15.15,0,0,1-.16-.07,6.88,6.88,0,0,0-3.4-3.2.13.13,0,0,1-.06-.17.12.12,0,0,1,.15-.07" style="fill:#c37f6c"/><path id="Path_4518" data-name="Path 4518" d="M31.07,27.62a5.06,5.06,0,0,0-.6,3,.13.13,0,0,1-.13.15.15.15,0,0,1-.15-.09,3.36,3.36,0,0,1,.67-3.24.13.13,0,0,1,.18,0,.14.14,0,0,1,0,.15" style="fill:#c37f6c"/><path id="Path_4519" data-name="Path 4519" d="M64.58,31.28a2.2,2.2,0,0,0,2.36.81,3.58,3.58,0,0,0,1.64-1.23,6.18,6.18,0,0,0,1.57-5.05,2.26,2.26,0,0,0-.6-1.19,2,2,0,0,0-2.13-.22,15.12,15.12,0,0,0-2.83,2.4Z" style="fill:#e9c3b2"/><path id="Path_4520" data-name="Path 4520" d="M68.58,26.2a6.83,6.83,0,0,0-3.4,3.2.15.15,0,0,1-.2.05.14.14,0,0,1-.06-.16A5.28,5.28,0,0,1,68.49,26a.13.13,0,0,1,.16.1.14.14,0,0,1-.08.15" style="fill:#c37f6c"/><path id="Path_4521" data-name="Path 4521" d="M66.34,27.55A3.35,3.35,0,0,1,67,30.79a.14.14,0,0,1-.18.08.13.13,0,0,1-.09-.14,5.06,5.06,0,0,0-.6-3,.13.13,0,0,1,.06-.18.14.14,0,0,1,.15,0" style="fill:#c37f6c"/><polygon points="16.51 108.59 16.51 108.59 16.51 108.59 16.51 108.59" style="fill:#272726"/></g></g></svg>