<svg xmlns="http://www.w3.org/2000/svg" viewBox="0 0 71.24 73.94"><g id="Layer_2" data-name="Layer 2"><g id="Group_4090" data-name="Group 4090"><path id="Path_4998" data-name="Path 4998" d="M22.44,59.53c-2.84-.12-5.09-3-6.67-5.06-3.65-4.8,1.29-6.29,3.88-9.57,6.51-8.28,14.84-14.84,22.93-21.49,2.4-2,4.77-4,5.32-7.21.2-1.18.26-2.38.4-3.57a17.48,17.48,0,0,1,.3-1.76A12.46,12.46,0,0,0,49.08,9c0-.45.07-.9.1-1.36.08-1,.17-2.1.31-3.14a5,5,0,0,1,.23-1.09c.17-.44.35-1.22.78-1.48.73-.45,1.45.44,1.56,1.06.07.46,0,1,.06,1.46.1,1.44-.16,3.33.7,4.59s3.1-1.54,3.58-2L62.27.74c.37-.39,1.31-.93,1.84-.67.9.44.4,1.56,0,2.2A15.35,15.35,0,0,1,62.08,5a7.59,7.59,0,0,0-1,1.26c-.18.27-1,1.24-.76,1.58s.61-.22.73-.31c.27-.2.5-.46.77-.66l1.54-1.14c1-.75,2-1.49,3-2.25.55-.42,2-1.18,2.57-.36S68,5.24,67.44,5.76L63.85,9.12c-.27.24-1.29,1.2-1,1.06L69.35,6.8a1.07,1.07,0,0,1,1.44.47l0,.07c.28.77-1.56,1.78-2.09,2.17a30,30,0,0,1-4.3,2.55,3.19,3.19,0,0,1,.63-.09c.44-.07.89-.15,1.32-.25A24.29,24.29,0,0,0,69,10.79c.71-.24,2.32-.69,2.22.6-.07.84-1.32,1.14-1.93,1.45-1.82.94-3.74,1.69-5.52,2.69a30.31,30.31,0,0,0-4.26,3.1c-.77.63-1.54,1.25-2.35,1.82A29.07,29.07,0,0,0,50.07,28c-3.27,4.78-6.46,9.62-9.83,14.33-3.11,4.35-6.2,8.81-10.31,12.29C28,56.25,26,59,23.34,59.48a4,4,0,0,1-.91.05" style="fill:#ffcaa6"/><path id="Path_4999" data-name="Path 4999" d="M.25,58.24C.92,55.88,3.57,54,5.37,52.51a114.65,114.65,0,0,1,10.86-7.58c1.33-.87,2.61-1.79,3.87-2.74,2.75-2.06,6.35,9.16,7,10.64.44,1,1.39,2.05,1.15,3.24s-1.58,2.08-2.51,2.87A113.76,113.76,0,0,0,15.5,69.55a29.4,29.4,0,0,1-2.69,3C10,75.2,6.34,73.68,4.43,71.29a26,26,0,0,1-3.55-6,12.46,12.46,0,0,1-.63-7.07" style="fill:#dfe8aa"/></g></g></svg>