<svg xmlns="http://www.w3.org/2000/svg" viewBox="0 0 61.73 82.37"><g id="Layer_2" data-name="Layer 2"><g id="BACKGROUND"><path id="Path_4434" data-name="Path 4434" d="M17.38,67.35l-7,.14c-3.07.06-5.39,0-7.56,2.19s-4,5.54-1.67,9.59c4.61,7.88,8.12-1.74,8.12-1.74A13.53,13.53,0,0,0,21,74.32Z" style="fill:#e9c3b2"/><path id="Path_4435" data-name="Path 4435" d="M17.38,67.36l32.67-20.9A7.72,7.72,0,1,1,58,59.71a6.87,6.87,0,0,1-1.56.71L21,74.33Z" style="fill:#e9c3b2"/><path id="Path_4436" data-name="Path 4436" d="M60.25,48.63,37.35,18.8,26.92,34.59,47.6,55.79Z" style="fill:#e9c3b2"/><path id="Path_4437" data-name="Path 4437" d="M28.29,0C41.76,9,61.73,33.25,61.73,33.25c-3.3,9.37-25,21.74-25,21.74L21.19,37.89Z" style="fill:#db8620"/><line id="Line_42" data-name="Line 42" x1="34.09" y1="51.35" x2="13.95" y2="29.49" style="fill:none;stroke:#d6d6d6;stroke-miterlimit:10;stroke-width:0.72000002861023px"/></g></g></svg>