<svg xmlns="http://www.w3.org/2000/svg" viewBox="0 0 27.97 70.23"><g id="Layer_2" data-name="Layer 2"><g id="BACKGROUND"><g id="Group_5175" data-name="Group 5175"><path id="Path_4380" data-name="Path 4380" d="M23.62.31C26.2.74,27.92,3.55,28,6.16s-1.15,5.07-2.16,7.49-1.83,5.13-1,7.61,3.48,4.74,3,7.43c-.34,2.07-2.33,3.37-4,4.64s-3.31,3.28-2.59,5.25a11.41,11.41,0,0,0,1.07,1.77,5.49,5.49,0,0,1,.28,5,11.07,11.07,0,0,1-2.82,3.34L7.84,59.45Q4.9,52.31,2,45.16C.78,42.32-.42,39.27.14,36.24s3.7-5.77,6.6-4.74c.77-2.76-.72-5.56-1.45-8.33S5.22,16.62,8,16c1.19-.25,2.49.17,3.58-.34,1.75-.82,1.74-3.23,1.92-5.15C14,6,16.35.78,20.75,0c0,0,1.71.11,2.87.3" style="fill:#8cb3a0"/><path id="Path_4381" data-name="Path 4381" d="M7.31,70s0-1,.1-2.82c0-.9.09-2,.18-3.24s.16-2.66.33-4.2.33-3.19.56-4.94.51-3.59.79-5.5.64-3.87,1-5.85.83-4,1.26-6,.92-4,1.42-6,1-3.89,1.52-5.75c1-3.71,2.06-7.16,3-10.09s1.76-5.37,2.35-7.06l.95-2.66a.22.22,0,0,1,.29-.13.22.22,0,0,1,.14.26L20.5,8.77C20,10.5,19.32,13,18.45,15.92s-1.88,6.39-3,10.08c-.52,1.85-1.05,3.76-1.59,5.7s-1,3.93-1.55,5.92-1,4-1.38,6-.8,3.92-1.16,5.81-.66,3.72-.87,5.47-.45,3.4-.58,4.92S8.08,62.71,8,64s-.15,2.33-.16,3.23C7.79,69,7.76,70,7.76,70a.23.23,0,0,1-.45,0v0Z" style="fill:#fff"/><path id="Path_4382" data-name="Path 4382" d="M9.07,50.31s-.58-.68-1.38-1.78a40.24,40.24,0,0,1-2.62-4.19A39.66,39.66,0,0,1,3,39.84c-.48-1.26-.72-2.13-.72-2.13a.33.33,0,0,1,.61-.23l.93,2c.56,1.21,1.33,2.8,2.17,4.35.41.78.83,1.56,1.25,2.27s.8,1.39,1.15,2L9.56,50a.29.29,0,0,1-.07.42.3.3,0,0,1-.42-.06h0Z" style="fill:#fff"/><path id="Path_4383" data-name="Path 4383" d="M10,46.79l.42-.09c.26-.06.63-.17,1.08-.3s1-.33,1.52-.52l1.78-.6c1.22-.38,2.45-.75,3.38-1s1.56-.37,1.56-.37a.34.34,0,0,1,.39.25.33.33,0,0,1-.19.37s-.59.26-1.49.6-2.11.74-3.33,1.13-2.44.75-3.41.94a9.71,9.71,0,0,1-1.19.16,4,4,0,0,1-.46,0h0a.29.29,0,0,1-.32-.27.3.3,0,0,1,.27-.33" style="fill:#fff"/><path id="Path_4384" data-name="Path 4384" d="M13.4,31s-.44-.53-1-1.4a30.82,30.82,0,0,1-1.95-3.33,30,30,0,0,1-1.49-3.56c-.34-1-.5-1.68-.5-1.68h0a.33.33,0,0,1,.24-.4.32.32,0,0,1,.38.19l.71,1.57c.43.94,1,2.19,1.6,3.41.3.62.6,1.23.91,1.8l.82,1.56.82,1.52a.31.31,0,0,1-.08.42.31.31,0,0,1-.42-.09h0Z" style="fill:#fff"/><path id="Path_4385" data-name="Path 4385" d="M14.36,27.22l.45,0c.29,0,.67,0,1.15.07s1,0,1.62,0,1.22-.06,1.85-.13,1.25-.16,1.83-.27,1.13-.23,1.58-.36.84-.23,1.11-.32l.42-.12a.33.33,0,0,1,.41.23.32.32,0,0,1-.15.37,10.91,10.91,0,0,1-1.52.69,15.07,15.07,0,0,1-3.57.83,15.45,15.45,0,0,1-3.66-.1,11.93,11.93,0,0,1-1.19-.24l-.43-.12a.3.3,0,0,1,.1-.6h0" style="fill:#fff"/></g></g></g></svg>