<svg xmlns="http://www.w3.org/2000/svg" viewBox="0 0 106.64 79.36"><g id="Layer_2" data-name="Layer 2"><g id="Group_4090" data-name="Group 4090"><path id="Path_4951" data-name="Path 4951" d="M30.93,23.52s5.6,27.3,14.46,31.07c6.33,2.69,12,6.66,18.41,9.18,3,1.19,6.23,2.58,9.52,2.81s2.51-3.11,13.51.52c0,0,5.38,1.53,7.9.93,0,0,14.69,0,11.44,4.16s-.12,4.29-11.06,6.3-15.29.27-21-2.38c0,0-31.33-2.35-37.78-9.24S18,37,14.75,24.72c0,0,7.47-8.62,16.19-1.2" style="fill:#edb29e"/><path id="Path_4952" data-name="Path 4952" d="M24.79,10.91c-4.12-7-10.28-14.48-18.78-9-11.89,7.6-2.87,25.18-.54,35.39.76,3.33,1.48,3.66,2.71,6.86.55,1.44,2,4.37,4,4.16,1.33-.14,20.57-7.09,24.24-11.07,0,0,1-.3-.62-4.22-2.65-6.23-5.73-12.27-9-18.21-.45-.84-1.54-2.93-2.1-3.87" style="fill:#f58800"/></g></g></svg>