<svg xmlns="http://www.w3.org/2000/svg" viewBox="0 0 107.77 100.38"><g id="Layer_2" data-name="Layer 2"><g id="Group_4090" data-name="Group 4090"><path id="Path_4983" data-name="Path 4983" d="M28.86,35.24c.51,1,.9,2,1.35,3.09a57.62,57.62,0,0,0,8.06,14.09A34.7,34.7,0,0,0,49,60.54c4.55,2.42,9,4.9,13.47,7.54,5.63,3.35,11.07,7.21,17.89,7.31,4.11.07,8.22.1,12.34,0,2.14,0,7.11-1,8.71.94,2.2,2.72-8.76,2.38-9.6,2.84-1.1.6.6,1.34,1.19,1.61a47.4,47.4,0,0,1,7,4.27c2.51,1.77,5.46,3.67,7.2,6.27,1.3,1.94.34,3.39-2,3.32a7,7,0,0,1,.84,1.18,1.94,1.94,0,0,1-.26,2.64c-.43.31-3.17.26-2.86-.53-.5,1.27-2.38,1.39-3.53,1.4-2.56,2.67-6.22-.61-8.39-2.16A9.24,9.24,0,0,0,88.77,96a30.7,30.7,0,0,1-7-3.48C79.51,90.86,78,88.61,76,86.77c-3.23-2.91-7.29-4.3-11.38-5.2C58.35,80.2,51.68,78.46,46,75.72a72.13,72.13,0,0,1-11.88-7c-7-5.2-11.83-12.62-15.75-20.3-1.21-2.38-2.11-4.9-3.3-7.29-.86-1.76-2.92-4-2.68-6.07.29-2.39,3.59-2.62,5.42-2.9,2.73-.42,5.95-1.08,8.51.34a6.42,6.42,0,0,1,2.58,2.78" style="fill:#f7c5b4"/><path id="Path_4984" data-name="Path 4984" d="M25,8.59a11.11,11.11,0,0,0-3.23-5.13c-3.28-3-8.87-4-13.15-3.17C-.81,2.15-1.12,10.73,1.22,18.4c3.8,12.53,6.09,24,5.51,25.85s1.53,2,2.86,1.87,20-8.48,23.6-12.5c0,0,1.05-.31-.67-4.21-1.43-3.26-2.75-6.57-4-9.9-.73-1.93-1.47-3.87-2.1-5.84S25.48,10.11,25,8.59" style="fill:#f58800"/></g></g></svg>