<svg xmlns="http://www.w3.org/2000/svg" viewBox="0 0 117.91 180.89"><g id="Layer_2" data-name="Layer 2"><g id="BACKGROUND"><rect id="Rectangle_364" data-name="Rectangle 364" x="11.54" y="62.88" width="94.4" height="6.7" style="fill:#bec8cd"/><rect id="Rectangle_365" data-name="Rectangle 365" x="11.65" y="99.02" width="94.4" height="6.7" style="fill:#bec8cd"/><path id="Path_4497" data-name="Path 4497" d="M7.34,180.89H9.12a2.44,2.44,0,0,0,2.42-2.43V30.22A2.43,2.43,0,0,0,9.12,27.8H7.34a2.43,2.43,0,0,0-2.42,2.42V178.47a2.43,2.43,0,0,0,2.42,2.42" style="fill:#bec8cd"/><path id="Path_4498" data-name="Path 4498" d="M108.37,180.89h1.78a2.43,2.43,0,0,0,2.42-2.42V30.22a2.42,2.42,0,0,0-2.42-2.42h-1.78A2.42,2.42,0,0,0,106,30.22V178.46a2.43,2.43,0,0,0,2.42,2.43" style="fill:#bec8cd"/><path d="M15.77.58C9,8.49,6.36,13.6,2.84,23.91L17,26.52c3.12-4.6,10.83-15.68,13.57-21.44L30.06,0Z" style="fill:#b5cfd1"/><path d="M87.71,5.11C90,10.52,97.66,22.62,101,27.47l14.86-2.61c-3.53-10.32-6.18-15.42-12.95-23.34h0l-16-.4Z" style="fill:#b5cfd1"/><path id="Path_4499" data-name="Path 4499" d="M16.52,32.4a19.39,19.39,0,0,1-2.64,2.94,2,2,0,0,1-.62.42c-.8.28-1.58-.59-1.72-1.43s.1-1.71,0-2.54a2.93,2.93,0,0,0-2.28-2.33,3,3,0,0,0-3,1.32c-.77,1.27-.46,2.89-.63,4.37-.07.57-.31,1.23-.87,1.35a1.35,1.35,0,0,1-.79-.15C.81,35-.53,31.08.19,27.77a9.44,9.44,0,0,1,8.32-7.41,8.31,8.31,0,0,1,8.74,7.87v.09s.34,2.66-.73,4.09" style="fill:#e9c3b2"/><path id="Path_4500" data-name="Path 4500" d="M101.39,33A19.46,19.46,0,0,0,104,36a1.82,1.82,0,0,0,.61.41c.8.29,1.59-.58,1.72-1.42s-.09-1.71,0-2.55a2.87,2.87,0,0,1,5.27-1c.78,1.27.46,2.89.64,4.37.07.56.31,1.22.87,1.34A1.29,1.29,0,0,0,114,37c3.11-1.32,4.45-5.28,3.73-8.59A9.45,9.45,0,0,0,109.4,21a8.32,8.32,0,0,0-8.74,7.88V29s-.35,2.65.73,4.08" style="fill:#e9c3b2"/></g></g></svg>