<svg xmlns="http://www.w3.org/2000/svg" viewBox="0 0 63.64 76.27"><g id="Layer_2" data-name="Layer 2"><g id="Group_4090" data-name="Group 4090"><path id="Path_5004" data-name="Path 5004" d="M34.12,54.94l.08.09c2.23,2.45,3.63,5.55,6,7.85,2.18,2.07,6,3.73,9,2.62,2.58-1,4.12-4,5.14-6.33,1.45-3.33-1.1-5.07-3.64-6.64C46.71,50,43.3,46.76,39.46,44a13,13,0,0,1-4.05-4.12,49.79,49.79,0,0,0-4.26-6.14c-2.48-3.16-5.3-6.33-7.83-9.43a26.42,26.42,0,0,1-3.88-5.94c-1.2-2.72-1.11-5.5-1-8.42.18-1.7.27-3.41.28-5.12-.08-.39-.12-1-.44-1.31-.53-.46-1.23.15-1.4.65s-.16.79-.25,1.16c-.22.92-.55,5.05-2.26,4a6.53,6.53,0,0,1-1.64-2,22.82,22.82,0,0,1-2.33-4C10.13,2.69,9.29-.2,8,0s-.41,2.16-.13,3,.61,1.4.81,2.13.62,1.4.74,1.86C8,5.57,6.62,4.07,5.27,2.62c-.36-.39-1.35-1.2-1.9-.74-.76.63.27,1.94.66,2.46.82,1.06,1.63,2.13,2.44,3.2a9,9,0,0,1,.82,1L2.35,4.91c-.49-.36-1.27-.29-1.33.41S2,6.71,2.48,7.18c1,1,2.66,2.43,3.52,3.26A24.51,24.51,0,0,1,2.23,8.31C1.71,8,.85,7.54.27,8S.07,8.9.54,9.3l4.89,4.06c1.4,1.15,1.86,2.34,3,3.72s3.19,2.28,4.25,3.85c2.81,4.2,4,9.27,5.84,13.91,1.7,4.24,1.5,5.1,4.16,8.75,2.38,3.26,1.64,1.92,4.23,5,2.06,2.47,5,4,7.2,6.33" style="fill:#ffcaa6"/><path id="Path_5005" data-name="Path 5005" d="M44.7,44.52c2.42-.17,7,5.38,8.57,6.76,3.24,2.81,8.72,4.89,10.09,9.11,1.12,3.48-1.4,8.26-3.21,11.26-1.22,2-3.14,4-5.56,4.53-2.59.51-3.52-1.21-5.05-2.89-3.39-3.71-7.41-7.12-11.11-10.54-1.29-1.18-2.44-2.5-3.81-3.57,0,0-.67-.77,0-2.48s7.32-12,10.08-12.18" style="fill:#dfe8aa"/></g></g></svg>