<svg xmlns="http://www.w3.org/2000/svg" width="20.91" height="19.041" viewBox="0 0 20.91 19.041">
  <g id="contact-mail_3_" data-name="contact-mail (3)" transform="translate(-5.88 -8.138)">
    <path id="Path_4871" data-name="Path 4871" d="M12.987,12.506h12.3l-6.717,5.275a.9.9,0,0,1-.465.181.915.915,0,0,1-.468-.181l-4.8-3.771a.513.513,0,0,0-.171-.091,1.873,1.873,0,0,0,.348-1.12,2.691,2.691,0,0,0-.022-.293ZM9.86,9.114a.468.468,0,0,1,.1.038,1.716,1.716,0,0,1,.453.372,5.98,5.98,0,0,1,.863,1.312c.006.011.011.023.017.035a4.5,4.5,0,0,1,.728,1.942.754.754,0,0,1-.458.8l-.912.526A2,2,0,0,0,9.7,15.667a2.53,2.53,0,0,0,.288,1.568l2.252,3.881a2.557,2.557,0,0,0,1.223,1.033,2.018,2.018,0,0,0,1.8-.051l.912-.525a.765.765,0,0,1,.926.007,4.523,4.523,0,0,1,1.33,1.6c.007.013.014.024.022.036a6.009,6.009,0,0,1,.711,1.4,1.7,1.7,0,0,1,.1.576c-.011.12-.013.108-.045.127l-.694.4a5.315,5.315,0,0,1-4.77-.155,8.971,8.971,0,0,1-3.542-3.665s0-.007-.007-.009L8.3,18.607A.05.05,0,0,1,8.3,18.6a8.91,8.91,0,0,1-1.419-4.885,5.247,5.247,0,0,1,2.25-4.187l.694-.4c.016-.009.021-.016.036-.015Zm.007-.975a1.035,1.035,0,0,0-.54.133l-.734.422-.047.029a6.322,6.322,0,0,0-2.659,4.948,9.835,9.835,0,0,0,1.563,5.441l1.893,3.262,0-.01a9.882,9.882,0,0,0,3.954,4.065,6.391,6.391,0,0,0,5.637.183.376.376,0,0,0,.048-.024l.735-.422a1.147,1.147,0,0,0,.539-.9,2.432,2.432,0,0,0-.14-.961,6.563,6.563,0,0,0-.831-1.639,5.208,5.208,0,0,0-1.666-1.937,1.9,1.9,0,0,0-1.934-.015l-.912.526a1,1,0,0,1-.916,0,1.751,1.751,0,0,1-.749-.617L10.851,16.74a1.74,1.74,0,0,1-.163-.956A.985.985,0,0,1,11.144,15l.886-.51a.49.49,0,0,0,.187.3l4.8,3.772a1.885,1.885,0,0,0,1.055.4.524.524,0,0,0,.057,0,1.883,1.883,0,0,0,1.053-.4l6.612-5.194v8.581c0,.131-.149.3-.441.3H20.777a.494.494,0,1,0,0,.989h4.577a1.372,1.372,0,0,0,1.436-1.291V12.809a1.372,1.372,0,0,0-1.436-1.292H12.714a8.808,8.808,0,0,0-.558-1.124,6.584,6.584,0,0,0-1.013-1.535,2.45,2.45,0,0,0-.765-.6h0a1.275,1.275,0,0,0-.511-.12Z" transform="translate(0)" fill="#f58800"/>
  </g>
</svg>
