<svg xmlns="http://www.w3.org/2000/svg" viewBox="0 0 154.7 93.04"><g id="Layer_2" data-name="Layer 2"><g id="BACKGROUND"><path id="Path_4405" data-name="Path 4405" d="M154.59,0l.11,92.84L.11,93,0,.2Zm-7.22,6.77H6.6v79.5H147.37Z" style="fill:#e3c8cc"/><rect id="Rectangle_355" data-name="Rectangle 355" x="4.84" y="5.17" width="144.28" height="82.7" style="fill:#f6f5f1"/><rect id="Rectangle_356" data-name="Rectangle 356" x="17.48" y="17.79" width="117.88" height="57.53" style="fill:#f7e4e6"/><path id="Path_4406" data-name="Path 4406" d="M61.34,46.78A14.83,14.83,0,1,1,46.51,32,14.83,14.83,0,0,1,61.34,46.78h0" style="fill:#fff"/><path id="Path_4407" data-name="Path 4407" d="M95.75,46.78A14.83,14.83,0,1,1,80.92,32h0A14.83,14.83,0,0,1,95.75,46.78h0" style="fill:#ecc363"/><path id="Path_4408" data-name="Path 4408" d="M119.67,47a4.83,4.83,0,1,1-4.82-4.82h0A4.82,4.82,0,0,1,119.67,47" style="fill:#ecc363"/><path id="Path_4409" data-name="Path 4409" d="M114.85,61.8a13.52,13.52,0,0,0-13.52,13.52h27A13.52,13.52,0,0,0,114.85,61.8" style="fill:#fff"/><path id="Path_4410" data-name="Path 4410" d="M97.49,28a10.36,10.36,0,0,0,10.36-10.36H87.13A10.36,10.36,0,0,0,97.49,28" style="fill:#ecc363"/></g></g></svg>