<svg xmlns="http://www.w3.org/2000/svg" viewBox="0 0 62.16 65.58"><g id="Layer_2" data-name="Layer 2"><g id="BACKGROUND"><path id="Path_4471" data-name="Path 4471" d="M49.21,65.24a23.65,23.65,0,0,0,10.34-2.93A3.69,3.69,0,0,0,61,61.15a4.16,4.16,0,0,0,.5-1.92A160.69,160.69,0,0,0,60,17.73c-.54-3.22-1.21-6.51-3-9.25C53.22,2.73,45.16,1.32,38.43,0" style="fill:#db8620"/><path id="Path_4523" data-name="Path 4523" d="M13.56,51.79a18.51,18.51,0,0,0-4.72-5.62c-.32-.22-.75-.42-1.07-.19a.91.91,0,0,0-.27.7,4.58,4.58,0,0,0,.94,2.92,19.15,19.15,0,0,0-4.93-3.05c-.62-.3-1.4-.6-2-.2A1.33,1.33,0,0,0,1.22,48a3.65,3.65,0,0,0,1.16,1.31,34.9,34.9,0,0,0,3.18,2.23,7.91,7.91,0,0,0-3.68-1.8c-.61-.11-1.42,0-1.59.56s.44,1.07,1,1.36a24,24,0,0,0,3.8,1.62,5.61,5.61,0,0,0-2.66-.38,2.46,2.46,0,0,0-1.33.49,1.12,1.12,0,0,0-.34,1.3,1.63,1.63,0,0,0,1,.67,11.9,11.9,0,0,0,4.3.77c-.94,0-1.87.09-2.8.19a1.54,1.54,0,0,0-.91.29,1.15,1.15,0,0,0,.1,1.62l.06,0a3.21,3.21,0,0,0,1.8.55c3.05.25,6-.66,9-1.08" style="fill:#e9c3b2"/><path id="Path_4524" data-name="Path 4524" d="M13.43,51.89c-1.54-2-2.93-4.34-5-5.74-1.48-.54-.35,2.87.2,3.31a.22.22,0,0,1,0,.31.21.21,0,0,1-.29,0,14,14,0,0,0-3.11-2.11c-1-.42-2.26-1.45-3.34-1.19a1,1,0,0,0-.42,1.33c.9,1.54,2.84,2.45,4.28,3.48l-.31.42a7.37,7.37,0,0,0-3.85-1.76c-.44,0-.91.09-1,.38s.19.65.57.89a22.88,22.88,0,0,0,4,1.78l-.18.5c-1.14-.42-2.72-.68-3.75.08C-.42,55.39,4.92,55.83,6,55.84a.24.24,0,0,1,.25.24.26.26,0,0,1-.25.25c-.69,0-1.38.05-2.07.11s-1.49,0-1.65.52A1.13,1.13,0,0,0,3,58.31c3.34.78,6.85-.31,10.2-.78a.18.18,0,0,1,.21.14.17.17,0,0,1-.15.2c-3.4.51-7,1.7-10.43.87a1.58,1.58,0,0,1-1-2,1.21,1.21,0,0,1,1-.72c1-.13,2.1-.21,3.16-.24v.49a12.51,12.51,0,0,1-4.2-.7,2.1,2.1,0,0,1-1.28-.88C-.19,52.18,3.66,52.3,5.16,53a.26.26,0,0,1,.14.35.27.27,0,0,1-.33.16A23.32,23.32,0,0,1,.81,51.67,1.42,1.42,0,0,1,0,50.14c1-1.91,4.62.16,5.7,1.16a.27.27,0,0,1,0,.37.29.29,0,0,1-.34,0C3.86,50.57,1.93,49.73,1,48a1.51,1.51,0,0,1,.7-2,2.64,2.64,0,0,1,2,.36,19.05,19.05,0,0,1,4.9,3.07l-.33.3a4.71,4.71,0,0,1-1-3.05,1.11,1.11,0,0,1,.33-.86c1.61-1,5.07,4.7,6.06,5.87a.15.15,0,0,1,0,.22.16.16,0,0,1-.23,0" style="fill:#272726"/><path id="Path_4525" data-name="Path 4525" d="M47.51,29.79a118.64,118.64,0,0,1,.23,19.13l-.08,1.22c-11,.3-22.69.56-33.73.85l-.36,7.86c8.13,3.5,19.15,5.78,28,6.4a26.83,26.83,0,0,0,5.07.09s6.63-.06,10.78-2" style="fill:#db8620"/><path id="Path_4526" data-name="Path 4526" d="M47.51,29.79a116.47,116.47,0,0,1,.43,20.37.29.29,0,0,1-.28.26c-9.75.36-23.82.73-33.72,1l.42-.42L14,58.86l-.24-.4A74.15,74.15,0,0,0,24.3,62c10.7,2.46,22.42,5.08,33.09,1.36-7,2.9-14.86,2.44-22.21,1.48A86.76,86.76,0,0,1,13.4,59.22a.41.41,0,0,1-.25-.4L13.49,51a.44.44,0,0,1,.42-.42c10-.21,23.92-.57,33.74-.69l-.27.26a127.89,127.89,0,0,0,.12-20.34" style="fill:#272726"/></g></g></svg>