<svg xmlns="http://www.w3.org/2000/svg" viewBox="0 0 65.89 70.32"><g id="Layer_2" data-name="Layer 2"><g id="Group_4090" data-name="Group 4090"><path id="Path_4994" data-name="Path 4994" d="M18.73,25.05c-1-3.95-1.9-8.36-4.75-11.51a16.29,16.29,0,0,0-5-3.31C5.11,8.35-.95,5.52.13,1.64A1.61,1.61,0,0,1,.85.7C4.13-1.47,16.71,1.89,20.46,4.35c1.85,1.21,2.73,2,3.16,2.87.53,1,.34,2.16.42,4.16.14,3.6,4.29,8.52,4.29,8.52.92,7.63-9.14,6.91-9.6,5.15" style="fill:#d7e5f4"/><path id="Path_4995" data-name="Path 4995" d="M23.61,7.22A44,44,0,0,1,12.16,5.38,41.28,41.28,0,0,1,.86.7c3.27-2.17,15.85,1.19,19.6,3.65,1.85,1.21,2.73,2,3.16,2.87" style="fill:#f2f2f2"/><path id="Path_4996" data-name="Path 4996" d="M60.53,70.09A13.13,13.13,0,0,1,55.38,70c-14.92-5.26-38.6-38.4-40.07-44.1a6.55,6.55,0,0,1,1.75-6.11,17,17,0,0,1,6.16-4.14c2.26-.84,6.89-1.06,8.6,5.57,1,3.88,3.73,7.39,6.41,10.34,3,3.26,6.05,4.1,10.1,5.6a30,30,0,0,1,7.2,4.13c1.94,1.45,4.44,3.51,5.53,5.73,8.6,17.53,4,22.06-.53,23" style="fill:#7cb5d8"/><path id="Path_4997" data-name="Path 4997" d="M60.53,70.09A13.13,13.13,0,0,1,55.38,70c-14.92-5.26-38.6-38.4-40.07-44.1a6.55,6.55,0,0,1,1.75-6.11c5.46,11.89,18.32,35.4,39,47.6,1.62,1,3.09,1.84,4.43,2.67" style="fill:#6aa7c6"/></g></g></svg>