<svg xmlns="http://www.w3.org/2000/svg" viewBox="0 0 330.5 169.86"><g id="Layer_2" data-name="Layer 2"><g id="BACKGROUND"><path id="Path_4393" data-name="Path 4393" d="M40.06,141.91l1.51,28h7.29l1.62-28Z" style="fill:#393035"/><path id="Path_4394" data-name="Path 4394" d="M279.89,141.91l1.51,28h7.29l1.62-28Z" style="fill:#393035"/><path id="Path_4395" data-name="Path 4395" d="M314.09,31.32l-10.61-1L278.29,40.69V84.82h35.8Z" style="fill:#71b5db"/><path id="Path_4396" data-name="Path 4396" d="M16.41,31.32l10.61-1L52.2,40.69V84.82H16.41Z" style="fill:#71b5db"/><path id="Path_4397" data-name="Path 4397" d="M265,0H65.53a14,14,0,0,0-14,14h0v87.13a14,14,0,0,0,14,14H265a14,14,0,0,0,14-14V14A14,14,0,0,0,265,0h0" style="fill:#9acef0"/><path id="Path_4398" data-name="Path 4398" d="M322.07,155.6H288.72V50.32a20.89,20.89,0,1,1,41.78,0v96.85a8.42,8.42,0,0,1-8.42,8.42" style="fill:#9acef0"/><path id="Path_4399" data-name="Path 4399" d="M8.42,155.6H41.78V50.32A20.89,20.89,0,0,0,0,50.32H0v96.85a8.42,8.42,0,0,0,8.42,8.42" style="fill:#9acef0"/><path id="Path_4400" data-name="Path 4400" d="M192.87,130H41.78v25.59H288.71V130Z" style="fill:#9acef0"/><path id="Path_4401" data-name="Path 4401" d="M192.87,84.82H41.78V130H288.71V84.82Z" style="fill:#abdbf5"/><path id="Path_4402" data-name="Path 4402" d="M278.3,74.89H52.2L41.78,84.82H288.72Z" style="fill:#71b5db"/><rect id="Rectangle_354" data-name="Rectangle 354" x="41.78" y="127.12" width="246.93" height="2.88" style="fill:#71b5db"/></g></g></svg>