<svg xmlns="http://www.w3.org/2000/svg" viewBox="0 0 34.65 79.94"><g id="Layer_2" data-name="Layer 2"><g id="BACKGROUND"><g id="Group_5176" data-name="Group 5176"><path id="Path_4386" data-name="Path 4386" d="M6.83.38c2.84-1.18,6.3.54,8,3.1s2,5.76,2.53,8.78,1.39,6.25,3.77,8.19,6.41,2.54,7.66,5.49c.95,2.27-.22,4.8-1.08,7.1s-1.24,5.34.71,6.84A13.25,13.25,0,0,0,30.57,41a6.44,6.44,0,0,1,3.4,4.8,12.71,12.71,0,0,1-.71,5.08Q30.68,59.93,28.11,69L13.33,58.49c-2.94-2.1-6-4.38-7.37-7.74s.07-8,3.6-8.83c-1-3.22-4.2-5.08-6.65-7.37s-4.16-6.47-1.75-8.8c1-1,2.58-1.39,3.35-2.58,1.22-1.9-.3-4.29-1.31-6.31C.79,12.08-.09,5.4,3.8,1.87c0,0,1.76-.95,3-1.49" style="fill:#a2caa2"/><path id="Path_4387" data-name="Path 4387" d="M34.16,79.81,32.5,76.94c-.54-.9-1.15-2-1.85-3.32-.35-.65-.72-1.34-1.12-2.06l-1.17-2.32c-.83-1.61-1.67-3.38-2.53-5.26-.45-.94-.88-1.92-1.31-2.91s-.89-2-1.34-3c-.86-2.09-1.78-4.25-2.62-6.47s-1.67-4.48-2.5-6.75S16.47,40.24,15.75,38s-1.42-4.49-2.08-6.65l-1.82-6.26c-.53-2-1-3.9-1.5-5.64-.92-3.5-1.6-6.43-2.08-8.49S7.55,7.7,7.55,7.7a.27.27,0,0,1,.21-.31.26.26,0,0,1,.3.18s.36,1.15,1,3.17,1.45,4.91,2.43,8.39S13.58,26.65,14.81,31c.64,2.16,1.31,4.39,2,6.66S18.22,42.21,19,44.5s1.52,4.56,2.35,6.77,1.65,4.4,2.47,6.5,1.67,4.11,2.55,6S28,67.4,28.82,69c.4.81.79,1.58,1.16,2.31l1.1,2.06c.68,1.29,1.3,2.41,1.85,3.31l1.68,2.85a.25.25,0,0,1-.09.36.26.26,0,0,1-.36-.09Z" style="fill:#fff"/><path id="Path_4388" data-name="Path 4388" d="M23.61,59.16s-1-.31-2.47-.91a48.42,48.42,0,0,1-5.23-2.53,45.54,45.54,0,0,1-4.85-3.19C9.79,51.58,9,50.87,9,50.87a.38.38,0,0,1,0-.54H9a.38.38,0,0,1,.5-.06l2.18,1.42c.65.43,1.44.9,2.25,1.41s1.72,1,2.62,1.56,1.8,1,2.67,1.47,1.66.88,2.36,1.22l2.33,1.16a.36.36,0,0,1,.17.47.37.37,0,0,1-.43.19Z" style="fill:#fff"/><path id="Path_4389" data-name="Path 4389" d="M22.34,55.08l.36-.35c.22-.23.52-.57.88-1,.71-.83,1.61-2,2.59-3.18s2-2.26,2.74-3.08,1.31-1.34,1.31-1.34a.39.39,0,0,1,.59.5s-.42.62-1.1,1.52-1.62,2.07-2.6,3.2-2,2.26-2.81,3.07a11.7,11.7,0,0,1-1.08.9l-.44.3h0a.35.35,0,0,1-.42-.56" style="fill:#fff"/><path id="Path_4390" data-name="Path 4390" d="M15.89,37.31s-.78-.26-1.91-.76a34,34,0,0,1-4-2.08,35.15,35.15,0,0,1-3.7-2.6c-1-.78-1.54-1.36-1.54-1.36h0a.39.39,0,0,1,.49-.6L6.88,31c1,.67,2.36,1.54,3.73,2.39s2.76,1.66,3.81,2.25l1.76,1a.35.35,0,0,1,.15.48.38.38,0,0,1-.43.17Z" style="fill:#fff"/><path id="Path_4391" data-name="Path 4391" d="M14.45,32.91l.47-.25c.31-.15.7-.37,1.19-.64a27.41,27.41,0,0,0,3.38-2.28,27.86,27.86,0,0,0,3-2.76c.38-.41.7-.75.9-1l.34-.38a.39.39,0,0,1,.55-.05.39.39,0,0,1,.08.49,12.26,12.26,0,0,1-1.07,1.62,17.21,17.21,0,0,1-3,3.06A20.61,20.61,0,0,1,18.34,32a20,20,0,0,1-1.79.9c-.43.19-.88.35-1.33.5l-.5.15a.36.36,0,0,1-.26-.66" style="fill:#fff"/></g></g></g></svg>