<svg xmlns="http://www.w3.org/2000/svg" viewBox="0 0 133.79 216.15"><g id="Layer_2" data-name="Layer 2"><g id="Group_4090" data-name="Group 4090"><path id="Path_5007" data-name="Path 5007" d="M119.75,142.46c1.12,7.12-.41,15.27,1.6,21.94a12.66,12.66,0,0,0,3,5c.74.78,2.4,1.77,2.2,3-.43,2.7-5,2.82-7,2.66a7.81,7.81,0,0,0-4.3.48c-3.6,1.4-7.49-.25-11.21.09-9.28.84-18.25,1.54-27.14-1.82,0,0-6.62-31.8,11.47-41.55,7.71-4.16,20.9-6.23,27.41,1a17.14,17.14,0,0,1,4,9.16" style="fill:#fcb556"/><path id="Path_4985" data-name="Path 4985" d="M63.82,184.39a2.05,2.05,0,0,1-.49-.06A1.9,1.9,0,0,1,62,182h0C66.7,164.41,81.22,25.8,81.37,24.45c.11-1,1-2.49,2.1-2.38a2.4,2.4,0,0,1,1.67,2.57C84.54,30.16,70.46,165.11,65.66,183a1.91,1.91,0,0,1-1.84,1.41" style="fill:#fff4c0"/><path id="Path_4986" data-name="Path 4986" d="M0,193.32V186l65.48-6.46,68.31,17.88v7.35L71.05,216.15Z" style="fill:#bb9dc9"/><path id="Path_4987" data-name="Path 4987" d="M0,186,71.05,208.8l62.74-11.43L65.47,179.5Z" style="fill:#c7a9d3"/><path id="Path_4988" data-name="Path 4988" d="M71.05,216.15V208.8l62.74-11.43v7.36Z" style="fill:#d0b6d8"/><path id="Path_4989" data-name="Path 4989" d="M120.06,197a1.88,1.88,0,0,1-1.68-1c-9.85-18.81-14.49-160.32-14.75-166.27a1.9,1.9,0,1,1,3.8-.16c.06,1.45,4.86,146.6,14.31,164.67a1.9,1.9,0,0,1-.79,2.57,1.85,1.85,0,0,1-.89.21" style="fill:#fff4c0"/><path id="Path_5000" data-name="Path 5000" d="M109,183.73c0,5.82-7.36,10.54-16.43,10.54s-16.43-4.72-16.43-10.54,7.35-10.54,16.43-10.54S109,177.91,109,183.73" style="fill:#ffc792"/><path id="Path_5001" data-name="Path 5001" d="M116.73,192.81c-1.9,4.12-7.86,6.74-11.72,8.28-7.73,3.1-16.15,4.3-24.35,2.43-5.2-1.22-10-2.24-14.71-3.57-23.5-11.84-24-20.5-19.16-26,4.5-5.67,18.33-2.5,29.72-.94q3.61.74,7.29,1.18l1.4.17a9.27,9.27,0,0,0-2,5.79c0,5.39,4.65,9.77,10.37,9.77s10.38-4.38,10.38-9.77a9.44,9.44,0,0,0-2.62-6.49c.32-.14.64-.26,1-.37a31.33,31.33,0,0,1,3.16-.85c3.88-.63,6.18-1.93,8.57,1.6,3.8,5.61,5.44,12.87,2.72,18.77" style="fill:#b6c673"/><path id="Path_5002" data-name="Path 5002" d="M106.46,181.73c0,6.33-5.79,11.46-12.93,11.46s-12.92-5.13-12.92-11.46a10.69,10.69,0,0,1,3.19-7.54l1.4.16a9.44,9.44,0,0,0-2,5.8c0,5.39,4.65,9.77,10.38,9.77s10.37-4.38,10.37-9.77a9.48,9.48,0,0,0-2.62-6.5c.32-.13.64-.25,1-.36a10.9,10.9,0,0,1,4.18,8.44" style="fill:#fff"/><path id="Path_5003" data-name="Path 5003" d="M12.77,190a1.91,1.91,0,0,1-1.91-1.9,1.86,1.86,0,0,1,.14-.7C30,138.79,48.24,31.82,48.43,30.75a1.9,1.9,0,1,1,3.75.63C52,32.46,33.63,139.81,14.54,188.73a1.89,1.89,0,0,1-1.77,1.21" style="fill:#fff4c0"/><path id="Path_5006" data-name="Path 5006" d="M67.22,206.31h-.13a1.9,1.9,0,0,1-1.77-2h0C67.4,174.73,68.77,39,68.8,37.61a1.9,1.9,0,1,1,3.8.08c0,1.37-1.4,137.22-3.48,166.85a1.89,1.89,0,0,1-1.9,1.77" style="fill:#fff4c0"/><path id="Path_5008" data-name="Path 5008" d="M88.62,179.66c6.9,6.46,10.63-.17,10.63-.17a5.09,5.09,0,0,1-.29-1.72,31.91,31.91,0,0,1,.5-5.44c-3.18-4.65-10.27-1.76-10.27-1.76a10.59,10.59,0,0,0-.22,1.12,57.39,57.39,0,0,0-.35,8" style="fill:#ffc792"/><path id="Path_5009" data-name="Path 5009" d="M89,171.69c1.69,3.46,4.88,7.67,10,6.08a32.12,32.12,0,0,1,.5-5.45c-3.18-4.64-10.27-1.76-10.27-1.76-.08.34-.16.73-.22,1.13" style="fill:#feaf79"/><path id="Path_5010" data-name="Path 5010" d="M116.29,156a3.87,3.87,0,1,0,4.87-3.14,4.11,4.11,0,0,0-4.87,3.14" style="fill:#ffc792"/><path id="Path_5011" data-name="Path 5011" d="M117.79,156.58c.32-1.18,1.77-2.61,3-2.28a2.59,2.59,0,0,1,1.72,2.87,3.16,3.16,0,0,0-1.55-1.27,2.26,2.26,0,0,1,.36,2,1.88,1.88,0,1,1-3.59-1l.06-.18a.83.83,0,0,1,0-.15" style="fill:#feaf79"/><path id="Path_5012" data-name="Path 5012" d="M118,140.28c1,2.38.59,6.53.87,9.11a34.3,34.3,0,0,1,.06,9.81,17.52,17.52,0,0,1-10.78,13.37c-9.75,3.65-24.6,2.77-29.21-6.5s-4.06-21.56-2.38-24.25c0,0,6.3-15,22.16-13.84s17.48,7.81,19.28,12.29" style="fill:#ffc792"/><path id="Path_5013" data-name="Path 5013" d="M107.52,136.06s11.77,7,11.52,16.36c0,0,13.85-27.21-20-29.9,0,0-16.9-5.78-26.59,12.28s-16.22,15.85-18,22.15c0,0-2.17,8.24,2.6,7.38s1.51,5.94,8.35,4.87c8-1.25,2.3,5.37,11.51,4.67,0,0,1.26,2.89,7.82.44,0,0-9.74-14.05,2-30.57,0,0,17.69,2,20.82-7.68" style="fill:#fdc163"/><path id="Path_5014" data-name="Path 5014" d="M71.2,158.05A4.11,4.11,0,0,0,76,161.28l.19-.05c-.09-.55-.17-1.11-.23-1.68-.2-1.65-.29-3.34-.33-4.88,0-.62,0-1.2,0-1.76a3.47,3.47,0,0,0-1.78,0,4.11,4.11,0,0,0-2.64,5.16" style="fill:#ffc792"/><path id="Path_5015" data-name="Path 5015" d="M72.45,157.18A3.12,3.12,0,0,1,74,155.93a2.28,2.28,0,0,0-.4,2A2,2,0,0,0,76,159.55c-.19-1.65-.28-3.35-.32-4.89a1.82,1.82,0,0,0-1.43-.32,2.58,2.58,0,0,0-1.77,2.83" style="fill:#feaf79"/><path id="Path_5016" data-name="Path 5016" d="M109.3,157.63c-.17.16-1.14-.63-2.57-.7s-2.51.6-2.66.41.11-.39.59-.7a3.62,3.62,0,0,1,2.13-.55,3.58,3.58,0,0,1,2,.77c.42.36.55.68.47.76" style="fill:#1a2e35"/><path id="Path_5017" data-name="Path 5017" d="M97.1,155.52c-.2.14-1-.8-2.42-1.1s-2.58.19-2.69,0,.17-.37.69-.6a3.68,3.68,0,0,1,2.2-.2,3.52,3.52,0,0,1,1.88,1.09c.36.42.44.76.35.82" style="fill:#1a2e35"/><path id="Path_5018" data-name="Path 5018" d="M97.68,149.61c-.26.3-1.25-.17-2.49-.38s-2.32-.16-2.46-.53c-.06-.18.17-.45.67-.66a3.86,3.86,0,0,1,3.9.72c.38.37.5.71.38.85" style="fill:#1a2e35"/><path id="Path_5019" data-name="Path 5019" d="M110.16,152c-.26.3-1.25-.17-2.49-.38s-2.32-.16-2.46-.53c-.06-.18.17-.45.66-.66a3.85,3.85,0,0,1,3.9.72c.39.37.51.71.39.85" style="fill:#1a2e35"/><path id="Path_5020" data-name="Path 5020" d="M99.6,162.13c0,.07.2.25.65.29a1.54,1.54,0,0,0,.79-.16,1.48,1.48,0,0,0,.7-.76,1.28,1.28,0,0,0,0-1.05,1.17,1.17,0,0,0-.63-.57,1.73,1.73,0,0,0-.5-.07c-.1,0-.17,0-.19,0s0,.11.11.19.29.14.41.22a.88.88,0,0,1,.31,1.06,1.1,1.1,0,0,1-.43.52,1.43,1.43,0,0,1-.56.22c-.36.06-.61,0-.63.1" style="fill:#1a2e35"/><path id="Path_5021" data-name="Path 5021" d="M94.88,161.81a.78.78,0,0,0-.6.23,1.49,1.49,0,0,0-.37.79,2.53,2.53,0,0,0,.12,1.22,3.1,3.1,0,0,0,2.24,2,2.33,2.33,0,0,0,1.23,0,1.37,1.37,0,0,0,.73-.47.78.78,0,0,0,.16-.62,2.32,2.32,0,0,0-.66-1.05c-.29-.31-.56-.59-.82-.82s-.56-.45-.9-.7a2.43,2.43,0,0,0-1.14-.52" style="fill:#ff9c6a"/><path id="Path_5022" data-name="Path 5022" d="M96.5,166.1a2.13,2.13,0,0,0-.43-.13,3.22,3.22,0,0,1-1-.56,2.33,2.33,0,0,1-.53-.6,3.34,3.34,0,0,1-.36-.85,2.46,2.46,0,0,1-.06-1,1.92,1.92,0,0,1,.46-.95.85.85,0,0,1,.42-.24.75.75,0,0,1,.46.11,5.05,5.05,0,0,1,.76.7l1.27,1.29A10.28,10.28,0,0,0,98.67,165a10.29,10.29,0,0,0-1.08-1.28l-1.24-1.34a4.81,4.81,0,0,0-.81-.75.92.92,0,0,0-.63-.15,1.05,1.05,0,0,0-.58.32,2.14,2.14,0,0,0-.53,1.1,2.66,2.66,0,0,0,.08,1.12,3.76,3.76,0,0,0,.42.91,2.61,2.61,0,0,0,.6.64,2.84,2.84,0,0,0,1.14.5,1.19,1.19,0,0,0,.46,0" style="fill:#1a2e35"/><path id="Path_5025" data-name="Path 5025" d="M70.51,39.59a2.37,2.37,0,0,1-.65-.09L47.78,32.94a2.28,2.28,0,0,1,.07-4.4l35.26-9.25a2.27,2.27,0,0,1,1.29,0L107.9,27a2.28,2.28,0,0,1-.22,4.4L71,39.54a2.73,2.73,0,0,1-.5.05m-13.6-8.7L70.59,35l28-6.2L83.62,23.88Z" style="fill:#ccc"/><path id="Path_5026" data-name="Path 5026" d="M97.47,30.42A.54.54,0,0,1,97,31l-17.6,3.84a.48.48,0,0,1-.64-.26A.5.5,0,0,1,79,34a.47.47,0,0,1,.17,0l17.6-3.85a.53.53,0,0,1,.66.34" style="fill:#fff"/><path id="Path_5027" data-name="Path 5027" d="M65.31,35.23c-.06.2-.41.28-.78.17l-10.21-3c-.37-.11-.63-.36-.57-.56s.41-.28.78-.17l10.22,3c.37.11.62.36.56.56" style="fill:#fff"/><path id="Path_5028" data-name="Path 5028" d="M96.89,24.54c0,.13-.3.17-.56.08l-7.71-2.56c-.27-.08-.45-.26-.4-.4s.3-.16.56-.08l7.71,2.56c.26.09.44.27.4.4" style="fill:#fff"/><path id="Path_5029" data-name="Path 5029" d="M105.16,25.84,78.56.47h0L78.42.37,78.25.25,78.12.19,77.93.11l-.14,0-.23,0-.08,0h-.4a2.21,2.21,0,0,0-.35.08h0l-.3.13-.09.06-.16.1,0,0L76,.49a1.06,1.06,0,0,0-.15.15l-.09.11-.12.17L75.59,1c0,.07-.06.14-.08.2s0,.09-.05.13v0a1.86,1.86,0,0,0-.42.37l-25.46,26a1.89,1.89,0,0,0,.27,2.67,1.91,1.91,0,0,0,2.68-.27h0l22.21-22L68.85,34.72a1.91,1.91,0,0,0,1.7,2.09h.2a1.89,1.89,0,0,0,1.89-1.71l5.84-26,3,11.3A1.9,1.9,0,1,0,85,18.8h0L82.75,9.28l19.88,19.4a1.9,1.9,0,1,0,2.53-2.84" style="fill:#c69c6d"/></g></g></svg>