<svg xmlns="http://www.w3.org/2000/svg" xmlns:xlink="http://www.w3.org/1999/xlink" width="54.83" height="25.157" viewBox="0 0 54.83 25.157">
  <defs>
    <clipPath id="clip-path">
      <rect id="Rectangle_1" data-name="Rectangle 1" width="53.144" height="13.55" fill="none"/>
    </clipPath>
  </defs>
  <g id="Group_3856" data-name="Group 3856" transform="translate(0 11.955) rotate(-13)">
    <g id="Group_1" data-name="Group 1" clip-path="url(#clip-path)">
      <path id="Path_1" data-name="Path 1" d="M1097.614,3.371a2.876,2.876,0,0,1,1.087,1c0,.124.013.233.167.25a3.677,3.677,0,0,1,.539,1.573,2.175,2.175,0,0,0,.045.218.679.679,0,0,1,.016.225,3.358,3.358,0,0,1-.017.532l-.01.2c-.1.085-.138.179-.042.292a3.847,3.847,0,0,1-.806,1.92,3.661,3.661,0,0,1-1.258,1.023,4.158,4.158,0,0,1-1.367.432c-.2.024-.4.051-.6.077a3.743,3.743,0,0,0-.621-.015c-.86,0-1.719,0-2.579,0a.373.373,0,0,1-.223-.023l0,0a.278.278,0,0,1-.02-.162q0-4.034,0-8.068a.38.38,0,0,1,.012-.144.146.146,0,0,1,.079-.02q1.582,0,3.164,0a.214.214,0,0,1,.06.014,1.713,1.713,0,0,0,.5.054.193.193,0,0,0,.208.042,3.718,3.718,0,0,1,1.461.458c.056.064.107.137.21.115" transform="translate(-1046.352 -2.575)" fill="#2a418d"/>
      <path id="Path_2" data-name="Path 2" d="M766.129,9.686l.1.2c.027.058.029.129.09.169l.206.375c-.043.116.034.165.117.21l.167.293a.3.3,0,0,1,.046.058.071.071,0,0,1-.037.1,3.178,3.178,0,0,1-.725.027c-.4.007-.792,0-1.188,0a2.38,2.38,0,0,1-.531-.028.311.311,0,0,1-.1-.284c.011-.068.1-.141.019-.2s-.135.053-.2.092a.8.8,0,0,1-.472-.673c.158-.152.158-.152-.056-.321-.033-.3-.185-.594-.023-.9.058-.085.025-.193.072-.28.008-.012.015-.026.027-.031a.386.386,0,0,0,.267-.519c-.011-.04-.018-.093.014-.12.158-.131.088-.287.062-.442-.035-.205-.059-.412-.1-.617a.288.288,0,0,1,.155-.327A8.536,8.536,0,0,0,765.12,5.8a1.514,1.514,0,0,0,.239-.228.333.333,0,0,1,.562-.037,1.67,1.67,0,0,1,.31.514c.042.089.081.132.157.03a1.335,1.335,0,0,0,.281-.728c.009-.14-.034-.157-.151-.084a.663.663,0,0,1-.5.158,1.778,1.778,0,0,0-.244-.035c-.36-.143-.353-.137-.579.178a.871.871,0,0,1-.488.3.142.142,0,0,1-.171-.085.5.5,0,0,1-.091-.334.945.945,0,0,0-.065-.508c-.046-.127-.045-.229.119-.27.139-.036.151-.162.133-.27a.234.234,0,0,1,.134-.285.224.224,0,0,0-.01-.393.667.667,0,0,0-.825.128.356.356,0,0,1-.118.114.587.587,0,0,0-.336.806c.2.4-.018.688-.184.977a3.576,3.576,0,0,1-.656.88.846.846,0,0,1-.382.267.383.383,0,0,0-.217.171c.072-.027.12-.109.2-.049s.007.133-.02.179c.12-.082.205-.216.354-.275.051.012.064.052.071.1-.045.272-.132.534-.185.805-.025.129,0,.2.122.238a.694.694,0,0,1,.5.686,3.955,3.955,0,0,0,.02.579,3.738,3.738,0,0,0,.079.414.19.19,0,0,1-.007.06c-.208.26.071.265.188.356.087.123.033.253.021.382a4.7,4.7,0,0,1-.054.514c-.125.111-.277.053-.417.065-.089.008-.18,0-.27,0-.384,0-.768,0-1.152,0a.437.437,0,0,1-.259-.043.384.384,0,0,1-.024-.359c.013-.971,0-1.942.005-2.913q0-2.445,0-4.891a.711.711,0,0,1,.012-.227.24.24,0,0,1,.142-.019h3.288a.281.281,0,0,1,.123.014,3.8,3.8,0,0,1,1.856.54,2.273,2.273,0,0,1,1.023,1.642c.009.066.029.131.045.2a1.881,1.881,0,0,1,0,.546,2.493,2.493,0,0,1-.676,1.473,2.9,2.9,0,0,1-1.53.774c-.3.062-.295.064-.153.34.105.2.209.409.314.614.017.141.014.293.2.338l.1.2c.017.141.013.294.2.338" transform="translate(-729.395 -2.554)" fill="#2a418d"/>
      <path id="Path_3" data-name="Path 3" d="M11.005,4.442c-.016.1.073.161.084.25.087.046.086.127.083.208l.459,1.292a.16.16,0,0,1,.083.208c-.016.1.073.161.084.25.087.046.086.127.083.208L12.34,8.15a.1.1,0,0,1,.052.127c-.127.208-.122.225.1.374a3.785,3.785,0,0,1,.25.667c-.109.238-.1.255.137.373.045.016.037.051.03.085-.119.179-.071.3.125.375l.042.083c-.091.234-.091.234.125.375a1.127,1.127,0,0,1,.138.331c0,.06-.041.064-.084.063-.684-.008-1.368.018-2.052-.013-.165-.381-.267-.783-.408-1.173.032-.051.086-.093.091-.157.007-.1.011-.2-.075-.261a.167.167,0,0,0-.245.067.1.1,0,0,1-.09.039q-1.34,0-2.679,0a.279.279,0,0,1-.1-.011c-.059-.022-.108-.1-.183-.031s-.029.125-.017.19c-.092.416-.276.8-.4,1.208-.012.038-.017.079-.025.118a.584.584,0,0,1-.3.024c-.552,0-1.1,0-1.657,0-.067,0-.138.023-.2-.024l.045-.078a.1.1,0,0,1,.031-.026c.236-.108.246-.144.095-.349l.041-.083a.13.13,0,0,1,.049-.035c.225-.079.24-.145.076-.34l.041-.083a.13.13,0,0,1,.049-.035c.225-.079.24-.145.076-.34l.25-.667A.106.106,0,0,1,5.7,8.917c.236-.108.246-.144.095-.349Q6.359,6.989,6.927,5.41q.46-1.276.922-2.552a.769.769,0,0,0,.023-.118c.017-.077.033-.155.139-.15.706,0,1.411,0,2.117,0,.067,0,.139-.024.2.025l.051.118c.087.046.086.127.083.208l.459,1.292c.087.046.086.127.083.208" transform="translate(-4.707 -2.477)" fill="#2a418d"/>
      <path id="Path_4" data-name="Path 4" d="M564.784,10.208l-.043-.045a.394.394,0,0,0-.325-.326l-.129-.168a.207.207,0,0,1-.123-.168c.034-.164.037-.314-.166-.372l-.1-.208c-.031-.025-.061-.051-.049-.1.115-.175.092-.309-.115-.389a.05.05,0,0,1,0-.054l-.039-.5c-.072-.077-.013-.163-.016-.245q0-2.411,0-4.821a.66.66,0,0,1,.013-.227,6.872,6.872,0,0,1,.911-.016c.366,0,.733-.02,1.1.012a.5.5,0,0,1,.017.225q0,2.276,0,4.553a.639.639,0,0,0,.014.227,1.647,1.647,0,0,0,.056.5c.042.032.078.067.042.125a1.779,1.779,0,0,0,.245.455c.038.29.05.3.292.249l.332.122c.087-.056.159.02.239.028.17.006.341-.012.511.01.09.04.162-.051.248-.036a.435.435,0,0,0,.626-.375c-.009-.051.029-.082.053-.118.24-.018.3-.141.207-.418a2.369,2.369,0,0,1,.083-.415.647.647,0,0,0,.014-.227q0-2.338,0-4.675a.683.683,0,0,1,.013-.227,5.376,5.376,0,0,1,.829-.017c.395,0,.79-.023,1.184.014a.29.29,0,0,1,.016.143q0,2.444,0,4.887a.3.3,0,0,1-.016.143l-.039.414a.472.472,0,0,1-.093.457.7.7,0,0,0-.082.29.64.64,0,0,1-.159.336l-.338.5c-.123.017-.213.065-.207.209l-.173.2c-.066.081-.131.164-.25.166l-.165.138a.725.725,0,0,1-.162.1.287.287,0,0,1-.135.038c-.137-.067-.226-.024-.273.117a.479.479,0,0,1-.3.124c-.287-.183-.3-.179-.62.143a.827.827,0,0,1-.274.023c-.184,0-.367,0-.551,0a.929.929,0,0,1-.414-.046.305.305,0,0,1-.084-.089c-.157-.219-.31-.241-.515-.076-.1.035-.173-.03-.256-.061-.061-.031-.134-.045-.168-.115l-.331-.176a.431.431,0,0,1-.333-.251" transform="translate(-540.136 -2.455)" fill="#2a418d"/>
      <path id="Path_5" data-name="Path 5" d="M390.883.268a6.771,6.771,0,0,1,1.167-.085c.067.037.146-.008.213.033a1.2,1.2,0,0,1,.5.082.2.2,0,0,0,.29.053l.21.083c.07.071.123.193.253.087L393.509.5a.182.182,0,0,1,.207.1.592.592,0,0,0,.252.163.3.3,0,0,1,.209.167l.334.374a.089.089,0,0,1,.066.115c-.072.122-.017.183.1.211a2.07,2.07,0,0,1,.173.417.15.15,0,0,1,.042.209l.038.206a.237.237,0,0,1-.017.227c-.7.01-1.4,0-2.1,0a.124.124,0,0,1-.1-.026.786.786,0,0,0-.332-.621c-.051-.016-.108-.024-.128-.086a1.045,1.045,0,0,0-.374-.124.693.693,0,0,0-.341,0,1.04,1.04,0,0,0-.416.187.71.71,0,0,0-.2.69.208.208,0,0,1,.082.209c.049.124.18.178.246.287.053.068.078.184.208.126l.247.092c.061-.01.115,0,.142.063,0,.13.071.113.151.064l.209.069a1.531,1.531,0,0,1,.747.224c.057.1.1.221.254.125a1.388,1.388,0,0,1,.421.2c.008.054.06.02.084.042l.325.138a.5.5,0,0,1,.335.247,2.32,2.32,0,0,1,.552.824c.1.058.081.158.083.25a.49.49,0,0,0,.04.292.842.842,0,0,1,0,.336l-.039.333a.369.369,0,0,1-.086.374l-.218.491a.693.693,0,0,1-.3.381,3.527,3.527,0,0,1-1,.667.29.29,0,0,1-.143.09,3.325,3.325,0,0,1-1,.18c-.185,0-.37,0-.556,0a2.02,2.02,0,0,1-.527-.035c-.072-.016-.15-.021-.189-.1a2.6,2.6,0,0,1-2.258-2.1,1.251,1.251,0,0,1-.032-.363,1.621,1.621,0,0,1,.453-.019c.5,0,1,0,1.5,0a.373.373,0,0,1,.2.02,1.655,1.655,0,0,0,.143.374.268.268,0,0,1,.111.176.636.636,0,0,0,.5.335,1.016,1.016,0,0,0,1.241-.513.368.368,0,0,0,.017-.119.375.375,0,0,0,0-.258c-.075-.4-.4-.556-.719-.7-.254-.115-.524-.2-.786-.291-.052-.118-.132-.156-.25-.086-.121.006-.218-.074-.333-.093-.064-.087-.1-.255-.25-.084a3.164,3.164,0,0,1-.794-.4c-.042-.085-.036-.243-.206-.134a4.63,4.63,0,0,1-.413-.38.39.39,0,0,1-.169-.246,2.441,2.441,0,0,1-.218-.827.154.154,0,0,1-.028-.139c.037-.118-.009-.242.028-.36A2.247,2.247,0,0,1,390.592.351a.2.2,0,0,0,.291-.083" transform="translate(-372.494 -0.169)" fill="#2a418d"/>
      <path id="Path_6" data-name="Path 6" d="M217.68,2.385a.287.287,0,0,1,.041-.249c.175-.091.107-.238.085-.374l.252-.5c.152-.017.245-.09.238-.255a2.3,2.3,0,0,1,.587-.446c.1.04.154-.016.207-.084a2.106,2.106,0,0,1,.742-.245,8.407,8.407,0,0,1,.912-.1.244.244,0,0,1,.176.038.421.421,0,0,1,.259,0l.122.009a.132.132,0,0,0,.168.032,2.553,2.553,0,0,1,.375.053c.067.167.216.1.336.116l.123.035c.054-.024.088.013.125.042l.167.1a1.026,1.026,0,0,0,.586.445,2.047,2.047,0,0,1,.547.838.159.159,0,0,1,.024.051c-.043.116-.065.229.046.324.108.12-.006.287.087.411a19.591,19.591,0,0,1-2.246,0l.007-.119c.167-.151,0-.187-.087-.25l-.089-.13c-.1-.019-.149-.1-.209-.167-.034-.1-.155-.061-.21-.127-.049-.041-.09-.114-.167-.042l-.019.006-.02,0a1.018,1.018,0,0,0-.422,0c-.123.073-.285.074-.375.206a.417.417,0,0,1-.158.213l-.039.124a2.538,2.538,0,0,1,.014.293.223.223,0,0,1,.013.06.356.356,0,0,0,.382.5.151.151,0,0,1,.1.056.168.168,0,0,0,.2.135l.246.092c.073.1.158.174.294.114a6.669,6.669,0,0,1,.916.3.242.242,0,0,0,.3.117l.205.078a.277.277,0,0,1,.258.119c.022.115.107.134.2.137l.249.164c.016.153.128.209.254.252.106.054.133.174.211.252a.609.609,0,0,1,.209.458l.08.414a1.148,1.148,0,0,1,0,.424,2.476,2.476,0,0,1-1.7,2.217,2.92,2.92,0,0,1-1.052.2c-.181.045-.368-.015-.549.033a3.954,3.954,0,0,1-1.788-.5,2.339,2.339,0,0,1-1.2-1.8c-.009-.094-.083-.178-.042-.278a1.281,1.281,0,0,1,.412-.019c.527,0,1.054,0,1.581,0a.371.371,0,0,1,.2.02.937.937,0,0,0,.926.908.226.226,0,0,1,.249,0,1.052,1.052,0,0,0,.5-.167c.057-.078.1-.167.2-.2.078-.083.073-.2.123-.294a.222.222,0,0,0,.014-.206.265.265,0,0,1-.05-.2c.045-.171-.059-.227-.2-.253a1.447,1.447,0,0,0-.342-.216.2.2,0,0,0-.249-.128l-.086-.024a.168.168,0,0,1-.206-.053.356.356,0,0,0-.21-.072.188.188,0,0,1-.209-.083l-.334-.1c-.061-.133-.142-.214-.294-.114a4.747,4.747,0,0,1-1-.456c-.085.02-.12-.046-.165-.1-.151-.207-.388-.337-.5-.574a2.83,2.83,0,0,1-.065-.313.436.436,0,0,0-.218-.274q0-.062,0-.125c.088-.085-.039-.143-.028-.219a3.938,3.938,0,0,0-.014-.532" transform="translate(-208.545 -0.129)" fill="#2a418d"/>
      <path id="Path_7" data-name="Path 7" d="M945.027,9.433l2.789,0c.083,0,.166,0,.249.006a4.757,4.757,0,0,1,.019.821,5.174,5.174,0,0,1-.015.8,3.11,3.11,0,0,1-.539.014c-.993,0-1.986-.013-2.978.007-.463.01-.927.035-1.391.032a.251.251,0,0,1-.193-.06c-.023-.819,0-1.639-.01-2.458q0-2.845,0-5.69a.669.669,0,0,1,.013-.227.251.251,0,0,1,.142-.018h4.849a.316.316,0,0,1,.1.011,4.268,4.268,0,0,1,.02.785,7.231,7.231,0,0,1-.011.851,1.428,1.428,0,0,1-.413.017c-.868,0-1.736,0-2.6,0-.07.014-.055.07-.055.115q0,.717,0,1.433c0,.045-.016.1.052.118.819,0,1.637,0,2.455,0a.419.419,0,0,1,.224.021h0a12.488,12.488,0,0,1,.011,1.541c-.428.041-.858.007-1.287.019-.477.012-.955-.026-1.432.02l0,0A7.944,7.944,0,0,0,945,8.737a2.6,2.6,0,0,0,.023.7" transform="translate(-903.606 -2.555)" fill="#2a418d"/>
      <path id="Path_8" data-name="Path 8" d="M72.279,237.944q-.918.2-1.835.41c-.336.076-.673.153-1.007.236a.458.458,0,0,1-.162.008.24.24,0,0,1-.063-.191c-.006-.595,0-1.19,0-1.784a.41.41,0,0,1,.021-.1,6.589,6.589,0,0,1,.915-.162c.609-.1,1.221-.189,1.831-.284a1.039,1.039,0,0,0,.344-.043.321.321,0,0,1,.065.252q0,.682,0,1.364c0,.11,0,.224-.105.3" transform="translate(-66.319 -226.182)" fill="#f35e2a"/>
      <path id="Path_9" data-name="Path 9" d="M2.909,247.745c.071.06.043.141.043.214,0,.621,0,1.242,0,1.864a6.238,6.238,0,0,1-.934.242,8.067,8.067,0,0,1-1.025.23,1.007,1.007,0,0,1-.378,0,.8.8,0,0,1-.617-.67,1.091,1.091,0,0,0,0-.376,1.373,1.373,0,0,1,1.079-1.2c.564-.123,1.137-.2,1.706-.3a.819.819,0,0,1,.125,0" transform="translate(0.001 -237.406)" fill="#f35a29"/>
      <path id="Path_10" data-name="Path 10" d="M142.807,228.994a.524.524,0,0,0,.041-.262q0-.826,0-1.651c.5-.069,1-.143,1.5-.206q.6-.077,1.2-.133c.115-.011.224-.078.343-.038a.156.156,0,0,1,.054.11,14.6,14.6,0,0,1-.01,1.555c-.386.121-.79.155-1.183.243-.585.132-1.181.216-1.762.368a1.027,1.027,0,0,1-.184.015" transform="translate(-136.848 -217.232)" fill="#f4632b"/>
      <path id="Path_11" data-name="Path 11" d="M295.55,211.3c-.731.123-1.466.215-2.2.325a13.588,13.588,0,0,1-1.555.216,3.633,3.633,0,0,1-.02-.679c-.007-.268,0-.537-.022-.8l.539-.053c.081-.042.174.007.256-.032l.121-.01c.082-.04.175.005.258-.03l2.119-.177c.081-.044.173.006.254-.033h.248a.144.144,0,0,1,.049.089,7.379,7.379,0,0,1,0,1.1.144.144,0,0,1-.049.089" transform="translate(-279.58 -201.257)" fill="#f46e2e"/>
      <path id="Path_12" data-name="Path 12" d="M219.866,218.048c.03.053.082.093.082.163,0,.408,0,.817,0,1.225a.3.3,0,0,1-.037.1,3.318,3.318,0,0,1-.672.13c-.511.1-1.023.187-1.537.269a7.588,7.588,0,0,1-.919.155.463.463,0,0,1-.044-.26q0-.7,0-1.4l.958-.135c.081-.044.174.008.255-.034a6.16,6.16,0,0,0,.83-.091c.082-.042.174.006.256-.032l.831-.081" transform="translate(-207.691 -208.949)" fill="#f4682c"/>
      <path id="Path_13" data-name="Path 13" d="M382.687,205.538V204.26l.916-.094a.49.49,0,0,1,.254,0c.3-.061.613-.005.914-.079a.643.643,0,0,1,.3,0,.126.126,0,0,0,.165-.07,2.771,2.771,0,0,0,.7.085c.159.059.339-.05.492.06a2.955,2.955,0,0,1,.023.778.156.156,0,0,1-.094.148c-.144.107-.319.051-.477.078-.421.073-.853.088-1.278.139-.5.06-.994.136-1.492.2-.141.019-.283.026-.425.039" transform="translate(-366.718 -195.496)" fill="#f4732f"/>
      <path id="Path_14" data-name="Path 14" d="M470.685,199.092a4.594,4.594,0,0,0,.041-.949c.033-.043.09-.007.126-.038a4.983,4.983,0,0,0,1-.176c.124-.046.257.01.382-.033l.288-.011a1.3,1.3,0,0,1,.314-.016,1.129,1.129,0,0,0,.273-.014l.372-.012a1.071,1.071,0,0,1,.279-.015,1.358,1.358,0,0,0,.309-.015l.082-.012a.194.194,0,0,1,.212-.018c.047.01.1-.012.142.034a2.323,2.323,0,0,1,.017.868c-.02.059-.081.052-.122.077l-.122.008c-.081.042-.174-.011-.255.035l-.869.078a.355.355,0,0,0-.215,0c-.748.086-1.5.176-2.249.208" transform="translate(-451.044 -189.509)" fill="#f57930"/>
      <path id="Path_15" data-name="Path 15" d="M828.614,237.067a.382.382,0,0,0,.365-.139.578.578,0,0,1,.308-.182.224.224,0,0,1,.289.329,1.007,1.007,0,0,1-.38.468c-.072.044-.166.075-.21.173.136.078.228-.016.325-.085.157-.111.236-.32.476-.335.06,0,.11-.156.164-.24a.621.621,0,0,1,.52-.318.216.216,0,0,0,.215-.15,8.329,8.329,0,0,1,.488-.868.206.206,0,0,1,.3-.093c.127.069.041.184-.01.269a7.315,7.315,0,0,0-.772,1.523.421.421,0,0,0,.055.476c.082.083,0,.159-.045.216a.117.117,0,0,1-.2-.011c-.115-.164-.217-.155-.374-.038s-.321.053-.388-.162c-.051-.163-.12-.192-.243-.073a1.122,1.122,0,0,1-.461.251.316.316,0,0,1-.434-.262.459.459,0,0,1,0-.252c.013-.091.021-.154-.111-.09a.358.358,0,0,1-.419-.015c-.068-.058-.1,0-.134.04a2.143,2.143,0,0,0-.365.541c-.051.1-.113.193-.234.136s-.079-.171-.053-.259c.057-.19.131-.376.2-.563l.009-.026a1.6,1.6,0,0,1,.151-.224.768.768,0,0,1,.217-.268c.053-.042.127-.1.2-.022.1.109.2.066.285-.011s.181-.117.27-.032,0,.171-.049.247c-.03.065,0,.066.051.049" transform="translate(-792.739 -225.765)" fill="#2a418d"/>
      <path id="Path_16" data-name="Path 16" d="M937.317,231.48c-.061.077-.12.169-.239.12a.259.259,0,0,1-.135-.308,4,4,0,0,1,.372-1.1c.024-.033,0-.077.029-.112-.032.016-.049.049-.08.063a5.443,5.443,0,0,0-.439.646,1.055,1.055,0,0,1-.221.233.278.278,0,0,1-.212,0,.141.141,0,0,1-.087-.128.465.465,0,0,1,0-.251l.09-.412a.078.078,0,0,0,0-.087.272.272,0,0,1-.048.039,3.983,3.983,0,0,0-.409.723c-.1.2-.177.4-.265.6a.353.353,0,0,1-.049.09c-.067.077-.136.191-.252.118-.1-.063-.075-.182-.034-.282a8.666,8.666,0,0,1,1.347-2.264,2.9,2.9,0,0,1,.368-.407.206.206,0,0,1,.29,0c.082.071.062.17.011.264-.142.262-.278.527-.417.79a.261.261,0,0,0-.044.155c-.013.042-.038.083-.01.128a.148.148,0,0,1,.05-.036,12.287,12.287,0,0,1,1-1.3c.04-.044.073-.11.143-.109.087,0,.194-.049.254.038a.254.254,0,0,1-.009.272c-.207.382-.426.759-.611,1.153a3.39,3.39,0,0,0-.358.988c-.048.123.012.256-.034.38" transform="translate(-896.273 -219.095)" fill="#2a418d"/>
      <path id="Path_17" data-name="Path 17" d="M740.612,233.477c.451-.458.619-1.1,1.036-1.582.072-.084.151-.162.231-.239a.171.171,0,0,1,.241-.017c.078.067.038.145-.022.216a5.593,5.593,0,0,0-.7,1.019.685.685,0,0,0,.266.024c.061,0,.135-.021.175.037.121.178.235.07.359.006.106-.055.227-.091.322.012a.287.287,0,0,1,.015.343,1.138,1.138,0,0,1-.517.506c-.04.021-.127.02-.083.1.031.057.089.044.145.014a1.159,1.159,0,0,0,.416-.312c.127-.168.228-.162.328.01.042.048.012.088-.014.128a.455.455,0,0,1-.157.113,1.677,1.677,0,0,1-.652.394.379.379,0,0,1-.435-.474,1.157,1.157,0,0,1,.2-.489c-.1-.014-.156-.13-.294-.074s-.24.054-.142.28a1.469,1.469,0,0,1-.16,1.192,1.245,1.245,0,0,1-.49.659.262.262,0,0,1-.4-.205,2.049,2.049,0,0,1,.2-1.047c.04-.106.088-.21.133-.315a.39.39,0,0,0,.005-.174c-.01-.041-.039-.08-.008-.124" transform="translate(-709.377 -221.932)" fill="#2a418d"/>
      <path id="Path_18" data-name="Path 18" d="M1114.1,261.789a.134.134,0,0,1-.082-.127.517.517,0,0,1,0-.295,1.338,1.338,0,0,1,.713-.891.3.3,0,0,1,.347.033.256.256,0,0,1,.046.3.163.163,0,0,0,.016.171c-.014.052-.019.107-.048.128a.446.446,0,0,1,.086-.081c.024-.024.054-.073.07-.069.177.051.248-.088.34-.184a.807.807,0,0,1,.372-.233.235.235,0,0,1,.268.052.243.243,0,0,1,.018.271,1.072,1.072,0,0,1-.631.6c-.016.006-.026.03-.034.047s.014.017.022.025a.283.283,0,0,0,.214,0,1.077,1.077,0,0,0,.365-.313.206.206,0,0,1,.34-.026c.041.047.017.09-.009.132-.042.05-.085.1-.131.146l-.025.013a2.414,2.414,0,0,1-.639.382.316.316,0,0,1-.452-.252c-.026-.041-.011-.088-.017-.132,0-.027-.015-.042-.007-.015,0,0-.009.008-.014.012-.194.057-.27.264-.445.347a.8.8,0,0,0-.344.437,2.007,2.007,0,0,1-.439.636.393.393,0,0,1-.462.089c-.125-.074-.123-.343-.062-.489a1.345,1.345,0,0,1,.211-.3c.016-.039.031-.08.083-.083l.451-.259c.01-.009.023-.016.033-.026.033-.031-.008-.019-.015-.023-.045-.019-.1,0-.142-.026" transform="translate(-1066.976 -249.569)" fill="#2a418d"/>
      <path id="Path_19" data-name="Path 19" d="M561.625,198.268q0-.455,0-.911c.077-.053.164-.016.246-.027a2.91,2.91,0,0,0,.465-.015l.209-.014a.854.854,0,0,1,.22-.012h.448a2.188,2.188,0,0,1,.452.017c.094,0,.156.1.255.078a1.144,1.144,0,0,1,.583.127c.129.095.28.023.418.055.2.047.4-.021.6.037a.523.523,0,0,1-.014.491l-.018,0-.018,0a1.463,1.463,0,0,0-.334-.016,1.273,1.273,0,0,0-.3.015c-.126-.008-.241.082-.371.041a.831.831,0,0,0-.34,0l-.247.011a.58.58,0,0,1-.2.015,1,1,0,0,0-.263.015l-.284.042a.572.572,0,0,0-.3,0c-.141-.03-.271.062-.411.037a.473.473,0,0,0-.257,0c-.126-.012-.241.083-.37.04-.052-.032-.119.008-.17-.033" transform="translate(-538.189 -189.052)" fill="#f57f31"/>
      <path id="Path_20" data-name="Path 20" d="M654.232,195.561q0-.249,0-.5-.02-.013-.011-.023a.021.021,0,0,1,.015-.009l.29-.012a.3.3,0,0,1,.195-.089c.091-.014.178-.043.268-.061a.2.2,0,0,1,.12.025l.293-.125a.41.41,0,0,1,.339-.106c.366.012.733.014,1.1.007a3.625,3.625,0,0,0,.746-.024.277.277,0,0,1,.192.039l.294.014c.156.047.324-.028.478.044a1,1,0,0,1-.006.654,1.391,1.391,0,0,1-.386.023H657.5a3.232,3.232,0,0,0-.479.015l-.293.015a.846.846,0,0,1-.218.012h-.441a3.408,3.408,0,0,0-.509.016.932.932,0,0,0-.327.043,1.732,1.732,0,0,0-.376-.017,1.666,1.666,0,0,0-.341.014.735.735,0,0,0-.291.042" transform="translate(-626.916 -186.519)" fill="#f58733"/>
      <path id="Path_21" data-name="Path 21" d="M1081.7,229a5.438,5.438,0,0,0-.292.876c-.061.153.091.08.133.124.165.125.069.214-.043.3-.062.042-.144-.018-.2.04a2.848,2.848,0,0,0-.17.777,1.767,1.767,0,0,0-.049.5c-.025.053-.057.094-.124.086-.073-.035-.166-.051-.167-.161a1.029,1.029,0,0,1,0-.419,2.228,2.228,0,0,1,.082-.541c.033-.114.009-.172-.16-.156-.528.05-.663.483-.882.839-.057.093-.107.191-.169.281s-.111.182-.238.119-.1-.168-.053-.277a2.3,2.3,0,0,1,.265-.457.293.293,0,0,0,.058-.128c-.08-.043-.223.036-.237-.134s.088-.206.208-.229a.98.98,0,0,0,.623-.481,9.884,9.884,0,0,1,.84-.963.548.548,0,0,1,.215-.228.254.254,0,0,1,.338,0,.146.146,0,0,1,.026.231" transform="translate(-1034.284 -219.158)" fill="#2a418d"/>
      <path id="Path_22" data-name="Path 22" d="M510.128,230.351a.936.936,0,0,1,.169-.52,2.7,2.7,0,0,1,.8-.922c.011-.008.02-.023.032-.027.111-.035.247-.084.317.03.061.1-.035.177-.126.241a2.2,2.2,0,0,0-.82,1.05c-.022.061-.062.135-.018.169s.118-.022.171-.061a6.5,6.5,0,0,0,1.1-1.192c.069-.085.124-.181.2-.261s.182-.191.315-.1.059.22-.014.321c-.233.321-.475.635-.7.958a6.5,6.5,0,0,0-.766,1.5c-.021.055-.022.119-.072.168-.067.065-.132.138-.23.083a.178.178,0,0,1-.077-.245,6.547,6.547,0,0,1,.406-.926c-.252.075-.533.441-.685-.062a.349.349,0,0,1,0-.213" transform="translate(-488.824 -219.179)" fill="#2a418d"/>
      <path id="Path_23" data-name="Path 23" d="M938.176,204.827c-.172-.081-.371.015-.541-.082a.483.483,0,0,0-.254,0,5.407,5.407,0,0,1-.706-.081.5.5,0,0,0-.252,0,7.311,7.311,0,0,1-.874-.081.687.687,0,0,0-.3,0c-.142.045-.27-.061-.41-.039a.829.829,0,0,0-.344,0c-.077.032-.133-.041-.2-.042a.777.777,0,0,0-.232-.015c-.057-.007-.122.02-.168-.037a.64.64,0,0,1,.023-.521l.294,0,.029.011a1.189,1.189,0,0,0,.219.009c.19,0,.378.034.568.02a1.278,1.278,0,0,1,.134,0,.768.768,0,0,0,.231.023.289.289,0,0,1,.2.049l.081.012c.081.041.174-.01.255.033a3.267,3.267,0,0,0,.662.052c.068.034.147-.009.214.032.456.056.911.119,1.37.133a.213.213,0,0,1,.043.06.638.638,0,0,1-.039.469" transform="translate(-894.883 -195.411)" fill="#f69836"/>
      <path id="Path_24" data-name="Path 24" d="M1225.616,265.552a1.55,1.55,0,0,1,.7-.705.192.192,0,0,1,.112-.093.256.256,0,0,1-.241.014c-.192-.1-.107-.275-.127-.422-.025-.047.007-.063.042-.077a2.971,2.971,0,0,1,.46-.61c.079-.065.161-.165.279-.054s.007.195-.048.277a1.6,1.6,0,0,1-.15.167c-.035.048-.008.124-.051.142a.3.3,0,0,1,.089-.056,3.114,3.114,0,0,0,.391-.476c.069-.108.174-.213.307-.128s.044.207,0,.311c-.022.049-.046.1-.071.148.088.048.194-.1.245.016a.316.316,0,0,1-.062.309,1.788,1.788,0,0,1-.519.489.486.486,0,0,0-.2.253,2.852,2.852,0,0,1-.4.735.57.57,0,0,1-.529.261c-.114-.009-.181-.049-.2-.163-.046-.109.006-.227-.031-.337" transform="translate(-1174.472 -252.504)" fill="#2a418d"/>
      <path id="Path_25" data-name="Path 25" d="M1131.252,226c.66.109,1.321.209,1.979.329.725.132,1.448.278,2.171.424.5.1,1,.214,1.5.326.092.021.225.024.188.18-.021.089-.054.149-.183.122-.658-.137-1.318-.268-1.98-.385-.615-.109-1.234-.2-1.852-.295-.5-.077-1.01-.146-1.515-.22-.019,0-.035-.021-.053-.032-.057-.151-.081-.329-.29-.357-.036-.048-.005-.073.034-.093" transform="translate(-1083.997 -216.569)" fill="#f7a739"/>
      <path id="Path_26" data-name="Path 26" d="M650.249,232.264a9.287,9.287,0,0,0-.411,1.011c-.027.088-.083.129-.17.107a.169.169,0,0,1-.134-.162.95.95,0,0,1,.1-.411c.062-.171.153-.331.228-.5.043-.094.11-.178.034-.3-.043-.068.019-.136.092-.169a1.253,1.253,0,0,0,.374-.532c0-.049-.039-.041-.067-.056-.15-.081-.166-.214-.044-.318.141-.119.331-.182.4-.387.023-.071.151-.068.184-.031.109.118.216.028.323.025a.592.592,0,0,1,.3,0,.579.579,0,0,1,.273.869,1.506,1.506,0,0,1-1.19.837.435.435,0,0,0-.291.009" transform="translate(-622.428 -220.878)" fill="#2a418d"/>
      <path id="Path_27" data-name="Path 27" d="M690.143,263.293l.043.123a.281.281,0,0,1-.087.13,1.77,1.77,0,0,1-.75.526.323.323,0,0,1-.419-.271c-.039-.082.007-.175-.031-.257-.008-.089-.052-.086-.128-.067a.4.4,0,0,1-.388-.037c-.066-.054-.116,0-.163.063a3.845,3.845,0,0,0-.342.535c-.045.085-.11.151-.2.126s-.067-.122-.073-.2a.823.823,0,0,1,.133-.42,1.981,1.981,0,0,1,.443-.729c.074-.062.165-.1.215-.028.107.157.162.054.252-.01.071-.051.154-.109.261-.037s.038.14.027.214c-.1.086-.012.076.043.082a.274.274,0,0,0,.307-.109.514.514,0,0,1,.245-.175c.134-.047.273-.085.375.04s.006.233-.04.342a1.109,1.109,0,0,1-.6.519.044.044,0,0,0-.02.032c0,.009.014.018.022.027a.281.281,0,0,0,.214,0,.97.97,0,0,0,.341-.288.354.354,0,0,1,.322-.136" transform="translate(-658.907 -251.748)" fill="#2a418d"/>
      <path id="Path_28" data-name="Path 28" d="M567.415,262.948c.066.016.159-.053.2.048s-.04.138-.093.191a.481.481,0,0,1-.651.146c-.08-.036-.1.018-.134.052a1.86,1.86,0,0,0-.332.49.366.366,0,0,1-.594.1c-.141-.19-.233-.112-.359-.026a.277.277,0,0,1-.211,0c-.109,0-.125-.08-.129-.166a.328.328,0,0,1,0-.211,1.154,1.154,0,0,1,.43-.787.146.146,0,0,1,.151-.042.749.749,0,0,0,.38.043c.114-.008.137.075.1.165-.057.152-.117.3-.187.449a.282.282,0,0,0,.11.377,3.881,3.881,0,0,1,.409-.883.5.5,0,0,1,.223-.208c.049-.02.1-.045.131-.007.119.169.217.058.315-.017a.171.171,0,0,1,.242-.007c.1.1,0,.172-.049.25-.031.068.006.063.052.048" transform="translate(-541.508 -251.645)" fill="#2a418d"/>
      <path id="Path_29" data-name="Path 29" d="M847.989,201.441q0,.265,0,.531c-.047.057-.121,0-.172.042l-.2-.04a.9.9,0,0,0-.265-.017h-.276a.744.744,0,0,1-.209-.013l-.209-.015a1.4,1.4,0,0,0-.3-.014,2.036,2.036,0,0,0-.412.017l-.285-.043a2.977,2.977,0,0,0-.468-.015h-.479a.871.871,0,0,1-.22-.012l-.211-.015a.118.118,0,0,1-.078-.069.326.326,0,0,1,.039-.311,1.254,1.254,0,0,1,.222-.009c.587,0,1.174,0,1.761,0,.061,0,.155.057.183-.06a.039.039,0,0,1-.034-.048.866.866,0,0,1,.329,0l.287.014a.737.737,0,0,0,.224.015.663.663,0,0,1,.2.013l.124.012a.868.868,0,0,0,.262.017.648.648,0,0,1,.2.014Z" transform="translate(-808.953 -192.93)" fill="#f69235"/>
      <path id="Path_30" data-name="Path 30" d="M1041.425,213.84l-.041.068c-.047.073-.138.089-.2.149-.066.029-.088.127-.18.114a12.316,12.316,0,0,1-1.629-.167,6.893,6.893,0,0,1-.789-.095.511.511,0,0,0-.255,0l-.161-.039a.521.521,0,0,0-.257,0l-.12-.038a.668.668,0,0,0-.3-.005l-.019.007-.02,0,0-.5a.307.307,0,0,1,.208,0l.161.007c.067.04.147-.005.214.033.893.135,1.794.216,2.684.376.229.041.461.063.692.094" transform="translate(-994.17 -204.409)" fill="#f6a038"/>
      <path id="Path_31" data-name="Path 31" d="M994.832,261.241a.474.474,0,0,1,.075.555,1,1,0,0,0-.159.455c0,.053-.045.141.046.152.059.007.063-.07.083-.122a3.894,3.894,0,0,1,.372-.739c.007-.011.01-.027.019-.036.082-.076.13-.2.279-.177.133.021.04.16.118.207a.041.041,0,0,1,.014.032c0,.012,0,.018,0,.018a1.329,1.329,0,0,0-.272.413.242.242,0,0,1-.08.077,2.148,2.148,0,0,0-.2.46c-.081.2-.415.293-.548.134a.21.21,0,0,0-.328-.047.4.4,0,0,1-.256,0c-.208-.121-.15-.339-.11-.485a1.208,1.208,0,0,1,.7-.895.4.4,0,0,1,.254,0" transform="translate(-952.371 -250.321)" fill="#2a418d"/>
      <path id="Path_32" data-name="Path 32" d="M1031.805,237.184v-.044c.087.016.117-.06.166-.1a.308.308,0,0,1,.257-.1c.167.028.237-.057.308-.2.146-.29.319-.565.479-.848a.214.214,0,0,1,.215-.125c.117.005.156.045.121.163a2.578,2.578,0,0,1-.257.484,4.511,4.511,0,0,0-.586,1.312.31.31,0,0,0,0,.211.17.17,0,0,0,.051.108c.061.065.069.154,0,.195s-.2.11-.249-.008c-.084-.184-.174-.1-.277-.037-.245.156-.368.106-.436-.173a1.249,1.249,0,0,1-.016-.305c0-.033-.018-.064-.017-.1a1,1,0,0,1,.246-.433" transform="translate(-988.513 -225.926)" fill="#2a418d"/>
      <path id="Path_33" data-name="Path 33" d="M1182.486,265.216l.04-.121.26-.43c.073-.121.178-.162.29-.074.09.071.136.035.211-.017s.209-.12.3-.013.008.182-.058.273a1.192,1.192,0,0,0-.34.632.372.372,0,0,0,0,.218c.023.1.1.211,0,.308a.155.155,0,0,1-.178.008.3.3,0,0,1-.149-.3c.005-.076,0-.153.005-.229.016-.053.006-.078-.054-.054-.106.071-.111.216-.213.291-.057.042-.095.13-.187.076a.191.191,0,0,1-.09-.229.393.393,0,0,0,.039-.174l0,0a1.081,1.081,0,0,0,.128-.173" transform="translate(-1132.977 -253.464)" fill="#2a418d"/>
      <path id="Path_34" data-name="Path 34" d="M797.653,263.617l.043-.121c.145-.163.171-.4.341-.546.1-.083.2-.245.337-.026.035.056.095.02.14-.022a.639.639,0,0,1,.148-.1.17.17,0,0,1,.189.027c.1.071,0,.134.01.2-.1.087-.01.075.044.082.056.022.13-.022.174.046.059.117-.04.177-.091.254l0,0c-.171.01-.272.214-.465.168-.026-.006-.063.01-.082,0-.273-.187-.337.065-.443.214-.082.116-.15.243-.222.366a.162.162,0,0,1-.167.085c-.079-.01-.079-.081-.084-.145a.684.684,0,0,1,.084-.35.174.174,0,0,1,.039-.122" transform="translate(-764.247 -251.815)" fill="#2a418d"/>
      <path id="Path_35" data-name="Path 35" d="M1210.362,263.226l-.041.077c-.067-.011-.091.034-.127.08a1.12,1.12,0,0,1-.575.436.323.323,0,0,1-.423-.237,1.238,1.238,0,0,1,.685-1.14.264.264,0,0,1,.31.043c.083.09.048.2.034.295a.781.781,0,0,1-.078.186c-.151.194-.2.2-.376.064-.055.013-.066.066-.086.105-.046.086-.165.194-.067.269.082.062.177-.067.255-.129.11-.087.166-.238.321-.272.155,0,.093.162.167.223" transform="translate(-1158.727 -251.462)" fill="#2a418d"/>
      <path id="Path_36" data-name="Path 36" d="M542.1,262.666c-.046-.2.094-.344.179-.49a.745.745,0,0,1,.637-.469.238.238,0,0,1,.235.127.324.324,0,0,1,0,.21,2.2,2.2,0,0,1-.389.8.554.554,0,0,1-.446.286c-.123,0-.2-.041-.215-.166a.534.534,0,0,1,0-.3" transform="translate(-519.457 -250.787)" fill="#2a418d"/>
      <path id="Path_37" data-name="Path 37" d="M1091.379,2.261q0,4.185,0,8.37c-.069-.061-.04-.143-.041-.215q0-3.992,0-7.985c0-.072-.03-.154.041-.215.014.01.019.019.015.03s-.009.015-.013.015" transform="translate(-1045.79 -2.124)" fill="#e4e7f1"/>
      <path id="Path_38" data-name="Path 38" d="M761.445,2.967q0,4.017,0,8.034l-.023.015L761.4,11c0-.326.006-.652.007-.978q0-3.529,0-7.058.021-.032.04,0" transform="translate(-729.622 -2.828)" fill="#44589b"/>
      <path id="Path_39" data-name="Path 39" d="M942.552,2.96q0,2.81,0,5.62c0,.1,0,.194-.006.291h-.029q0-1.737-.006-3.475c0-.812,0-1.623,0-2.435q.021-.032.043,0" transform="translate(-903.175 -2.822)" fill="#8794bf"/>
      <path id="Path_40" data-name="Path 40" d="M948.157,203.549a3.007,3.007,0,0,1-.624-.041l0-.028,4-.008c.306,0,.611,0,.917-.007a.022.022,0,0,1,.039,0c-.063.085-.154.044-.231.045q-1.78.007-3.559.008c-.176.091-.362-.008-.54.03" transform="translate(-907.991 -194.965)" fill="#afb7d4"/>
      <path id="Path_41" data-name="Path 41" d="M732.456,8.121q0-2.176,0-4.352c0-.271,0-.541-.005-.812.015-.021.03-.019.043,0q0,2.493,0,4.987c0,.06.017.126-.036.176" transform="translate(-701.881 -2.819)" fill="#94a0c6"/>
      <path id="Path_42" data-name="Path 42" d="M563.612,2.275q0,2.467,0,4.935c0,.062,0,.125-.006.187q-.019.024-.033,0,0-2.495,0-4.989c0-.059-.021-.127.041-.173.015.009.02.019.015.029s-.009.015-.014.015" transform="translate(-540.049 -2.138)" fill="#d7dbea"/>
      <path id="Path_43" data-name="Path 43" d="M942.628,2.133h-.043c.048-.075.125-.047.19-.047q2.393,0,4.785,0c.065,0,.141-.028.19.046a.024.024,0,0,1-.04,0h-5.083" transform="translate(-903.251 -1.995)" fill="#d7dbea"/>
      <path id="Path_44" data-name="Path 44" d="M683.642,2.964q0,2.4-.006,4.8a.606.606,0,0,1-.033.325c0-.173-.007-.346-.007-.52q0-2.3,0-4.6.021-.032.043,0" transform="translate(-655.07 -2.826)" fill="#8794bf"/>
      <path id="Path_45" data-name="Path 45" d="M612.532,7.96c-.061-.073-.033-.16-.033-.24q0-2.376,0-4.753c.013-.022.026-.021.04,0q0,2.5,0,4.993" transform="translate(-586.933 -2.828)" fill="#374c94"/>
      <path id="Path_46" data-name="Path 46" d="M1217.7,274.111c-.167.13-.253.344-.453.438-.059.028-.116.1-.184.056s-.046-.142-.022-.192a1.177,1.177,0,0,1,.265-.41c.056.248.108.257.346.07l.048.037" transform="translate(-1166.231 -262.57)" fill="#fff"/>
      <path id="Path_47" data-name="Path 47" d="M1035.757,245.768c.093-.008.149.026.149.139,0,.145-.189.374-.314.358a.161.161,0,0,1-.147-.17.351.351,0,0,1,.312-.327" transform="translate(-992.236 -235.511)" fill="#2b428e"/>
      <path id="Path_48" data-name="Path 48" d="M761.665,2.172l-.02,0-.02,0c.041-.068.11-.047.169-.047q1.619,0,3.239,0c.06,0,.126-.015.177.035l-3.253.006c-.1,0-.194,0-.292.007" transform="translate(-729.843 -2.033)" fill="#d7dbea"/>
      <path id="Path_49" data-name="Path 49" d="M1092.519,203.656q1.6,0,3.209,0c.071,0,.153-.037.214.035q-1.628,0-3.255,0c-.058,0-.127.027-.168-.044" transform="translate(-1046.929 -195.153)" fill="#b0b8d4"/>
      <path id="Path_50" data-name="Path 50" d="M1092.469,2.169c0-.015,0-.03,0-.045q1.548,0,3.1,0c.067,0,.14-.019.2.035l-2.939.006c-.118,0-.236,0-.354,0" transform="translate(-1046.88 -2.032)" fill="#d7dbea"/>
      <path id="Path_51" data-name="Path 51" d="M139.709,164.025c-.016-.123.034-.175.161-.165.108.008.216-.021.223.153.006.142.107.3-.127.349a.627.627,0,0,1-.094-.286c-.041-.06-.121,0-.164-.051" transform="translate(-133.876 -157.021)" fill="#2a418d"/>
      <path id="Path_52" data-name="Path 52" d="M71.74,167.313c.056.014.127-.023.164.051l-2.856-.006c-.09,0-.18,0-.271-.007.019-.088.072-.062.125-.038H71.74" transform="translate(-65.907 -160.309)" fill="#5f70a9"/>
      <path id="Path_53" data-name="Path 53" d="M992.226,41.728l2.768-.006c.09,0,.18,0,.27-.007a.024.024,0,0,1,.04,0c-.063.083-.154.045-.232.045-.948,0-1.9,0-2.845,0q-.024-.012-.017-.025c0-.009.01-.013.015-.013" transform="translate(-950.805 -39.965)" fill="#d7dbea"/>
      <path id="Path_54" data-name="Path 54" d="M473.411,80.714l-.751-.264c.011-.067.037-.129.118-.1a4.493,4.493,0,0,0,.53.139.17.17,0,0,1,.145.21.028.028,0,0,1-.042.013" transform="translate(-452.936 -76.992)" fill="#fff"/>
      <path id="Path_55" data-name="Path 55" d="M992.468,119.938c.062-.066.143-.039.216-.039q1.245,0,2.489,0,.024.013.016.026t-.015.014l-2.706,0" transform="translate(-951.053 -114.89)" fill="#44589b"/>
      <path id="Path_56" data-name="Path 56" d="M994.936,81.995l-2.706-.006c-.015-.009-.02-.018-.014-.026s.011-.012.016-.012q1.245,0,2.49,0c.072,0,.154-.029.214.042" transform="translate(-950.81 -78.528)" fill="#f2f3f8"/>
      <path id="Path_57" data-name="Path 57" d="M942.51,144.957h.029q0,1.227.009,2.453c-.011.019-.024.023-.042.009h0l.007-2.461" transform="translate(-903.173 -138.908)" fill="#8794bf"/>
      <path id="Path_58" data-name="Path 58" d="M748.225,211.318l.372-.013a.262.262,0,0,1,.174-.057c.589-.005,1.177-.008,1.766,0a.267.267,0,0,1,.12.031.052.052,0,0,1,.028.068h-2.466c-.012-.01-.015-.018-.009-.024a.022.022,0,0,1,.016-.008" transform="translate(-716.984 -202.428)" fill="#fce3ce"/>
      <path id="Path_59" data-name="Path 59" d="M337.292,10.7c-.022.014-.044.041-.066.041a.8.8,0,0,1-.52-.486.052.052,0,0,1,.039,0c.067-.012.1.031.126.081a1.754,1.754,0,0,1,.421.366" transform="translate(-322.655 -9.824)" fill="#2a418d"/>
      <path id="Path_60" data-name="Path 60" d="M80.009,2.169l-2.371,0a.032.032,0,0,1-.011-.031c0-.011.005-.016.008-.016q1.1,0,2.2,0c.059,0,.128-.022.169.047" transform="translate(-74.388 -2.03)" fill="#d7dbea"/>
      <path id="Path_61" data-name="Path 61" d="M269.43,62.512c-.233.131-.307-.093-.427-.2-.1-.092-.083-.2.007-.3.116.009.068.128.12.18.013.1.1.146.169.2.078,0,.138.024.131.119" transform="translate(-257.711 -59.422)" fill="#2a418d"/>
      <path id="Path_62" data-name="Path 62" d="M313.8,59.951h2.246c-.033.065-.095.047-.147.047q-.976,0-1.952,0c-.052,0-.114.018-.147-.047" transform="translate(-300.702 -57.449)" fill="#bcc3db"/>
      <path id="Path_63" data-name="Path 63" d="M484.738,59.718l2.2,0c.014-.018.028-.017.042,0-.038.058-.1.043-.15.043q-.975,0-1.949,0c-.052,0-.114.018-.146-.047" transform="translate(-464.51 -57.216)" fill="#bcc3db"/>
      <path id="Path_64" data-name="Path 64" d="M661.619,150.163c.212-.045.348-.223.54-.3.108.125.065.215-.072.268a.843.843,0,0,0-.213.119c-.12.093-.214.073-.256-.085" transform="translate(-634.01 -143.606)" fill="#2a418d"/>
      <path id="Path_65" data-name="Path 65" d="M220.108,143.957h-2.2c.014-.061.063-.041.1-.041q1,0,2,0c.037,0,.086-.018.1.041" transform="translate(-208.819 -137.907)" fill="#374c94"/>
      <path id="Path_66" data-name="Path 66" d="M155.713,202.868c.642,0,1.284,0,1.925-.008.071,0,.153.035.211-.042.028.141-.084.082-.133.083-.533,0-1.066.006-1.6,0a.782.782,0,0,1-.4-.033" transform="translate(-149.215 -194.355)" fill="#afb7d4"/>
      <path id="Path_67" data-name="Path 67" d="M219.931,75.041a.206.206,0,0,1,.249.2c.022.129.109.248.034.385a1.435,1.435,0,0,1-.283-.588" transform="translate(-210.753 -71.909)" fill="#2a418d"/>
      <path id="Path_68" data-name="Path 68" d="M391.009,143.956h-2.155c.013-.061.063-.041.1-.041q.978,0,1.956,0c.036,0,.086-.019.1.041" transform="translate(-372.627 -137.906)" fill="#384d94"/>
      <path id="Path_69" data-name="Path 69" d="M4.913,203.731H7.074c-.026.058-.079.047-.125.047H5.038c-.046,0-.1.012-.125-.047" transform="translate(-4.708 -195.229)" fill="#b0b8d4"/>
      <path id="Path_70" data-name="Path 70" d="M14.109,170.85c.2-.026.151.119.16.229s-.054.156-.162.147c-.041,0-.083,0-.124,0a1.467,1.467,0,0,1,.126-.375" transform="translate(-13.399 -163.717)" fill="#2a418d"/>
      <path id="Path_71" data-name="Path 71" d="M10.11,181.839c.2-.024.151.119.16.229s-.054.156-.162.147c-.041,0-.082,0-.124,0a1.436,1.436,0,0,1,.126-.375" transform="translate(-9.567 -174.248)" fill="#2a418d"/>
      <path id="Path_72" data-name="Path 72" d="M677.026,135.995a.315.315,0,0,1-.056.479c-.082.044-.109-.019-.151-.061l.207-.418" transform="translate(-648.576 -130.32)" fill="#2a418d"/>
      <path id="Path_73" data-name="Path 73" d="M683.716,2.208h-.043c.034-.061.094-.048.148-.048H685.6c.054,0,.113-.013.148.048h-2.036Z" transform="translate(-655.144 -2.07)" fill="#d7dbea"/>
      <path id="Path_74" data-name="Path 74" d="M566.669,2.17l-.02,0-.02,0-2,0q0-.022,0-.044.936,0,1.872,0c.059,0,.128-.022.169.047" transform="translate(-541.066 -2.031)" fill="#d7dbea"/>
      <path id="Path_75" data-name="Path 75" d="M691.144,193.944h-1.916q-.039-.023.006-.032l.116-.046c.059,0,.121-.01.168.042h1.544c.045-.03.076-.024.083.035" transform="translate(-660.45 -185.776)" fill="#fcf1e9"/>
      <path id="Path_76" data-name="Path 76" d="M23.1,145.957c.149,0,.166.108.155.213-.018.171-.153.166-.281.162a1.459,1.459,0,0,1,.126-.375" transform="translate(-22.02 -139.866)" fill="#2a418d"/>
      <path id="Path_77" data-name="Path 77" d="M6.111,192.884c.149,0,.166.108.155.213-.018.171-.153.166-.281.162a1.459,1.459,0,0,1,.126-.375" transform="translate(-5.735 -184.835)" fill="#2a418d"/>
      <path id="Path_78" data-name="Path 78" d="M991.534,122.893c-.051-.018-.046-.063-.046-.1q0-.809,0-1.617c0-.04,0-.085.045-.105q0,.913,0,1.826" transform="translate(-950.113 -116.015)" fill="#8794bf"/>
      <path id="Path_79" data-name="Path 79" d="M729.506,137.427l.093-.457c.083,0,.176.019.148.12-.038.135.012.35-.241.338" transform="translate(-699.064 -131.254)" fill="#fff"/>
      <path id="Path_80" data-name="Path 80" d="M189.573,164.3c-.086-.024-.233.068-.245-.089-.007-.093-.106-.261.108-.284a1.415,1.415,0,0,1,.137.373" transform="translate(-181.399 -157.088)" fill="#2a418d"/>
      <path id="Path_81" data-name="Path 81" d="M193.649,175.287c-.084-.027-.237.07-.237-.106,0-.093-.095-.252.112-.269a.936.936,0,0,1,.125.375" transform="translate(-185.32 -167.613)" fill="#2a418d"/>
      <path id="Path_82" data-name="Path 82" d="M991.536,43.921a.067.067,0,0,0,0,.038c-.05-.019-.046-.063-.046-.1q0-.745,0-1.489c0-.041,0-.084.047-.1a.094.094,0,0,0,0,.039q0,.811,0,1.621" transform="translate(-950.113 -40.497)" fill="#8794bf"/>
      <path id="Path_83" data-name="Path 83" d="M620.852,149.115c-.052.153-.169.1-.248.056-.129-.072-.1-.192-.044-.3l.122.088a.244.244,0,0,1,.167.128.224.224,0,0,0,0,.034" transform="translate(-594.619 -142.654)" fill="#2a418d"/>
      <path id="Path_84" data-name="Path 84" d="M1065.449,4.864l-.02,0-.02,0V3.251a.065.065,0,0,1,.04,0V4.864" transform="translate(-1020.95 -3.112)" fill="#5164a2"/>
      <path id="Path_85" data-name="Path 85" d="M1065.428,166.7h-.019l-.019,0v-1.611c.059.014.042.063.042.1q0,.757,0,1.513" transform="translate(-1020.931 -158.198)" fill="#5164a2"/>
      <path id="Path_86" data-name="Path 86" d="M363.072,117.4l-.209-.458a.186.186,0,0,1,.233.21c0,.06.029.08.056.116.076.1.016.13-.081.132" transform="translate(-347.721 -112.064)" fill="#fff"/>
      <path id="Path_87" data-name="Path 87" d="M180.949,139.343c-.1.009-.2-.012-.233-.123s-.02-.208.108-.252a.062.062,0,0,1,.055.082c-.022.108.108.18.07.293" transform="translate(-173.163 -133.169)" fill="#2a418d"/>
      <path id="Path_88" data-name="Path 88" d="M1057.292,84.693a.059.059,0,0,0,0-.04l0-1.538c.045.023.046.065.046.106q0,.683,0,1.365c0,.042,0,.083-.047.105" transform="translate(-1013.171 -79.648)" fill="#cacfe2"/>
      <path id="Path_89" data-name="Path 89" d="M197.943,186.272c-.1.009-.2-.012-.233-.123s-.021-.208.108-.252a.944.944,0,0,1,.125.375" transform="translate(-189.448 -178.14)" fill="#2a418d"/>
      <path id="Path_90" data-name="Path 90" d="M581.832,176.906c.325,0,.325,0,.325.326a1.108,1.108,0,0,1-.325-.326" transform="translate(-557.552 -169.524)" fill="#2a418d"/>
      <path id="Path_91" data-name="Path 91" d="M571.788,159.934c.264.008.287.052.2.379-.068.007-.076-.038-.078-.089-.038-.1-.127-.174-.123-.29" transform="translate(-547.928 -153.26)" fill="#2a418d"/>
      <path id="Path_92" data-name="Path 92" d="M565.495,142.959c.305.094.319.139.126.417a.136.136,0,0,1-.057-.167l-.04-.126c-.009-.042-.069-.071-.029-.124" transform="translate(-541.884 -136.993)" fill="#2a418d"/>
      <path id="Path_93" data-name="Path 93" d="M660.594,149.188c.078.125.163.154.276.034a.3.3,0,0,1,.142-.076c.156-.037.169-.133.122-.261l.041-.042c.089.178.051.3-.153.356a.333.333,0,0,0-.122.073c-.14.122-.256.106-.351-.054.006-.023.018-.038.045-.03" transform="translate(-632.985 -142.632)" fill="#2a418d"/>
      <path id="Path_94" data-name="Path 94" d="M1126.33,227.768a.387.387,0,0,1,.213-.13c.245.047.284.1.3.381l-.093-.043c-.005-.261-.124-.316-.372-.175a.059.059,0,0,1-.044-.034" transform="translate(-1079.329 -218.139)" fill="#f5efea"/>
      <path id="Path_95" data-name="Path 95" d="M723.74,155.213a.739.739,0,0,1,.159-.336c.141.222.1.313-.159.336" transform="translate(-693.539 -148.414)" fill="#fff"/>
      <path id="Path_96" data-name="Path 96" d="M525.456,176.081l.3-.381c.032.256-.065.381-.3.381" transform="translate(-503.529 -168.368)" fill="#fff"/>
      <path id="Path_97" data-name="Path 97" d="M516.871,98.575l-.335-.247c.058-.128.141-.094.2-.016s.161.139.132.263" transform="translate(-494.981 -94.143)" fill="#fff"/>
      <path id="Path_98" data-name="Path 98" d="M228.23,21.04a.19.19,0,0,1-.009.245c-.078.085-.152.019-.229.009a.89.89,0,0,1,.238-.255" transform="translate(-218.478 -20.162)" fill="#2a418d"/>
      <path id="Path_99" data-name="Path 99" d="M700.55,184.995c.1-.035.135-.159.25-.166a.143.143,0,0,1-.045.228.132.132,0,0,1-.205-.062" transform="translate(-671.316 -177.116)" fill="#fff"/>
      <path id="Path_100" data-name="Path 100" d="M219.837,39.154c.146.308.143.319-.085.374-.033-.139.063-.248.085-.374" transform="translate(-210.575 -37.52)" fill="#2a418d"/>
      <path id="Path_101" data-name="Path 101" d="M64.989,165.19c-.043.007-.093-.006-.125.038-.072.018-.01.114-.078.134-.108-.064-.125-.149-.031-.231s.187-.079.235.06" transform="translate(-61.994 -158.186)" fill="#2a418d"/>
      <path id="Path_102" data-name="Path 102" d="M312.918,134.436c.085.01.181-.08.256.038.064.1-.031.146-.058.216l-.2-.253" transform="translate(-299.86 -128.803)" fill="#2a418d"/>
      <path id="Path_103" data-name="Path 103" d="M266.692,113.268c.044-.071.087-.154.19-.112s.112.131.1.226l-.294-.114" transform="translate(-255.563 -108.423)" fill="#2a418d"/>
      <path id="Path_104" data-name="Path 104" d="M874.781,163.154c-.26-.008-.277-.038-.2-.338a1.418,1.418,0,0,1,.2.338" transform="translate(-838.047 -156.022)" fill="#2a418d"/>
      <path id="Path_105" data-name="Path 105" d="M334.958,92.6l-.25-.139c.011-.067.034-.126.119-.1.11.037.2.092.172.235a.024.024,0,0,1-.04,0" transform="translate(-320.741 -88.501)" fill="#fff"/>
      <path id="Path_106" data-name="Path 106" d="M590.567,185.8l.333.251c-.056.118-.138.085-.194.014s-.164-.14-.139-.265" transform="translate(-565.92 -178.048)" fill="#fff"/>
      <path id="Path_107" data-name="Path 107" d="M867.783,150.176c-.26-.008-.277-.038-.2-.338l.2.338" transform="translate(-831.342 -143.585)" fill="#2a418d"/>
      <path id="Path_108" data-name="Path 108" d="M408.709,99.261c.012-.089.055-.141.148-.1.123.05.08.148.058.237-.09-.011-.141-.084-.206-.134" transform="translate(-391.654 -95.008)" fill="#2a418d"/>
      <path id="Path_109" data-name="Path 109" d="M311.881,51.071c.108-.007.213.011.234.135.017.1-.067.115-.147.116l-.087-.25" transform="translate(-298.866 -48.939)" fill="#2a418d"/>
      <path id="Path_110" data-name="Path 110" d="M1253.418,43.319c-.062.027-.134.078-.183,0a.189.189,0,0,1,.016-.246.553.553,0,0,1,.167.25" transform="translate(-1200.901 -41.272)" fill="#2a418d"/>
      <path id="Path_111" data-name="Path 111" d="M432.673,111.346c0-.079.014-.165.114-.149.124.02.143.125.136.233l-.25-.084" transform="translate(-414.618 -106.555)" fill="#2a418d"/>
      <path id="Path_112" data-name="Path 112" d="M1268.511,115.291c-.11-.012-.124-.088-.116-.176s.076-.118.158-.115a.485.485,0,0,1-.042.292" transform="translate(-1215.464 -110.2)" fill="#2a418d"/>
      <path id="Path_113" data-name="Path 113" d="M294.015,80.337c-.157.14-.239.109-.294-.114a.573.573,0,0,1,.294.114" transform="translate(-281.464 -76.875)" fill="#2a418d"/>
      <path id="Path_114" data-name="Path 114" d="M433.992,2.294a.169.169,0,0,1-.117.189c-.088.029-.13-.047-.174-.106a.468.468,0,0,1,.291-.083" transform="translate(-415.603 -2.196)" fill="#2a418d"/>
      <path id="Path_115" data-name="Path 115" d="M537.795,155.347l.087-.374q.215.223-.087.374" transform="translate(-515.353 -148.506)" fill="#fff"/>
      <path id="Path_116" data-name="Path 116" d="M446.649,116.285c.039-.064.079-.139.168-.117.108.027.079.124.082.2a.476.476,0,0,1-.25-.086" transform="translate(-428.011 -111.317)" fill="#2a418d"/>
      <path id="Path_117" data-name="Path 117" d="M277.815,70.245l-.131-.119c.143-.1.25-.032.294.2-.042.033-.059-.008-.084-.028l-.079-.05" transform="translate(-266.096 -67.155)" fill="#fff"/>
      <path id="Path_118" data-name="Path 118" d="M709.6,174.3c-.077-.067-.049-.132,0-.2s.133-.052.2-.013a.86.86,0,0,1-.207.209" transform="translate(-679.94 -166.794)" fill="#2a418d"/>
      <path id="Path_119" data-name="Path 119" d="M351.575,105.184c-.269,0-.3-.031-.254-.252a1.254,1.254,0,0,1,.254.252" transform="translate(-336.643 -100.553)" fill="#2a418d"/>
      <path id="Path_120" data-name="Path 120" d="M526.9,30.284c-.085.089-.139.015-.182-.044-.054-.074-.012-.129.061-.164.034-.006.049.009.044.043.007.064.088.094.077.166" transform="translate(-504.716 -28.819)" fill="#2a418d"/>
      <path id="Path_121" data-name="Path 121" d="M490.646,88.919l.042-.013.208.1c-.008.068-.042.123-.114.109a.167.167,0,0,1-.136-.193" transform="translate(-470.171 -85.196)" fill="#2a418d"/>
      <path id="Path_122" data-name="Path 122" d="M323.005,90.325c-.194.123-.244.1-.3-.117a.8.8,0,0,1,.3.117" transform="translate(-309.243 -86.444)" fill="#2a418d"/>
      <path id="Path_123" data-name="Path 123" d="M319.047,3.5c-.264.106-.285.1-.336-.116l.336.116" transform="translate(-305.411 -3.24)" fill="#2a418d"/>
      <path id="Path_124" data-name="Path 124" d="M362.111,42.377c-.258-.06-.109-.211-.075-.336.07,0,.066.039.047.086-.011.086.068.161.028.25" transform="translate(-346.858 -40.286)" fill="#2a418d"/>
      <path id="Path_125" data-name="Path 125" d="M514.793,12.719a.47.47,0,0,1-.209-.167c.029-.061.065-.1.14-.062.106.053.062.148.069.229" transform="translate(-493.111 -11.954)" fill="#fff"/>
      <path id="Path_126" data-name="Path 126" d="M537.887,125.327c-.07-.069-.036-.173-.083-.25.053-.023.111-.075.156,0,.059.1-.024.172-.072.247" transform="translate(-515.362 -119.82)" fill="#fff"/>
      <path id="Path_127" data-name="Path 127" d="M485.98,3.121c-.157.165-.2.157-.29-.053a.7.7,0,0,1,.29.053" transform="translate(-465.422 -2.939)" fill="#2a418d"/>
      <path id="Path_128" data-name="Path 128" d="M572.985,166.883l.078.089.089.161a.215.215,0,0,1-.233-.125c-.031-.069.015-.1.066-.125" transform="translate(-549.001 -159.919)" fill="#fff"/>
      <path id="Path_129" data-name="Path 129" d="M497.9,6.393c-.013.065-.046.122-.119.106a.167.167,0,0,1-.135-.193c.1-.014.162.079.253.087" transform="translate(-476.876 -6.042)" fill="#2a418d"/>
      <path id="Path_130" data-name="Path 130" d="M441.862,60.879c-.036-.066-.1-.123-.082-.209.1-.049.154.014.182.1s-.035.1-.1.113" transform="translate(-423.342 -58.122)" fill="#fff"/>
      <path id="Path_131" data-name="Path 131" d="M535.846,44.9l-.042-.209a.11.11,0,0,1,.171.08c.024.1-.039.133-.13.129" transform="translate(-513.445 -42.804)" fill="#fff"/>
      <path id="Path_132" data-name="Path 132" d="M449.876,73.082c-.029.062-.075.1-.144.072-.086-.04-.062-.125-.064-.2.087.012.138.085.208.126" transform="translate(-430.902 -69.912)" fill="#2a418d"/>
      <path id="Path_133" data-name="Path 133" d="M460.757,75.842c-.018-.067-.11-.011-.13-.077.006-.074.05-.115.121-.1.1.017.089.1.089.177a.054.054,0,0,1-.081,0" transform="translate(-441.405 -72.502)" fill="#fff"/>
      <path id="Path_134" data-name="Path 134" d="M565.3,148.953a.3.3,0,0,1,.057.167l.026.083a.145.145,0,0,1-.172-.116.1.1,0,0,1,.089-.134" transform="translate(-541.623 -142.737)" fill="#fff"/>
      <path id="Path_135" data-name="Path 135" d="M527.674,26.287l-.044-.043-.048-.118c.071-.075.134-.064.181.023s-.008.124-.088.138" transform="translate(-505.566 -24.988)" fill="#fff"/>
      <path id="Path_136" data-name="Path 136" d="M962.541,204.776a1.473,1.473,0,0,1,.54-.03v.071l-.206,0c-.066-.044-.145,0-.212-.033l-.122-.013" transform="translate(-922.375 -196.192)" fill="#fff"/>
      <path id="Path_137" data-name="Path 137" d="M298.761,125.212c.2-.108.226-.1.249.128l-.249-.128" transform="translate(-286.294 -119.924)" fill="#2a418d"/>
      <path id="Path_138" data-name="Path 138" d="M1239.421,291.242a1.239,1.239,0,0,0,.409-.115.6.6,0,0,1-.28.194l-.129-.079" transform="translate(-1187.701 -278.978)" fill="#fff"/>
      <path id="Path_139" data-name="Path 139" d="M304.759,44c.106.01.151.1.209.167-.2.11-.193-.044-.209-.167" transform="translate(-292.042 -42.162)" fill="#fff"/>
      <path id="Path_140" data-name="Path 140" d="M462.733,79.947l.081,0L462.9,80c-.011.08-.054.135-.135.1s-.1-.088-.029-.155" transform="translate(-443.382 -76.608)" fill="#2a418d"/>
      <path id="Path_141" data-name="Path 141" d="M503.811,5.948l-.207-.1c.014-.074.062-.11.132-.09.1.028.075.115.074.189" transform="translate(-482.589 -5.514)" fill="#fff"/>
      <path id="Path_142" data-name="Path 142" d="M822.167,211.368h-.709a.042.042,0,0,1,.019-.062,1.405,1.405,0,0,1,.665,0,.048.048,0,0,1,.025.062" transform="translate(-787.173 -202.45)" fill="#fabe89"/>
      <path id="Path_143" data-name="Path 143" d="M394.547,86.9a.457.457,0,0,1,.169.246c-.192.011-.189-.112-.169-.246" transform="translate(-378.074 -83.27)" fill="#fff"/>
      <path id="Path_144" data-name="Path 144" d="M888.022,189.048c-.076,0-.151.007-.185-.085-.026-.071.017-.1.068-.125a.563.563,0,0,1,.117.21" transform="translate(-850.781 -180.958)" fill="#2a418d"/>
      <path id="Path_145" data-name="Path 145" d="M732.915,212.966l-.006.031-.667,0q-.018-.014-.009-.023a.02.02,0,0,1,.015-.008l.668,0" transform="translate(-701.674 -204.076)" fill="#fac195"/>
      <path id="Path_146" data-name="Path 146" d="M733.654,192.322l-.083-.035c.114-.212.181-.082.249.035h-.166" transform="translate(-702.959 -184.154)" fill="#fff"/>
      <path id="Path_147" data-name="Path 147" d="M183,135.476l-.055-.082c.026-.05-.032-.081-.028-.126.049-.028.1-.054.139.012s-.008.139-.056.2" transform="translate(-175.288 -129.595)" fill="#fff"/>
      <path id="Path_148" data-name="Path 148" d="M747.034,195.935c-.152-.022-.31.036-.458-.037l.618-.007h.013a.045.045,0,0,1-.015.059.136.136,0,0,1-.158-.016" transform="translate(-715.422 -187.717)" fill="#f79f58"/>
      <path id="Path_149" data-name="Path 149" d="M1246.186,276.733a.524.524,0,0,1-.222.223c.015-.151.125-.215.183-.31l.038.087" transform="translate(-1193.971 -265.102)" fill="#fff"/>
      <path id="Path_150" data-name="Path 150" d="M149.019,41.621l-.083-.208c.049-.028.1-.054.139.012s-.008.139-.056.2" transform="translate(-142.721 -39.656)" fill="#fff"/>
      <path id="Path_151" data-name="Path 151" d="M553.839,196.013h-.206c0-.055,0-.112.077-.117s.125,0,.132.084q.021.013.013.023a.021.021,0,0,1-.016.01" transform="translate(-530.529 -187.721)" fill="#fff"/>
      <path id="Path_152" data-name="Path 152" d="M310.918,157.481a.44.44,0,0,1-.2.2c.033-.1-.006-.278.2-.2" transform="translate(-297.748 -150.892)" fill="#fff"/>
      <path id="Path_153" data-name="Path 153" d="M170.013,99.531l-.083-.208c.049-.028.1-.054.139.012s-.008.139-.056.2" transform="translate(-162.839 -95.149)" fill="#fff"/>
      <path id="Path_154" data-name="Path 154" d="M153.019,52.6l-.083-.208c.049-.028.1-.054.139.012s-.008.139-.056.2" transform="translate(-146.554 -50.181)" fill="#fff"/>
      <path id="Path_155" data-name="Path 155" d="M136.024,5.676l-.083-.208c.049-.028.1-.054.139.012s-.008.139-.056.2" transform="translate(-130.268 -5.211)" fill="#fff"/>
      <path id="Path_156" data-name="Path 156" d="M271.895,45.217a.336.336,0,0,1,.158-.213c.1.182-.027.2-.158.213" transform="translate(-260.549 -43.126)" fill="#fff"/>
      <path id="Path_157" data-name="Path 157" d="M247.971,8.293c-.016.159-.07.225-.207.084.068-.032.121-.1.207-.084" transform="translate(-237.425 -7.945)" fill="#2a418d"/>
      <path id="Path_158" data-name="Path 158" d="M218.767,67.739c.068.006.121.034.114.109s-.065.053-.11.057a.157.157,0,0,1-.039-.164c.01-.022.022-.024.035,0" transform="translate(-209.594 -64.898)" fill="#2a418d"/>
      <path id="Path_159" data-name="Path 159" d="M1223.614,16.421c-.145.1-.2.033-.21-.115.1-.01.136.084.21.115" transform="translate(-1172.352 -15.625)" fill="#2a418d"/>
      <path id="Path_160" data-name="Path 160" d="M292.969,164.012h-.249c.094-.158.1-.158.249,0" transform="translate(-280.505 -157.055)" fill="#fff"/>
      <path id="Path_161" data-name="Path 161" d="M808.1,211.135c0,.01,0,.021.005.031l-.585,0c0-.011,0-.021,0-.032a.565.565,0,0,1,.583,0" transform="translate(-773.818 -202.247)" fill="#fcd5b4"/>
      <path id="Path_162" data-name="Path 162" d="M166.013,88.548l-.083-.208c.049-.028.1-.054.139.012s-.008.139-.056.2" transform="translate(-159.006 -84.625)" fill="#fff"/>
      <path id="Path_163" data-name="Path 163" d="M295.721,37.416c0-.051-.007-.119.075-.11s.092.082.092.151a.17.17,0,0,1-.167-.042" transform="translate(-283.381 -35.749)" fill="#2a418d"/>
      <path id="Path_164" data-name="Path 164" d="M218.957,54.657a.193.193,0,0,1-.035,0l0-.587a2.349,2.349,0,0,1,.038.585" transform="translate(-209.784 -51.816)" fill="#6072aa"/>
      <path id="Path_165" data-name="Path 165" d="M290.6,205.793a1.512,1.512,0,0,1,.549-.033,1.5,1.5,0,0,1-.549.033" transform="translate(-278.471 -197.166)" fill="#bac1da"/>
      <path id="Path_166" data-name="Path 166" d="M1272.456,97.273q0-.275,0-.551c.014-.014.023-.01.029.007a1.332,1.332,0,0,1-.033.543" transform="translate(-1219.357 -92.678)" fill="#5f70a9"/>
      <path id="Path_167" data-name="Path 167" d="M641.9,157.873h-.544a.021.021,0,0,1-.008-.023c0-.008.006-.011.008-.011a2.1,2.1,0,0,1,.543.033" transform="translate(-614.587 -151.252)" fill="#dce0ec"/>
      <path id="Path_168" data-name="Path 168" d="M917.586,60.582q0-.273,0-.546a.815.815,0,0,1,0,.546" transform="translate(-879.296 -57.531)" fill="#a1accd"/>
      <path id="Path_169" data-name="Path 169" d="M636.811,155.536a.311.311,0,0,0,0,.035c-.079.04-.136-.038-.207-.039.072-.154.141-.1.207,0" transform="translate(-610.039 -148.948)" fill="#fff"/>
      <path id="Path_170" data-name="Path 170" d="M599.742,196.1h-.457q-.017-.015-.008-.024a.022.022,0,0,1,.016-.007c.094-.022.2.033.285-.042l.164.074" transform="translate(-574.267 -187.851)" fill="#f0a270"/>
      <path id="Path_171" data-name="Path 171" d="M281.724,121.161l.209.083c-.094.105-.13.091-.209-.083" transform="translate(-269.968 -116.105)" fill="#fff"/>
      <path id="Path_172" data-name="Path 172" d="M856.2,213.975l.5,0c.014,0,.019.009.018.017s-.005.014-.009.014l-.5,0c-.013-.006-.018-.013-.015-.021s.007-.013.011-.013" transform="translate(-820.464 -205.044)" fill="#fcdec3"/>
      <path id="Path_173" data-name="Path 173" d="M982.312,258.613l.154-.265a.424.424,0,0,1-.1.314l-.051-.049" transform="translate(-941.321 -247.567)" fill="#fff"/>
      <path id="Path_174" data-name="Path 174" d="M340.7,98.071a.048.048,0,0,1,.04,0l.171.119c-.131.07-.21.047-.212-.117" transform="translate(-326.488 -93.973)" fill="#2a418d"/>
      <path id="Path_175" data-name="Path 175" d="M282.724,75.231l.084.028.13.088c-.13.07-.212.05-.213-.116" transform="translate(-270.926 -72.092)" fill="#2a418d"/>
      <path id="Path_176" data-name="Path 176" d="M686.554,213.8a1.323,1.323,0,0,1,.506-.03c.01.01.012.018.006.024a.022.022,0,0,1-.015.007h-.5" transform="translate(-657.904 -204.836)" fill="#f8af7a"/>
      <path id="Path_177" data-name="Path 177" d="M270.861,60.349c-.088-.028-.057-.135-.12-.18a.085.085,0,0,1,.045-.08c.136.055.079.165.075.26" transform="translate(-259.442 -57.582)" fill="#fff"/>
      <path id="Path_178" data-name="Path 178" d="M1183.625,4.2c-.1.119-.165.1-.208-.042a.231.231,0,0,1,.208.042" transform="translate(-1134.034 -3.974)" fill="#2a418d"/>
      <path id="Path_179" data-name="Path 179" d="M1150.629,273.619a.655.655,0,0,1-.2.262.668.668,0,0,1,.162-.309l.038.047" transform="translate(-1102.422 -262.156)" fill="#dfe3ee"/>
      <path id="Path_180" data-name="Path 180" d="M238.768,102.892c.078-.009.106.07.165.1-.007.045-.027.081-.08.069-.088-.021-.087-.093-.085-.164" transform="translate(-228.804 -98.598)" fill="#fff"/>
      <path id="Path_181" data-name="Path 181" d="M588.778,196.911l-.008.031-.459,0q-.015-.015-.007-.024a.019.019,0,0,1,.014-.009l.46.006" transform="translate(-563.752 -188.688)" fill="#fbcdaf"/>
      <path id="Path_182" data-name="Path 182" d="M75.009,1.5l0,.047-.085.123c-.022-.055-.068-.109-.017-.171.033-.039.067-.043.1,0" transform="translate(-71.761 -1.408)" fill="#fff"/>
      <path id="Path_183" data-name="Path 183" d="M868.435,213.8l-.009-.031a1.128,1.128,0,0,1,.464.031h-.455" transform="translate(-832.187 -204.837)" fill="#f9b679"/>
      <path id="Path_184" data-name="Path 184" d="M971.032,260.641c-.034.06-.04.141-.145.174a.556.556,0,0,1,.1-.266.108.108,0,0,0,.041.092" transform="translate(-930.372 -249.676)" fill="#fff"/>
      <path id="Path_185" data-name="Path 185" d="M305.884,1.167c-.006.043-.016.084-.071.08s-.09-.052-.1-.112c.058,0,.122-.035.168.032" transform="translate(-292.959 -1.079)" fill="#2a418d"/>
      <path id="Path_186" data-name="Path 186" d="M715.162,268.714c-.091-.013-.129.132-.235.077.03-.094.123-.113.192-.159l.043.082" transform="translate(-685.094 -257.422)" fill="#fff"/>
      <path id="Path_187" data-name="Path 187" d="M825.124,268.708c-.091-.012-.129.132-.235.077.03-.094.122-.113.191-.16l.044.082" transform="translate(-790.467 -257.416)" fill="#fff"/>
      <path id="Path_188" data-name="Path 188" d="M291.763,124.873l.206.053c-.1.12-.174.1-.206-.053" transform="translate(-279.588 -119.662)" fill="#fff"/>
      <path id="Path_189" data-name="Path 189" d="M698.471,214.012l.009-.031.458,0q.017.014.009.024c0,.006-.009.01-.014.01l-.461,0" transform="translate(-669.324 -205.052)" fill="#fcdac1"/>
      <path id="Path_190" data-name="Path 190" d="M832.481,271.961c-.012-.1.113-.151.091-.254h.073c-.028.1-.031.219-.164.254" transform="translate(-797.742 -260.369)" fill="#c5cbe0"/>
      <path id="Path_191" data-name="Path 191" d="M567.812,197.992a1.107,1.107,0,0,1-.465.029c-.012-.015-.009-.025.01-.031h.455" transform="translate(-543.665 -189.729)" fill="#f8aa77"/>
      <path id="Path_192" data-name="Path 192" d="M722.026,212.762l-.006.031h-.457a1.156,1.156,0,0,1,.463-.03" transform="translate(-691.453 -203.875)" fill="#f7a666"/>
      <path id="Path_193" data-name="Path 193" d="M444.031,154.116a.253.253,0,0,1-.111-.176c.131,0,.18.051.111.176" transform="translate(-425.396 -147.516)" fill="#fff"/>
      <path id="Path_194" data-name="Path 194" d="M886.374,214.76c.134-.081.279-.02.419-.031q.022.005.018.017c0,.009-.006.014-.01.014h-.427" transform="translate(-849.386 -205.757)" fill="#fde2c8"/>
      <path id="Path_195" data-name="Path 195" d="M692.728,192.163c-.058,0-.124.02-.168-.042a.186.186,0,0,1,.168-.074v.115" transform="translate(-663.66 -184.032)" fill="#fff"/>
      <path id="Path_196" data-name="Path 196" d="M1129.328,292.555l.284-.012a.159.159,0,0,1-.16.087l-.124-.074" transform="translate(-1082.202 -280.335)" fill="#7d8bb9"/>
      <path id="Path_197" data-name="Path 197" d="M386.941,63.126q0,.062,0,.125c-.059-.006-.105-.03-.112-.095s.033-.067.077-.072a.074.074,0,0,1,.036.042" transform="translate(-370.685 -60.452)" fill="#fff"/>
      <path id="Path_198" data-name="Path 198" d="M1113.313,286.7q0,.21,0,.419a.5.5,0,0,1,0-.419" transform="translate(-1066.812 -274.735)" fill="#a6b0d0"/>
      <path id="Path_199" data-name="Path 199" d="M624.73,150.447c-.062-.035-.135-.054-.167-.128.146-.075.168.011.167.128" transform="translate(-598.5 -144.02)" fill="#fff"/>
      <path id="Path_200" data-name="Path 200" d="M284.675,38.988a.514.514,0,0,1,.422,0l-.422,0" transform="translate(-272.796 -37.317)" fill="#9da8cb"/>
      <path id="Path_201" data-name="Path 201" d="M369.772,138.324l0-.424a.515.515,0,0,1,0,.424" transform="translate(-354.34 -132.146)" fill="#8290bc"/>
      <path id="Path_202" data-name="Path 202" d="M14.787,308.8l.378,0a.424.424,0,0,1-.378,0" transform="translate(-14.17 -295.919)" fill="#fbc7b8"/>
      <path id="Path_203" data-name="Path 203" d="M1122.6,230.764l.044.034c-.078.047-.113.146-.207.175V230.9l.162-.133" transform="translate(-1075.599 -221.134)" fill="#fff"/>
      <path id="Path_204" data-name="Path 204" d="M983.367,288.061c.014-.126-.047-.26.034-.38-.02.126.047.259-.034.38" transform="translate(-942.323 -275.676)" fill="#95a0c6"/>
      <path id="Path_205" data-name="Path 205" d="M0,283.724a.457.457,0,0,1,0,.376q0-.188,0-.376" transform="translate(0 -271.884)" fill="#f6825f"/>
      <path id="Path_206" data-name="Path 206" d="M388.641,55.484l-.036-.042c.016-.11-.035-.228.036-.333v.375" transform="translate(-372.385 -52.809)" fill="#e7eaf2"/>
      <path id="Path_207" data-name="Path 207" d="M558.961,197.935l-.01.031-.245.013-.127-.013c0-.011,0-.022,0-.033l.38,0" transform="translate(-535.27 -189.673)" fill="#fcddc9"/>
      <path id="Path_208" data-name="Path 208" d="M669.281,214.747c.125.015.256-.052.376.031h-.385q-.015-.016-.006-.024a.023.023,0,0,1,.016-.006" transform="translate(-641.334 -205.775)" fill="#fcdfc9"/>
      <path id="Path_209" data-name="Path 209" d="M498.945,200.813a.825.825,0,0,1-.382.033c.026-.059.081-.034.124-.042l.258.009" transform="translate(-477.758 -192.425)" fill="#f9b791"/>
      <path id="Path_210" data-name="Path 210" d="M514.947,199.839l-.33,0a.607.607,0,0,1,.339-.032c.011.01.013.018.007.024a.022.022,0,0,1-.015.007" transform="translate(-493.142 -191.463)" fill="#fcd1b8"/>
      <path id="Path_211" data-name="Path 211" d="M838.461,211.609c0-.011,0-.022-.006-.032a.219.219,0,0,1,.3,0l.042.035h-.331" transform="translate(-803.467 -202.692)" fill="#f8a154"/>
      <path id="Path_212" data-name="Path 212" d="M931.371,216.724c.045-.064.115-.026.172-.042l.162.012c.015,0,.021.009.018.017s-.006.014-.01.014h-.343" transform="translate(-892.505 -207.64)" fill="#fbd5af"/>
      <path id="Path_213" data-name="Path 213" d="M329.835,5.437c-.055.025-.085-.023-.125-.042.007-.042.022-.079.073-.068s.048.067.052.11" transform="translate(-315.951 -5.103)" fill="#fff"/>
      <path id="Path_214" data-name="Path 214" d="M1118.4,298.639l.124-.086,0,.1-.083.083-.045-.093" transform="translate(-1071.727 -286.095)" fill="#fff"/>
      <path id="Path_215" data-name="Path 215" d="M337.772,8.92l-.126-.081c.018-.033.034-.082.082-.059s.043.089.043.14" transform="translate(-323.556 -8.408)" fill="#fff"/>
      <path id="Path_216" data-name="Path 216" d="M949.374,217.735a.383.383,0,0,1,.344,0h-.344" transform="translate(-909.757 -208.609)" fill="#fbd4ac"/>
      <path id="Path_217" data-name="Path 217" d="M456.582,39.005a.35.35,0,0,1,.341,0h-.341" transform="translate(-437.529 -37.335)" fill="#a9b2d1"/>
      <path id="Path_218" data-name="Path 218" d="M661.9,214.779l-.01.031-.331,0a.618.618,0,0,1,.341-.028" transform="translate(-633.951 -205.807)" fill="#f9af7b"/>
      <path id="Path_219" data-name="Path 219" d="M1225.309,312.676c.065.107.02.225.031.337-.074-.107-.034-.224-.031-.337" transform="translate(-1174.165 -299.628)" fill="#5d6ea8"/>
      <path id="Path_220" data-name="Path 220" d="M1031.379,281.52q0,.169,0,.338c-.08-.1-.022-.221-.027-.331.007-.016.016-.019.029-.006" transform="translate(-988.297 -269.764)" fill="#99a4c8"/>
      <path id="Path_221" data-name="Path 221" d="M270.945,53.374l-.039.043q0-.168,0-.335c.071.09.01.2.037.292" transform="translate(-259.601 -50.867)" fill="#d1d6e6"/>
      <path id="Path_222" data-name="Path 222" d="M540.759,139.279l0-.336a.356.356,0,0,1,0,.336" transform="translate(-518.192 -133.145)" fill="#c5cbe0"/>
      <path id="Path_223" data-name="Path 223" d="M645.3,215.738c.111.015.23-.049.335.031h-.344c-.009-.01-.011-.018-.005-.024a.021.021,0,0,1,.015-.007" transform="translate(-618.354 -206.726)" fill="#fcd5b9"/>
      <path id="Path_224" data-name="Path 224" d="M960.34,261.873c0-.075.056-.116.125-.167a.35.35,0,0,1-.075.215l-.05-.048" transform="translate(-920.266 -250.785)" fill="#fff"/>
      <path id="Path_225" data-name="Path 225" d="M896.8,200.822h-.329a.087.087,0,0,1-.011-.034.676.676,0,0,1,.339.033" transform="translate(-859.049 -192.405)" fill="#fbcc9f"/>
      <path id="Path_226" data-name="Path 226" d="M621.539,216.753a.383.383,0,0,1,.34,0l-.34,0" transform="translate(-595.602 -207.668)" fill="#fabc91"/>
      <path id="Path_227" data-name="Path 227" d="M590.555,218.745a.285.285,0,0,1,.3,0l-.3,0" transform="translate(-565.911 -209.575)" fill="#fbcaa9"/>
      <path id="Path_228" data-name="Path 228" d="M967.442,218.71a.289.289,0,0,1,.3,0l-.3,0" transform="translate(-927.071 -209.546)" fill="#f9bc7d"/>
      <path id="Path_229" data-name="Path 229" d="M363.754,41.242c-.011-.032,0-.073-.048-.086a.064.064,0,0,1,.006-.039c.043,0,.1-.01.11.052s-.027.066-.068.073" transform="translate(-348.528 -39.401)" fill="#fff"/>
      <path id="Path_230" data-name="Path 230" d="M541.479,284.669q0,.148,0,.3a.253.253,0,0,1,0-.3" transform="translate(-518.839 -272.79)" fill="#8b97c1"/>
      <path id="Path_231" data-name="Path 231" d="M688.8,230.695l-.3,0a.268.268,0,0,1,.3,0" transform="translate(-659.774 -221.024)" fill="#95a0c6"/>
      <path id="Path_232" data-name="Path 232" d="M896.414,214.816l-.008-.031a.491.491,0,0,1,.3.028l-.29,0" transform="translate(-859 -205.813)" fill="#f9bc81"/>
      <path id="Path_233" data-name="Path 233" d="M1155.918,283.524c-.018-.028-.037-.062,0-.083s.041.018.041.04c0,.059,0,.118,0,.177-.046-.035-.035-.087-.039-.134" transform="translate(-1107.663 -271.607)" fill="#98a3c8"/>
      <path id="Path_234" data-name="Path 234" d="M1126.306,282.728q0,.147,0,.295a.255.255,0,0,1,0-.295" transform="translate(-1079.26 -270.93)" fill="#8b98c1"/>
      <path id="Path_235" data-name="Path 235" d="M747.482,279.735a.15.15,0,0,1,.087-.13.139.139,0,0,1-.041.175l-.046-.045" transform="translate(-716.29 -267.937)" fill="#fff"/>
      <path id="Path_236" data-name="Path 236" d="M505.825,96.024c-.043.007-.051.1-.108.055-.04-.031-.013-.071.024-.1.033,0,.071,0,.084.042" transform="translate(-484.595 -91.977)" fill="#2a418d"/>
      <path id="Path_237" data-name="Path 237" d="M614.819,135.1l-.042-.125c.043,0,.1-.01.11.052s-.027.066-.068.073" transform="translate(-589.123 -129.34)" fill="#fff"/>
      <path id="Path_238" data-name="Path 238" d="M432.93,204.789l-.3,0a.291.291,0,0,1,.3,0" transform="translate(-414.579 -196.206)" fill="#fac0a0"/>
      <path id="Path_239" data-name="Path 239" d="M638.882,215.77l-.009.031h-.288c.094-.062.2-.03.3-.03" transform="translate(-611.936 -206.758)" fill="#f8a46a"/>
      <path id="Path_240" data-name="Path 240" d="M666.693,271.639c.095-.086.193-.05.291-.009l-.291.009" transform="translate(-638.872 -260.253)" fill="#99a4c8"/>
      <path id="Path_241" data-name="Path 241" d="M537.885,198.846h-.291c.093-.065.2-.031.3-.031.011.009.014.017.008.023a.02.02,0,0,1-.015.008" transform="translate(-515.161 -190.511)" fill="#fbcaac"/>
      <path id="Path_242" data-name="Path 242" d="M544.556,199.045l.006-.03h.291a.5.5,0,0,1-.3.029" transform="translate(-521.832 -190.71)" fill="#f8a977"/>
      <path id="Path_243" data-name="Path 243" d="M913.206,215.942l.294,0c.013,0,.019.011.016.018s-.006.013-.01.013l-.291.005c-.013,0-.018-.011-.016-.019s0-.014.008-.014" transform="translate(-875.09 -206.928)" fill="#fbcfa5"/>
      <path id="Path_244" data-name="Path 244" d="M1038.393,224.686a.285.285,0,0,1,.3.005l-.3-.005" transform="translate(-995.061 -215.272)" fill="#fac488"/>
      <path id="Path_245" data-name="Path 245" d="M1058.384,226.7a.221.221,0,0,1,.255,0l-.255,0" transform="translate(-1014.218 -217.2)" fill="#f9c689"/>
      <path id="Path_246" data-name="Path 246" d="M304.916,215.814a.379.379,0,0,1-.256.032.361.361,0,0,1,.256-.032" transform="translate(-291.947 -206.801)" fill="#f9b190"/>
      <path id="Path_247" data-name="Path 247" d="M1011.7,260.664l-.254,0a.2.2,0,0,1,.254,0" transform="translate(-969.241 -249.744)" fill="#939fc5"/>
      <path id="Path_248" data-name="Path 248" d="M296.838.047l-.259,0a.2.2,0,0,1,.259,0" transform="translate(-284.203 0)" fill="#5467a4"/>
      <path id="Path_249" data-name="Path 249" d="M313.933,214.815a.4.4,0,0,1-.258.03.355.355,0,0,1,.258-.03" transform="translate(-300.586 -205.842)" fill="#fac2a9"/>
      <path id="Path_250" data-name="Path 250" d="M604.552,217.841a.384.384,0,0,1,.256-.029c.011.01.013.018.007.023a.021.021,0,0,1-.015.007l-.249,0" transform="translate(-579.324 -208.716)" fill="#f9b68a"/>
      <path id="Path_251" data-name="Path 251" d="M997.41,294.781h.256a.2.2,0,0,1-.256,0" transform="translate(-955.789 -282.48)" fill="#7180b3"/>
      <path id="Path_252" data-name="Path 252" d="M370.889,209.848c-.079.059-.168.034-.254.033a.358.358,0,0,1,.254-.033" transform="translate(-355.169 -201.084)" fill="#f7a075"/>
      <path id="Path_253" data-name="Path 253" d="M522.534,200.025l.008-.03.248,0a.375.375,0,0,1-.256.028" transform="translate(-500.729 -191.649)" fill="#f8a775"/>
      <path id="Path_254" data-name="Path 254" d="M1194.237,284.215c.012-.045.02-.095.082-.1a.146.146,0,0,1-.028.155l-.054-.054" transform="translate(-1144.402 -272.258)" fill="#abb4d2"/>
      <path id="Path_255" data-name="Path 255" d="M1128.828,256.867c-.069-.015-.222.06-.133-.124-.016.1.1.069.133.124" transform="translate(-1081.57 -246.029)" fill="#7d8bb9"/>
      <path id="Path_256" data-name="Path 256" d="M616.716,269.747l-.179.107a.274.274,0,0,1,.127-.155l.052.048" transform="translate(-590.809 -258.445)" fill="#fff"/>
      <path id="Path_257" data-name="Path 257" d="M855.808,269.728a.3.3,0,0,1-.17.08.259.259,0,0,1,.119-.129l.051.049" transform="translate(-819.933 -258.425)" fill="#fff"/>
      <path id="Path_258" data-name="Path 258" d="M924.745,203.016c-.086,0-.176.029-.255-.032h.246c.014,0,.02.009.018.017s-.006.014-.01.014" transform="translate(-885.911 -194.514)" fill="#f9b470"/>
      <path id="Path_259" data-name="Path 259" d="M920.448,215.825l-.006-.031c.086,0,.176-.03.254.033l-.248,0" transform="translate(-882.032 -206.783)" fill="#f9b471"/>
      <path id="Path_260" data-name="Path 260" d="M977.675,206.838a.391.391,0,0,1-.255-.033.345.345,0,0,1,.255.033" transform="translate(-936.633 -198.167)" fill="#facb99"/>
      <path id="Path_261" data-name="Path 261" d="M858.436,282.721q0,.126,0,.252a.21.21,0,0,1,0-.252" transform="translate(-822.573 -270.923)" fill="#c5cce0"/>
      <path id="Path_262" data-name="Path 262" d="M797.579,282.817c0,.046.014.094-.039.122l-.089,0c.036-.048.062-.1.128-.12" transform="translate(-764.174 -271.015)" fill="#fff"/>
      <path id="Path_263" data-name="Path 263" d="M1018.415,222.728a.221.221,0,0,1,.254,0l-.254,0" transform="translate(-975.917 -213.397)" fill="#f9c182"/>
      <path id="Path_264" data-name="Path 264" d="M718.5,282.666c.069.079.021.171.031.257-.072-.078-.026-.171-.031-.257" transform="translate(-688.505 -270.87)" fill="#8996c0"/>
      <path id="Path_265" data-name="Path 265" d="M488.7,144.863a.2.2,0,0,1,0,.258q0-.129,0-.258" transform="translate(-468.309 -138.818)" fill="#e0e3ee"/>
      <path id="Path_266" data-name="Path 266" d="M239.945,222.807a.368.368,0,0,1-.255.034.368.368,0,0,1,.255-.034" transform="translate(-229.688 -213.503)" fill="#f9ad8e"/>
      <path id="Path_267" data-name="Path 267" d="M265.947,219.81a.38.38,0,0,1-.256.032.362.362,0,0,1,.256-.032" transform="translate(-254.604 -210.63)" fill="#fabba0"/>
      <path id="Path_268" data-name="Path 268" d="M574.56,219.77a.229.229,0,0,1,.257,0l-.257,0" transform="translate(-550.584 -210.56)" fill="#faba90"/>
      <path id="Path_269" data-name="Path 269" d="M550.555,221.83c.078-.062.168-.035.255-.035-.078.062-.168.034-.255.035" transform="translate(-527.581 -212.534)" fill="#fcd4ba"/>
      <path id="Path_270" data-name="Path 270" d="M995.455,220.729a.22.22,0,0,1,.252,0l-.252,0" transform="translate(-953.915 -211.481)" fill="#f9b771"/>
      <path id="Path_271" data-name="Path 271" d="M562.7,125.941l.033,0c-.05.055.024.11,0,.165-.066-.045-.119-.092-.034-.168" transform="translate(-539.173 -120.686)" fill="#fff"/>
      <path id="Path_272" data-name="Path 272" d="M1029.412,279.393l-.029.006-.1-.008c.009-.03,0-.069.041-.084a.061.061,0,0,1,.086,0c0,.027,0,.054,0,.082" transform="translate(-986.33 -267.638)" fill="#fff"/>
      <path id="Path_273" data-name="Path 273" d="M404.9,206.8l-.254,0a.225.225,0,0,1,.254,0" transform="translate(-387.762 -198.139)" fill="#fbc9b0"/>
      <path id="Path_274" data-name="Path 274" d="M559.673,220.827c.057.009.122-.025.17.033l-.255,0,.085-.037" transform="translate(-536.237 -211.61)" fill="#f9b386"/>
      <path id="Path_275" data-name="Path 275" d="M958.411,276.741q0,.126,0,.251a.211.211,0,0,1,0-.251" transform="translate(-918.378 -265.193)" fill="#d2d7e7"/>
      <path id="Path_276" data-name="Path 276" d="M1048.365,225.7a.225.225,0,0,1,.257,0h-.257" transform="translate(-1004.617 -216.243)" fill="#facb95"/>
      <path id="Path_277" data-name="Path 277" d="M537.6,55.246h-.042q0-.1.006-.208c.056.062.039.136.036.209" transform="translate(-515.124 -52.74)" fill="#8a97c1"/>
      <path id="Path_278" data-name="Path 278" d="M568.615,294.744l.211,0a.144.144,0,0,1-.211,0" transform="translate(-544.887 -282.444)" fill="#9ba6ca"/>
      <path id="Path_279" data-name="Path 279" d="M473.7,43l.128.086c-.094.047-.126,0-.128-.086" transform="translate(-453.935 -41.206)" fill="#fff"/>
      <path id="Path_280" data-name="Path 280" d="M564.707,142.036c0,.044.065.072.029.124-.064-.042-.112-.088-.044-.165l.014.04" transform="translate(-541.097 -136.071)" fill="#fff"/>
      <path id="Path_281" data-name="Path 281" d="M930.405,202.867l-.008-.031c.074,0,.149-.025.215.03l-.207,0" transform="translate(-891.572 -194.364)" fill="#fcdab9"/>
      <path id="Path_282" data-name="Path 282" d="M318.563,145.942a.138.138,0,0,1-.014.206l.014-.206" transform="translate(-305.256 -139.852)" fill="#5668a4"/>
      <path id="Path_283" data-name="Path 283" d="M1272.515,92.187l-.029-.007q0-.1,0-.206c.058.064.037.14.032.214" transform="translate(-1219.383 -88.135)" fill="#94a0c6"/>
      <path id="Path_284" data-name="Path 284" d="M468.86.16c-.072,0-.149.022-.213-.033.073,0,.15-.031.213.033" transform="translate(-449.091 -0.113)" fill="#5d6fa8"/>
      <path id="Path_285" data-name="Path 285" d="M1053.384,282.934a.156.156,0,0,1,0-.211q0,.105,0,.211" transform="translate(-1009.389 -270.925)" fill="#6677ad"/>
      <path id="Path_286" data-name="Path 286" d="M583.876,196.842l-.007.033h-.2c.063-.058.139-.025.21-.033" transform="translate(-559.31 -188.625)" fill="#fff"/>
      <path id="Path_287" data-name="Path 287" d="M1046.579,213.824a.3.3,0,0,1-.214-.033c.074-.006.15-.024.214.033" transform="translate(-1002.701 -204.863)" fill="#fcdbb7"/>
      <path id="Path_288" data-name="Path 288" d="M524.576,223.764a.168.168,0,0,1,.215,0l-.215,0" transform="translate(-502.686 -214.388)" fill="#f9b48b"/>
      <path id="Path_289" data-name="Path 289" d="M770.5,283.77q0,.1,0,.206a.152.152,0,0,1,0-.206" transform="translate(-738.307 -271.928)" fill="#fff"/>
      <path id="Path_290" data-name="Path 290" d="M908.762,216.014l.008.033c-.071-.007-.148.026-.21-.033h.2" transform="translate(-870.646 -207)" fill="#fff"/>
      <path id="Path_291" data-name="Path 291" d="M509.53,267.713q0,.107,0,.213a.154.154,0,0,1,0-.213" transform="translate(-488.226 -256.541)" fill="#aab3d1"/>
      <path id="Path_292" data-name="Path 292" d="M564.545,285.7q0,.106,0,.211a.154.154,0,0,1,0-.211" transform="translate(-540.947 -273.778)" fill="#b9c1da"/>
      <path id="Path_293" data-name="Path 293" d="M961.434,285.761l.212,0a.144.144,0,0,1-.212,0" transform="translate(-921.314 -273.833)" fill="#909cc4"/>
      <path id="Path_294" data-name="Path 294" d="M727.727,286.819a.15.15,0,0,1-.214,0h.214" transform="translate(-697.154 -274.85)" fill="#9ea9cb"/>
      <path id="Path_295" data-name="Path 295" d="M851.79,214.016l0,.034c-.07-.008-.146.025-.208-.033h.2" transform="translate(-816.05 -205.085)" fill="#fff"/>
      <path id="Path_296" data-name="Path 296" d="M1165.587,286.807a.151.151,0,0,1-.214,0l.214,0" transform="translate(-1116.743 -274.837)" fill="#9da8cb"/>
      <path id="Path_297" data-name="Path 297" d="M1037.575,212.846l-.208,0a.16.16,0,0,0-.007-.03.259.259,0,0,1,.215.033" transform="translate(-994.072 -203.925)" fill="#fbcf9e"/>
      <path id="Path_298" data-name="Path 298" d="M1202.319,287.84a.169.169,0,0,1,0-.218q0,.109,0,.218" transform="translate(-1152.108 -275.62)" fill="#98a3c8"/>
      <path id="Path_299" data-name="Path 299" d="M709.528,214.054l0-.034h.2c-.062.058-.139.025-.209.033" transform="translate(-679.92 -205.089)" fill="#fff"/>
      <path id="Path_300" data-name="Path 300" d="M610.517,218l.007-.031h.206c-.064.058-.14.033-.213.032" transform="translate(-585.04 -208.87)" fill="#fcddc8"/>
      <path id="Path_301" data-name="Path 301" d="M999.617,208.877a.29.29,0,0,1-.214-.032.253.253,0,0,1,.214.032" transform="translate(-957.699 -200.122)" fill="#fac993"/>
      <path id="Path_302" data-name="Path 302" d="M1126.617,266.734c.054-.08.133-.037.2-.04-.058.058-.135.028-.2.04" transform="translate(-1079.604 -255.557)" fill="#bcc3db"/>
      <path id="Path_303" data-name="Path 303" d="M916.385,201.857h-.205c-.015,0-.021-.01-.018-.018s.007-.014.011-.014c.073,0,.148-.025.213.031" transform="translate(-877.93 -193.399)" fill="#fcdec2"/>
      <path id="Path_304" data-name="Path 304" d="M567.72,264.965q0-.105,0-.21a.153.153,0,0,1,0,.21" transform="translate(-544.028 -253.707)" fill="#c6cde1"/>
      <path id="Path_305" data-name="Path 305" d="M939.385,216.845l-.008-.031c.073,0,.149-.027.214.03l-.206,0" transform="translate(-900.177 -207.76)" fill="#f8b16a"/>
      <path id="Path_306" data-name="Path 306" d="M911.674,201.961l.008.031a.276.276,0,0,1-.215-.028l.207,0" transform="translate(-873.432 -193.533)" fill="#f9bc81"/>
      <path id="Path_307" data-name="Path 307" d="M882.626,175.955c-.088-.026-.095-.094-.089-.169a.272.272,0,0,1,.089.169" transform="translate(-845.708 -168.451)" fill="#2a418d"/>
      <path id="Path_308" data-name="Path 308" d="M1141.493,49.374q0-2.413,0-4.826a6.468,6.468,0,0,1,1.124-.012c.1-.014.189.067.292.041a.238.238,0,0,1,.292.042,2.345,2.345,0,0,1,.968.493,2.18,2.18,0,0,1,.7,1.635,1.248,1.248,0,0,1,0,.466q-.006.184-.012.368a.33.33,0,0,1-.064.295c-.1.161-.12.36-.255.5a1.222,1.222,0,0,0-.463.532,1.681,1.681,0,0,1-.54.3.127.127,0,0,0-.169.072l-.125.041c-.077-.072-.125-.025-.167.042-.141-.012-.273.078-.417.04-.313-.029-.628,0-.941-.014-.073,0-.15.021-.22-.021" transform="translate(-1093.855 -42.66)" fill="#fff"/>
      <path id="Path_309" data-name="Path 309" d="M1203.307,137.1a.285.285,0,0,1,.149-.315.248.248,0,0,0,.111-.14.137.137,0,0,1,.2-.078,1.3,1.3,0,0,1-.463.532" transform="translate(-1153.089 -130.853)" fill="#fff"/>
      <path id="Path_310" data-name="Path 310" d="M1220.542,118.222a.7.7,0,0,1,.065-.295c.123.01.147.089.131.191s-.113.1-.2.1" transform="translate(-1169.606 -113.006)" fill="#2a418d"/>
      <path id="Path_311" data-name="Path 311" d="M1175.7,42.321c-.1.025-.19-.057-.292-.042-.005-.109.043-.164.156-.159.14.005.137.1.136.2" transform="translate(-1126.361 -40.362)" fill="#2a418d"/>
      <path id="Path_312" data-name="Path 312" d="M1141.59,160.846c.322,0,.644,0,.966,0,.066,0,.138-.024.2.032l-1.082.008c-.033,0-.071,0-.079-.043" transform="translate(-1093.952 -154.132)" fill="#d6dae9"/>
      <path id="Path_313" data-name="Path 313" d="M1142.613,44.152l-1.124.012a.1.1,0,0,1,.105-.047c.308,0,.617,0,.926,0a.306.306,0,0,1,.093.034" transform="translate(-1093.855 -42.276)" fill="#5063a1"/>
      <path id="Path_314" data-name="Path 314" d="M1222.448,98.4q0-.233,0-.466a.575.575,0,0,1,0,.466" transform="translate(-1171.436 -93.849)" fill="#e7eaf2"/>
      <path id="Path_315" data-name="Path 315" d="M1179.4,157.68c-.006-.068.015-.123.088-.133s.072.044.079.092l-.167.042" transform="translate(-1130.18 -150.971)" fill="#fff"/>
      <path id="Path_316" data-name="Path 316" d="M1186.408,155.647c0-.055,0-.1.065-.128s.083.012.1.056c-.04.063-.121.029-.169.072" transform="translate(-1136.899 -149.021)" fill="#fff"/>
      <path id="Path_317" data-name="Path 317" d="M781.608,29.7a.77.77,0,0,0-.276-.552c-.062-.065-.2-.047-.3-.1-.06-.035-.117-.074-.088-.139.13-.29.12-.618.255-.906,0-.037.044-.1-.047-.081a.744.744,0,0,1-.41.305c-.024-.09.164-.134.064-.2-.123-.077-.107.1-.166.145a.519.519,0,0,1-.059.036.269.269,0,0,1,.184-.363c.352-.073.513-.358.7-.592a3.565,3.565,0,0,0,.647-1.137.15.15,0,0,0-.016-.158.9.9,0,0,1,.015-.935c.022-.047.066-.11.121-.1.159.024.22-.065.291-.186.142-.241.755-.23.943-.021a.278.278,0,0,1-.129.448c-.065.018-.143.05-.082.119.1.118.007.21-.009.313-.012.075-.042.125-.134.114-.159-.018-.147.067-.1.176a.808.808,0,0,1,.067.571c-.033.11.063.229.114.34.014.03.037.045.064.029.194-.111.446-.136.536-.4.1-.3.207-.327.46-.151a1.181,1.181,0,0,0,.109.06c.08.046.174-.009.255.036.278.032.455-.182.69-.295a1.389,1.389,0,0,1-.364,1.138c-.042.052-.089.071-.12-.037a1.377,1.377,0,0,0-.367-.65.287.287,0,0,0-.438.014,1.723,1.723,0,0,1-.633.541c-.236.158-.491.286-.736.428a.2.2,0,0,0-.118.236c.044.288.1.574.152.861.01.055.038.142,0,.156-.237.087-.125.292-.1.4.049.183-.047.214-.16.262-.062.026-.115.077-.188.073-.057.092.01.2-.038.294-.145.183-.069.388-.035.576.021.114.016.227.038.338a.269.269,0,0,1,.042.292,1.122,1.122,0,0,0,.452.66c.1-.043.184-.036.216.09l.035.288a.122.122,0,0,1-.055.042,2.5,2.5,0,0,1-.517.012.265.265,0,0,1-.12-.044.269.269,0,0,1-.042-.039c-.032-.037-.058-.087-.122-.057a.8.8,0,0,1-.11.068.065.065,0,0,1-.072-.024c-.1-.2.016-.39.022-.585,0-.1.033-.2-.036-.288a.229.229,0,0,1-.111-.2c.008-.064.023-.129-.041-.177a.726.726,0,0,1-.1-.415c-.046-.208.018-.422-.034-.63" transform="translate(-747.99 -23.526)" fill="#fff"/>
      <path id="Path_318" data-name="Path 318" d="M852.142,202.863c.061.144-.068.079-.1.08-.351.006-.7,0-1.053,0l-.805,0c-.014-.007-.018-.014-.013-.021s.009-.01.014-.01c.583,0,1.165,0,1.748-.008.071,0,.154.036.212-.04" transform="translate(-814.689 -194.398)" fill="#a87356"/>
      <path id="Path_319" data-name="Path 319" d="M761.571,203.661l1.417.014a.047.047,0,0,1-.026.064,7.563,7.563,0,0,1-1.327.022.134.134,0,0,1-.106-.058q-.009-.05.042-.042" transform="translate(-729.75 -195.161)" fill="#a96f55"/>
      <path id="Path_320" data-name="Path 320" d="M805.9,174.008l.076.207c-.125.007-.238-.02-.272-.156a.134.134,0,0,1,.116-.178c.106-.008.044.091.08.127" transform="translate(-772.075 -166.625)" fill="#2a418d"/>
      <path id="Path_321" data-name="Path 321" d="M831.747,191.14a.274.274,0,0,0-.216-.09c0-.085.02-.151.119-.158.063,0,.134,0,.157.067s.052.152-.061.181" transform="translate(-796.832 -182.925)" fill="#2a418d"/>
      <path id="Path_322" data-name="Path 322" d="M819.512,172.2c.009-.1-.082-.187-.042-.292.1,0,.2,0,.2.135,0,.113-.05.162-.16.156" transform="translate(-785.264 -164.735)" fill="#2a418d"/>
      <path id="Path_323" data-name="Path 323" d="M796.513,202.728c0-.01,0-.021,0-.031.223-.038.456.047.674-.051l.076,0a.653.653,0,0,1,.26.006l.073.042a.049.049,0,0,1-.027.065,2.277,2.277,0,0,1-1.055-.034" transform="translate(-763.274 -194.183)" fill="#aa877e"/>
      <path id="Path_324" data-name="Path 324" d="M805.427,147.861a1.876,1.876,0,0,1,.034.63,2.034,2.034,0,0,1-.034-.63" transform="translate(-771.809 -141.691)" fill="#6d7db1"/>
      <path id="Path_325" data-name="Path 325" d="M837.038,203.785c0,.01,0,.021,0,.031l-.208.009a.381.381,0,0,1-.354.021.042.042,0,0,1-.019-.061l.039-.011.543.01" transform="translate(-801.545 -195.272)" fill="#ac877d"/>
      <path id="Path_326" data-name="Path 326" d="M760.341,196.2l-.019,0-.019,0a.217.217,0,0,1-.011-.286l.013-.04h.034q0,.163,0,.326" transform="translate(-728.52 -187.703)" fill="#445799"/>
      <path id="Path_327" data-name="Path 327" d="M819.63,142.952c0-.1.006-.2.01-.3,0,0,.01-.006.013,0a.063.063,0,0,1,.015.013c-.012.1.035.2-.038.294" transform="translate(-785.427 -136.693)" fill="#919dc4"/>
      <path id="Path_328" data-name="Path 328" d="M808.652,173.08c-.056-.024-.015-.109-.08-.127a.057.057,0,0,1,0-.041c.155,0,.12.081.076.168" transform="translate(-774.828 -165.697)" fill="#fff"/>
      <path id="Path_329" data-name="Path 329" d="M871.776,67.021c-.085-.011-.178.035-.255-.036.085.013.179-.043.255.036" transform="translate(-835.153 -64.183)" fill="#d5d9e8"/>
      <path id="Path_330" data-name="Path 330" d="M794.654,103.8c.008-.034.039-.074.061-.054.043.039.026.093-.014.135-.014-.028,0-.07-.047-.081" transform="translate(-761.494 -99.408)" fill="#a7b1d0"/>
      <path id="Path_331" data-name="Path 331" d="M82.565,61.448c.17-.532.336-1.066.511-1.6.132-.4.275-.8.408-1.2.014-.042.017-.08.068-.093l1.011,2.979a1.739,1.739,0,0,1-.494.02q-.675.008-1.351,0c-.062,0-.193.06-.154-.105" transform="translate(-79.113 -56.112)" fill="#fff"/>
      <path id="Path_332" data-name="Path 332" d="M81.879,127.877c.017.114.107.087.178.087q.91,0,1.82,0c-.027.078-.094.041-.141.042q-.872,0-1.745,0c-.074,0-.218.039-.113-.128" transform="translate(-78.427 -122.541)" fill="#d7dbea"/>
      <path id="Path_333" data-name="Path 333" d="M617.194,196.373a1.651,1.651,0,0,1-.583-.127.173.173,0,0,1,.209-.147c.168.023.342.057.374.274" transform="translate(-590.88 -187.914)" fill="#2a418d"/>
      <path id="Path_334" data-name="Path 334" d="M662.178,196.927l-.123.009c-.114-.082-.185-.014-.251.071l-.209.044c0-.205.193-.219.318-.275s.2.058.265.15" transform="translate(-633.987 -188.551)" fill="#2a418d"/>
      <path id="Path_335" data-name="Path 335" d="M682.888,193.186a.134.134,0,0,0-.006.032l-.295.083c.053-.221.1-.24.3-.114" transform="translate(-654.104 -185.05)" fill="#2a418d"/>
      <path id="Path_336" data-name="Path 336" d="M641.175,203.984a.191.191,0,0,0,0,.032,1.766,1.766,0,0,1-.583-.031l.587,0" transform="translate(-613.857 -195.472)" fill="#bb704c"/>
      <path id="Path_337" data-name="Path 337" d="M461.18,206.009c-.034.04-.082.032-.126.038-.152-.034-.314.054-.462-.037h.588" transform="translate(-441.372 -197.412)" fill="#b4654c"/>
      <path id="Path_338" data-name="Path 338" d="M942.565,203.759l.042-.009.166.012a.169.169,0,0,0,0,.028c-.072,0-.148.033-.21-.032" transform="translate(-903.232 -195.249)" fill="#b59b93"/>
      <path id="Path_339" data-name="Path 339" d="M893.842,270.418a.69.69,0,0,1,.463-.737,2.079,2.079,0,0,1-.463.737" transform="translate(-856.54 -258.427)" fill="#fcfcfd"/>
      <path id="Path_340" data-name="Path 340" d="M987.15,254.874c-.01.069-.012.126-.093.149-.012-.079.028-.113.093-.149" transform="translate(-945.865 -244.238)" fill="#9ea8cb"/>
      <path id="Path_341" data-name="Path 341" d="M748.049,281.188a4.846,4.846,0,0,1,.385-1.1c.042-.1.088-.046.124.013a.467.467,0,0,1,0,.251,2.571,2.571,0,0,1-.385.964c-.03.042-.042.126-.13.08a.357.357,0,0,1,0-.213" transform="translate(-716.816 -268.349)" fill="#fefeff"/>
      <path id="Path_342" data-name="Path 342" d="M783.342,271.838a.34.34,0,0,1,.168-.2c-.007.124-.1.153-.168.2" transform="translate(-750.654 -260.301)" fill="#c9cfe2"/>
      <path id="Path_343" data-name="Path 343" d="M760.67,281.982q0-.126,0-.251a.209.209,0,0,1,0,.251" transform="translate(-728.926 -269.974)" fill="#5b6da7"/>
      <path id="Path_344" data-name="Path 344" d="M747.475,307.659q0,.107,0,.213a.16.16,0,0,1,0-.213" transform="translate(-716.243 -294.821)" fill="#818ebc"/>
      <path id="Path_345" data-name="Path 345" d="M1134.849,269.515c-.137.18-.2.4-.339.572-.035.046-.08.092-.136.05s.011-.091.029-.122a1,1,0,0,1,.447-.5" transform="translate(-1087.015 -258.268)" fill="#f8f9fb"/>
      <path id="Path_346" data-name="Path 346" d="M1119.748,305.432a.858.858,0,0,1,.386-.416c-.093.151-.117.364-.386.416" transform="translate(-1073.022 -292.288)" fill="#f3f4f8"/>
      <path id="Path_347" data-name="Path 347" d="M1169.048,272.015a.258.258,0,0,1-.192.148c.051-.055.079-.14.192-.148" transform="translate(-1120.08 -260.664)" fill="#cdd2e4"/>
      <path id="Path_348" data-name="Path 348" d="M1183.485,281.628c-.022.073-.006.174-.128.173-.011-.1.07-.127.128-.173" transform="translate(-1133.975 -269.876)" fill="#bfc6dd"/>
      <path id="Path_349" data-name="Path 349" d="M757.715,196.863q.006.143.011.286c.033.065.094.047.147.047l1.309,0h1.082a2.146,2.146,0,0,1,.59,0l.372.009v.328l-.3,0-.708,0h-.583l-2.085-.012v-.659l.16,0" transform="translate(-725.943 -188.648)" fill="#f68d34"/>
      <path id="Path_350" data-name="Path 350" d="M666.567,198.636a.145.145,0,0,1,.13-.172.1.1,0,0,1,.121.1.566.566,0,0,1-.251.071" transform="translate(-638.75 -190.18)" fill="#2a418d"/>
      <path id="Path_351" data-name="Path 351" d="M1109.216,247.642a5.619,5.619,0,0,1,.51-.668.064.064,0,0,1,.054-.017c.035.007.037.04.029.065a1.563,1.563,0,0,1-.175.474c-.067.086-.241.089-.418.146" transform="translate(-1062.929 -236.651)" fill="#fcfdfe"/>
      <path id="Path_352" data-name="Path 352" d="M965.459,205.845c.073-.006.149-.025.212.033-.072,0-.148.022-.212-.033" transform="translate(-925.171 -197.248)" fill="#f9ba7a"/>
      <path id="Path_353" data-name="Path 353" d="M1234.423,304.165c-.1.207-.165.422-.389.527-.055-.2.107-.426.389-.527" transform="translate(-1182.529 -291.472)" fill="#fafbfc"/>
      <path id="Path_354" data-name="Path 354" d="M1262.907,277.43a.318.318,0,0,1-.158.21c.015-.082.019-.172.158-.21" transform="translate(-1210.055 -265.853)" fill="#dfe2ee"/>
      <path id="Path_355" data-name="Path 355" d="M673.325,239.284c.2.064.143.209.086.329a1.309,1.309,0,0,1-.876.687c-.069.006-.165.049-.13-.092a4.766,4.766,0,0,0,.266-.589.419.419,0,0,1,.4-.332.491.491,0,0,1,.253,0" transform="translate(-644.339 -229.284)" fill="#fff"/>
      <path id="Path_356" data-name="Path 356" d="M671.226,261.769c-.009.1.076.076.13.092a.133.133,0,0,1-.182.007c-.024-.023.02-.073.052-.1" transform="translate(-643.159 -250.846)" fill="#8d99c2"/>
      <path id="Path_357" data-name="Path 357" d="M688.809,238.709l-.253,0a.214.214,0,0,1,.253,0" transform="translate(-659.823 -228.709)" fill="#6c7cb0"/>
      <path id="Path_358" data-name="Path 358" d="M730.18,271.817c.059-.068.094-.17.234-.208a.432.432,0,0,1-.234.208" transform="translate(-699.71 -260.275)" fill="#cbd1e3"/>
      <path id="Path_359" data-name="Path 359" d="M573.324,271.793a1.142,1.142,0,0,1,.376-.6,1.091,1.091,0,0,1-.376.6" transform="translate(-549.399 -259.877)" fill="#f7f8fb"/>
      <path id="Path_360" data-name="Path 360" d="M1001.938,269.885a3.122,3.122,0,0,1-.315.633c-.034.049-.081.1-.135.062s-.015-.081,0-.129a.864.864,0,0,1,.447-.567" transform="translate(-959.675 -258.623)" fill="#fbfbfd"/>
      <path id="Path_361" data-name="Path 361" d="M1030.354,270.2l-.086,0c.079-.153.1-.345.3-.413l-.214.416" transform="translate(-987.276 -258.525)" fill="#fff"/>
      <path id="Path_362" data-name="Path 362" d="M1038.339,271.449a1.009,1.009,0,0,1,.334-.664.091.091,0,0,1,.113-.015.055.055,0,0,1,.01.052,1.264,1.264,0,0,1-.457.627" transform="translate(-995.01 -259.457)" fill="#fcfcfd"/>
      <path id="Path_363" data-name="Path 363" d="M549.907,271.473a.71.71,0,0,1,.411-.671.429.429,0,0,1-.116.216c-.06.063-.148.107-.065.222.03.041-.052.118-.231.233" transform="translate(-526.959 -259.502)" fill="#fbfbfd"/>
      <path id="Path_364" data-name="Path 364" d="M820.539,40.123l.207.275a.144.144,0,0,1,.016.173c-.045.073-.122.056-.188.049s-.094-.073-.084-.14c.017-.112-.033-.232.05-.356" transform="translate(-786.248 -38.449)" fill="#2e448f"/>
      <path id="Path_365" data-name="Path 365" d="M823.059,204.06h-.59a.2.2,0,0,0,0-.031h.589a.212.212,0,0,0,0,.031" transform="translate(-788.148 -195.515)" fill="#f9b173"/>
      <path id="Path_366" data-name="Path 366" d="M814.748,200.746a.212.212,0,0,1-.26-.006l.087-.092a.19.19,0,0,1,.168.083Z" transform="translate(-780.5 -192.274)" fill="#334992"/>
      <path id="Path_367" data-name="Path 367" d="M816.742,200.067l-.168-.083c.1-.071.144-.009.168.083" transform="translate(-782.499 -191.609)" fill="#fff"/>
    </g>
  </g>
</svg>
