<svg xmlns="http://www.w3.org/2000/svg" width="20" height="29.464" viewBox="0 0 20 29.464">
  <g id="layer1" transform="translate(-1.898 -0.793)">
    <path id="path6728" d="M11.824,30.255a.85.85,0,0,1-.525-.243l-5.011-5a.851.851,0,1,1,1.2-1.2l3.557,3.557V12.133a1.831,1.831,0,1,1,1.7,0V27.353L16.3,23.806a.851.851,0,1,1,1.2,1.2l-5.011,5a.85.85,0,0,1-.671.243ZM8.447,20.183a10,10,0,1,1,6.918-.009.847.847,0,1,1-.586-1.589,8.3,8.3,0,1,0-5.745.009.85.85,0,0,1,.5,1.087.809.809,0,0,1-1.087.5Z" transform="translate(0 0)" fill="#fff"/>
  </g>
</svg>
