<svg xmlns="http://www.w3.org/2000/svg" width="16.25" height="14.575" viewBox="0 0 16.25 14.575">
  <g id="down-arrow_7_" data-name="down-arrow (7)" transform="translate(-3.4 20.008) rotate(-90)">
    <path id="Path_4869" data-name="Path 4869" d="M19.375,3.4A.625.625,0,0,1,20,4.025v14.55a.625.625,0,1,1-1.25,0V4.025a.625.625,0,0,1,.625-.625Z" transform="translate(-6.658 0)" fill="#2a418d" fill-rule="evenodd"/>
    <path id="Path_4870" data-name="Path 4870" d="M5.6,21.988a.625.625,0,0,1,.883-.042l6.19,5.632h0a.1.1,0,0,0,.1,0h0l6.19-5.632a.625.625,0,1,1,.841.925L13.612,28.5l0,0a1.346,1.346,0,0,1-1.78,0l0,0L5.638,22.871a.625.625,0,0,1-.042-.883Z" transform="translate(0 -9.192)" fill="#2a418d" fill-rule="evenodd"/>
  </g>
</svg>
