<?xml version="1.0" encoding="utf-8"?>
<!-- Generator: Adobe Illustrator 24.1.2, SVG Export Plug-In . SVG Version: 6.00 Build 0)  -->
<svg version="1.1" id="call_1_" xmlns="http://www.w3.org/2000/svg" xmlns:xlink="http://www.w3.org/1999/xlink" x="0px" y="0px"
	 viewBox="0 0 50 50" style="enable-background:new 0 0 50 50;" xml:space="preserve">
<style type="text/css">
	.st0{fill:#F58733;}
	.st1{fill-rule:evenodd;clip-rule:evenodd;fill:#FFFFFF;}
</style>
<circle id="Ellipse_41" class="st0" cx="25" cy="25" r="25"/>
<path id="Path_5703" class="st1" d="M35.8,31.5L35.8,31.5c-0.2,0.5-0.4,0.9-0.6,1.4c-0.2,0.4-0.3,0.8-0.5,1.1
	c-0.1,0.3-0.3,0.5-0.5,0.8c-0.2,0.2-0.4,0.3-0.6,0.5c-1.3,0.7-2.8,0.8-4.1,0.3C23.7,34,16,26.3,14.4,20.5c-0.5-1.4-0.4-2.8,0.3-4.1
	c0.1-0.2,0.3-0.4,0.5-0.6c0.2-0.2,0.5-0.3,0.8-0.5c0.4-0.2,0.8-0.3,1.2-0.5c0.4-0.2,0.9-0.4,1.4-0.5l0,0c0.5-0.2,1,0,1.3,0.5
	l2.2,3.9c0.3,0.5,0.1,1.2-0.4,1.5c-0.8,0.4-1.4,1.2-1.6,2.1c-0.2,0.9,0,1.8,0.6,2.5c1.4,1.8,3,3.3,4.7,4.7c0.7,0.5,1.6,0.8,2.5,0.6
	c0.9-0.2,1.7-0.8,2.1-1.6c0.3-0.5,0.9-0.7,1.5-0.4l3.9,2.2C35.8,30.4,36,31,35.8,31.5L35.8,31.5z"/>
</svg>
