<svg xmlns="http://www.w3.org/2000/svg" xmlns:xlink="http://www.w3.org/1999/xlink" width="178.74" height="45.575" viewBox="0 0 178.74 45.575">
  <defs>
    <linearGradient id="linear-gradient" y1="0.5" x2="1" y2="0.5" gradientUnits="objectBoundingBox">
      <stop offset="0" stop-color="#f35729"/>
      <stop offset="1" stop-color="#f7ac3a"/>
    </linearGradient>
  </defs>
  <g id="Layer_1-2" transform="translate(0)">
    <path id="Path_5636" data-name="Path 5636" d="M178.371,219.417a316.445,316.445,0,0,0-52.464-7.187q-3.239-.193-6.462-.331v.755h-7.691v-1.02q-2.418-.064-4.821-.1A568.541,568.541,0,0,0,4.029,219.706,4.923,4.923,0,0,0,0,224.547a2.877,2.877,0,0,0,2.866,2.877,2.835,2.835,0,0,0,.691-.086C71.882,210.421,125.707,212.71,157.5,216.9c.1-.1.2-.2.3-.295h0a.009.009,0,0,0,0-.005,3.334,3.334,0,0,1,.548-.442v0a1.134,1.134,0,0,1,.564-.2l.016,0h.007a.844.844,0,0,1,.355.078.935.935,0,0,1,.288.214l0,.005.005.005a.893.893,0,0,1,.217.573v.009a1.505,1.505,0,0,1-.057.36c7.5,1.041,13.673,2.172,18.416,3.14a.474.474,0,0,0,.2-.926Z" transform="translate(0 -183.999)" fill="url(#linear-gradient)"/>
    <path id="Path_5637" data-name="Path 5637" d="M562.59,312.04Z" transform="translate(-489.504 -271.503)" fill="#2a418d"/>
    <path id="Path_5638" data-name="Path 5638" d="M558.528,248.121h0a1.776,1.776,0,0,0,.217-.346.832.832,0,0,0,.082-.339.626.626,0,0,0-.108-.359h0a.545.545,0,0,0-.165-.157.432.432,0,0,0-.222-.06.463.463,0,0,0-.19.044,1.025,1.025,0,0,0-.257.177,2.723,2.723,0,0,0-.275.288q-.448.53-1.094,1.408-.662.889-2,2.341h0a9.484,9.484,0,0,1-1.185,1.059h0a3.846,3.846,0,0,1-.508.356.641.641,0,0,1-.257.1.057.057,0,0,1-.032-.007.092.092,0,0,1-.029-.029v0l0,0a.11.11,0,0,1-.023-.069,1.835,1.835,0,0,1,.135-.57,8.537,8.537,0,0,1,.429-.946,7.331,7.331,0,0,1,1.39-1.859,5.93,5.93,0,0,1,.912-.763h0a2.588,2.588,0,0,0,.344-.242h0a.6.6,0,0,0,.2-.453.471.471,0,0,0-.125-.325l0,0,0,0a.458.458,0,0,0-.325-.138.834.834,0,0,0-.34.083,5.147,5.147,0,0,0-1.321,1.038,9.6,9.6,0,0,0-1.738,2.245,4.873,4.873,0,0,0-.716,2.216,1.229,1.229,0,0,0,.129.553.964.964,0,0,0,.312.377.77.77,0,0,0,.45.135,1.43,1.43,0,0,0,.848-.292h0a8.707,8.707,0,0,0,.789-.637c.114-.1.222-.2.329-.3l-.149.246a18.02,18.02,0,0,0-1.242,2.444c-.144.346-.253.633-.326.868a2.023,2.023,0,0,0-.116.563.626.626,0,0,0,.03.2.417.417,0,0,0,.19.231.585.585,0,0,0,.29.069.621.621,0,0,0,.44-.191h0a.98.98,0,0,0,.179-.286,3.746,3.746,0,0,0,.16-.438h0a8.536,8.536,0,0,1,.307-.805q.23-.544.613-1.364h0a19.658,19.658,0,0,1,1.554-2.764q.591-.865,2.432-3.284Z" transform="translate(-479.69 -214.79)" fill="#2a418d"/>
    <path id="Path_5639" data-name="Path 5639" d="M589.145,282.369a.625.625,0,0,0-.249-.183.842.842,0,0,0-.316-.056,1.633,1.633,0,0,0-.909.339A4.767,4.767,0,0,0,586.3,284h0a3.969,3.969,0,0,0-.624,1.984,1.143,1.143,0,0,0,.116.526h0a.86.86,0,0,0,.3.348.8.8,0,0,0,.443.121,1.532,1.532,0,0,0,.987-.421,4.828,4.828,0,0,0,.934-1.172h0a4.936,4.936,0,0,0,.863-2.386.972.972,0,0,0-.182-.63Zm-.931,1.3a3.364,3.364,0,0,1-.434.585c-.075.084-.133.153-.175.212a.784.784,0,0,0-.055.086.3.3,0,0,0-.022.049.261.261,0,0,0-.014.079.282.282,0,0,0,.029.122.484.484,0,0,0,.09.125l.017.016c-.012.026-.025.056-.042.091a1.9,1.9,0,0,1-.242.383h0v0a1.522,1.522,0,0,1-.32.326.405.405,0,0,1-.229.088l-.032-.008a.122.122,0,0,1-.036-.035.163.163,0,0,1-.027-.094,2.414,2.414,0,0,1,.312-1.007v0h0a4.1,4.1,0,0,1,.792-1.07,2.223,2.223,0,0,1,.34-.291.36.36,0,0,1,.164-.074h0l0,.005,0,.005.005.009a.864.864,0,0,1-.129.394Z" transform="translate(-509.595 -245.479)" fill="#2a418d"/>
    <path id="Path_5640" data-name="Path 5640" d="M624.341,315.31Z" transform="translate(-543.232 -274.348)" fill="#2a418d"/>
    <path id="Path_5641" data-name="Path 5641" d="M616.81,295.23h0Z" transform="translate(-536.681 -256.877)" fill="#2a418d"/>
    <path id="Path_5642" data-name="Path 5642" d="M649.23,289.6h0Z" transform="translate(-564.889 -251.978)" fill="#2a418d"/>
    <path id="Path_5643" data-name="Path 5643" d="M619.187,284.736a.309.309,0,0,0-.139-.034.576.576,0,0,0-.309.113h0a4.832,4.832,0,0,1-.583.348.955.955,0,0,1-.292.1.227.227,0,0,1,.014-.035,1.11,1.11,0,0,1,.194-.251,4.137,4.137,0,0,1,.4-.357h0a1.437,1.437,0,0,0,.224-.22.516.516,0,0,0,.071-.117.357.357,0,0,0,.032-.144.423.423,0,0,0-.095-.256h0l0,0,0,0h0a.659.659,0,0,0-.142-.152.362.362,0,0,0-.214-.074.258.258,0,0,0-.09.016,1.387,1.387,0,0,0-.23.112h0a6.425,6.425,0,0,0-.685.469c-.123.1-.243.195-.361.292a.83.83,0,0,0,.045-.082.464.464,0,0,0,.052-.2.4.4,0,0,0-.043-.181.423.423,0,0,0-.118-.139h0l0,0a.471.471,0,0,0-.274-.091.682.682,0,0,0-.413.168,2.32,2.32,0,0,0-.395.416,9.61,9.61,0,0,0-1.248,2.363c-.13.33-.227.6-.295.809a.4.4,0,0,0-.036-.029h0v0c-.1-.057-.181-.105-.235-.144l-.062-.047-.016-.014,0,0a.982.982,0,0,1-.186-.605,2.042,2.042,0,0,1,.3-.894h0q.238-.431.36-.718a2.243,2.243,0,0,0,.095-.257.757.757,0,0,0,.036-.214.5.5,0,0,0-.139-.339.466.466,0,0,0-.143-.108.4.4,0,0,0-.179-.042.539.539,0,0,0-.287.09.977.977,0,0,0-.235.22l0,0,0,0a2.527,2.527,0,0,0-.346.653h0a6.133,6.133,0,0,1-.533,1.1,4.379,4.379,0,0,1-.525.712,1.023,1.023,0,0,1-.186.156.235.235,0,0,1-.071.031v0a2.331,2.331,0,0,1,.318-.946,6.751,6.751,0,0,1,.833-1.2h0a2.035,2.035,0,0,0,.205-.275.535.535,0,0,0,.09-.268.415.415,0,0,0-.117-.277l0,0,0,0a.437.437,0,0,0-.31-.138.618.618,0,0,0-.281.077,1.558,1.558,0,0,0-.274.19h0a3.744,3.744,0,0,0-.722.848,3.976,3.976,0,0,0-.778,2.114,1.139,1.139,0,0,0,.157.6.828.828,0,0,0,.287.29.779.779,0,0,0,.391.1.978.978,0,0,0,.481-.133,1.775,1.775,0,0,0,.44-.364c.077-.084.158-.181.244-.29a1.334,1.334,0,0,0,.352.705,1.055,1.055,0,0,0,.751.325.588.588,0,0,0,.343-.109.353.353,0,0,0,.082.065.491.491,0,0,0,.247.058.528.528,0,0,0,.331-.12.881.881,0,0,0,.226-.3h0a7.483,7.483,0,0,1,1.608-2.272.621.621,0,0,0,.044.152.483.483,0,0,0,.188.213h0a.92.92,0,0,0,.5.143,2.1,2.1,0,0,0,1.247-.486,3.125,3.125,0,0,0,.455-.391.911.911,0,0,0,.133-.179.437.437,0,0,0,.06-.208.378.378,0,0,0-.117-.264.4.4,0,0,0-.1-.077Z" transform="translate(-531.486 -246.801)" fill="#2a418d"/>
    <path id="Path_5644" data-name="Path 5644" d="M671.8,300.6Z" transform="translate(-584.527 -261.549)" fill="#2a418d"/>
    <path id="Path_5645" data-name="Path 5645" d="M703.23,322.021h0Z" transform="translate(-611.874 -280.187)" fill="#2a418d"/>
    <path id="Path_5646" data-name="Path 5646" d="M739.95,290.94Z" transform="translate(-643.823 -253.144)" fill="#2a418d"/>
    <path id="Path_5647" data-name="Path 5647" d="M708.895,253.213h0a3.4,3.4,0,0,0,.9-2.173,1.739,1.739,0,0,0-.477-1.193h0a1.706,1.706,0,0,0-.569-.422,1.664,1.664,0,0,0-.686-.143,3.56,3.56,0,0,0-.647.071c-.194.036-.408.087-.643.151a.45.45,0,0,0-.17-.222.534.534,0,0,0-.3-.082.544.544,0,0,0-.2.035.418.418,0,0,0-.171.121.649.649,0,0,0-.1.181,1.951,1.951,0,0,0-.078.24v.007a1.248,1.248,0,0,1-.043.133c-.242.129-.5.282-.773.464h0a2.007,2.007,0,0,0-.455.395.721.721,0,0,0-.179.449.544.544,0,0,0,.082.283h0v0a.5.5,0,0,0,.155.157.4.4,0,0,0,.216.06.63.63,0,0,0,.3-.087c-.055.121-.118.256-.191.407q-.3.624-.805,1.585a.789.789,0,0,0-.152-.017.583.583,0,0,0-.371.138h0a.609.609,0,0,0-.149.186.513.513,0,0,0-.055.231.564.564,0,0,0,.1.309.9.9,0,0,0,.127.147q-.7,1.462-1.068,2.353c-.126.31-.222.569-.287.779a1.85,1.85,0,0,0-.1.505.639.639,0,0,0,.142.395.59.59,0,0,0,.187.162.5.5,0,0,0,.24.06.419.419,0,0,0,.2-.052.6.6,0,0,0,.214-.216,1.386,1.386,0,0,0,.139-.321h0v0c.013-.043.055-.168.123-.355s.164-.447.286-.772c.155-.405.468-1.1.937-2.076h0l.035-.075a3.083,3.083,0,0,0,.452.04,4.8,4.8,0,0,0,1.951-.43h0a5.244,5.244,0,0,0,1.886-1.41Zm-.313-1.33a4.49,4.49,0,0,1-1.5,1.452,3.452,3.452,0,0,1-1.707.6,1.883,1.883,0,0,1-.243-.025q.218-.458.7-1.441h0a15.962,15.962,0,0,0,.716-1.672,3.728,3.728,0,0,1,.725-.275,3.075,3.075,0,0,1,.764-.1,1.165,1.165,0,0,1,.678.156.423.423,0,0,1,.136.168.617.617,0,0,1,.049.26,1.729,1.729,0,0,1-.317.877h0Z" transform="translate(-610.882 -216.827)" fill="#2a418d"/>
    <path id="Path_5648" data-name="Path 5648" d="M778.371,300.6Z" transform="translate(-677.252 -261.549)" fill="#2a418d"/>
    <path id="Path_5649" data-name="Path 5649" d="M750.991,287.032a4.638,4.638,0,0,0,.511-.565,1.4,1.4,0,0,0,.142-.234A.586.586,0,0,0,751.7,286a.358.358,0,0,0-.078-.216l0,0,0,0a.438.438,0,0,0-.12-.1.321.321,0,0,0-.162-.042.464.464,0,0,0-.257.088,1.139,1.139,0,0,0-.218.2h0v0a5.124,5.124,0,0,1-1.008.943,1.484,1.484,0,0,1-.809.294.633.633,0,0,1-.255-.045.33.33,0,0,1-.144-.122h0a.259.259,0,0,1-.039-.139,3.693,3.693,0,0,0,2.033-1.534h0a1.94,1.94,0,0,0,.362-.983.668.668,0,0,0-.062-.29.662.662,0,0,0-.184-.231h0l0,0a.7.7,0,0,0-.434-.147,1.6,1.6,0,0,0-.8.251,4.23,4.23,0,0,0-.86.7c-.116.117-.22.236-.317.355a.4.4,0,0,0-.1-.16h0a.394.394,0,0,0-.1-.077.306.306,0,0,0-.139-.034.573.573,0,0,0-.309.113h0a4.665,4.665,0,0,1-.583.348.955.955,0,0,1-.292.1.22.22,0,0,1,.014-.035,1.072,1.072,0,0,1,.194-.251,4.145,4.145,0,0,1,.4-.357h0a1.439,1.439,0,0,0,.224-.22.515.515,0,0,0,.071-.117.356.356,0,0,0,.032-.144.426.426,0,0,0-.095-.256h0l0,0,0,0h0a.627.627,0,0,0-.142-.151.362.362,0,0,0-.214-.074.258.258,0,0,0-.09.016,1.336,1.336,0,0,0-.229.112h0a6.561,6.561,0,0,0-.686.469c-.123.1-.243.195-.361.292a.86.86,0,0,0,.045-.082.465.465,0,0,0,.052-.2.385.385,0,0,0-.044-.181.412.412,0,0,0-.12-.139l0,0h0a.464.464,0,0,0-.274-.092.682.682,0,0,0-.413.168,2.32,2.32,0,0,0-.395.416,9.586,9.586,0,0,0-1.248,2.363c-.132.338-.231.611-.3.822-.034.107-.06.2-.078.275a.976.976,0,0,0-.03.207.537.537,0,0,0,.026.168.373.373,0,0,0,.168.2.49.49,0,0,0,.247.058.522.522,0,0,0,.331-.121.862.862,0,0,0,.225-.3h0a7.479,7.479,0,0,1,1.608-2.272.618.618,0,0,0,.044.152.483.483,0,0,0,.188.213h0a.917.917,0,0,0,.5.143,2.1,2.1,0,0,0,1.247-.486l.1-.079a2.8,2.8,0,0,0-.292,1.224,1.217,1.217,0,0,0,.239.785h0a1.112,1.112,0,0,0,.416.317,1.3,1.3,0,0,0,.531.1,2.447,2.447,0,0,0,1.163-.335,5.084,5.084,0,0,0,1.129-.839h0Zm-1.345-2.053h0a1.755,1.755,0,0,1,.257-.179.533.533,0,0,1,.049-.023.607.607,0,0,1-.058.117h0v0a2.839,2.839,0,0,1-.705.776,1.81,1.81,0,0,1-.23.142,2.9,2.9,0,0,1,.689-.833Z" transform="translate(-646.582 -246.801)" fill="#2a418d"/>
    <path id="Path_5650" data-name="Path 5650" d="M815.03,344.04Z" transform="translate(-709.15 -299.346)" fill="#2a418d"/>
    <path id="Path_5651" data-name="Path 5651" d="M840.91,252.87h0Z" transform="translate(-731.668 -220.02)" fill="#2a418d"/>
    <path id="Path_5652" data-name="Path 5652" d="M808.736,257.049a.586.586,0,0,0,.058-.234.354.354,0,0,0-.078-.214l0,0,0,0a.413.413,0,0,0-.12-.1.322.322,0,0,0-.162-.042.461.461,0,0,0-.257.088,1.138,1.138,0,0,0-.218.2h0v0a5.123,5.123,0,0,1-1.008.943,1.483,1.483,0,0,1-.809.294.633.633,0,0,1-.255-.045.331.331,0,0,1-.144-.122h0a.258.258,0,0,1-.04-.139,3.693,3.693,0,0,0,2.033-1.534,1.928,1.928,0,0,0,.362-.985.668.668,0,0,0-.062-.29.677.677,0,0,0-.185-.231h0l0,0a.7.7,0,0,0-.434-.147,1.605,1.605,0,0,0-.8.251,3.9,3.9,0,0,0-.685.533.451.451,0,0,0,.008-.083.61.61,0,0,0-.077-.292.776.776,0,0,0-.207-.231h0a1.018,1.018,0,0,0-.631-.2,2.545,2.545,0,0,0-.643.11c-.143.039-.3.09-.475.148a19.142,19.142,0,0,1,2.463-3.631h0a1.8,1.8,0,0,0,.2-.277.568.568,0,0,0,.083-.274.413.413,0,0,0-.045-.191.421.421,0,0,0-.114-.134h0l-.01-.008-.005-.005h0a.4.4,0,0,0-.253-.09.662.662,0,0,0-.335.1,1.671,1.671,0,0,0-.322.259,10.812,10.812,0,0,0-1.134,1.41,23.9,23.9,0,0,0-2.025,3.628,3.623,3.623,0,0,0-.622.507,1.224,1.224,0,0,0-.187.259.61.61,0,0,0-.074.279.5.5,0,0,0,.02.144.346.346,0,0,0,.136.19.426.426,0,0,0,.047.026q-.062.15-.125.288h0v0c-.3.676-.479,1.093-.547,1.264v0a9.8,9.8,0,0,0-.773,3.088,1.571,1.571,0,0,0,.2.841v0h0a.951.951,0,0,0,.305.305.781.781,0,0,0,.4.108,1.166,1.166,0,0,0,.529-.131,1.835,1.835,0,0,0,.483-.368,5.549,5.549,0,0,0,.859-1.237h0a7.64,7.64,0,0,0,1.013-3.6,2.514,2.514,0,0,0-.252-1.174h0v0a1.243,1.243,0,0,0-.378-.413,2.646,2.646,0,0,1,1.264-.426.369.369,0,0,1,.16.027,3.117,3.117,0,0,0,.295.148.679.679,0,0,0,.244.062.5.5,0,0,0,.117-.013,3.247,3.247,0,0,0-.905,2.13,1.217,1.217,0,0,0,.239.785h0v0a1.112,1.112,0,0,0,.416.317,1.3,1.3,0,0,0,.531.1,2.451,2.451,0,0,0,1.163-.335,5.085,5.085,0,0,0,1.129-.839h0a4.726,4.726,0,0,0,.51-.564,1.4,1.4,0,0,0,.142-.234Zm-2-1.254h0a1.761,1.761,0,0,1,.257-.179.525.525,0,0,1,.049-.023.606.606,0,0,1-.058.117h0v0a2.861,2.861,0,0,1-.705.776,1.814,1.814,0,0,1-.23.142,2.9,2.9,0,0,1,.689-.833Zm-4.37,4.542h0a5.974,5.974,0,0,1-.6,1.026,1.211,1.211,0,0,1-.222.229.211.211,0,0,1-.116.052l-.022-.007a.18.18,0,0,1-.044-.045.382.382,0,0,1-.057-.207,7.443,7.443,0,0,1,.631-2.47h0c.366-.942.67-1.651.905-2.127l.035.022a.392.392,0,0,1,.081.07h0v0a1.069,1.069,0,0,1,.157.652,6.428,6.428,0,0,1-.755,2.8Z" transform="translate(-696.307 -217.618)" fill="#2a418d"/>
    <path id="Path_5653" data-name="Path 5653" d="M857.66,296.5Z" transform="translate(-746.242 -257.982)" fill="#2a418d"/>
    <path id="Path_5654" data-name="Path 5654" d="M897.171,300.6Z" transform="translate(-780.619 -261.549)" fill="#2a418d"/>
    <path id="Path_5655" data-name="Path 5655" d="M874.61,289.6Z" transform="translate(-760.99 -251.978)" fill="#2a418d"/>
    <path id="Path_5656" data-name="Path 5656" d="M866.894,285.444a.908.908,0,0,0,.133-.179.437.437,0,0,0,.06-.208.378.378,0,0,0-.117-.264.4.4,0,0,0-.1-.077.31.31,0,0,0-.139-.034.572.572,0,0,0-.309.113h0a4.665,4.665,0,0,1-.583.348.955.955,0,0,1-.292.1.221.221,0,0,1,.014-.035,1.109,1.109,0,0,1,.194-.251,4.143,4.143,0,0,1,.4-.357h0a1.438,1.438,0,0,0,.223-.22.516.516,0,0,0,.071-.117.337.337,0,0,0,.032-.144.423.423,0,0,0-.095-.256h0l0,0,0,0h0a.659.659,0,0,0-.142-.152.362.362,0,0,0-.214-.074.259.259,0,0,0-.09.016,1.334,1.334,0,0,0-.229.112h0a6.786,6.786,0,0,0-.686.47c-.123.1-.243.195-.361.292a.847.847,0,0,0,.045-.082.464.464,0,0,0,.052-.2.387.387,0,0,0-.044-.181.413.413,0,0,0-.12-.139h0l0,0a.472.472,0,0,0-.274-.091.682.682,0,0,0-.413.168,2.32,2.32,0,0,0-.395.416,9.608,9.608,0,0,0-1.248,2.363c-.133.338-.231.611-.3.822-.034.107-.06.2-.078.275a.988.988,0,0,0-.03.207.536.536,0,0,0,.026.168.373.373,0,0,0,.168.2.49.49,0,0,0,.247.058.529.529,0,0,0,.331-.12.882.882,0,0,0,.226-.3h0a7.481,7.481,0,0,1,1.608-2.272.618.618,0,0,0,.044.152.483.483,0,0,0,.188.213h0a.917.917,0,0,0,.5.143,2.1,2.1,0,0,0,1.247-.486,3.126,3.126,0,0,0,.455-.391Z" transform="translate(-749.887 -246.784)" fill="#2a418d"/>
    <path id="Path_5657" data-name="Path 5657" d="M907.33,289.6Z" transform="translate(-789.459 -251.978)" fill="#2a418d"/>
    <path id="Path_5658" data-name="Path 5658" d="M929.891,300.6Z" transform="translate(-809.089 -261.549)" fill="#2a418d"/>
    <path id="Path_5659" data-name="Path 5659" d="M952.47,296.5Z" transform="translate(-828.735 -257.982)" fill="#2a418d"/>
    <path id="Path_5660" data-name="Path 5660" d="M955.231,309.68h0Z" transform="translate(-831.137 -269.45)" fill="#2a418d"/>
    <path id="Path_5661" data-name="Path 5661" d="M908.78,254.317l0,0a.464.464,0,0,0-.331-.144.571.571,0,0,0-.317.105,1.186,1.186,0,0,0-.266.259,5.556,5.556,0,0,0-.317.472q-.2.325-.494.835-.569.992-1.2,2.3a1.006,1.006,0,0,0-.418-.1,1.751,1.751,0,0,0-.956.295,3.21,3.21,0,0,0-.847.843,4.72,4.72,0,0,0-.526.922.393.393,0,0,0-.1-.082.322.322,0,0,0-.162-.042.461.461,0,0,0-.257.088,1.139,1.139,0,0,0-.218.2l0,0h0a5.165,5.165,0,0,1-1.008.943,1.484,1.484,0,0,1-.809.294.633.633,0,0,1-.255-.045.33.33,0,0,1-.144-.122h0a.271.271,0,0,1-.039-.139,3.693,3.693,0,0,0,2.033-1.534,1.928,1.928,0,0,0,.362-.985.668.668,0,0,0-.062-.29.677.677,0,0,0-.184-.231h0l0,0a.7.7,0,0,0-.434-.147,1.6,1.6,0,0,0-.8.251,4.267,4.267,0,0,0-.86.7c-.116.117-.218.236-.317.355a.417.417,0,0,0-.2-.236.309.309,0,0,0-.139-.034.572.572,0,0,0-.309.113h0a4.656,4.656,0,0,1-.583.348.955.955,0,0,1-.292.1.222.222,0,0,1,.014-.035,1.109,1.109,0,0,1,.194-.251,4.147,4.147,0,0,1,.4-.357h0a1.562,1.562,0,0,0,.223-.221.512.512,0,0,0,.071-.117.336.336,0,0,0,.032-.144.422.422,0,0,0-.095-.256h0s0,0,0,0l0,0h0a.659.659,0,0,0-.142-.152.362.362,0,0,0-.214-.074.26.26,0,0,0-.09.016,1.334,1.334,0,0,0-.229.112h0a6.418,6.418,0,0,0-.685.469c-.123.1-.243.195-.361.292a.856.856,0,0,0,.045-.082.465.465,0,0,0,.052-.2.4.4,0,0,0-.043-.181.411.411,0,0,0-.12-.139h0v0a.472.472,0,0,0-.274-.091.682.682,0,0,0-.413.168,2.319,2.319,0,0,0-.395.416,9.608,9.608,0,0,0-1.25,2.363c-.133.338-.231.611-.3.822-.034.107-.06.2-.078.275a.98.98,0,0,0-.03.207.538.538,0,0,0,.026.168.373.373,0,0,0,.168.2.49.49,0,0,0,.247.058.529.529,0,0,0,.331-.12.862.862,0,0,0,.225-.3h0a7.479,7.479,0,0,1,1.608-2.272.618.618,0,0,0,.044.152.482.482,0,0,0,.188.213h0a0,0,0,0,1,0,0h0a.917.917,0,0,0,.5.143,2.1,2.1,0,0,0,1.247-.486l.1-.079a2.8,2.8,0,0,0-.292,1.224,1.217,1.217,0,0,0,.239.785v0h0a1.112,1.112,0,0,0,.416.317,1.3,1.3,0,0,0,.531.1,2.451,2.451,0,0,0,1.163-.335,5.074,5.074,0,0,0,1.128-.839c.139-.135.256-.257.355-.372a3.024,3.024,0,0,0-.031.418,1.508,1.508,0,0,0,.171.721,1.071,1.071,0,0,0,.32.382.769.769,0,0,0,.446.14.939.939,0,0,0,.409-.1,1.8,1.8,0,0,0,.568-.469c.081-.095.161-.2.242-.318a1.288,1.288,0,0,0,.379.727,1.025,1.025,0,0,0,.225.175.534.534,0,0,0,.256.071.47.47,0,0,0,.205-.047.547.547,0,0,0,.168-.126.542.542,0,0,0,.157-.378.465.465,0,0,0-.018-.139.294.294,0,0,0-.09-.142l0,0,0,0c-.07-.055-.125-.1-.161-.131a.353.353,0,0,1-.038-.036l0,0h0a.906.906,0,0,1-.117-.507,3.728,3.728,0,0,1,.229-1.13,12.887,12.887,0,0,1,.7-1.643q.816-1.629,1.8-3.21h0a2.541,2.541,0,0,0,.186-.338.735.735,0,0,0,.074-.286.47.47,0,0,0-.131-.318l0,0Zm-7.63,5.012h0a1.76,1.76,0,0,1,.257-.179.525.525,0,0,1,.049-.023.6.6,0,0,1-.058.117v0h0a2.837,2.837,0,0,1-.705.776,1.81,1.81,0,0,1-.23.142,2.9,2.9,0,0,1,.689-.833Zm4.279-.23v0c-.087.188-.175.378-.265.566h0a7.859,7.859,0,0,1-.822,1.415h0a1.638,1.638,0,0,1-.279.312.27.27,0,0,1-.144.074.045.045,0,0,1-.034-.009.12.12,0,0,1-.038-.052.285.285,0,0,1-.023-.109,2.8,2.8,0,0,1,.635-1.646h0a1.856,1.856,0,0,1,.474-.478.813.813,0,0,1,.452-.144.215.215,0,0,1,.07.016l-.025.053Z" transform="translate(-778.4 -221.151)" fill="#2a418d"/>
    <path id="Path_5662" data-name="Path 5662" d="M996.52,256.977l0-.007h0Z" transform="translate(-867.063 -223.587)" fill="#2a418d"/>
    <path id="Path_5663" data-name="Path 5663" d="M996.55,256.97h0Z" transform="translate(-867.089 -223.587)" fill="#2a418d"/>
    <path id="Path_5664" data-name="Path 5664" d="M959.043,315.594l0,0h0Z" transform="translate(-834.452 -274.592)" fill="#2a418d"/>
    <path id="Path_5665" data-name="Path 5665" d="M977.221,318.39Z" transform="translate(-850.27 -277.028)" fill="#2a418d"/>
    <path id="Path_5666" data-name="Path 5666" d="M959.04,315.59Z" transform="translate(-834.452 -274.592)" fill="#2a418d"/>
    <path id="Path_5667" data-name="Path 5667" d="M1037.34,307.03Z" transform="translate(-902.58 -267.144)" fill="#2a418d"/>
    <path id="Path_5668" data-name="Path 5668" d="M1020.463,248.871l.391-.687c.094-.165.148-.262.169-.3h0a3.479,3.479,0,0,0,.218-.451,1.035,1.035,0,0,0,.082-.365.533.533,0,0,0-.161-.388h0l0,0,0,0h0a.594.594,0,0,0-.435-.181.837.837,0,0,0-.444.144,2.084,2.084,0,0,0-.43.381h0q-.7.776-1.559,1.914-1.475,1.958-2.154,3.006c-.157.243-.295.456-.418.644q.193-.666.509-1.468a21.171,21.171,0,0,1,1.486-2.959l.005-.008,0,.008a3.168,3.168,0,0,0,.226-.427.9.9,0,0,0,.086-.344.6.6,0,0,0-.057-.256.681.681,0,0,0-.159-.208h0a.57.57,0,0,0-.392-.171.683.683,0,0,0-.342.105,1.827,1.827,0,0,0-.34.266h0c-.226.222-.611.676-1.169,1.376a32.145,32.145,0,0,0-3.476,5.382c-.195.379-.469.991-.828,1.84-.084.194-.148.351-.192.475-.022.062-.039.116-.052.164a.646.646,0,0,0-.022.14.407.407,0,0,0,.095.265h0l0,.005,0,.005h0a.4.4,0,0,0,.13.108.387.387,0,0,0,.181.044.628.628,0,0,0,.278-.065.963.963,0,0,0,.339-.3,2.293,2.293,0,0,0,.265-.487h0q.61-1.434,1.034-2.29a31.733,31.733,0,0,1,2.038-3.475c.056-.081.112-.157.168-.236-.281.578-.515,1.112-.7,1.6a6.712,6.712,0,0,0-.517,2.251.893.893,0,0,0,.105.438.591.591,0,0,0,.547.322.81.81,0,0,0,.344-.081,1.338,1.338,0,0,0,.323-.218,4.838,4.838,0,0,0,.776-1.028l0,0,0,0a41.165,41.165,0,0,1,2.444-3.618q-.918,1.717-1.471,3.014a8.319,8.319,0,0,0-.816,2.923,1.11,1.11,0,0,0,.126.566h0l0,0a.007.007,0,0,0,0,0h0a.656.656,0,0,0,.191.225.476.476,0,0,0,.285.091.516.516,0,0,0,.244-.061.655.655,0,0,0,.19-.16h0s0,0,0,0a0,0,0,0,0,0,0h0a.74.74,0,0,0,.194-.487c0-.035,0-.066-.009-.122s-.014-.125-.026-.214h0v-.005a.912.912,0,0,1-.012-.14,4.333,4.333,0,0,1,.229-1.091,25.2,25.2,0,0,1,1.274-3.146c.208-.443.612-1.2,1.209-2.255h0Z" transform="translate(-879.653 -214.468)" fill="#2a418d"/>
    <path id="Path_5669" data-name="Path 5669" d="M1091.85,318.171Z" transform="translate(-950.008 -276.837)" fill="#2a418d"/>
    <path id="Path_5670" data-name="Path 5670" d="M1100.621,320.19Z" transform="translate(-957.639 -278.594)" fill="#2a418d"/>
    <path id="Path_5671" data-name="Path 5671" d="M1122.77,267.671Z" transform="translate(-976.912 -232.897)" fill="#2a418d"/>
    <path id="Path_5672" data-name="Path 5672" d="M1128.64,274.83Z" transform="translate(-982.019 -239.127)" fill="#2a418d"/>
    <path id="Path_5673" data-name="Path 5673" d="M1119.717,266.627l0,0s0,0,0,0h0a.47.47,0,0,0,.155.116.464.464,0,0,0,.2.04.711.711,0,0,0,.368-.11,1.409,1.409,0,0,0,.326-.288,1.675,1.675,0,0,0,.252-.374.884.884,0,0,0,.094-.382.625.625,0,0,0-.029-.2.429.429,0,0,0-.182-.235.538.538,0,0,0-.286-.071.642.642,0,0,0-.318.094,1.351,1.351,0,0,0-.292.235,1.724,1.724,0,0,0-.3.4.912.912,0,0,0-.112.424.5.5,0,0,0,.127.34h0Z" transform="translate(-974.144 -230.687)" fill="#2a418d"/>
    <path id="Path_5674" data-name="Path 5674" d="M1128.644,274.79l0,.005h0Z" transform="translate(-982.019 -239.092)" fill="#2a418d"/>
    <path id="Path_5675" data-name="Path 5675" d="M1111.57,289.874l0,0h0Z" transform="translate(-967.167 -252.213)" fill="#2a418d"/>
    <path id="Path_5676" data-name="Path 5676" d="M1080.5,283.407h0a2.219,2.219,0,0,0,.16-.265.582.582,0,0,0,.068-.246.444.444,0,0,0-.091-.261l0-.005-.005-.005a.429.429,0,0,0-.335-.156.467.467,0,0,0-.214.053.663.663,0,0,0-.172.131h0l0,0h0a3.884,3.884,0,0,0-.386.505,9.616,9.616,0,0,0-1.121,2.051c-.146.387-.255.694-.329.925-.021.065-.038.122-.053.175-.013-.008-.023-.018-.036-.025h0c-.074-.035-.132-.065-.173-.088l-.046-.027-.005,0a.469.469,0,0,1-.116-.335,2.8,2.8,0,0,1,.2-.873h0a5.086,5.086,0,0,1,.378-.851h0a2.775,2.775,0,0,0,.155-.305.68.68,0,0,0,.061-.26.554.554,0,0,0-.079-.27,1.131,1.131,0,0,0,.094-.395.627.627,0,0,0-.058-.266.737.737,0,0,0-.164-.223h0v0a.862.862,0,0,0-.6-.227,1.812,1.812,0,0,0-1.055.388h0a4.59,4.59,0,0,0-1.333,1.621,3.848,3.848,0,0,0-.5,1.751,1.231,1.231,0,0,0,.155.624h0a.921.921,0,0,0,.309.326.814.814,0,0,0,.425.114.993.993,0,0,0,.524-.161,1.97,1.97,0,0,0,.473-.439h0c.031-.039.061-.079.091-.121a1.137,1.137,0,0,0,.245.57,1.112,1.112,0,0,0,.349.292.92.92,0,0,0,.429.1.543.543,0,0,0,.361-.134.511.511,0,0,0,.064-.066.476.476,0,0,0,.068.045.462.462,0,0,0,.207.047.471.471,0,0,0,.335-.14.82.82,0,0,0,.186-.331,15.284,15.284,0,0,1,.556-1.476v0h0a12.414,12.414,0,0,1,.99-1.771Zm-3.092.053h0a0,0,0,0,1,0,0h0a6.023,6.023,0,0,0-.359.66h0a11.029,11.029,0,0,1-.594,1.1h0a2.385,2.385,0,0,1-.374.481.683.683,0,0,1-.139.1.205.205,0,0,1-.086.023.077.077,0,0,1-.034-.005l-.005-.005h0a.272.272,0,0,1-.027-.147,3.067,3.067,0,0,1,.633-1.585,2.868,2.868,0,0,1,.543-.635.677.677,0,0,1,.42-.183.134.134,0,0,1,.09.034.345.345,0,0,1,.039.038.846.846,0,0,0-.1.12Z" transform="translate(-935.112 -245.505)" fill="#2a418d"/>
    <path id="Path_5677" data-name="Path 5677" d="M1102.96,305.66Z" transform="translate(-959.675 -265.952)" fill="#2a418d"/>
    <path id="Path_5678" data-name="Path 5678" d="M1111.59,289.87Z" transform="translate(-967.184 -252.213)" fill="#2a418d"/>
    <path id="Path_5679" data-name="Path 5679" d="M1153.88,256.97Z" transform="translate(-1003.98 -223.587)" fill="#2a418d"/>
    <path id="Path_5680" data-name="Path 5680" d="M1121,254.317l0,0a.467.467,0,0,0-.331-.144.571.571,0,0,0-.317.105,1.185,1.185,0,0,0-.266.259,5.53,5.53,0,0,0-.317.472q-.2.325-.494.835-.569.992-1.2,2.3a1.006,1.006,0,0,0-.418-.1,1.751,1.751,0,0,0-.956.295,3.209,3.209,0,0,0-.847.843,3.826,3.826,0,0,0-.811,2.244,1.522,1.522,0,0,0,.172.721,1.07,1.07,0,0,0,.32.382.768.768,0,0,0,.446.14.939.939,0,0,0,.409-.1,1.8,1.8,0,0,0,.568-.469,3.959,3.959,0,0,0,.242-.318,1.285,1.285,0,0,0,.379.728,1.025,1.025,0,0,0,.225.175.533.533,0,0,0,.256.071.47.47,0,0,0,.205-.047.549.549,0,0,0,.168-.126.542.542,0,0,0,.157-.378.465.465,0,0,0-.018-.139.292.292,0,0,0-.09-.142l0,0,0,0c-.07-.055-.125-.1-.161-.131a.36.36,0,0,1-.038-.036l0,0h0a.918.918,0,0,1-.117-.507,3.76,3.76,0,0,1,.227-1.13,12.888,12.888,0,0,1,.7-1.643h0q.816-1.627,1.8-3.21h0a2.547,2.547,0,0,0,.186-.338.736.736,0,0,0,.074-.286.47.47,0,0,0-.131-.318l0,0Zm-3.35,4.783h0v0c-.086.188-.173.378-.264.566v0a8.079,8.079,0,0,1-.822,1.412h0a1.683,1.683,0,0,1-.279.312.27.27,0,0,1-.144.074.046.046,0,0,1-.034-.009.131.131,0,0,1-.038-.052.287.287,0,0,1-.023-.109,2.791,2.791,0,0,1,.635-1.646h0a1.853,1.853,0,0,1,.474-.478.813.813,0,0,1,.452-.144.215.215,0,0,1,.07.016l-.025.053Z" transform="translate(-970.186 -221.151)" fill="#2a418d"/>
    <path id="Path_5681" data-name="Path 5681" d="M1116.36,315.59Z" transform="translate(-971.334 -274.592)" fill="#2a418d"/>
    <path id="Path_5682" data-name="Path 5682" d="M1116.363,315.594l0,0h0Z" transform="translate(-971.334 -274.592)" fill="#2a418d"/>
    <path id="Path_5683" data-name="Path 5683" d="M1216.16,252.431h0Z" transform="translate(-1058.169 -219.637)" fill="#2a418d"/>
    <path id="Path_5684" data-name="Path 5684" d="M1171.99,254.5a13.192,13.192,0,0,0-.336,2.566,1.063,1.063,0,0,0,.118.531h0a0,0,0,0,0,0,0s0,0,0,0h0a.657.657,0,0,0,.213.24.56.56,0,0,0,.311.091.454.454,0,0,0,.219-.055.469.469,0,0,0,.209-.262,1.083,1.083,0,0,0,.052-.362v-.022c0-.092.014-.277.043-.539s.073-.6.131-1.025c.117-.657.218-1.191.3-1.6.068-.326.126-.57.173-.73a3.3,3.3,0,0,1,.43-.023c.064,0,.116,0,.158,0l.061-.005a.415.415,0,0,0,.049-.01h0l.012,0h0a.542.542,0,0,0,.291-.226h0a.653.653,0,0,0,.117-.361.512.512,0,0,0-.04-.207.436.436,0,0,0-.225-.222.773.773,0,0,0-.318-.06c-.069,0-.156,0-.251.005q.1-.4.29-1.035.3-.945.621-1.773h0a4.271,4.271,0,0,0,.148-.421,1.179,1.179,0,0,0,.054-.313.631.631,0,0,0-.153-.408l0,0,0,0a.639.639,0,0,0-.2-.152.573.573,0,0,0-.245-.053.866.866,0,0,0-.45.159,3.261,3.261,0,0,0-.5.411,24.864,24.864,0,0,0-1.806,1.908h0c-.4.464-.728.843-.974,1.139s-.412.507-.505.642h0q-.3.429-.487.689c-.1.142-.177.243-.224.3a7.82,7.82,0,0,1-.747.273h0a4.78,4.78,0,0,0-.989.391h0s0,0,0,0h0a.491.491,0,0,0-.192.207.632.632,0,0,0-.061.282.487.487,0,0,0,.083.275h0l0,.005a.03.03,0,0,0,.005.008h0a.444.444,0,0,0,.147.144.415.415,0,0,0,.216.056.832.832,0,0,0,.348-.091h0c.074-.032.153-.061.233-.092l-.069.108q-.565.885-.847,1.372h0c-.172.3-.3.542-.388.729a2.637,2.637,0,0,0-.1.244.65.65,0,0,0-.043.2.462.462,0,0,0,.135.321h0l0,.005a.029.029,0,0,1,.005.007h0a.52.52,0,0,0,.151.114.444.444,0,0,0,.2.043.558.558,0,0,0,.353-.136,1.215,1.215,0,0,0,.264-.327h0c.132-.214.23-.378.3-.495h0l.36-.629q.725-1.245,1.33-2.138a14.209,14.209,0,0,1,2.215-.631q-.076.378-.2.946Zm-.478-1.86h0c-.233.069-.43.126-.594.173a21.867,21.867,0,0,1,1.968-2.373c.118-.126.236-.238.352-.343-.053.147-.11.3-.173.473-.168.443-.271.737-.317.9h0q-.2.684-.279.944c-.482.105-.8.179-.955.223Z" transform="translate(-1015.283 -215.835)" fill="#2a418d"/>
    <path id="Path_5685" data-name="Path 5685" d="M1213.375,284.561a1.405,1.405,0,0,0,.142-.234.586.586,0,0,0,.059-.234.358.358,0,0,0-.078-.216l0,0,0,0a.412.412,0,0,0-.12-.1.322.322,0,0,0-.162-.042.461.461,0,0,0-.257.088,1.139,1.139,0,0,0-.218.2l0,0h0a5.163,5.163,0,0,1-1.008.943,1.484,1.484,0,0,1-.809.294.633.633,0,0,1-.255-.045.33.33,0,0,1-.144-.122h0a.259.259,0,0,1-.039-.139,3.692,3.692,0,0,0,2.033-1.534h0a1.927,1.927,0,0,0,.363-.983.668.668,0,0,0-.062-.29.677.677,0,0,0-.184-.231h0l0,0a.7.7,0,0,0-.434-.147,1.6,1.6,0,0,0-.8.251,4.264,4.264,0,0,0-.86.7,4.973,4.973,0,0,0-.594.729.355.355,0,0,0-.012-.048.311.311,0,0,0-.138-.168.385.385,0,0,0-.425.038.679.679,0,0,0-.155.182l0,0v0a7.3,7.3,0,0,1-.722,1h0a3.847,3.847,0,0,1-.392.405c.081-.152.165-.3.255-.453h0c.27-.46.466-.773.581-.929h0a.654.654,0,0,0,.068-.105.327.327,0,0,0,.038-.143.363.363,0,0,0-.073-.2.71.71,0,0,0-.051-.062,1.983,1.983,0,0,0,.178-.733.868.868,0,0,0-.043-.282.606.606,0,0,0-.14-.23h0a.809.809,0,0,0-.59-.253,1.542,1.542,0,0,0-.633.151,3.149,3.149,0,0,0-.673.427h0a5.553,5.553,0,0,0-1.421,1.812h0a3.076,3.076,0,0,0-.422,1.343,1.075,1.075,0,0,0,.123.495h0v0a.8.8,0,0,0,.257.292.653.653,0,0,0,.364.105,1.2,1.2,0,0,0,.631-.216l.009-.007c-.022.046-.043.092-.066.14-.487.272-.876.49-1.16.655-.147.086-.268.156-.361.213s-.156.1-.2.133h0a4.254,4.254,0,0,0-1.073,1.046,2.05,2.05,0,0,0-.375,1.15,1.107,1.107,0,0,0,.133.54h0a.821.821,0,0,0,.326.33.966.966,0,0,0,.464.108,1.545,1.545,0,0,0,.977-.411,4.95,4.95,0,0,0,.948-1.143h0c.24-.381.6-1.073,1.087-2.09a7.391,7.391,0,0,0,2.216-2,2.651,2.651,0,0,0-.062.553,1.218,1.218,0,0,0,.239.785h0a1.105,1.105,0,0,0,.416.32,1.3,1.3,0,0,0,.531.1,2.447,2.447,0,0,0,1.163-.335,5.077,5.077,0,0,0,1.128-.839,4.744,4.744,0,0,0,.511-.564Zm-1.855-1.487h0a1.76,1.76,0,0,1,.257-.179.533.533,0,0,1,.049-.023.611.611,0,0,1-.058.117v0h0a2.863,2.863,0,0,1-.705.776,1.827,1.827,0,0,1-.23.142,2.9,2.9,0,0,1,.689-.833Zm-6.316,5.251a3.135,3.135,0,0,1-.495.638.862.862,0,0,1-.193.139.309.309,0,0,1-.135.036l-.025-.005a.093.093,0,0,1-.023-.026.106.106,0,0,1-.013-.057.516.516,0,0,1,.031-.143,2.028,2.028,0,0,1,.417-.7,4.349,4.349,0,0,1,.993-.837C1205.593,287.682,1205.408,288,1205.2,288.324Zm2.793-5.655a1.316,1.316,0,0,1-.113.218h0a3.045,3.045,0,0,1-.518.64h0a.683.683,0,0,0-.1.12.307.307,0,0,0-.056.173.238.238,0,0,0,.021.1.393.393,0,0,0,.036.061c-.016.023-.032.051-.053.083v0a5.247,5.247,0,0,1-.446.588,2.389,2.389,0,0,1-.349.339.375.375,0,0,1-.173.086h-.014a.172.172,0,0,1-.006-.055,1.59,1.59,0,0,1,.161-.548,4.78,4.78,0,0,1,.967-1.417,3.052,3.052,0,0,1,.449-.392.592.592,0,0,1,.229-.105.335.335,0,0,1-.029.108Z" transform="translate(-1046.98 -244.896)" fill="#2a418d"/>
    <path id="Path_5686" data-name="Path 5686" d="M1276.931,309.68h0Z" transform="translate(-1111.045 -269.45)" fill="#2a418d"/>
    <path id="Path_5687" data-name="Path 5687" d="M1282.368,287.087a1.428,1.428,0,0,0,.2-.3.685.685,0,0,0,.079-.307.621.621,0,0,0-.025-.183.4.4,0,0,0-.164-.226.479.479,0,0,0-.266-.073.891.891,0,0,0-.382.105,3.793,3.793,0,0,0-.705.478c-.053.043-.109.091-.165.138a.547.547,0,0,0,.031-.165.485.485,0,0,0-.151-.351h0a.435.435,0,0,0-.3-.138.414.414,0,0,0-.175.04.75.75,0,0,0-.217.161,1.913,1.913,0,0,0-.2.253h0c-.179.266-.416.677-.717,1.241h0c-.279.521-.491.943-.633,1.272a4.506,4.506,0,0,0-.164.425,1.1,1.1,0,0,0-.061.314.53.53,0,0,0,.146.373h0l0,0s0,0,0,0h0a.444.444,0,0,0,.323.138.547.547,0,0,0,.346-.134,1.162,1.162,0,0,0,.255-.322v0l0,0a7.028,7.028,0,0,1,.927-1.381,3.365,3.365,0,0,0-.261,1.232,1.84,1.84,0,0,0,.207.9h0a.987.987,0,0,0,.264.325.6.6,0,0,0,.37.126.457.457,0,0,0,.339-.145h0l.007-.005,0,0h0a.488.488,0,0,0,.091-.118.363.363,0,0,0,.042-.168.479.479,0,0,0-.036-.174,1.212,1.212,0,0,0-.086-.169h0a1.17,1.17,0,0,1-.177-.614,2.684,2.684,0,0,1,.305-1.161,6.642,6.642,0,0,1,.946-1.384Z" transform="translate(-1112.28 -248.846)" fill="#2a418d"/>
    <path id="Path_5688" data-name="Path 5688" d="M1310.118,286.991h0a5.925,5.925,0,0,0,.5-.63,1.593,1.593,0,0,0,.136-.243.578.578,0,0,0,.056-.231.405.405,0,0,0-.1-.255l0,0,0,0a.416.416,0,0,0-.121-.094.359.359,0,0,0-.156-.038.411.411,0,0,0-.261.107,1.082,1.082,0,0,0-.2.222h0a6.487,6.487,0,0,1-.811.883,2.494,2.494,0,0,1-.505.369.836.836,0,0,1-.378.11.235.235,0,0,1-.109-.023.221.221,0,0,1-.083-.075h0v0a.235.235,0,0,1-.049-.149,1.42,1.42,0,0,1,.107-.479,4.425,4.425,0,0,1,.342-.686,3.919,3.919,0,0,1,.875-1.074,1.862,1.862,0,0,1,.2-.135c-.005.009-.008.017-.014.027h0a1.282,1.282,0,0,1-.216.3c-.047.043-.084.077-.113.105l-.038.038a.353.353,0,0,0-.029.032h0s0,0,0,0h0a.468.468,0,0,0-.092.3.427.427,0,0,0,.095.288.347.347,0,0,0,.135.094.414.414,0,0,0,.151.026.606.606,0,0,0,.355-.131,1.739,1.739,0,0,0,.318-.321h0a1.828,1.828,0,0,0,.426-1.116,1,1,0,0,0-.043-.3.615.615,0,0,0-.256-.342.788.788,0,0,0-.427-.108,1.554,1.554,0,0,0-.872.348h0a5.417,5.417,0,0,0-1.351,1.485h0a3.383,3.383,0,0,0-.613,1.738,1.233,1.233,0,0,0,.226.735h0a1.036,1.036,0,0,0,.4.331,1.217,1.217,0,0,0,.523.108,1.892,1.892,0,0,0,.982-.313,4.836,4.836,0,0,0,1.02-.89Z" transform="translate(-1137.182 -246.627)" fill="#2a418d"/>
    <path id="Path_5689" data-name="Path 5689" d="M1330.957,286.437a.335.335,0,0,0-.144-.183.4.4,0,0,0-.213-.053.339.339,0,0,0-.153.038.5.5,0,0,0-.164.142,1.092,1.092,0,0,0-.12.2v0a1.841,1.841,0,0,1-.23.335c-.118.144-.279.318-.479.52h0c-.066.068-.136.133-.207.194.108-.222.231-.457.373-.708h0q.271-.489.6-1.051h0a3.431,3.431,0,0,0,.216-.418.925.925,0,0,0,.082-.335.481.481,0,0,0-.133-.333h0a.49.49,0,0,0-.149-.113.419.419,0,0,0-.186-.043.54.54,0,0,0-.284.088,1.031,1.031,0,0,0-.235.21h0a.019.019,0,0,1-.005.005h0c-.039.043-.091.107-.168.207s-.182.238-.309.408h0c-.14.194-.25.344-.329.451s-.126.17-.14.188c-.172.205-.412.464-.721.773h0a5.541,5.541,0,0,1-.605.535,1.259,1.259,0,0,1-.195.121.131.131,0,0,1-.02.008.8.8,0,0,1,.064-.166,3.153,3.153,0,0,1,.265-.431h0a6.79,6.79,0,0,1,.694-.847h0c.123-.131.222-.239.3-.323a2.33,2.33,0,0,0,.165-.2.634.634,0,0,0,.112-.37.437.437,0,0,0-.121-.3h0l-.005-.005a.018.018,0,0,0-.005-.005h0a.445.445,0,0,0-.138-.107.425.425,0,0,0-.187-.044.639.639,0,0,0-.325.1,2.316,2.316,0,0,0-.5.442,8.7,8.7,0,0,0-.607.77,6.66,6.66,0,0,0-.67,1.128,2.319,2.319,0,0,0-.234.931.746.746,0,0,0,.14.453v0l0,0a.622.622,0,0,0,.229.181.674.674,0,0,0,.287.06,1.284,1.284,0,0,0,.629-.195,3.7,3.7,0,0,0,.69-.536h0l.078-.078c-.108.229-.195.422-.26.585-.123.075-.283.169-.484.283h0a13.542,13.542,0,0,0-1.309.828h0a5.032,5.032,0,0,0-1.159,1.139,2.082,2.082,0,0,0-.405,1.178,1.15,1.15,0,0,0,.238.735h0a1,1,0,0,0,.359.291,1.053,1.053,0,0,0,.456.1,1.735,1.735,0,0,0,1.12-.461,4.845,4.845,0,0,0,1.008-1.3h0a21.517,21.517,0,0,0,1.064-2.237,6.691,6.691,0,0,0,1.8-1.461,4.405,4.405,0,0,0,.479-.655,1.128,1.128,0,0,0,.178-.542.427.427,0,0,0-.022-.143Zm-4.305,4.365c-.091.194-.156.321-.183.368a3.388,3.388,0,0,1-.557.756.972.972,0,0,1-.229.168.4.4,0,0,1-.177.047.162.162,0,0,1-.069-.013.148.148,0,0,1-.051-.04h0a.137.137,0,0,1-.03-.1,1.069,1.069,0,0,1,.164-.533,2.813,2.813,0,0,1,.534-.631,7.61,7.61,0,0,1,.913-.709c-.129.281-.235.51-.317.683Z" transform="translate(-1152.243 -247.654)" fill="#2a418d"/>
    <path id="Path_5690" data-name="Path 5690" d="M1356.9,292.56Z" transform="translate(-1180.626 -254.554)" fill="#2a418d"/>
    <path id="Path_5691" data-name="Path 5691" d="M25.281,26.363H14.736l-1.69,4.991H5.84L16.064,3.1h7.969L34.255,31.354H26.97l-1.69-4.991ZM20.008,10.706,16.547,21.05H23.51l-3.5-10.343Z" transform="translate(-5.081 -2.697)" fill="#2a418d"/>
    <path id="Path_5692" data-name="Path 5692" d="M247.068,28.939c-6.077,0-10.827-3.019-11.028-8.734h7.326a3.239,3.239,0,0,0,3.5,3.219c1.933,0,3.3-1.007,3.3-2.657,0-5.233-14.128-2.415-14.047-12.436,0-5.352,4.386-8.331,10.3-8.331s10.3,3.059,10.585,8.452h-7.446A3.059,3.059,0,0,0,246.3,5.513c-1.65-.04-2.9.805-2.9,2.576,0,4.911,13.967,2.7,13.967,12.156,0,4.749-3.7,8.694-10.3,8.694Z" transform="translate(-205.376)" fill="#2a418d"/>
    <path id="Path_5693" data-name="Path 5693" d="M431.408,28.939c-6.077,0-10.827-3.019-11.028-8.734h7.326a3.239,3.239,0,0,0,3.5,3.219c1.932,0,3.3-1.007,3.3-2.657,0-5.233-14.128-2.415-14.047-12.436,0-5.352,4.387-8.331,10.3-8.331s10.3,3.059,10.585,8.452H433.9a3.059,3.059,0,0,0-3.261-2.939c-1.65-.04-2.9.805-2.9,2.576,0,4.911,13.967,2.7,13.967,12.156,0,4.749-3.7,8.694-10.3,8.694Z" transform="translate(-365.769)" fill="#2a418d"/>
    <path id="Path_5694" data-name="Path 5694" d="M609.98,3.1h6.883V19.722c0,3.341,1.65,5.273,4.911,5.273s4.991-1.932,4.991-5.273V3.1h6.883V19.682c0,7.808-5.474,11.672-11.995,11.672S609.98,27.49,609.98,19.682Z" transform="translate(-530.738 -2.697)" fill="#2a418d"/>
    <path id="Path_5695" data-name="Path 5695" d="M1036.247,8.613h-10.424v5.715h9.217v5.313h-9.217v6.2h10.424v5.513H1018.94V3.1h17.307V8.615Z" transform="translate(-886.57 -2.697)" fill="#2a418d"/>
    <path id="Path_5696" data-name="Path 5696" d="M1205.756,17.228c0,8.371-5.8,14.128-14.811,14.128H1180.36V3.1h10.585C1199.961,3.1,1205.756,8.815,1205.756,17.228ZM1190.5,25.4c5.193,0,8.25-2.979,8.25-8.17s-3.059-8.251-8.25-8.251h-3.261V25.4h3.261Z" transform="translate(-1027.02 -2.697)" fill="#2a418d"/>
    <path id="Path_5697" data-name="Path 5697" d="M845.075,11.986c0-4.911-3.462-8.9-10.384-8.9H823.14V31.343h7.211a1.222,1.222,0,0,1-.1-.572c.009-.14.009-.279.009-.42a4.063,4.063,0,0,1,.042-.638,2.191,2.191,0,0,1,.166-.689.34.34,0,0,0,.025-.272,3.068,3.068,0,0,0-.2-.522,13.1,13.1,0,0,1-.566-1.313,5.284,5.284,0,0,1-.357-1.9c.005-.387-.009-.774,0-1.163A3.517,3.517,0,0,0,828.9,22.1a2.867,2.867,0,0,1-.438-.253c-.056-.117.009-.242-.069-.352h-.5a7.277,7.277,0,0,1-.909-.512,1.377,1.377,0,0,1,.173-.387,2.19,2.19,0,0,0,.221-.737c.026-.179.053-.364.1-.546a12.878,12.878,0,0,1,.361-1.278,4.2,4.2,0,0,0,.152-.843c-.078.086-.127.129-.164.179a4.789,4.789,0,0,1-.673.8,3.637,3.637,0,0,1-.705.357.112.112,0,0,1-.143-.065c.032-.238.26-.313.417-.456.032-.1.048-.205-.069-.274a.415.415,0,0,0-.4.077,3.03,3.03,0,0,1-.244.576.2.2,0,0,1-.235-.016c-.1-.1.044-.537.044-.537a1.172,1.172,0,0,1,.546-.6,2.548,2.548,0,0,1,.933-.286c.256-.3.516-.605.781-.912.083-.095.173-.184.262-.269a11.933,11.933,0,0,0,.878-1.011,1.513,1.513,0,0,0,.233-.594.292.292,0,0,1,.226-.108c.006-.157.012-.3.018-.449.11-.071.235-.016.37-.066.472-.878.622-1.591,1.09-2.5-.136-.194-.31-.313-.412-.495a2.048,2.048,0,0,1-.205-.972,4.7,4.7,0,0,1,.117-1.009,4.922,4.922,0,0,1,.32-.864c.378-.307.327-.453,1.115-.36a1.514,1.514,0,0,1,.82-1.031,1.247,1.247,0,0,1,.694-.12.6.6,0,0,0,.361-.056.633.633,0,0,1,.449-.053,2.354,2.354,0,0,1,.972.4.917.917,0,0,1,.382.581,1.185,1.185,0,0,1-.113.843c-.164.279-.343.331-.689.209a.518.518,0,0,0-.077.516c.044.083.161.134.205.265a.639.639,0,0,0-.129.385c-.009.12.012.286-.175.334a.321.321,0,0,1-.138.382c-.2.056-.4-.06-.635-.062a.668.668,0,0,0,0,.581,2.43,2.43,0,0,1,.309.968,4.5,4.5,0,0,1-.007.989c-.016.092-.016.187-.026.29.065.221.292.766.37.974a.3.3,0,0,0,.226,0,6.181,6.181,0,0,0,1.29-.67,1.087,1.087,0,0,0,.522-.765,1.5,1.5,0,0,1,.092-.336c.307-.352.629-.592,1.1-.375a1.407,1.407,0,0,1,.307.34c.039.016.081.032.12.051.166.069.253.113.32.138l.009,0a.367.367,0,0,0,.214,0,.246.246,0,0,1,.074-.014h.17a1.84,1.84,0,0,1,.412.062,1.1,1.1,0,0,0,.369-.006l.035-.005a3.222,3.222,0,0,0,.42-.095,2.3,2.3,0,0,0,.864-.5c.081-.062.159-.129.235-.2l.127-.113.131-.134.17.277-.122.295.143.286-.157.277.1.3-.188.256.066.31-.221.23.026.316-.247.2-.014.316-.271.168-.053.313-.29.131-.09.3-.32.2-.03-.134a4.4,4.4,0,0,0-.164-.564,2.627,2.627,0,0,0-.14-.307,5.394,5.394,0,0,0-.926-1.484,1.835,1.835,0,0,0-.2-.168.153.153,0,0,1-.056-.069.688.688,0,0,0-.223-.147v0c-.074-.027-.168-.06-.334-.122h0c-.12.081-.146.238-.3.32a.709.709,0,0,0-.41.127c-.1.107-.108.259-.173.387a.712.712,0,0,1-.482.447.566.566,0,0,0-.271.149,6.712,6.712,0,0,1-1.946,1.322,11.193,11.193,0,0,0-1.558.908,1.9,1.9,0,0,1-.592.3.372.372,0,0,0-.036.32,9.668,9.668,0,0,1,.164.972c.053.348.095.7.149,1.041s.1.67.159,1a2.132,2.132,0,0,1,.077.727.953.953,0,0,1-.483.108,7.2,7.2,0,0,0,.226,1.656.164.164,0,0,1-.009.14,2.277,2.277,0,0,0-.707.331.579.579,0,0,1-.647.045c0,.223-.009.411.005.592a2.059,2.059,0,0,1-.146.885,1.4,1.4,0,0,0-.044,1,2.754,2.754,0,0,1,.1.64c.033.286.074.575.095.866a5.56,5.56,0,0,0,.307,1.79c.065.164.143.322.191.424.087.122.179.09.242.138a.227.227,0,0,1,.1.182,1,1,0,0,0,.459.679.922.922,0,0,0,.733.233.728.728,0,0,1,.39.286.365.365,0,0,1,.016.158c0,.026-.005.048-.007.074-.027.083-.11.095-.158.147a.5.5,0,0,1,.214.191.652.652,0,0,1,.006.259c-.027.136-.149.127-.182.208h8.694l-.229-.424-5.53-10.229,2.214-.534a8.222,8.222,0,0,0,6.279-8.17ZM832.26,9.964c.157-.149.078-.355.126-.495-.166-.477-.64-.735-.705-1.219a.1.1,0,0,0-.119.062,1.545,1.545,0,0,0-.122.963,3.9,3.9,0,0,0,.214.673,3.14,3.14,0,0,1,.605.016ZM830.7,30.809c.083.495-.318.534-.613.534h1.591c-.274-.158-.546-.32-.82-.482-.051-.026-.081-.107-.159-.053Zm.8-20.928c-.086-.14-.179-.272-.269-.408a1.414,1.414,0,0,0,.251.605c.078-.032.143-.056.168-.131a.121.121,0,0,1-.149-.066Z" transform="translate(-716.206 -2.689)" fill="#2a418d"/>
    <path id="Path_5698" data-name="Path 5698" d="M938.969,72.515l-.009,0v0A.036.036,0,0,1,938.969,72.515Z" transform="translate(-816.98 -63.09)" fill="#fff"/>
  </g>
</svg>
