<svg xmlns="http://www.w3.org/2000/svg" xmlns:xlink="http://www.w3.org/1999/xlink" viewBox="0 0 99.53 113.6"><defs><clipPath id="clip-path" transform="translate(-2.54 -2.54)"><rect x="-14.33" y="34.15" width="98.65" height="37.1" transform="translate(-26.74 66.48) rotate(-69)" style="fill:none"/></clipPath></defs><g id="Layer_2" data-name="Layer 2"><g id="Layer_1-2" data-name="Layer 1"><g id="Group_6212" data-name="Group 6212"><path id="Path_21765" data-name="Path 21765" d="M61.13,115.56l-53-20.34A8.72,8.72,0,0,1,3.12,84L32.23,8.14a8.72,8.72,0,0,1,11.26-5l53,20.35a8.7,8.7,0,0,1,5,11.25L72.38,110.55a8.71,8.71,0,0,1-11.25,5" transform="translate(-2.54 -2.54)" style="fill:#f58800"/><path id="Path_21766" data-name="Path 21766" d="M44.48,79.75A21.86,21.86,0,1,1,72.72,67.18,21.86,21.86,0,0,1,44.48,79.75ZM59.6,40.36A20.34,20.34,0,1,0,45,78.34h0a20.35,20.35,0,0,0,14.58-38Z" transform="translate(-2.54 -2.54)" style="fill:#122b61"/><path id="Path_21767" data-name="Path 21767" d="M44.48,79.75C37.67,77.14,35.65,65.86,40,54.61S53.34,36.33,60.14,38.94,69,52.83,64.65,64.08,51.28,82.36,44.48,79.75ZM59.6,40.35c-6-2.31-14.19,4.33-18.21,14.8S39,76,45,78.33,59.21,74,63.23,63.54s2.39-20.88-3.63-23.19Z" transform="translate(-2.54 -2.54)" style="fill:#122b61"/><rect id="Rectangle_1844" data-name="Rectangle 1844" x="31.21" y="58.59" width="42.2" height="1.51" transform="translate(-24.38 84.37) rotate(-69)" style="fill:#122b61"/><rect id="Rectangle_1845" data-name="Rectangle 1845" x="51.55" y="38.24" width="1.51" height="42.2" transform="translate(-24.38 84.37) rotate(-69)" style="fill:#122b61"/><rect id="Rectangle_1846" data-name="Rectangle 1846" x="55.64" y="30.95" width="1.51" height="35.48" transform="translate(-11.81 81.35) rotate(-69)" style="fill:#122b61"/><rect id="Rectangle_1847" data-name="Rectangle 1847" x="47.46" y="52.26" width="1.51" height="35.48" transform="translate(-36.95 87.39) rotate(-69)" style="fill:#122b61"/><path id="Path_21768" data-name="Path 21768" d="M48.49,18.4a1.82,1.82,0,0,1,.33.86A2,2,0,0,1,48.15,21a1.79,1.79,0,0,1-.82.42,1.45,1.45,0,0,1-.85-.05l-1.35-.52-.56,1.47a.53.53,0,0,1-.26.29.46.46,0,0,1-.38,0,.42.42,0,0,1-.26-.26.5.5,0,0,1,0-.38l1.73-4.5a.49.49,0,0,1,.64-.3h0l1.77.69a1.41,1.41,0,0,1,.66.52m-1.33,2.08a.88.88,0,0,0,.36-.24,1.08,1.08,0,0,0,.32-.83,1.19,1.19,0,0,0-.11-.41.53.53,0,0,0-.24-.23l-1.36-.52L45.47,20l1.36.52a.5.5,0,0,0,.34,0" transform="translate(-2.54 -2.54)" style="fill:#fff7f1"/><path id="Path_21769" data-name="Path 21769" d="M52.34,25.37a.45.45,0,0,1-.26.28.43.43,0,0,1-.35,0,.45.45,0,0,1-.22-.19.53.53,0,0,1-.09-.3l0-1.09-2.32-.89-.77.79a.49.49,0,0,1-.25.17.45.45,0,0,1-.28,0,.42.42,0,0,1-.27-.22.45.45,0,0,1,0-.34.64.64,0,0,1,.08-.14l3.73-3.91a.57.57,0,0,1,.28-.17.45.45,0,0,1,.3,0,.47.47,0,0,1,.23.18.53.53,0,0,1,.09.3l.16,5.29a.44.44,0,0,1,0,.2m-2.55-2.92,1.55.59-.08-2.12Z" transform="translate(-2.54 -2.54)" style="fill:#fff7f1"/><path id="Path_21770" data-name="Path 21770" d="M53.62,26.28a2.56,2.56,0,0,1-.64-.79.6.6,0,0,1,0-.49.49.49,0,0,1,.26-.27.43.43,0,0,1,.37,0,.47.47,0,0,1,.23.19,2.28,2.28,0,0,0,.46.61,1.86,1.86,0,0,0,.65.38,1.57,1.57,0,0,0,.83.1.6.6,0,0,0,.5-.37.66.66,0,0,0-.1-.66,2.93,2.93,0,0,0-.88-.68c-1.07-.6-1.43-1.35-1.09-2.24a1.55,1.55,0,0,1,.58-.75,1.78,1.78,0,0,1,.92-.29,2.59,2.59,0,0,1,1.06.19,3.08,3.08,0,0,1,.86.5,2.29,2.29,0,0,1,.57.67.52.52,0,0,1,.07.5.43.43,0,0,1-.25.26.45.45,0,0,1-.36,0,.36.36,0,0,1-.19-.15,2.21,2.21,0,0,0-.44-.52,2.1,2.1,0,0,0-.6-.38,1.43,1.43,0,0,0-.84-.11.62.62,0,0,0-.36,1,2.65,2.65,0,0,0,.76.61,4.8,4.8,0,0,1,1,.71,1.5,1.5,0,0,1,.42.73,1.81,1.81,0,0,1-.12.92,1.55,1.55,0,0,1-.61.75,1.91,1.91,0,0,1-1,.28,2.58,2.58,0,0,1-1.06-.18,3.59,3.59,0,0,1-.94-.52" transform="translate(-2.54 -2.54)" style="fill:#fff7f1"/><path id="Path_21771" data-name="Path 21771" d="M58.26,28.06a2.42,2.42,0,0,1-.63-.79.57.57,0,0,1-.05-.49.44.44,0,0,1,.25-.27.48.48,0,0,1,.37,0,.48.48,0,0,1,.23.19,2.51,2.51,0,0,0,.46.61,2.21,2.21,0,0,0,.66.39,1.53,1.53,0,0,0,.82.09.61.61,0,0,0,.5-.36.67.67,0,0,0-.1-.67,2.89,2.89,0,0,0-.87-.68c-1.07-.6-1.44-1.35-1.09-2.24a1.54,1.54,0,0,1,.58-.75,1.75,1.75,0,0,1,.91-.29,2.7,2.7,0,0,1,1.06.19,3.13,3.13,0,0,1,.87.5,2.6,2.6,0,0,1,.57.67.59.59,0,0,1,.07.5.47.47,0,0,1-.26.26.41.41,0,0,1-.36,0,.34.34,0,0,1-.18-.15,2.22,2.22,0,0,0-.45-.52,2,2,0,0,0-.6-.38,1.48,1.48,0,0,0-.83-.11.63.63,0,0,0-.37,1,3,3,0,0,0,.76.62,4.42,4.42,0,0,1,1,.71,1.44,1.44,0,0,1,.41.73,1.6,1.6,0,0,1-.12.91,1.5,1.5,0,0,1-.61.75,1.86,1.86,0,0,1-.95.29,2.56,2.56,0,0,1-1.06-.19,3.52,3.52,0,0,1-1-.52" transform="translate(-2.54 -2.54)" style="fill:#fff7f1"/><path id="Path_21772" data-name="Path 21772" d="M67.13,25.56a1.78,1.78,0,0,1,.33.86,2,2,0,0,1-.67,1.74,1.7,1.7,0,0,1-.82.42,1.45,1.45,0,0,1-.85,0L63.77,28l-.56,1.47a.55.55,0,0,1-.26.3.5.5,0,0,1-.38,0,.44.44,0,0,1-.26-.26.53.53,0,0,1,0-.39L64,24.64a.5.5,0,0,1,.64-.3h0l1.78.68a1.43,1.43,0,0,1,.66.53M65.8,27.63a1,1,0,0,0,.36-.23,1.07,1.07,0,0,0,.21-1.24.45.45,0,0,0-.24-.23l-1.36-.52-.66,1.72,1.36.51a.45.45,0,0,0,.34,0" transform="translate(-2.54 -2.54)" style="fill:#fff7f1"/><path id="Path_21773" data-name="Path 21773" d="M72,31.9a2.82,2.82,0,0,1-1.33.65,2.73,2.73,0,0,1-1.5-.15,2.79,2.79,0,0,1-1.22-.89,2.88,2.88,0,0,1-.55-1.38,3.31,3.31,0,0,1,1.08-2.82,2.82,2.82,0,0,1,1.34-.66,2.85,2.85,0,0,1,2.71,1,2.83,2.83,0,0,1,.56,1.38A3.29,3.29,0,0,1,72,31.9m0-2.7a1.79,1.79,0,0,0-.33-.89,1.51,1.51,0,0,0-.74-.58,1.67,1.67,0,0,0-.94-.07,1.7,1.7,0,0,0-.83.45,2.31,2.31,0,0,0-.57.87,2.22,2.22,0,0,0-.17,1,1.91,1.91,0,0,0,.32.9,1.69,1.69,0,0,0,.75.57,1.64,1.64,0,0,0,.93.07,1.85,1.85,0,0,0,.85-.45,2.42,2.42,0,0,0,.58-.86,2.27,2.27,0,0,0,.15-1" transform="translate(-2.54 -2.54)" style="fill:#fff7f1"/><path id="Path_21774" data-name="Path 21774" d="M77.39,34.78a.5.5,0,0,1,0,.24.41.41,0,0,1-.19.22.49.49,0,0,1-.41,0,.68.68,0,0,1-.31-.22,1.46,1.46,0,0,1-.06-1.51.59.59,0,0,0,0-.52.79.79,0,0,0-.46-.36l-1.45-.56-.58,1.51a.55.55,0,0,1-.24.3.39.39,0,0,1-.35,0,.61.61,0,0,1-.34-.29.44.44,0,0,1,0-.4l1.72-4.5a.52.52,0,0,1,.65-.3h0l2.24.86a1.5,1.5,0,0,1,.68.51,1.75,1.75,0,0,1,.34.82,1.79,1.79,0,0,1-.11.94,1.67,1.67,0,0,1-.5.67,1.8,1.8,0,0,1-.77.38,1.3,1.3,0,0,1,.18,1.13,1.17,1.17,0,0,1-.07.25c0,.12,0,.24-.07.37a.29.29,0,0,0,.08.21.55.55,0,0,1,.1.22m-.6-2.88a1.09,1.09,0,0,0,.36-.28,1.53,1.53,0,0,0,.27-.44,1.08,1.08,0,0,0,.07-.43,1,1,0,0,0-.11-.38.43.43,0,0,0-.23-.21l-1.7-.66-.68,1.77,1.7.65a.42.42,0,0,0,.33,0" transform="translate(-2.54 -2.54)" style="fill:#fff7f1"/><path id="Path_21775" data-name="Path 21775" d="M83.92,31.87a.46.46,0,0,1,0,.38.49.49,0,0,1-.26.27.48.48,0,0,1-.39,0L82.06,32l-1.57,4.08a.44.44,0,0,1-.27.28.61.61,0,0,1-.42,0,.54.54,0,0,1-.31-.28.52.52,0,0,1,0-.39l1.57-4.08-1.22-.46a.55.55,0,0,1-.3-.26.46.46,0,0,1,0-.38.44.44,0,0,1,.25-.27.58.58,0,0,1,.39,0l3.45,1.33a.5.5,0,0,1,.3.25" transform="translate(-2.54 -2.54)" style="fill:#fff7f1"/></g><g id="Group_6219" data-name="Group 6219"><path id="Path_21776" data-name="Path 21776" d="M55.24,99.58l-32-12.3a1.45,1.45,0,0,1,1-2.73L56.28,96.87a1.45,1.45,0,0,1-1,2.73h0l-.06,0" transform="translate(-2.54 -2.54)" style="fill:#fff7f1"/><g id="Group_6218" data-name="Group 6218" style="opacity:0.10000000149011612"><g id="Group_6217" data-name="Group 6217"><g style="clip-path:url(#clip-path)"><g id="Group_6216" data-name="Group 6216"><g id="Group_6215" data-name="Group 6215"><g style="clip-path:url(#clip-path)"><g id="Group_6214" data-name="Group 6214"><path id="Path_21777" data-name="Path 21777" d="M70,13.3,43.49,3.12a8.72,8.72,0,0,0-11.26,5L3.12,84a8.72,8.72,0,0,0,5,11.26l26.51,10.17Z" transform="translate(-2.54 -2.54)"/></g></g></g></g></g></g></g></g></g></g></svg>