<svg xmlns="http://www.w3.org/2000/svg" xmlns:xlink="http://www.w3.org/1999/xlink" viewBox="0 0 159.56 210.99"><defs><clipPath id="clip-path" transform="translate(-4.73 -4.73)"><rect x="36.14" y="11.1" width="96.73" height="198.25" transform="translate(-37.53 43.91) rotate(-24)" style="fill:none"/></clipPath></defs><g id="Layer_2" data-name="Layer 2"><g id="Layer_1-2" data-name="Layer 1"><g id="Group_4181" data-name="Group 4181"><g style="clip-path:url(#clip-path)"><g id="Group_4180" data-name="Group 4180"><path id="Path_5526" data-name="Path 5526" d="M155.57,187.09,94,214.45A14.66,14.66,0,0,1,74.66,207L6,52.74a14.66,14.66,0,0,1,7.43-19.37h0L75,6a14.67,14.67,0,0,1,19.36,7.44L163,167.72a14.68,14.68,0,0,1-7.44,19.37h0" transform="translate(-4.73 -4.73)" style="fill:#263238"/><path id="Path_5527" data-name="Path 5527" d="M77.34,11.58,65.41,16.89a3.24,3.24,0,0,0-1.55,4.32l1,2.16a3.25,3.25,0,0,1-1.55,4.32h0L40,38a3.26,3.26,0,0,1-4.25-1.74l-1-2.16a3.24,3.24,0,0,0-4.24-1.74l-4.2,1.86L15.91,38.9A10.27,10.27,0,0,0,10.7,52.46h0l67,150.59a10.28,10.28,0,0,0,13.56,5.21L152.71,181a10.28,10.28,0,0,0,5.21-13.57h0L90.9,16.8a10.28,10.28,0,0,0-13.56-5.22" transform="translate(-4.73 -4.73)" style="fill:#fff"/><path id="Path_5528" data-name="Path 5528" d="M149.66,174.6,90.21,201.07a7.18,7.18,0,0,1-9.49-3.64h0L80,195.89a7.2,7.2,0,0,1,3.64-9.49l59.46-26.47a7.17,7.17,0,0,1,9.48,3.64l.69,1.54a7.18,7.18,0,0,1-3.64,9.49" transform="translate(-4.73 -4.73)" style="fill:#fff"/><path id="Path_5529" data-name="Path 5529" d="M149.66,174.6l.41-.22a3.5,3.5,0,0,0,.49-.29,5.55,5.55,0,0,0,.63-.45,6.86,6.86,0,0,0,1.48-1.61,7.45,7.45,0,0,0,1.1-2.76,7.21,7.21,0,0,0-.34-3.68,13.24,13.24,0,0,0-2.11-3.89,7.12,7.12,0,0,0-7.19-2,25.59,25.59,0,0,0-2.72,1.13L83.73,186.5a7.13,7.13,0,0,0-4.16,7.31c.61,2.81,1.94,5.86,4.63,7.06a7.13,7.13,0,0,0,4.14.63,7.42,7.42,0,0,0,2-.61l1.92-.85,7.5-3.34,26-11.53,17.5-7.76,4.76-2.1,1.25-.54c.27-.12.42-.17.42-.17l-.41.2-1.24.56-4.74,2.13-17.48,7.82L99.85,196.89l-7.49,3.33-1.92.86a7.55,7.55,0,0,1-2.06.63,7.34,7.34,0,0,1-4.28-.64,7.19,7.19,0,0,1-3.19-3c-.36-.67-.63-1.35-.94-2a8.35,8.35,0,0,1-.62-2.18,7.32,7.32,0,0,1,4.29-7.54l57.71-25.67a25,25,0,0,1,2.74-1.12,7.24,7.24,0,0,1,7.32,2.11,7.5,7.5,0,0,1,1.27,2c.29.68.61,1.32.85,2a7.24,7.24,0,0,1,.33,3.72,7.54,7.54,0,0,1-1.14,2.78,7,7,0,0,1-1.5,1.61,7.49,7.49,0,0,1-.65.45,3.9,3.9,0,0,1-.49.28l-.42.19" transform="translate(-4.73 -4.73)" style="fill:#ff725e"/><path id="Path_5530" data-name="Path 5530" d="M150.07,165.52a4.81,4.81,0,1,1-6.34-2.43,4.8,4.8,0,0,1,6.34,2.43h0" transform="translate(-4.73 -4.73)" style="fill:#ff725e"/><path id="Path_5531" data-name="Path 5531" d="M146.77,170.23h0a.16.16,0,0,1-.17-.05l-1.48-1.83-2.25.18a.15.15,0,0,1-.15-.08.15.15,0,0,1,0-.17l3.85-3.68a.15.15,0,0,1,.21,0,.12.12,0,0,1,0,.1v5.38a.14.14,0,0,1-.09.13m-3.52-2,1.91-.16a.16.16,0,0,1,.13.06l1.27,1.56v-4.62Z" transform="translate(-4.73 -4.73)" style="fill:#fff"/><path id="Path_5532" data-name="Path 5532" d="M145.24,168.35a.15.15,0,0,1-.2-.08.13.13,0,0,1,0-.12l1.52-3.49a.14.14,0,0,1,.19-.08.14.14,0,0,1,.09.19h0l-1.52,3.49a.18.18,0,0,1-.07.08" transform="translate(-4.73 -4.73)" style="fill:#fff"/><path id="Path_5533" data-name="Path 5533" d="M96.21,188.15l-.7.32-.08-.18,1.62-.73.08.19-.71.31.81,1.82L97,190Z" transform="translate(-4.73 -4.73)" style="fill:#263238"/><path id="Path_5534" data-name="Path 5534" d="M98.73,187.41v2a.57.57,0,0,1-.75.64l0-.19a.4.4,0,0,0,.32,0c.14-.06.2-.16.2-.39v-.17l-1.34-1.21.21-.09,1.14,1V187.5Z" transform="translate(-4.73 -4.73)" style="fill:#263238"/><path id="Path_5535" data-name="Path 5535" d="M100.88,187.36a.8.8,0,0,1-.35,1.07l-.06,0a.7.7,0,0,1-.7-.05l.37.84-.2.09L99,187.28l.19-.08.14.29a.72.72,0,0,1,.44-.57.8.8,0,0,1,1.07.38s0,0,0,.06m-.2.09a.61.61,0,0,0-.79-.36l0,0a.59.59,0,0,0-.32.79s0,0,0,0a.59.59,0,0,0,.76.36l.06,0a.59.59,0,0,0,.32-.78.08.08,0,0,0,0-.05" transform="translate(-4.73 -4.73)" style="fill:#263238"/><path id="Path_5536" data-name="Path 5536" d="M102.64,186.65l-1.26.56a.6.6,0,0,0,.82.26h0a.65.65,0,0,0,.38-.4l.17.08a.87.87,0,0,1-1.57.15l0-.06a.79.79,0,0,1,.34-1.07l.05,0a.79.79,0,0,1,1,.37.14.14,0,0,1,0,.06l0,.07m-1.33.41,1.07-.48a.59.59,0,0,0-1.07.48" transform="translate(-4.73 -4.73)" style="fill:#263238"/><path id="Path_5537" data-name="Path 5537" d="M104.84,185.38l.41.93-.19.09-.11-.24a.61.61,0,0,1-.41.48.5.5,0,0,1-.74-.19c-.1-.23,0-.49.39-.69l.48-.21,0-.09a.4.4,0,0,0-.6-.21.84.84,0,0,0-.43.4l-.16-.11a1.06,1.06,0,0,1,.53-.47.56.56,0,0,1,.8.18.54.54,0,0,1,.07.13m0,.57-.11-.24-.47.21c-.3.13-.34.28-.27.44s.27.22.51.12a.53.53,0,0,0,.34-.52" transform="translate(-4.73 -4.73)" style="fill:#263238"/><path id="Path_5538" data-name="Path 5538" d="M108.65,183.75l.39.87-.2.09-.38-.85a.46.46,0,0,0-.65-.29.53.53,0,0,0-.3.69.59.59,0,0,0,0,.08l.35.8-.2.09-.38-.86a.46.46,0,0,0-.65-.29.53.53,0,0,0-.3.69.2.2,0,0,0,0,.08l.35.8-.2.09-.67-1.52.19-.08.12.27a.69.69,0,0,1,.43-.53.59.59,0,0,1,.67.08.71.71,0,0,1,.46-.58.62.62,0,0,1,.89.37" transform="translate(-4.73 -4.73)" style="fill:#263238"/><path id="Path_5539" data-name="Path 5539" d="M110.61,183.1l-1.26.56a.6.6,0,0,0,.82.26h0a.65.65,0,0,0,.38-.4l.17.08a.87.87,0,0,1-1.57.16l0-.07a.81.81,0,0,1,.35-1.07l.05,0a.78.78,0,0,1,1,.38.14.14,0,0,1,0,.06l0,.06m-1.33.41,1.07-.48a.59.59,0,0,0-.76-.26.58.58,0,0,0-.31.74" transform="translate(-4.73 -4.73)" style="fill:#263238"/><path id="Path_5540" data-name="Path 5540" d="M111.05,183.53l0-.2a1,1,0,0,0,.61-.07c.29-.13.36-.28.29-.43-.17-.39-1,.35-1.28-.24-.11-.25,0-.53.41-.7a1.09,1.09,0,0,1,.59-.1l0,.21a.76.76,0,0,0-.49.07c-.28.12-.35.28-.29.42.19.41,1-.34,1.28.24.12.26,0,.53-.43.71a1.17,1.17,0,0,1-.69.09" transform="translate(-4.73 -4.73)" style="fill:#263238"/><path id="Path_5541" data-name="Path 5541" d="M112.45,182.9l0-.2a.92.92,0,0,0,.61-.07c.29-.12.36-.27.29-.42-.17-.4-1,.35-1.28-.25-.11-.24,0-.52.41-.69a1.1,1.1,0,0,1,.59-.1v.2a.94.94,0,0,0-.5.07c-.28.12-.35.28-.28.43.18.4,1-.34,1.27.24.12.26,0,.53-.43.71a1.09,1.09,0,0,1-.69.08" transform="translate(-4.73 -4.73)" style="fill:#263238"/><path id="Path_5542" data-name="Path 5542" d="M114.86,180.92l.41.93-.19.09-.11-.24a.61.61,0,0,1-.41.48c-.34.15-.62.07-.74-.19s0-.49.39-.69l.48-.21,0-.09a.4.4,0,0,0-.6-.21.84.84,0,0,0-.43.4l-.16-.11a1.13,1.13,0,0,1,.53-.48.58.58,0,0,1,.8.19.54.54,0,0,1,.07.13m0,.57-.11-.24-.47.21c-.3.13-.34.28-.27.44s.27.22.51.12a.54.54,0,0,0,.34-.52" transform="translate(-4.73 -4.73)" style="fill:#263238"/><path id="Path_5543" data-name="Path 5543" d="M116.55,179.47l.59,1.33a.73.73,0,0,1-.21,1,.88.88,0,0,1-.2.09,1.19,1.19,0,0,1-.81.08l0-.2a1,1,0,0,0,.68-.06.53.53,0,0,0,.31-.8l-.08-.19a.77.77,0,0,1-.46.56.8.8,0,0,1-1.06-.35l0-.05a.77.77,0,0,1,.37-1l.06,0a.76.76,0,0,1,.73,0l-.13-.29Zm.13.81a.59.59,0,0,0-.78-.31l0,0a.59.59,0,0,0-.35.75s0,0,0,0a.59.59,0,0,0,.78.31l0,0a.58.58,0,0,0,.34-.76v0" transform="translate(-4.73 -4.73)" style="fill:#263238"/><path id="Path_5544" data-name="Path 5544" d="M118.8,179.45l-1.26.56a.62.62,0,0,0,.82.27h0a.64.64,0,0,0,.37-.4l.17.08a.79.79,0,0,1-.47.51.82.82,0,0,1-1.1-.35l0-.07a.8.8,0,0,1,.35-1.07l0,0a.77.77,0,0,1,1,.38l0,.06,0,.06m-1.34.41,1.07-.47a.59.59,0,0,0-1.07.47" transform="translate(-4.73 -4.73)" style="fill:#263238"/><path id="Path_5545" data-name="Path 5545" d="M119.33,179.87a.17.17,0,0,1,.08-.22h0a.18.18,0,0,1,.23.08h0a.17.17,0,0,1-.09.23h0a.16.16,0,0,1-.22-.09h0" transform="translate(-4.73 -4.73)" style="fill:#263238"/><path id="Path_5546" data-name="Path 5546" d="M119.94,179.6a.17.17,0,0,1,.08-.22h0a.18.18,0,0,1,.23.08h0a.17.17,0,0,1-.09.23h0a.16.16,0,0,1-.22-.09h0" transform="translate(-4.73 -4.73)" style="fill:#263238"/><path id="Path_5547" data-name="Path 5547" d="M120.55,179.33a.16.16,0,0,1,.08-.22h0a.17.17,0,0,1,.22.08h0a.18.18,0,0,1-.08.23h0a.16.16,0,0,1-.22-.09h0" transform="translate(-4.73 -4.73)" style="fill:#263238"/><path id="Path_5548" data-name="Path 5548" d="M87.62,194.93a.87.87,0,0,1-1.69-.41.14.14,0,0,0,0-.06l.77-2.7a.55.55,0,0,1,.69-.39.56.56,0,0,1,.39.69l-.65,2.3h0a.32.32,0,0,1-.6-.18l.5-1.76-.2-.06L86.37,194h0l0,.09h0a.52.52,0,0,0,1,.28h0v0l0,0h0l.63-2.24h0a.77.77,0,0,0-1.49-.42h0l-.8,2.83h0a1.08,1.08,0,0,0,2.08.58h0l.64-2.27-.2-.06Z" transform="translate(-4.73 -4.73)" style="fill:#ff725e"/><path id="Path_5549" data-name="Path 5549" d="M138.43,158.58,102.1,174.76a7.7,7.7,0,0,1-6.26-14.06l36.33-16.18a7.7,7.7,0,1,1,6.26,14.06h0" transform="translate(-4.73 -4.73)" style="fill:#f5f5f5"/><path id="Path_5550" data-name="Path 5550" d="M88.32,172.68a5.92,5.92,0,1,1-7.82-3h0a5.92,5.92,0,0,1,7.82,3" transform="translate(-4.73 -4.73)" style="fill:#e0e0e0"/><path id="Path_5551" data-name="Path 5551" d="M84,172.43a2.1,2.1,0,1,1-2.77-1.07A2.09,2.09,0,0,1,84,172.43h0" transform="translate(-4.73 -4.73)" style="fill:#fafafa"/><path id="Path_5552" data-name="Path 5552" d="M80.54,180s-.05-3.34,2.65-4.54,5,1,5,1A4.9,4.9,0,0,1,85.26,180a5.39,5.39,0,0,1-4.72-.05" transform="translate(-4.73 -4.73)" style="fill:#fafafa"/><path id="Path_5553" data-name="Path 5553" d="M99.13,165.55l.61,1.37,1.59-.7-.61-1.38.43-.19,1.46,3.29-.43.19-.68-1.54-1.59.71.69,1.54-.43.19-1.46-3.29Z" transform="translate(-4.73 -4.73)"/><path id="Path_5554" data-name="Path 5554" d="M103.08,166.41a.84.84,0,0,0,1,.52l.13-.06a1.74,1.74,0,0,0,.6-.41l.21.27a2.08,2.08,0,0,1-.72.5,1.2,1.2,0,0,1-1.62-.51.89.89,0,0,1-.08-.17,1.25,1.25,0,0,1,.45-1.71l.1-.05a1.09,1.09,0,0,1,1.43.58.36.36,0,0,0,0,.09c0,.07,0,.14.07.21Zm1.12-.87a.67.67,0,0,0-.82-.46l-.08,0a.77.77,0,0,0-.35,1Z" transform="translate(-4.73 -4.73)"/><rect id="Rectangle_834" data-name="Rectangle 834" x="104.98" y="162.81" width="0.47" height="3.79" transform="translate(-62.63 52.31) rotate(-24)"/><rect id="Rectangle_835" data-name="Rectangle 835" x="106.13" y="162.3" width="0.47" height="3.79" transform="translate(-62.32 52.74) rotate(-24)"/><path id="Path_5555" data-name="Path 5555" d="M109.68,163.36a1.27,1.27,0,0,1-.5,1.71l-.12.06a1.22,1.22,0,0,1-1.63-.6.36.36,0,0,1,0-.11,1.25,1.25,0,0,1,.49-1.71l.12-.06a1.22,1.22,0,0,1,1.63.59l.05.12m-1.87.85a.88.88,0,0,0,1.13.59,1,1,0,1,0-1.13-.59" transform="translate(-4.73 -4.73)"/><path id="Path_5556" data-name="Path 5556" d="M110.56,164.1a.31.31,0,0,1,.13-.42h0a.31.31,0,0,1,.41.15v0a.31.31,0,0,1-.13.42h0a.32.32,0,0,1-.42-.16v0m-.19-.75L109.26,161l.46-.21,1,2.37Z" transform="translate(-4.73 -4.73)"/><path id="Path_5557" data-name="Path 5557" d="M111.68,163.61a.32.32,0,0,1,.13-.43h0a.3.3,0,0,1,.41.14v0a.31.31,0,0,1-.13.42h0a.32.32,0,0,1-.42-.16h0m-.19-.76-1.11-2.31.46-.2,1,2.36Z" transform="translate(-4.73 -4.73)"/><path id="Path_5558" data-name="Path 5558" d="M116.5,159.93a.73.73,0,0,0-.34-.31.74.74,0,0,0-.44-.08.59.59,0,0,0-.39.26.52.52,0,0,0-.1.27A.57.57,0,0,0,115,160a.62.62,0,0,0-.46.09.74.74,0,0,0-.27.36.8.8,0,0,0,0,.46.92.92,0,0,0,.31.48,1.34,1.34,0,0,0,.58.23l.78.11a7.36,7.36,0,0,1,.42-.62,1.31,1.31,0,0,0,.26-.56.93.93,0,0,0-.1-.57" transform="translate(-4.73 -4.73)" style="fill:#ff725e"/><path id="Path_5559" data-name="Path 5559" d="M120,158.38a.73.73,0,0,0-.33-.32.75.75,0,0,0-.44-.07.61.61,0,0,0-.4.26.62.62,0,0,0-.09.26.66.66,0,0,0-.24-.11.62.62,0,0,0-.46.09.78.78,0,0,0-.26.36.73.73,0,0,0,0,.46.93.93,0,0,0,.32.48,1.21,1.21,0,0,0,.58.22l.78.12s.21-.35.42-.63a1.26,1.26,0,0,0,.26-.56.92.92,0,0,0-.11-.56" transform="translate(-4.73 -4.73)" style="fill:#ff725e"/><path id="Path_5560" data-name="Path 5560" d="M69.53,30.38c0,.12-7,3.36-15.68,7.24S38,44.55,38,44.43s7-3.35,15.68-7.23,15.82-6.94,15.87-6.82" transform="translate(-4.73 -4.73)" style="fill:#ff725e"/></g></g></g></g></g></svg>