<svg xmlns="http://www.w3.org/2000/svg" xmlns:xlink="http://www.w3.org/1999/xlink" viewBox="0 0 125.39 231.91"><defs><clipPath id="clip-path" transform="translate(-23.95 -19.56)"><rect x="18.79" y="13.46" width="89.87" height="111.49" transform="translate(-22.64 31.91) rotate(-24)" style="fill:none"/></clipPath><clipPath id="clip-path-2" transform="translate(-23.95 -19.56)"><rect x="30.78" y="12.57" width="98.91" height="236.05" transform="translate(-46.19 43.93) rotate(-24)" style="fill:none"/></clipPath></defs><g id="Layer_2" data-name="Layer 2"><g id="Layer_1-2" data-name="Layer 1"><g style="clip-path:url(#clip-path)"><g id="Mask_Group_3766" data-name="Mask Group 3766"><g id="Group_4179" data-name="Group 4179"><g style="clip-path:url(#clip-path-2)"><g id="Group_4178" data-name="Group 4178"><path id="Path_5466" data-name="Path 5466" d="M53,121l3.39,0L50.7,97.89,43,99.6l5.53,18.16A4.61,4.61,0,0,0,53,121" transform="translate(-23.95 -19.56)" style="fill:#f4b683"/><path id="Path_5467" data-name="Path 5467" d="M100.47,97.42,96,100.35,81.58,83.56,88,78.94Z" transform="translate(-23.95 -19.56)" style="fill:#f4b683"/><path id="Path_5468" data-name="Path 5468" d="M26,44.59c1,3.08,2.39,6.08,2.83,9.29a4.51,4.51,0,0,1-.74,3.73,2.7,2.7,0,0,1-3.81-.12A2.41,2.41,0,0,1,24,57c1,3.45,4.25,5.91,7.74,6.75s7.16.32,10.64-.57a17.2,17.2,0,0,0,5.75-2.39,7.39,7.39,0,0,0,3.23-5.13,9.62,9.62,0,0,0-.69-4A31.73,31.73,0,0,0,46.67,44c-2-2.79-4.45-5.33-5.57-8.57-.85-2.44-.9-5.21-2.37-7.34a6.62,6.62,0,0,0-6.23-2.57c-3.07.39-4.45,2.62-5.73,5.18-2.31,4.62-2.38,8.88-.74,13.87" transform="translate(-23.95 -19.56)" style="fill:#4d372a"/><path id="Path_5469" data-name="Path 5469" d="M61.17,28.94c1.61,2.82,2.91,5.85,5,8.33a4.53,4.53,0,0,0,3.28,1.93,2.68,2.68,0,0,0,2.45-2.91,2.29,2.29,0,0,0-.11-.58c1.9,3,1.54,7.11-.17,10.26s-4.55,5.54-7.54,7.53a17.11,17.11,0,0,1-5.62,2.67,7.36,7.36,0,0,1-6-1A9.58,9.58,0,0,1,50,52a30.65,30.65,0,0,1-3-8.07C46.19,40.56,46,37,44.3,34c-1.25-2.27-3.27-4.16-3.87-6.68A6.62,6.62,0,0,1,42.68,21c2.34-2,4.92-1.56,7.68-.8,5,1.38,8.19,4.18,10.81,8.73" transform="translate(-23.95 -19.56)" style="fill:#4d372a"/><rect id="Rectangle_826" data-name="Rectangle 826" x="49.2" y="54.15" width="8.77" height="13.08" transform="translate(-44 7.49) rotate(-24)" style="fill:#f4b683"/><rect id="Rectangle_827" data-name="Rectangle 827" x="49.2" y="54.15" width="8.77" height="13.08" transform="translate(-44 7.49) rotate(-24)" style="fill:#f4b683"/><path id="Path_5470" data-name="Path 5470" d="M55.15,53.39a8.27,8.27,0,0,0-.83-.19l-6.79,3a4.56,4.56,0,0,0-.13,1.33l1.18,2.66A5,5,0,0,0,51.1,61a9.91,9.91,0,0,0,4.29-.44,6.15,6.15,0,0,0,2.29-1.46Z" transform="translate(-23.95 -19.56)" style="fill:#d56734"/><path id="Path_5471" data-name="Path 5471" d="M53.3,28.31a12.91,12.91,0,1,1-17-6.54,12.91,12.91,0,0,1,17,6.54h0" transform="translate(-23.95 -19.56)" style="fill:#f4b683"/><path id="Path_5472" data-name="Path 5472" d="M59.1,41.34a12.91,12.91,0,1,1-17-6.54,12.9,12.9,0,0,1,17,6.54h0" transform="translate(-23.95 -19.56)" style="fill:#f4b683"/><rect id="Rectangle_828" data-name="Rectangle 828" x="31.64" y="32.47" width="25.82" height="15.78" transform="translate(-36.52 2.05) rotate(-24)" style="fill:#f4b683"/><path id="Path_5473" data-name="Path 5473" d="M60.74,35.38c-2.83-2.09-3.68,2.56-3.68,2.56l2.13,6.91c3.75-2.78,4.37-7.37,1.55-9.47" transform="translate(-23.95 -19.56)" style="fill:#f4b683"/><path id="Path_5474" data-name="Path 5474" d="M57.94,39.34s.23-2.77,1.68-2.6,2.76,3.8-.43,6.08Z" transform="translate(-23.95 -19.56)" style="fill:#e38859"/><path id="Path_5475" data-name="Path 5475" d="M30.27,49c.33-3.5,4.35-1,4.35-1l3.71,6.21c-4.57.93-8.4-1.69-8.06-5.19" transform="translate(-23.95 -19.56)" style="fill:#f4b683"/><path id="Path_5476" data-name="Path 5476" d="M35.07,49.52s-2.21-1.68-3-.49,1,4.6,4.8,3.75Z" transform="translate(-23.95 -19.56)" style="fill:#e38859"/><path id="Path_5477" data-name="Path 5477" d="M56.5,55.67a9.07,9.07,0,0,1-1.71,1.68,10.56,10.56,0,0,1-2.07,1.23,11,11,0,0,1-2.3.74,9.14,9.14,0,0,1-2.39.16,23.17,23.17,0,0,0,2.3-.53,16.9,16.9,0,0,0,2.19-.81,17.54,17.54,0,0,0,2-1.1c.67-.43,1.31-.88,1.93-1.37" transform="translate(-23.95 -19.56)" style="fill:#d56734"/><path id="Path_5478" data-name="Path 5478" d="M49.87,41.7a1.15,1.15,0,1,0,2.06-.92,1.15,1.15,0,1,0-2.06.92" transform="translate(-23.95 -19.56)" style="fill:#3a3944"/><path id="Path_5479" data-name="Path 5479" d="M51.06,40.18a.47.47,0,0,0,.39-.14.62.62,0,0,0,.2-.38.91.91,0,0,0,0-.4,1,1,0,0,0-.21-.32c0,.26,0,.48-.07.68a1,1,0,0,1-.28.56" transform="translate(-23.95 -19.56)" style="fill:#3a3944"/><path id="Path_5480" data-name="Path 5480" d="M41.13,45.59a1.15,1.15,0,1,1-1.6-.82,1.28,1.28,0,0,1,1.6.82" transform="translate(-23.95 -19.56)" style="fill:#3a3944"/><path id="Path_5481" data-name="Path 5481" d="M39.2,45.47a.52.52,0,0,1-.36.19.68.68,0,0,1-.42-.11.75.75,0,0,1-.27-.29.8.8,0,0,1-.11-.37c.23.14.38.3.56.4a1.06,1.06,0,0,0,.6.18" transform="translate(-23.95 -19.56)" style="fill:#3a3944"/><path id="Path_5482" data-name="Path 5482" d="M46.52,44.89a14.07,14.07,0,0,1,.72,1.52c.21.52.4,1,.58,1.56l.13.4.13.39,0,.1,0,.08a1.3,1.3,0,0,0,.08.17,1.09,1.09,0,0,0,.08.15l.05.08,0,0,0,0a2.61,2.61,0,0,0,1.33.82,1.55,1.55,0,0,1-.43,0l-.22,0a.83.83,0,0,1-.21-.06,2.06,2.06,0,0,1-.79-.44,2.2,2.2,0,0,1-.3-.37,1.28,1.28,0,0,1-.11-.2L47.62,49l0-.1c-.06-.12-.1-.26-.15-.39l-.14-.4c-.18-.52-.34-1.06-.47-1.6a11.8,11.8,0,0,1-.3-1.66" transform="translate(-23.95 -19.56)" style="fill:#d56734"/><path id="Path_5483" data-name="Path 5483" d="M47,54.12a7.32,7.32,0,0,0,.93.09,5.5,5.5,0,0,0,.91,0,5.29,5.29,0,0,0,1.7-.5l.2-.1.1-.06.09,0,.19-.12.18-.13a7.89,7.89,0,0,0,.7-.57,13.64,13.64,0,0,0,1.25-1.39,5.23,5.23,0,0,1-.93,1.68,4.57,4.57,0,0,1-.69.7,4.62,4.62,0,0,1-.84.54,4.17,4.17,0,0,1-1.93.44,4.61,4.61,0,0,1-1-.13,4.11,4.11,0,0,1-.46-.15,2.14,2.14,0,0,1-.43-.21" transform="translate(-23.95 -19.56)" style="fill:#d56734"/><path id="Path_5484" data-name="Path 5484" d="M36.15,43.64a2.63,2.63,0,0,1,1.65-2.28,3.2,3.2,0,0,1,1.47-.19,5.62,5.62,0,0,1,.71.16,5.46,5.46,0,0,1,.64.32,5.36,5.36,0,0,1-.7.05c-.22,0-.44,0-.64.07a4.83,4.83,0,0,0-1.19.3,3.87,3.87,0,0,0-1,.62,6.79,6.79,0,0,0-.91,1" transform="translate(-23.95 -19.56)" style="fill:#2b1e18"/><path id="Path_5485" data-name="Path 5485" d="M47.65,38.52a2.61,2.61,0,0,1,1.65-2.28,3.07,3.07,0,0,1,1.47-.19,3.47,3.47,0,0,1,.71.16,5.46,5.46,0,0,1,.64.32c-.23,0-.47,0-.7,0s-.44,0-.65.07a4.87,4.87,0,0,0-1.18.3,3.87,3.87,0,0,0-1,.62,5.85,5.85,0,0,0-.91,1" transform="translate(-23.95 -19.56)" style="fill:#2b1e18"/><path id="Path_5486" data-name="Path 5486" d="M46.45,34.11c2.5,1.35,5.34,1.9,7.94,3s5.13,3.1,5.68,5.88a14.22,14.22,0,0,0,.18-11.52,20,20,0,0,0-7.57-8.91C49.53,20.48,45.43,19.1,42,20.64c-6.63,2.95.88,11.51,4.48,13.47" transform="translate(-23.95 -19.56)" style="fill:#4d372a"/><path id="Path_5487" data-name="Path 5487" d="M41.14,31.28c-1.14,2.26-3.09,4-4.83,5.81s-3.4,4-3.69,6.49a10.58,10.58,0,0,0,.59,4.35,8.21,8.21,0,0,0,3.22,4.76A15.18,15.18,0,0,1,25.74,33.56a18.68,18.68,0,0,1,3.45-6.25,11.89,11.89,0,0,1,5.32-4.07c5.44-1.78,9.1,3.15,6.63,8" transform="translate(-23.95 -19.56)" style="fill:#4d372a"/><path id="Path_5488" data-name="Path 5488" d="M33.12,29.62a3.52,3.52,0,0,1-1.55-.48c-1.1-.74-1.19-2.36-.71-3.6.88-2.28,3.17-3.73,5.48-4.54,2.94-1,11.43-2.5,9.86,3.22-1.22,4.43-9.27,5.84-13.08,5.4" transform="translate(-23.95 -19.56)" style="fill:#4d372a"/><path id="Path_5489" data-name="Path 5489" d="M90.86,79.28l-9,7.11,1.91,2.22,9-7.11Z" transform="translate(-23.95 -19.56)" style="fill:#fff3d9"/><path id="Path_5490" data-name="Path 5490" d="M75.73,58.88c1.51,2,.68,5.23-1.85,7.11s-5.83,1.74-7.34-.31-.69-5.23,1.85-7.11,5.83-1.74,7.34.31" transform="translate(-23.95 -19.56)" style="fill:#332c2b"/><rect id="Rectangle_829" data-name="Rectangle 829" x="73.28" y="59.68" width="11.43" height="26.44" transform="translate(-51.83 41.8) rotate(-36.54)" style="fill:#332c2b"/><rect id="Rectangle_830" data-name="Rectangle 830" x="42.42" y="101.45" width="11.43" height="2.16" transform="translate(-43.42 -7.91) rotate(-11.5)" style="fill:#fff3d9"/><path id="Path_5491" data-name="Path 5491" d="M37.23,76.61c.51,2.5,3.43,4,6.52,3.38s5.19-3.16,4.68-5.66S45,70.32,41.91,71s-5.19,3.16-4.68,5.66" transform="translate(-23.95 -19.56)" style="fill:#332c2b"/><rect id="Rectangle_831" data-name="Rectangle 831" x="39.75" y="75.2" width="11.43" height="26.45" transform="translate(-40.67 -8.72) rotate(-11.5)" style="fill:#332c2b"/><path id="Path_5492" data-name="Path 5492" d="M114.93,211.08c-4.1-12.75-10.39-41-19.93-45.78l-10.21,4.54s17,30.35,22.59,40c5.49,9.52,9.74,16.77,10,17.76,0,0,.83,3.76,4.19,2.05,0,0,3.18-.55,1.48-3.93s-4-1.92-8.08-14.67" transform="translate(-23.95 -19.56)" style="fill:#f4b683"/><path id="Path_5493" data-name="Path 5493" d="M113.31,234.54a3.88,3.88,0,0,0-1.22,1.93,2.09,2.09,0,0,0,1.48,2c.85.3,1.29-.44,2.18-.62,2.59-.51,5.29-1.69,6.48-4a12.06,12.06,0,0,1,2-2.42,11.32,11.32,0,0,0,1-1.08,2.74,2.74,0,0,0,0-2.42c-.8-2-2.85-3.17-4.48-4.6-.55-.48-1.22-1-1.91-.83a1.92,1.92,0,0,0-.8.58c-.75.76-1.5,1.29-1.68,2.35s-.25,2.22-.48,3.32a11.59,11.59,0,0,1-2.58,5.79" transform="translate(-23.95 -19.56)" style="fill:#f4b683"/><path id="Path_5494" data-name="Path 5494" d="M124.84,226.57a6.76,6.76,0,0,0-1.26-1.46c-.42-.36-1.11-.57-1.47-.94a1.16,1.16,0,0,1,.22.62c.18,1.28.73,2.61.43,3.87a6.83,6.83,0,0,1-1.57,3.28,3.15,3.15,0,0,1-1.34.9c-1.06.29-2.19-.28-3.28-.24a4.59,4.59,0,0,0-3.61,1.52,6.88,6.88,0,0,0-1.34,4.08,2,2,0,0,0,.12,1,1.44,1.44,0,0,0,1,.72,5.8,5.8,0,0,0,3.08-.43,14.88,14.88,0,0,0,6.1-3.95c.84-.91,1.4-2,2.16-2.93s1.6-1.52,1.77-2.64a4.88,4.88,0,0,0-1-3.36" transform="translate(-23.95 -19.56)" style="fill:#3a3944"/><path id="Path_5495" data-name="Path 5495" d="M126.26,206c-6.73-11.58-23.48-35.12-20.7-45.45l10.21-4.54S127,189,130.41,199.62c3.4,10.45,6,18.45,6.53,19.28,0,0,2.24,3.14-1.28,4.49,0,0-2.53,2-3.9-1.53s1.22-4.24-5.5-15.82" transform="translate(-23.95 -19.56)" style="fill:#f4b683"/><path id="Path_5496" data-name="Path 5496" d="M144.78,220.53a3.88,3.88,0,0,1,2.25.38,2.09,2.09,0,0,1,.53,2.46c-.35.84-1.2.67-1.92,1.22-2.11,1.58-4.8,2.79-7.35,2.11a11.57,11.57,0,0,0-3.11-.16,10.16,10.16,0,0,1-1.46,0,2.71,2.71,0,0,1-1.84-1.57c-1-1.95-.45-4.25-.42-6.42,0-.73,0-1.6.67-2a2,2,0,0,1,1-.21,4.51,4.51,0,0,1,2.87.33c.94.6,1.82,1.29,2.78,1.86a11.62,11.62,0,0,0,6,2" transform="translate(-23.95 -19.56)" style="fill:#f4b683"/><path id="Path_5497" data-name="Path 5497" d="M131.14,223.77a6.94,6.94,0,0,1-.25-1.92c0-.55.33-1.21.29-1.73a1,1,0,0,0,.32.59c.83,1,1.45,2.29,2.59,2.91a6.81,6.81,0,0,0,3.48,1,2.92,2.92,0,0,0,1.56-.39c.93-.59,1.26-1.81,2-2.59A4.6,4.6,0,0,1,144.7,220a7,7,0,0,1,3.93,1.73,1.88,1.88,0,0,1,.63.74,1.42,1.42,0,0,1-.11,1.19,5.76,5.76,0,0,1-2.37,2,14.9,14.9,0,0,1-7,1.89c-1.24,0-2.41-.28-3.63-.35-1-.06-2.2.17-3.14-.46a4.81,4.81,0,0,1-1.85-3" transform="translate(-23.95 -19.56)" style="fill:#3a3944"/><path id="Path_5498" data-name="Path 5498" d="M82.31,175.37l1.43,3.22,36.76-16.37L119.07,159" transform="translate(-23.95 -19.56)" style="fill:#fff3d9"/><path id="Path_5499" data-name="Path 5499" d="M94.78,107.15l-34.21,13s.87,18,12.41,39.77l10.18,16.9,36.61-16.14s-5.47-29.06-25-53.49" transform="translate(-23.95 -19.56)" style="fill:#4b4140"/><path id="Path_5500" data-name="Path 5500" d="M95.72,108l-.25-.35A32,32,0,0,0,93.58,105a23.06,23.06,0,0,1-1.65-2.39c-.58-.85-1.18-1.69-1.81-2.5a54.56,54.56,0,0,0-8.41-8.84h0c-.42-.35-.37-.78-.58-1.28s-.65-.79-.64-1.22c0-2.61-2.3-5.4-1.83-8A23.74,23.74,0,0,0,79.41,78c.24-3.87-2.74-6.73-5.88-8.49l-3-11.7-8.47.86,0-.07-.22.09-1.13.11.11.45-4.28,6.53L47.61,65l.14.31-7.26,6.6,6.7,10c-.79,3.51-.66,7.63,2.38,10a22.53,22.53,0,0,0,2.63,1.36c2.21,1.37,2.73,5,4.69,6.68.37.32.3.89.48,1.3a7.72,7.72,0,0,0,.57.91l.35.51a2.74,2.74,0,0,1,.39.76,15.73,15.73,0,0,1,.27,2.9q.27,3.19.66,6.39.35,2.89.81,5.78c.27,1.65.66,3.3.89,5a2.51,2.51,0,0,0,1.41,2.18,3,3,0,0,0,1.72.3c.94,0,1.89.07,2.83,0a27.22,27.22,0,0,0,3.12-.3l.37-.06c.67-.1,1.34-.23,2-.36a47.22,47.22,0,0,0,13.91-5,29.42,29.42,0,0,0,10.71-10L95.73,108" transform="translate(-23.95 -19.56)" style="fill:#4b4140"/><path id="Path_5501" data-name="Path 5501" d="M56,65.3l-6.39-3.17L46.83,65.4l8.23,7.7Z" transform="translate(-23.95 -19.56)" style="fill:#fff3d9"/><path id="Path_5502" data-name="Path 5502" d="M55.79,65.17l1.91-6.86,4.3.1.22,11.27Z" transform="translate(-23.95 -19.56)" style="fill:#fff3d9"/><path id="Path_5503" data-name="Path 5503" d="M61.11,74.58a1,1,0,1,1-1.32-.5,1,1,0,0,1,1.32.5" transform="translate(-23.95 -19.56)" style="fill:#fff3d9"/><path id="Path_5504" data-name="Path 5504" d="M64.94,83.17a1,1,0,1,1-1.33-.5,1,1,0,0,1,1.33.5" transform="translate(-23.95 -19.56)" style="fill:#fff3d9"/><path id="Path_5505" data-name="Path 5505" d="M68.76,91.76a1,1,0,0,1-.5,1.32,1,1,0,0,1-1.33-.51,1,1,0,0,1,.51-1.31,1,1,0,0,1,1.32.5" transform="translate(-23.95 -19.56)" style="fill:#fff3d9"/><path id="Path_5506" data-name="Path 5506" d="M72.59,100.35a1,1,0,1,1-1.33-.5,1,1,0,0,1,1.33.5" transform="translate(-23.95 -19.56)" style="fill:#fff3d9"/><path id="Path_5507" data-name="Path 5507" d="M90.12,100.13,89,98.72a51.47,51.47,0,0,1-26.16,13,17.69,17.69,0,0,1-3.32.31l.09.8q.36,2.89.81,5.77c0,.11,0,.2,0,.3a5.21,5.21,0,0,0,.79,0c.94-.05,1.89.07,2.83,0a27,27,0,0,0,3.12-.3l.37-.06c.68-.11,1.35-.23,2-.37a47.24,47.24,0,0,0,13.92-5,30.21,30.21,0,0,0,9.75-8.59c-.48-.62-.88-1.34-1.33-2-.58-.85-1.19-1.68-1.81-2.5" transform="translate(-23.95 -19.56)" style="fill:#fff3d9"/><path id="Path_5508" data-name="Path 5508" d="M84,107.74l-17.15,7.64s-.72,15.06,15.64,45l27.05-11.58s-12.84-40.69-25.54-41" transform="translate(-23.95 -19.56)" style="fill:#fff3d9"/><path id="Path_5509" data-name="Path 5509" d="M76.76,242.9c6.4,8.37,19.33,11.3,28.24,5.67,4.94-3.13,8.23-8.27,12.56-12.21a32.21,32.21,0,0,1,13.38-7.27c.16-1.55-1.72-2.46-3.28-2.58-5-.39-9.71,2.43-14.34,4.51s-10.46,3.32-14.46.2c-5.27-4.12-4.84-14-11.24-16-2.59-.8-5.32,0-8-.3-1-.13-2.62-1.2-3.59-.85s-1.65,2.54-2,3.46A27.31,27.31,0,0,0,72.7,234.3a23.09,23.09,0,0,0,4.06,8.6" transform="translate(-23.95 -19.56)" style="fill:#d5e5f2"/><rect id="Rectangle_832" data-name="Rectangle 832" x="19.79" y="142.28" width="136.93" height="4.3" transform="translate(-86.71 201.33) rotate(-85.43)" style="fill:#b5bec5"/><path id="Path_5510" data-name="Path 5510" d="M75.74,215.41l12.67,1s.67-11.08-5.23-11.8-7.38,10-7.38,10Z" transform="translate(-23.95 -19.56)" style="fill:#d70d01"/><path id="Path_5511" data-name="Path 5511" d="M97.26,78.57l-7-.56,2.06-25.75a3.07,3.07,0,0,1,3.31-2.82l.89.07a3.07,3.07,0,0,1,2.83,3.31h0Z" transform="translate(-23.95 -19.56)" style="fill:#d70d01"/><path id="Path_5512" data-name="Path 5512" d="M88.26,218.07c.38,2,.75,4.08,1.32,6.08a22.92,22.92,0,0,0,2.24,5.45,14.48,14.48,0,0,0,3.64,4.19,12.6,12.6,0,0,0,5,2.22,19.74,19.74,0,0,0,2.76.4,13.39,13.39,0,0,0,2.83,0,8.77,8.77,0,0,0,2.77-.87,25.68,25.68,0,0,0,2.66-1.72c1.08-.76,2.2-1.46,3.32-2.14s2.45-1.45,3.7-2.12a42.2,42.2,0,0,1,4-1.87,13.4,13.4,0,0,1,3.51-1,4.22,4.22,0,0,1,.71,0,.16.16,0,0,0,0-.32,9.63,9.63,0,0,0-3.28.66,31.57,31.57,0,0,0-3.87,1.67c-1.3.65-2.57,1.36-3.82,2.09-1,.61-2.07,1.25-3.08,1.9-.77.49-1.51,1-2.26,1.55a12.26,12.26,0,0,1-2.73,1.49,11.89,11.89,0,0,1-5.56.3,14.24,14.24,0,0,1-5.25-1.64,12.71,12.71,0,0,1-4-3.75,19.67,19.67,0,0,1-2.54-5.16,45.34,45.34,0,0,1-1.46-6q-.14-.72-.27-1.47c0-.19-.34-.1-.3.09" transform="translate(-23.95 -19.56)" style="fill:#a9c2d3"/><path id="Path_5513" data-name="Path 5513" d="M84.81,218.8a22.88,22.88,0,0,0,2.67,11.14,18.43,18.43,0,0,0,7.4,7.45,16.37,16.37,0,0,0,9.67,2,29.42,29.42,0,0,0,11.18-4.27c3.53-2.08,6.93-4.41,10.72-6,.48-.2,1-.39,1.46-.57.19-.07.1-.36-.09-.29a60.3,60.3,0,0,0-10.77,5.7,35.28,35.28,0,0,1-10.83,4.84A16.13,16.13,0,0,1,101,239a16.36,16.36,0,0,1-4.8-1.35A17.9,17.9,0,0,1,88.47,231a22,22,0,0,1-3.33-10.79c0-.47,0-1,0-1.42,0-.2-.3-.19-.31,0" transform="translate(-23.95 -19.56)" style="fill:#a9c2d3"/><path id="Path_5514" data-name="Path 5514" d="M74.81,217.87a23.26,23.26,0,0,0-.46,7.3A27.57,27.57,0,0,0,76,232.33a31.61,31.61,0,0,0,3.43,6.57,33.07,33.07,0,0,0,5,5.8,17.7,17.7,0,0,0,6.91,4.14,15,15,0,0,0,7.2.14,21.38,21.38,0,0,0,6.84-2.84,35.72,35.72,0,0,0,6.68-5.65c2.13-2.22,4.09-4.6,6.13-6.89a21.46,21.46,0,0,1,6.85-5.68,10.71,10.71,0,0,1,2.07-.69c.2,0,.11-.34-.09-.3a15.14,15.14,0,0,0-7.24,4.51c-2.12,2.12-4,4.47-6,6.7a48.4,48.4,0,0,1-6.56,6.32,23.47,23.47,0,0,1-6.64,3.63,16.35,16.35,0,0,1-7.17.86,14.66,14.66,0,0,1-7.15-3.1,29.24,29.24,0,0,1-5.44-5.56A32.76,32.76,0,0,1,77.06,234a28.64,28.64,0,0,1-2.17-7,23.39,23.39,0,0,1-.1-7.28c.08-.59.19-1.17.32-1.75a.16.16,0,0,0-.12-.18.17.17,0,0,0-.18.11" transform="translate(-23.95 -19.56)" style="fill:#a9c2d3"/><path id="Path_5515" data-name="Path 5515" d="M77.32,218.45a25.43,25.43,0,0,0,1.14,9.65,24.1,24.1,0,0,0,4.67,8.45,20.89,20.89,0,0,0,7.37,5.5,21.51,21.51,0,0,0,8.65,1.85,19.28,19.28,0,0,0,8.54-1.91c.33-.16.65-.33,1-.51s0-.36-.16-.26a18.68,18.68,0,0,1-8.32,2.34,21.08,21.08,0,0,1-8.61-1.4,20.71,20.71,0,0,1-7.46-5,23.42,23.42,0,0,1-5-8.1,25.25,25.25,0,0,1-1.55-9.43c0-.4,0-.8.07-1.2,0-.2-.3-.19-.32,0" transform="translate(-23.95 -19.56)" style="fill:#a9c2d3"/><path id="Path_5516" data-name="Path 5516" d="M81.71,219.66a19.38,19.38,0,0,0,1.36,9.19,20.54,20.54,0,0,0,5.31,7.64,18.68,18.68,0,0,0,8,4.23,20.51,20.51,0,0,0,9,.14,19.64,19.64,0,0,0,8.16-3.72c.29-.23.57-.46.84-.71l-.25-.17a8.6,8.6,0,0,1-3,3.66.16.16,0,0,0,.17.26,8.93,8.93,0,0,0,3.1-3.78.16.16,0,0,0-.07-.21.17.17,0,0,0-.18,0,19.1,19.1,0,0,1-7.84,4.11,20.4,20.4,0,0,1-8.83.31,18.44,18.44,0,0,1-8.11-3.71,20.35,20.35,0,0,1-5.61-7.2,19.59,19.59,0,0,1-1.84-8.94c0-.38,0-.76.08-1.14,0-.2-.29-.19-.31,0" transform="translate(-23.95 -19.56)" style="fill:#a9c2d3"/><path id="Path_5517" data-name="Path 5517" d="M92.87,94a1.2,1.2,0,0,0,.67,1.53l6.61,1.81a1.19,1.19,0,0,0,1.36-1,1.21,1.21,0,0,0-.67-1.54L94.23,93a1.21,1.21,0,0,0-1.36,1" transform="translate(-23.95 -19.56)" style="fill:#f4b683"/><path id="Path_5518" data-name="Path 5518" d="M89.61,95.53a1.3,1.3,0,0,0,.86,1.63h0l8.12,2.52a1.3,1.3,0,0,0,.77-2.49h0l-8.12-2.52a1.32,1.32,0,0,0-1.63.86" transform="translate(-23.95 -19.56)" style="fill:#f4b683"/><path id="Path_5519" data-name="Path 5519" d="M90.09,98.35a1.23,1.23,0,0,0,.73,1.58l7.25,2.25a1.31,1.31,0,0,0,.77-2.48l-7.25-2.25a1.26,1.26,0,0,0-1.5.9" transform="translate(-23.95 -19.56)" style="fill:#f4b683"/><path id="Path_5520" data-name="Path 5520" d="M91.17,101.37a1.17,1.17,0,0,0,.53,1.53l6,1.87a1.35,1.35,0,0,0,.77-2.48l-6-1.88a1.19,1.19,0,0,0-1.3,1" transform="translate(-23.95 -19.56)" style="fill:#f4b683"/><path id="Path_5521" data-name="Path 5521" d="M90.3,114a1.21,1.21,0,0,1-1.18,1.19l-6.82-.69a1.33,1.33,0,0,1,.26-2.59l6.82.69a1.21,1.21,0,0,1,.92,1.4" transform="translate(-23.95 -19.56)" style="fill:#f4b683"/><path id="Path_5522" data-name="Path 5522" d="M92.77,116.65a1.31,1.31,0,0,1-1.38,1.21l-8.48-.57a1.3,1.3,0,1,1,.18-2.6l8.47.57a1.3,1.3,0,0,1,1.21,1.39h0" transform="translate(-23.95 -19.56)" style="fill:#f4b683"/><path id="Path_5523" data-name="Path 5523" d="M91.31,119.1a1.24,1.24,0,0,1-1.24,1.22l-7.58-.51a1.23,1.23,0,0,1-1.08-1.37,1.25,1.25,0,0,1,1.25-1.22l7.58.51a1.24,1.24,0,0,1,1.07,1.37" transform="translate(-23.95 -19.56)" style="fill:#f4b683"/><path id="Path_5524" data-name="Path 5524" d="M89.23,121.54a1.17,1.17,0,0,1-1,1.23l-6.31-.42a1.36,1.36,0,0,1,.17-2.6l6.31.42a1.19,1.19,0,0,1,.88,1.37" transform="translate(-23.95 -19.56)" style="fill:#f4b683"/><path id="Path_5525" data-name="Path 5525" d="M82.78,121.45l.17-6.81L50.06,110l6.29,11Z" transform="translate(-23.95 -19.56)" style="fill:#f4b683"/></g></g></g></g></g></g></g></svg>