<svg xmlns="http://www.w3.org/2000/svg" viewBox="0 0 17 19.16"><g id="Layer_2" data-name="Layer 2"><g id="Layer_1-2" data-name="Layer 1"><g id="whatsapp"><path id="Path_3672-2" data-name="Path 3672-2" d="M5,.74H5a8.5,8.5,0,0,0-.8,15.11l.32,3.31,2.55-2.28A8.5,8.5,0,1,0,5,.74Z" style="fill:#4caf50"/><path id="Path_3673" data-name="Path 3673" d="M14,9.57a2.19,2.19,0,0,1-.93,1.59c-.33.24-.78.51-2.67.56A9.52,9.52,0,0,1,5.59,10.2,4.31,4.31,0,0,1,3.83,8.47a2.43,2.43,0,0,1,0-2,1.06,1.06,0,0,1,.6-.56,1.46,1.46,0,0,1,.23-.1c.21-.08.32-.11.6.15L6.51,7.17a.46.46,0,0,1,.2.37A1.25,1.25,0,0,1,6.63,8c0,.16-.11.29-.15.47a.35.35,0,0,0,.11.47,6.56,6.56,0,0,0,1.75.89,5.43,5.43,0,0,0,2.08.28.46.46,0,0,0,.45-.29c.09-.32.17-.64.23-1a.42.42,0,0,1,.43-.38c.21,0,1.43,0,1.68,0s.4,0,.49.07A1.91,1.91,0,0,1,14,9.57Z" style="fill:#fafafa"/></g></g></g></svg>