<svg xmlns="http://www.w3.org/2000/svg" width="15.332" height="15.811" viewBox="0 0 15.332 15.811">
  <g id="Group_3646" data-name="Group 3646" transform="translate(-1310 -6965.636)">
    <path id="Path_110" data-name="Path 110" d="M60.336,33.5a.136.136,0,0,0-.111.152l1.462,10.3s.028.193.178,0L63.6,41.607a.224.224,0,0,1,.415,0l2.067,3.457s.235.178.358.082l1.227-.743s.276-.221.07-.456L65.625,40.5s-.124-.252.206-.264l2.785-.4s.537-.069,0-.358Z" transform="translate(1256.478 6936.273)" fill="#fff"/>
    <path id="Path_111" data-name="Path 111" d="M9.48,2.17V14.179H21.489V2.17ZM20.225,12.915H10.744V3.434h9.481Z" transform="translate(1300.52 6963.466)" fill="#fff"/>
  </g>
</svg>
