<svg id="call_1_" data-name="call (1)" xmlns="http://www.w3.org/2000/svg" width="30" height="30" viewBox="0 0 30 30">
  <circle id="Ellipse_41" data-name="Ellipse 41" cx="15" cy="15" r="15" fill="#2196f3"/>
  <path id="Path_5703" data-name="Path 5703" d="M111.548,108.946l-.011.029c-.107.273-.215.547-.328.818-.1.233-.2.467-.308.694a1.93,1.93,0,0,1-.277.456,2.139,2.139,0,0,1-.357.288,3.1,3.1,0,0,1-2.486.189c-3.5-.939-8.175-5.61-9.114-9.114a3.1,3.1,0,0,1,.19-2.487,2.114,2.114,0,0,1,.287-.357,1.929,1.929,0,0,1,.456-.277c.227-.111.461-.211.695-.308.271-.112.545-.22.818-.328l.028-.011a.641.641,0,0,1,.792.277l1.355,2.347a.645.645,0,0,1-.235.878,1.931,1.931,0,0,0-.974,1.26,1.854,1.854,0,0,0,.342,1.521,16.332,16.332,0,0,0,2.847,2.846,1.853,1.853,0,0,0,1.521.342,1.932,1.932,0,0,0,1.26-.975.645.645,0,0,1,.878-.235l2.347,1.355a.641.641,0,0,1,.277.791Z" transform="translate(-89.944 -89.938)" fill="#fff" fill-rule="evenodd"/>
</svg>
