<svg id="whatsapp_2_" data-name="whatsapp (2)" xmlns="http://www.w3.org/2000/svg" width="30.205" height="30.205" viewBox="0 0 30.205 30.205">
  <path id="Path_3672" data-name="Path 3672" d="M15.106,0H15.1A15.093,15.093,0,0,0,2.875,23.955L.993,29.565,6.8,27.709A15.1,15.1,0,1,0,15.106,0Z" fill="#4caf50"/>
  <path id="Path_3673" data-name="Path 3673" d="M122.936,129.952a3.8,3.8,0,0,1-2.644,1.9c-.7.15-1.624.27-4.719-1.014-3.96-1.64-6.51-5.664-6.708-5.925a7.7,7.7,0,0,1-1.6-4.064,4.3,4.3,0,0,1,1.378-3.279,1.958,1.958,0,0,1,1.378-.483c.167,0,.317.008.451.015.4.017.595.04.856.665.325.783,1.117,2.717,1.211,2.915a.8.8,0,0,1,.057.729,2.328,2.328,0,0,1-.436.618c-.2.229-.387.4-.586.65-.182.214-.387.443-.158.839a11.959,11.959,0,0,0,2.186,2.717,9.906,9.906,0,0,0,3.16,1.949.852.852,0,0,0,.95-.15,16.3,16.3,0,0,0,1.053-1.395.752.752,0,0,1,.967-.293c.364.126,2.289,1.078,2.685,1.275s.657.293.753.46A3.356,3.356,0,0,1,122.936,129.952Z" transform="translate(-100.141 -109.413)" fill="#fafafa"/>
</svg>
