<svg xmlns="http://www.w3.org/2000/svg" width="14.063" height="14.116" viewBox="0 0 14.063 14.116">
  <g id="telephone_19_" data-name="telephone (19)" transform="translate(-0.912)">
    <path id="Path_3452" data-name="Path 3452" d="M3.761,9.383a14.975,14.975,0,0,0,4.981,3.9,7.753,7.753,0,0,0,2.787.825c.067,0,.132.006.2.006a2.308,2.308,0,0,0,1.79-.769.064.064,0,0,0,.012-.015,7.537,7.537,0,0,1,.565-.585c.137-.132.278-.269.412-.409a1.412,1.412,0,0,0-.006-2.1L12.744,8.477A1.423,1.423,0,0,0,11.714,8a1.471,1.471,0,0,0-1.041.471L9.626,9.521c-.1-.056-.2-.105-.29-.152a3.617,3.617,0,0,1-.322-.175,11.082,11.082,0,0,1-2.647-2.41,6.382,6.382,0,0,1-.9-1.427c.275-.249.532-.509.781-.763.088-.091.178-.181.269-.272a1.5,1.5,0,0,0,.486-1.053,1.488,1.488,0,0,0-.486-1.053l-.872-.872c-.1-.1-.2-.2-.3-.3-.193-.2-.395-.4-.594-.588A1.458,1.458,0,0,0,3.729,0,1.5,1.5,0,0,0,2.688.453L1.594,1.547a2.248,2.248,0,0,0-.67,1.439,5.413,5.413,0,0,0,.407,2.34A13.613,13.613,0,0,0,3.761,9.383ZM1.638,3.048A1.547,1.547,0,0,1,2.1,2.053L3.191.965A.788.788,0,0,1,3.729.717a.747.747,0,0,1,.526.254c.2.181.38.371.579.573.1.1.2.2.3.31l.872.872a.794.794,0,0,1,.275.547.794.794,0,0,1-.275.547l-.272.275c-.272.275-.526.535-.807.784l-.015.015a.572.572,0,0,0-.146.649l.009.023a6.884,6.884,0,0,0,1.027,1.67A11.7,11.7,0,0,0,8.626,9.8a4.187,4.187,0,0,0,.386.211,3.617,3.617,0,0,1,.322.175l.032.018a.611.611,0,0,0,.284.073.62.62,0,0,0,.436-.2l1.094-1.094a.774.774,0,0,1,.535-.26.735.735,0,0,1,.518.26L14,10.749a.705.705,0,0,1-.009,1.1c-.123.132-.252.257-.389.389a8.423,8.423,0,0,0-.611.635,1.606,1.606,0,0,1-1.255.532c-.05,0-.1,0-.152-.006a7.043,7.043,0,0,1-2.521-.755A14.227,14.227,0,0,1,4.317,8.933,13.03,13.03,0,0,1,2.006,5.086,4.718,4.718,0,0,1,1.638,3.048Z" fill="#fff"/>
  </g>
</svg>
