<svg xmlns="http://www.w3.org/2000/svg" xmlns:xlink="http://www.w3.org/1999/xlink" width="39" height="40" viewBox="0 0 39 40">
  <defs>
    <linearGradient id="linear-gradient" x1="0.5" y1="0.995" x2="0.5" y2="0.068" gradientUnits="objectBoundingBox">
      <stop offset="0" stop-color="#e09b3d"/>
      <stop offset="0.24" stop-color="#c74c4d"/>
      <stop offset="0.65" stop-color="#c21975"/>
      <stop offset="1" stop-color="#7024c4"/>
    </linearGradient>
  </defs>
  <g id="Layer_2" data-name="Layer 2" transform="translate(-0.33)">
    <g id="_05.instagram" data-name="05.instagram" transform="translate(0)">
      <ellipse id="background" cx="19.5" cy="20" rx="19.5" ry="20" transform="translate(0.33)" fill="url(#linear-gradient)"/>
      <g id="icon" transform="translate(9.837 9.913)">
        <path id="Path_5151" data-name="Path 5151" d="M51.92,38H43.906A5.914,5.914,0,0,0,38,43.906V51.92a5.914,5.914,0,0,0,5.906,5.906H51.92a5.911,5.911,0,0,0,5.906-5.906V43.906A5.914,5.914,0,0,0,51.92,38Zm3.913,13.92a3.913,3.913,0,0,1-3.913,3.913H43.906a3.913,3.913,0,0,1-3.913-3.913V43.906a3.913,3.913,0,0,1,3.913-3.913H51.92a3.913,3.913,0,0,1,3.913,3.913Z" transform="translate(-38 -38)" fill="#fff"/>
        <path id="Path_5152" data-name="Path 5152" d="M61.461,56.35a5.129,5.129,0,1,0,5.126,5.127A5.129,5.129,0,0,0,61.461,56.35Zm0,8.257a3.131,3.131,0,1,1,3.131-3.131A3.131,3.131,0,0,1,61.461,64.607Z" transform="translate(-51.548 -51.563)" fill="#fff"/>
        <circle id="Ellipse_39" data-name="Ellipse 39" cx="1.268" cy="1.268" r="1.268" transform="translate(13.803 3.519)" fill="#fff"/>
      </g>
    </g>
  </g>
</svg>
