<svg id="Layer_2" data-name="Layer 2" xmlns="http://www.w3.org/2000/svg" width="40" height="40" viewBox="0 0 40 40">
  <g id="_01.facebook" data-name="01.facebook">
    <circle id="background" cx="20" cy="20" r="20" fill="#334c8c"/>
    <path id="icon" d="M66.774,46.038l-.329,2.76a.522.522,0,0,1-.522.464h-2.87v8.191a.37.37,0,0,1-.365.373H59.764a.37.37,0,0,1-.365-.376l.016-8.189H57.242a.522.522,0,0,1-.522-.522V45.98a.522.522,0,0,1,.522-.522H59.4V42.782c0-3.1,1.842-4.782,4.539-4.782h2.21a.522.522,0,0,1,.522.522v2.324a.522.522,0,0,1-.522.522H64.8c-1.466.023-1.743.725-1.743,1.774v2.309h3.211a.522.522,0,0,1,.509.587Z" transform="translate(-41.923 -28.087)" fill="#fff"/>
  </g>
</svg>
