<svg xmlns="http://www.w3.org/2000/svg" width="40" height="40" viewBox="0 0 40 40">
  <g id="Layer_2" data-name="Layer 2" transform="translate(0.34)">
    <g id="_08.whatsapp" data-name="08.whatsapp" transform="translate(0)">
      <circle id="background" cx="20" cy="20" r="20" transform="translate(-0.34)" fill="#2aa81a"/>
      <g id="icon" transform="translate(9.838 9.912)">
        <path id="Path_5153" data-name="Path 5153" d="M55.128,40.917A9.835,9.835,0,0,0,39.371,52.3l-1.043,5.066a.37.37,0,0,0,.06.295.378.378,0,0,0,.4.157l4.957-1.177a9.835,9.835,0,0,0,11.374-15.72Zm-1.55,12.358a7.711,7.711,0,0,1-8.87,1.453l-.694-.344-3.044.72v-.039l.642-3.071-.339-.668a7.7,7.7,0,0,1,12.306-8.94l.034.047a7.7,7.7,0,0,1-.039,10.847Z" transform="translate(-38.299 -37.997)" fill="#fff"/>
        <path id="Path_5154" data-name="Path 5154" d="M67.122,65.515A3.215,3.215,0,0,1,65.418,67c-1.3.313-3.29,0-5.776-2.3l-.031-.029c-2.163-2.019-2.737-3.7-2.609-5.035a3.191,3.191,0,0,1,1.239-1.891.71.71,0,0,1,1.109.261l.8,1.81a.7.7,0,0,1-.086.72l-.407.522a.691.691,0,0,0-.055.77,7.565,7.565,0,0,0,1.375,1.529,8.132,8.132,0,0,0,1.9,1.364.691.691,0,0,0,.754-.159l.467-.475a.707.707,0,0,1,.712-.2l1.9.545a.715.715,0,0,1,.4,1.08Z" transform="translate(-52.111 -52.471)" fill="#fff"/>
      </g>
    </g>
  </g>
</svg>
