<svg xmlns="http://www.w3.org/2000/svg" width="15.361" height="10.801" viewBox="0 0 15.361 10.801">
  <g id="email_19_" data-name="email (19)" transform="translate(0 -76)">
    <g id="Group_3657" data-name="Group 3657" transform="translate(0 76)">
      <path id="Path_3453" data-name="Path 3453" d="M14.011,76H1.35A1.352,1.352,0,0,0,0,77.35v8.1A1.352,1.352,0,0,0,1.35,86.8h12.66a1.352,1.352,0,0,0,1.35-1.35v-8.1A1.352,1.352,0,0,0,14.011,76Zm-.207.9L8.029,82.693a.525.525,0,0,1-.7,0L1.557,76.9ZM.9,85.285V77.516L4.772,81.4Zm.657.615,3.85-3.863,1.287,1.291a1.424,1.424,0,0,0,1.972,0l1.287-1.291L13.8,85.9Zm12.9-.615L10.588,81.4l3.872-3.885Z" transform="translate(0 -76)" fill="#fff"/>
    </g>
  </g>
</svg>
