<svg xmlns="http://www.w3.org/2000/svg" width="30.943" height="29.535" viewBox="0 0 30.943 29.535">
  <g id="heart" transform="translate(10.412 -18.492) rotate(14)">
    <path id="Path_3670" data-name="Path 3670" d="M261.754,19.058q-.249,0-.5.017L256.1,43.036c.3-.173,12.948-7.6,12.95-16.679A7.3,7.3,0,0,0,261.754,19.058Z" transform="translate(-243.143 0)" fill="#e0230d"/>
    <path id="Path_3671" data-name="Path 3671" d="M18.117,19.075c3.189.254,5.709,3.418,5.709,7.283,0,9.068-10.6,16.491-10.865,16.679l-.005,0S0,35.543,0,26.357a7.3,7.3,0,0,1,12.955-4.612A7.283,7.283,0,0,1,18.117,19.075Z" fill="#ff5440"/>
  </g>
</svg>
