<svg xmlns="http://www.w3.org/2000/svg" xmlns:xlink="http://www.w3.org/1999/xlink" viewBox="0 0 134.89 155.06"><defs><clipPath id="clip-path"><rect x="8.77" y="5.98" width="126.11" height="149.08" style="fill:none"/></clipPath></defs><g id="Layer_2" data-name="Layer 2"><g id="Group_12844" data-name="Group 12844"><g id="Group_12831" data-name="Group 12831" style="opacity:0.18000000715255737"><g id="Group_12830" data-name="Group 12830"><g style="clip-path:url(#clip-path)"><g id="Group_12829" data-name="Group 12829"><path id="Path_35915" data-name="Path 35915" d="M134.89,61l-.42-29.84a5.11,5.11,0,0,0-3.64-4.8l-6-1.8a2.83,2.83,0,0,1-2-2.7l-.07-10a5.93,5.93,0,0,0-6-5.9h0l-101.5.68a6.52,6.52,0,0,0-6.48,6.56h0l.91,135.36a6.52,6.52,0,0,0,6.56,6.48h0l101.51-.68a5.94,5.94,0,0,0,5.9-6h0l-.52-77.68a2.83,2.83,0,0,1,2-2.71l6.31-2.09a5.08,5.08,0,0,0,3.5-4.9" style="fill:#003889"/></g></g></g></g><path id="Path_35916" data-name="Path 35916" d="M128.21,54.14,126.4,24.37a5.07,5.07,0,0,0-3.85-4.63l-6.09-1.52a2.84,2.84,0,0,1-2.14-2.6l-.54-10A5.93,5.93,0,0,0,107.54,0L6.17,5.41A6.53,6.53,0,0,0,0,12.27L7.22,147.44a6.52,6.52,0,0,0,6.86,6.17h0l101.36-5.41a6,6,0,0,0,5.62-6.25l-4.14-77.57a2.83,2.83,0,0,1,1.82-2.8L125,59.21a5.09,5.09,0,0,0,3.26-5.07" style="fill:#fff"/><path id="Path_35917" data-name="Path 35917" d="M51.71,21.86l-38.3,2a1.4,1.4,0,0,1-1.47-1.32l-.2-3.76a1.4,1.4,0,0,1,1.32-1.47l38.3-2a1.39,1.39,0,0,1,1.46,1.32l.2,3.76a1.4,1.4,0,0,1-1.32,1.47" style="fill:#ecf3fe"/><path id="Path_35918" data-name="Path 35918" d="M103.19,33.46l-74.38,4a1.38,1.38,0,0,1-1.45-1.3h0l-.2-3.79a1.38,1.38,0,0,1,1.31-1.45h0l74.37-4a1.38,1.38,0,0,1,1.45,1.3l.2,3.79a1.38,1.38,0,0,1-1.3,1.45h0" style="fill:#ecf3fe"/><path id="Path_35919" data-name="Path 35919" d="M103.82,47.79,15.05,52.52a1.51,1.51,0,0,1-1.59-1.42h0l-.18-3.54A1.49,1.49,0,0,1,14.7,46h0l88.78-4.74a1.5,1.5,0,0,1,1.58,1.43h0l.19,3.53a1.52,1.52,0,0,1-1.43,1.59h0" style="fill:#ecf3fe"/><path id="Path_35920" data-name="Path 35920" d="M104.59,62.1,15.81,66.84a1.51,1.51,0,0,1-1.58-1.43h0L14,61.88a1.5,1.5,0,0,1,1.42-1.59h0l88.77-4.74A1.52,1.52,0,0,1,105.83,57h0l.18,3.53a1.5,1.5,0,0,1-1.42,1.59h0" style="fill:#ecf3fe"/><path id="Path_35921" data-name="Path 35921" d="M105.35,76.42,16.58,81.15A1.51,1.51,0,0,1,15,79.73h0l-.19-3.54a1.52,1.52,0,0,1,1.43-1.59h0L105,69.87a1.51,1.51,0,0,1,1.59,1.42h0l.19,3.54a1.52,1.52,0,0,1-1.43,1.59h0" style="fill:#ecf3fe"/><path id="Path_35922" data-name="Path 35922" d="M106.12,90.73,17.34,95.47A1.51,1.51,0,0,1,15.76,94l-.19-3.53A1.5,1.5,0,0,1,17,88.92h0l88.78-4.74a1.51,1.51,0,0,1,1.58,1.43h0l.19,3.54a1.49,1.49,0,0,1-1.42,1.58h0" style="fill:#ecf3fe"/><path id="Path_35923" data-name="Path 35923" d="M106.88,105l-88.77,4.74a1.5,1.5,0,0,1-1.59-1.43h0l-.19-3.53a1.52,1.52,0,0,1,1.43-1.59h0l88.77-4.73a1.51,1.51,0,0,1,1.59,1.42h0l.19,3.54a1.51,1.51,0,0,1-1.43,1.58h0" style="fill:#ecf3fe"/><path id="Path_35924" data-name="Path 35924" d="M107.64,119.36,18.87,124.1a1.52,1.52,0,0,1-1.59-1.43h0l-.19-3.53a1.51,1.51,0,0,1,1.43-1.59h0l88.77-4.74a1.51,1.51,0,0,1,1.59,1.43h0l.19,3.53a1.5,1.5,0,0,1-1.43,1.59h0" style="fill:#ecf3fe"/><path id="Path_35925" data-name="Path 35925" d="M108.41,133.68l-88.78,4.73A1.49,1.49,0,0,1,18.05,137h0l-.19-3.54a1.51,1.51,0,0,1,1.42-1.59h0l88.78-4.73a1.49,1.49,0,0,1,1.58,1.42h0l.19,3.54a1.49,1.49,0,0,1-1.42,1.58h0" style="fill:#ecf3fe"/></g></g></svg>