<svg xmlns="http://www.w3.org/2000/svg" viewBox="0 0 186.17 204.83"><g id="Layer_2" data-name="Layer 2"><g id="Group_12844" data-name="Group 12844"><path id="Path_35941" data-name="Path 35941" d="M182.4,154.1,68.87,204.78a.56.56,0,0,1-.73-.28L.05,52a.56.56,0,0,1,.28-.74L113.85.56a6.36,6.36,0,0,1,8.4,3.2h0l63.36,141.94a6.34,6.34,0,0,1-3.21,8.39h0" style="fill:#3b82f4"/><path id="Path_35942" data-name="Path 35942" d="M109.23,69.76l-49,21.88a2.33,2.33,0,0,1-3.09-1.18h0L45.56,64.54a2.34,2.34,0,0,1,1.18-3.1h0l49-21.89a2.35,2.35,0,0,1,3.09,1.19h0l11.57,25.92a2.35,2.35,0,0,1-1.18,3.1h0" style="fill:#f9f8f7"/><path id="Path_35943" data-name="Path 35943" d="M52.18,68a.51.51,0,0,1-.21-1L96.44,47.19a.51.51,0,0,1,.41.93L52.38,68a.46.46,0,0,1-.2,0" style="fill:#192942"/><path id="Path_35944" data-name="Path 35944" d="M55.76,76a.5.5,0,0,1-.21-1L100,55.21a.51.51,0,0,1,.67.26.5.5,0,0,1-.26.66L56,76a.46.46,0,0,1-.2.05" style="fill:#192942"/><path id="Path_35945" data-name="Path 35945" d="M59.34,84.05a.51.51,0,0,1-.51-.51.51.51,0,0,1,.3-.46L103.6,63.22a.5.5,0,0,1,.41.92L59.54,84a.46.46,0,0,1-.2,0" style="fill:#192942"/></g></g></svg>