<svg xmlns="http://www.w3.org/2000/svg" viewBox="0 0 25.56 32.82"><g id="Layer_2" data-name="Layer 2"><g id="Group_12844" data-name="Group 12844"><rect id="Rectangle_7659" data-name="Rectangle 7659" x="7.56" y="3.96" width="16.49" height="11.43" transform="translate(1.45 21.39) rotate(-70.68)" style="fill:#33da82"/><rect id="Rectangle_7660" data-name="Rectangle 7660" x="4.88" y="2.84" width="12.76" height="16.48" transform="translate(-4.3 13.79) rotate(-54.43)" style="fill:#c4d7f2"/><rect id="Rectangle_7661" data-name="Rectangle 7661" x="4.25" y="6.61" width="16.48" height="11.42" transform="translate(-5.05 12.44) rotate(-45)" style="fill:#f9f9f9"/><path id="Path_35958" data-name="Path 35958" d="M22,32.82H3.58L0,8.27H25.56Z" style="fill:#fff"/><path id="Path_35959" data-name="Path 35959" d="M17.61,17.36l-9.8,0a.94.94,0,0,0-.94.94v.05L7.37,28a.93.93,0,0,0,.94.88l8.85,0A.94.94,0,0,0,18.1,28l.44-9.65a.92.92,0,0,0-.89-1h0M9.63,27a.75.75,0,0,1-.75-.75l0-6.23a.77.77,0,0,1,.75-.76h0a.77.77,0,0,1,.76.76v6.23a.75.75,0,0,1-.75.75m2.9,0a.77.77,0,0,1-.76-.76V20a.75.75,0,0,1,.75-.75h0a.76.76,0,0,1,.76.75v6.23a.76.76,0,0,1-.75.76m2.9,0a.76.76,0,0,1-.76-.75l0-6.23a.76.76,0,0,1,.76-.76h0a.76.76,0,0,1,.75.75l0,6.23a.76.76,0,0,1-.75.76" style="fill:#c4d7f2"/><path id="Path_35960" data-name="Path 35960" d="M17.76,14.68l-1.24-.25-.21-.84a.47.47,0,0,0-.37-.35l-5.11-1a.47.47,0,0,0-.48.18l-.52.69-1.24-.26a1.16,1.16,0,0,0-.46,2.27L17.3,17a1.16,1.16,0,1,0,.46-2.27m-2.66-.52a.32.32,0,0,1-.31.25h-.06l-3.24-.66a.31.31,0,0,1-.25-.36.3.3,0,0,1,.32-.26h.06l3.24.66a.32.32,0,0,1,.24.37" style="fill:#c4d7f2"/></g></g></svg>