<svg xmlns="http://www.w3.org/2000/svg" xmlns:xlink="http://www.w3.org/1999/xlink" viewBox="0 0 149.14 170.26"><defs><clipPath id="clip-path"><rect x="10.1" y="4.31" width="139.03" height="165.91" style="fill:none"/></clipPath></defs><g id="Layer_2" data-name="Layer 2"><g id="Group_12844" data-name="Group 12844"><g id="Group_12834" data-name="Group 12834" style="opacity:0.18000000715255737"><g id="Group_12833" data-name="Group 12833"><g style="clip-path:url(#clip-path)"><g id="Group_12832" data-name="Group 12832"><path id="Path_35927" data-name="Path 35927" d="M149,142.86,133.53,66.73a2.84,2.84,0,0,1,1.39-3l5.8-3.26A5.09,5.09,0,0,0,143.2,55L137,25.76a5.08,5.08,0,0,0-4.49-4l-6.25-.6a2.84,2.84,0,0,1-2.5-2.26l-2-9.82a5.94,5.94,0,0,0-7-4.63L15.33,24.68a6.51,6.51,0,0,0-5.09,7.68L37.22,165a6.52,6.52,0,0,0,7.69,5.09l99.47-20.24a5.93,5.93,0,0,0,4.64-7" style="fill:#003889"/></g></g></g></g><path id="Path_35928" data-name="Path 35928" d="M141.67,143.42l-13.87,3.77L43.72,170a6.52,6.52,0,0,1-8-4.58L.23,34.82a6.52,6.52,0,0,1,4.58-8l10.85-2.95L73.58,8.14,102.77.21a5.94,5.94,0,0,1,7.29,4.17l2.62,9.67a2.85,2.85,0,0,0,2.65,2.09l6.27.2a5.08,5.08,0,0,1,4.74,3.72l8,28.73a5.08,5.08,0,0,1-2.12,5.63l-5.58,3.63a2.82,2.82,0,0,0-1.18,3.12l20.36,75a5.94,5.94,0,0,1-4.18,7.29" style="fill:#fff"/><path id="Path_35929" data-name="Path 35929" d="M105.54,25,16.24,49.24a2.06,2.06,0,0,1-2.52-1.44h0L12,41.25a2,2,0,0,1,1.44-2.51h0l89.3-24.26a2.05,2.05,0,0,1,2.51,1.44h0L107,22.47A2,2,0,0,1,105.54,25h0" style="fill:#33da82"/><path id="Path_35930" data-name="Path 35930" d="M83.61,93,32,107a2.18,2.18,0,0,1-2.66-1.52l-13-48.08a2.15,2.15,0,0,1,1.52-2.65l51.57-14a2.18,2.18,0,0,1,2.66,1.52l13,48.07A2.16,2.16,0,0,1,83.61,93" style="fill:#ecf3fe"/><path id="Path_35931" data-name="Path 35931" d="M74.29,107.65,34,118.59a1,1,0,0,1-1.27-.73h0l-.91-3.34a1,1,0,0,1,.73-1.27h0l40.26-10.94a1,1,0,0,1,1.28.73h0l.9,3.34a1,1,0,0,1-.72,1.27h0" style="fill:#ecf3fe"/><path id="Path_35932" data-name="Path 35932" d="M111.05,42.28,79.06,51a1.27,1.27,0,0,1-1.55-.89l-.79-2.89a1.28,1.28,0,0,1,.89-1.56l32-8.68a1.26,1.26,0,0,1,1.55.88l.79,2.9a1.27,1.27,0,0,1-.89,1.55" style="fill:#ecf3fe"/><path id="Path_35933" data-name="Path 35933" d="M114,53.28,82.05,62a1.27,1.27,0,0,1-1.55-.89l-.79-2.89a1.28,1.28,0,0,1,.89-1.56l32-8.68a1.26,1.26,0,0,1,1.55.88l.79,2.9a1.27,1.27,0,0,1-.89,1.55" style="fill:#ecf3fe"/><path id="Path_35934" data-name="Path 35934" d="M117,64.28,85,73a1.27,1.27,0,0,1-1.55-.89l-.78-2.89a1.25,1.25,0,0,1,.89-1.55l32-8.69a1.27,1.27,0,0,1,1.56.88l.78,2.9a1.26,1.26,0,0,1-.89,1.55" style="fill:#ecf3fe"/><path id="Path_35935" data-name="Path 35935" d="M120,75.28,88,84a1.26,1.26,0,0,1-1.55-.89l-.79-2.89a1.27,1.27,0,0,1,.89-1.55l32-8.69a1.26,1.26,0,0,1,1.55.89l.79,2.89a1.27,1.27,0,0,1-.89,1.55" style="fill:#ecf3fe"/><path id="Path_35936" data-name="Path 35936" d="M127.64,104.43,37.37,129a1.53,1.53,0,0,1-1.89-1.08h0l-.65-2.36a1.55,1.55,0,0,1,1.09-1.89h0L126.19,99.1a1.53,1.53,0,0,1,1.89,1.08h0l.65,2.36a1.55,1.55,0,0,1-1.09,1.89h0" style="fill:#ecf3fe"/><path id="Path_35937" data-name="Path 35937" d="M130.5,114.93,40.22,139.45a1.53,1.53,0,0,1-1.89-1.08h0L37.69,136a1.53,1.53,0,0,1,1.08-1.89h0l90.28-24.52a1.54,1.54,0,0,1,1.89,1.08h0l.64,2.36a1.54,1.54,0,0,1-1.08,1.89h0" style="fill:#ecf3fe"/><path id="Path_35938" data-name="Path 35938" d="M133.35,125.43,43.07,150a1.53,1.53,0,0,1-1.89-1.08h0l-.64-2.36a1.54,1.54,0,0,1,1.08-1.89h0L131.9,120.1a1.55,1.55,0,0,1,1.89,1.08h0l.64,2.36a1.54,1.54,0,0,1-1.08,1.89h0" style="fill:#ecf3fe"/><path id="Path_35939" data-name="Path 35939" d="M119.82,141.1,62.67,156.62a.86.86,0,1,1-.46-1.66h0l57.16-15.53a.87.87,0,0,1,.45,1.67" style="fill:#ecf3fe"/></g></g></svg>