<svg xmlns="http://www.w3.org/2000/svg" xmlns:xlink="http://www.w3.org/1999/xlink" viewBox="0 0 199.33 211.59"><defs><clipPath id="clip-path"><rect x="60.28" y="18.95" width="127.79" height="162.12" style="fill:none"/></clipPath></defs><g id="Layer_2" data-name="Layer 2"><g id="Group_12844" data-name="Group 12844"><path id="Path_35926" data-name="Path 35926" d="M196.16,146.48l-111.8,65a.56.56,0,0,1-.76-.2L.08,66.65a.55.55,0,0,1,.2-.76l111.8-65a6.36,6.36,0,0,1,8.68,2.33l77.72,134.61a6.37,6.37,0,0,1-2.33,8.69" style="fill:#1061b2"/><g id="Group_12837" data-name="Group 12837" style="opacity:0.18000000715255737"><g id="Group_12836" data-name="Group 12836"><g style="clip-path:url(#clip-path)"><g id="Group_12835" data-name="Group 12835"><path id="Path_35940" data-name="Path 35940" d="M188.07,158,104,180.84a6.51,6.51,0,0,1-8-4.58L60.51,45.63a6.49,6.49,0,0,1,.82-5.25L76,34.68,133.86,19l5,12.89,4,10.2,4.6,11.81,2,5.18,2.15,5.5,2,5.18,2.14,5.5,2,5.18,2.15,5.5,2,5.18,9,23.05,2,5.18,2,5,2,5.18,1.95,5,2,5.17Z" style="fill:#003889"/></g></g></g></g></g></g></svg>