<svg xmlns="http://www.w3.org/2000/svg" xmlns:xlink="http://www.w3.org/1999/xlink" viewBox="0 0 45.32 53.8"><defs><clipPath id="clip-path"><rect x="1.87" y="33.79" width="36.89" height="3.71" style="fill:none"/></clipPath></defs><g id="Layer_2" data-name="Layer 2"><g id="Group_12844" data-name="Group 12844"><rect id="Rectangle_7643" data-name="Rectangle 7643" x="38.76" y="32.25" width="5.37" height="21.55" style="fill:#9fb8d6"/><rect id="Rectangle_7644" data-name="Rectangle 7644" x="1.87" y="32.25" width="36.89" height="21.55" style="fill:#fff"/><path id="Path_35946" data-name="Path 35946" d="M24.53,41.24H16.1a1.58,1.58,0,0,1,0-3.16h8.43a1.58,1.58,0,1,1,0,3.16h0" style="fill:#36588e"/><rect id="Rectangle_7645" data-name="Rectangle 7645" x="0.58" y="26.11" width="38.18" height="7.68" style="fill:#f4b545"/><rect id="Rectangle_7646" data-name="Rectangle 7646" x="38.76" y="26.11" width="6.56" height="7.68" style="fill:#e59d29"/><g id="Group_12840" data-name="Group 12840" style="opacity:0.5"><g id="Group_12839" data-name="Group 12839"><g style="clip-path:url(#clip-path)"><g id="Group_12838" data-name="Group 12838"><path id="Path_35947" data-name="Path 35947" d="M1.87,33.79,38.76,37.5V33.79Z" style="fill:#9fb8d6"/></g></g></g></g><rect id="Rectangle_7648" data-name="Rectangle 7648" x="13.24" y="43.36" width="14.14" height="6.93" style="fill:#c4d7f2"/><rect id="Rectangle_7649" data-name="Rectangle 7649" x="3.09" y="21.03" width="21.64" height="5.15" style="fill:#d7e3f4"/><path id="Path_35948" data-name="Path 35948" d="M37.24,22v3.31h.7v.92H24.73V21H37.94V22Z" style="fill:#87a7c6"/><rect id="Rectangle_7650" data-name="Rectangle 7650" x="25.75" y="21.95" width="11.49" height="3.32" style="fill:#d7e3f4"/><rect id="Rectangle_7651" data-name="Rectangle 7651" x="25.75" y="21.95" width="11.49" height="0.82" style="fill:#9fb8d6"/><rect id="Rectangle_7652" data-name="Rectangle 7652" x="4.65" y="22.19" width="10.69" height="2.84" style="fill:#fff"/><rect id="Rectangle_7653" data-name="Rectangle 7653" x="16.27" y="22.19" width="1.29" height="2.84" style="fill:#fff"/><path id="Path_35949" data-name="Path 35949" d="M21.8,23.6a1.42,1.42,0,1,1-1.42-1.41h0A1.42,1.42,0,0,1,21.8,23.6" style="fill:#fff"/><path id="Path_35950" data-name="Path 35950" d="M21.3,23.6a.92.92,0,1,1-.92-.92.93.93,0,0,1,.92.92h0" style="fill:#87a7c6"/><path id="Path_35951" data-name="Path 35951" d="M29.57,0H0V9.12H36V0Z" style="fill:#fff"/><path id="Path_35952" data-name="Path 35952" d="M30.65,9.12H1.08v6.8H37.34V9.12Z" style="fill:#fff"/><path id="Path_35953" data-name="Path 35953" d="M29.57,0V9.12H13.92l16.63,2.75v4h6.79V9.12H36V0Z" style="fill:#9fb8d6"/><rect id="Rectangle_7654" data-name="Rectangle 7654" x="4.3" y="15.92" width="21.49" height="5.11" style="fill:#33da82"/><path id="Path_35954" data-name="Path 35954" d="M38.22,16.82v3.3h.69V21H25.79V15.92H38.91v.91Z" style="fill:#1db562"/><rect id="Rectangle_7655" data-name="Rectangle 7655" x="26.81" y="16.83" width="11.41" height="3.3" style="fill:#d7e3f4"/><rect id="Rectangle_7656" data-name="Rectangle 7656" x="26.81" y="16.83" width="11.41" height="0.82" style="fill:#9fb8d6"/><rect id="Rectangle_7657" data-name="Rectangle 7657" x="5.86" y="17.06" width="10.62" height="2.82" style="fill:#fff"/><rect id="Rectangle_7658" data-name="Rectangle 7658" x="17.39" y="17.06" width="1.28" height="2.82" style="fill:#fff"/><path id="Path_35955" data-name="Path 35955" d="M22.89,18.47a1.41,1.41,0,1,1-1.41-1.41h0a1.41,1.41,0,0,1,1.41,1.41" style="fill:#fff"/><path id="Path_35956" data-name="Path 35956" d="M22.39,18.47a.92.92,0,1,1-.91-.91h0a.91.91,0,0,1,.91.91" style="fill:#33da82"/><path id="Path_35957" data-name="Path 35957" d="M.58,26.11l38.18,2.82V26.11Z" style="fill:#e59d29"/></g></g></svg>