<svg xmlns="http://www.w3.org/2000/svg" xmlns:xlink="http://www.w3.org/1999/xlink" viewBox="0 0 144.11 167.27"><defs><clipPath id="clip-path"><rect x="1.74" y="4.68" width="142.38" height="162.59" style="fill:none"/></clipPath></defs><g id="Layer_2" data-name="Layer 2"><g id="Group_12844" data-name="Group 12844"><g id="Group_12828" data-name="Group 12828" style="opacity:0.18000000715255737"><g id="Group_12827" data-name="Group 12827"><g style="clip-path:url(#clip-path)"><g id="Group_12826" data-name="Group 12826"><path id="Path_35905" data-name="Path 35905" d="M141.26,43.05l-5.64-2.75a2.85,2.85,0,0,1-1.56-3l1.57-9.89a5.94,5.94,0,0,0-4.94-6.79L30.42,4.76A6.52,6.52,0,0,0,23,10.18L1.82,143.88a6.52,6.52,0,0,0,5.42,7.46h0L107.51,167.2a6,6,0,0,0,6.79-4.94h0l12.13-76.73a2.83,2.83,0,0,1,2.37-2.35l6.57-1a5.08,5.08,0,0,0,4.24-4.27l4.45-29.5a5.09,5.09,0,0,0-2.8-5.33" style="fill:#003889"/></g></g></g></g><path id="Path_35906" data-name="Path 35906" d="M133.78,66.72,136.51,37a5.1,5.1,0,0,0-3.1-5.16l-5.79-2.42a2.85,2.85,0,0,1-1.73-2.9l1-10a5.92,5.92,0,0,0-5.32-6.49h0L20.55,0a6.52,6.52,0,0,0-7.13,5.84h0L0,140.58a6.53,6.53,0,0,0,5.85,7.13l101,10a5.92,5.92,0,0,0,6.49-5.32h0l7.68-77.3a2.84,2.84,0,0,1,2.22-2.49l6.5-1.4a5.1,5.1,0,0,0,4-4.51" style="fill:#fff"/><path id="Path_35907" data-name="Path 35907" d="M67.23,28.39,23,24a2.39,2.39,0,0,1-2.15-2.62l.42-4.25A2.4,2.4,0,0,1,23.92,15l44.2,4.39A2.41,2.41,0,0,1,70.27,22l-.42,4.25a2.4,2.4,0,0,1-2.62,2.15" style="fill:#ecf3fe"/><path id="Path_35908" data-name="Path 35908" d="M54,92.07,15.43,88.24a1.2,1.2,0,0,1-1.07-1.31l.24-2.43a1.2,1.2,0,0,1,1.31-1.08l38.55,3.83a1.21,1.21,0,0,1,1.08,1.31L55.3,91A1.21,1.21,0,0,1,54,92.07" style="fill:#ecf3fe"/><path id="Path_35909" data-name="Path 35909" d="M107.24,106.73,28.59,98.92a1.34,1.34,0,0,1-1.19-1.46l.22-2.16a1.32,1.32,0,0,1,1.45-1.19h0l78.65,7.81a1.33,1.33,0,0,1,1.19,1.45l-.21,2.17a1.34,1.34,0,0,1-1.46,1.19h0" style="fill:#ecf3fe"/><path id="Path_35910" data-name="Path 35910" d="M106.21,116l-92.38-9.18a1.44,1.44,0,0,1-1.29-1.57h0l.19-2A1.44,1.44,0,0,1,14.3,102l92.39,9.18a1.44,1.44,0,0,1,1.29,1.57l-.19,1.95a1.45,1.45,0,0,1-1.58,1.29" style="fill:#ecf3fe"/><path id="Path_35911" data-name="Path 35911" d="M105.29,125.28,12.9,116.1a1.44,1.44,0,0,1-1.29-1.57l.2-2a1.44,1.44,0,0,1,1.57-1.29h0l92.39,9.18a1.44,1.44,0,0,1,1.29,1.57l-.2,1.95a1.44,1.44,0,0,1-1.57,1.29" style="fill:#ecf3fe"/><path id="Path_35912" data-name="Path 35912" d="M104.37,134.56,12,125.38a1.43,1.43,0,0,1-1.29-1.57l.19-2a1.44,1.44,0,0,1,1.57-1.29h0l92.39,9.18a1.44,1.44,0,0,1,1.29,1.57l-.19,2a1.45,1.45,0,0,1-1.58,1.29" style="fill:#ecf3fe"/><path id="Path_35913" data-name="Path 35913" d="M103.45,143.84l-92.39-9.18a1.43,1.43,0,0,1-1.29-1.57h0l.19-2a1.45,1.45,0,0,1,1.58-1.29L103.92,139a1.44,1.44,0,0,1,1.29,1.57l-.19,2a1.44,1.44,0,0,1-1.57,1.29h0" style="fill:#ecf3fe"/><path id="Path_35914" data-name="Path 35914" d="M94.89,81,34.52,75a3.35,3.35,0,0,1-3-3.66L35,36.78a3.35,3.35,0,0,1,3.66-3l60.36,6a3.36,3.36,0,0,1,3,3.67L98.55,78a3.36,3.36,0,0,1-3.66,3h0" style="fill:#33da82"/></g></g></svg>