<svg xmlns="http://www.w3.org/2000/svg" viewBox="0 0 47.99 77.18"><g id="Layer_2" data-name="Layer 2"><g id="Group_12844" data-name="Group 12844"><path id="Path_35873" data-name="Path 35873" d="M46.85,17.6c.63,0,1.14-.81,1.14-1.82v-14C48,.82,47.48,0,46.85,0H14.65C14,0,13.52.81,13.52,1.82v14c0,1,.51,1.82,1.13,1.82h1.49v2.09H14.65c-.63,0-1.13.81-1.13,1.82v14c0,1,.51,1.82,1.13,1.82h1.49v2.25H14.65c-.63,0-1.13.82-1.13,1.82v14c0,1,.51,1.81,1.13,1.81h1.49v2.43H14.65c-.62,0-1.13.81-1.13,1.82v14c0,1,.51,1.82,1.13,1.82h32.2c.63,0,1.14-.81,1.14-1.82v-14c0-1-.51-1.82-1.14-1.82H45.37V57.14h1.48c.63,0,1.14-.81,1.14-1.81v-14c0-1-.51-1.82-1.14-1.82H45.37V37.29h1.48c.63,0,1.14-.81,1.14-1.82v-14c0-1-.51-1.82-1.14-1.82H45.37V17.61Z" style="fill:#9bb9dd"/><path id="Path_35874" data-name="Path 35874" d="M30.82,21.37H3.66a1,1,0,0,1-1-1V17.18a1,1,0,0,1,1-1H30.82a1,1,0,0,1,1,1v3.16a1,1,0,0,1-1,1" style="fill:#36588e"/><path id="Path_35875" data-name="Path 35875" d="M33,17.6H1.44A1.43,1.43,0,0,1,0,16.16V1.44A1.43,1.43,0,0,1,1.44,0H33a1.44,1.44,0,0,1,1.44,1.44V16.17A1.45,1.45,0,0,1,33,17.61" style="fill:#c4d7f2"/><path id="Path_35876" data-name="Path 35876" d="M31.37,15.55H30.14a.56.56,0,0,1-.56-.57V2.62a.56.56,0,0,1,.56-.57h1.23a.56.56,0,0,1,.56.57V15a.56.56,0,0,1-.56.57" style="fill:#ecf3fe"/><path id="Path_35877" data-name="Path 35877" d="M27.13,15.55H25.91a.57.57,0,0,1-.57-.57V2.62a.57.57,0,0,1,.57-.57h1.22a.56.56,0,0,1,.57.57V15a.56.56,0,0,1-.57.57" style="fill:#ecf3fe"/><path id="Path_35878" data-name="Path 35878" d="M22.9,15.55H21.68a.57.57,0,0,1-.57-.57V2.62a.57.57,0,0,1,.57-.57H22.9a.56.56,0,0,1,.57.57V15a.56.56,0,0,1-.57.57" style="fill:#ecf3fe"/><path id="Path_35879" data-name="Path 35879" d="M18.67,15.55H17.44a.57.57,0,0,1-.57-.57V2.62a.57.57,0,0,1,.57-.57h1.23a.56.56,0,0,1,.56.57V15a.56.56,0,0,1-.56.57" style="fill:#ecf3fe"/><path id="Path_35880" data-name="Path 35880" d="M6.71,4.17H2.34a.58.58,0,0,1-.57-.58v-.3a.57.57,0,0,1,.57-.57H6.71a.57.57,0,0,1,.58.57v.3a.58.58,0,0,1-.58.58" style="fill:#1db562"/><path id="Path_35881" data-name="Path 35881" d="M30.82,61.09H3.66a1,1,0,0,1-1-1V56.9a1,1,0,0,1,1-1H30.82a1,1,0,0,1,1,1v3.15a1,1,0,0,1-1,1" style="fill:#36588e"/><path id="Path_35882" data-name="Path 35882" d="M30.82,41.06H3.66a1,1,0,0,1-1-1V36.87a1,1,0,0,1,1-1H30.82a1,1,0,0,1,1,1V40a1,1,0,0,1-1,1" style="fill:#36588e"/><path id="Path_35883" data-name="Path 35883" d="M33,37.29H1.44A1.44,1.44,0,0,1,0,35.85V21.13a1.44,1.44,0,0,1,1.44-1.44H33a1.45,1.45,0,0,1,1.44,1.44V35.85A1.44,1.44,0,0,1,33,37.29" style="fill:#c4d7f2"/><path id="Path_35884" data-name="Path 35884" d="M31.37,35.24H30.14a.57.57,0,0,1-.56-.57V22.3a.56.56,0,0,1,.56-.56h1.23a.56.56,0,0,1,.56.56V34.67a.57.57,0,0,1-.56.57" style="fill:#ecf3fe"/><path id="Path_35885" data-name="Path 35885" d="M27.13,35.24H25.91a.58.58,0,0,1-.57-.57V22.3a.57.57,0,0,1,.57-.56h1.22a.56.56,0,0,1,.57.56V34.67a.57.57,0,0,1-.57.57" style="fill:#ecf3fe"/><path id="Path_35886" data-name="Path 35886" d="M22.9,35.24H21.68a.58.58,0,0,1-.57-.57V22.3a.57.57,0,0,1,.57-.56H22.9a.56.56,0,0,1,.57.56V34.67a.57.57,0,0,1-.57.57" style="fill:#ecf3fe"/><path id="Path_35887" data-name="Path 35887" d="M18.67,35.24H17.44a.58.58,0,0,1-.57-.57V22.3a.57.57,0,0,1,.57-.56h1.23a.56.56,0,0,1,.56.56V34.67a.57.57,0,0,1-.56.57" style="fill:#ecf3fe"/><path id="Path_35888" data-name="Path 35888" d="M6.71,23.85H2.34a.57.57,0,0,1-.57-.57V23a.58.58,0,0,1,.57-.58H6.71a.58.58,0,0,1,.58.58v.3a.57.57,0,0,1-.58.57" style="fill:#1db562"/><path id="Path_35889" data-name="Path 35889" d="M33,57.15H1.44A1.44,1.44,0,0,1,0,55.71V41a1.44,1.44,0,0,1,1.44-1.44H33A1.45,1.45,0,0,1,34.48,41V55.71A1.45,1.45,0,0,1,33,57.15" style="fill:#c4d7f2"/><path id="Path_35890" data-name="Path 35890" d="M31.37,55.1H30.14a.57.57,0,0,1-.56-.57V42.16a.56.56,0,0,1,.56-.56h1.23a.56.56,0,0,1,.56.56V54.53a.57.57,0,0,1-.56.57" style="fill:#ecf3fe"/><path id="Path_35891" data-name="Path 35891" d="M27.13,55.1H25.91a.58.58,0,0,1-.57-.57V42.16a.57.57,0,0,1,.57-.56h1.22a.56.56,0,0,1,.57.56V54.53a.57.57,0,0,1-.57.57" style="fill:#ecf3fe"/><path id="Path_35892" data-name="Path 35892" d="M22.9,55.1H21.68a.58.58,0,0,1-.57-.57V42.16a.57.57,0,0,1,.57-.56H22.9a.56.56,0,0,1,.57.56V54.53a.57.57,0,0,1-.57.57" style="fill:#ecf3fe"/><path id="Path_35893" data-name="Path 35893" d="M18.67,55.1H17.44a.58.58,0,0,1-.57-.57V42.16a.57.57,0,0,1,.57-.56h1.23a.56.56,0,0,1,.56.56V54.53a.57.57,0,0,1-.56.57" style="fill:#ecf3fe"/><path id="Path_35894" data-name="Path 35894" d="M6.71,43.72H2.34a.58.58,0,0,1-.57-.58v-.3a.58.58,0,0,1,.57-.58H6.71a.59.59,0,0,1,.58.58v.3a.59.59,0,0,1-.58.58" style="fill:#1db562"/><path id="Path_35895" data-name="Path 35895" d="M33,77.18H1.44A1.44,1.44,0,0,1,0,75.74V61a1.44,1.44,0,0,1,1.44-1.44H33A1.45,1.45,0,0,1,34.48,61V75.74A1.44,1.44,0,0,1,33,77.18" style="fill:#c4d7f2"/><path id="Path_35896" data-name="Path 35896" d="M31.37,75.13H30.14a.57.57,0,0,1-.56-.57V62.19a.56.56,0,0,1,.56-.56h1.23a.56.56,0,0,1,.56.56V74.56a.57.57,0,0,1-.56.57" style="fill:#ecf3fe"/><path id="Path_35897" data-name="Path 35897" d="M27.13,75.13H25.91a.58.58,0,0,1-.57-.57V62.19a.57.57,0,0,1,.57-.56h1.22a.56.56,0,0,1,.57.56V74.56a.57.57,0,0,1-.57.57" style="fill:#ecf3fe"/><path id="Path_35898" data-name="Path 35898" d="M22.9,75.13H21.68a.58.58,0,0,1-.57-.57V62.19a.57.57,0,0,1,.57-.56H22.9a.56.56,0,0,1,.57.56V74.56a.57.57,0,0,1-.57.57" style="fill:#ecf3fe"/><path id="Path_35899" data-name="Path 35899" d="M18.67,75.13H17.44a.58.58,0,0,1-.57-.57V62.19a.57.57,0,0,1,.57-.56h1.23a.56.56,0,0,1,.56.56V74.56a.57.57,0,0,1-.56.57" style="fill:#ecf3fe"/><path id="Path_35900" data-name="Path 35900" d="M6.71,63.74H2.34a.58.58,0,0,1-.57-.57v-.3a.58.58,0,0,1,.57-.58H6.71a.58.58,0,0,1,.58.58v.3a.58.58,0,0,1-.58.57" style="fill:#1db562"/><rect id="Rectangle_7627" data-name="Rectangle 7627" x="31.85" y="37.29" width="13.51" height="2.26" style="fill:#77a0c9"/><rect id="Rectangle_7628" data-name="Rectangle 7628" x="31.85" y="17.6" width="13.51" height="2.09" style="fill:#77a0c9"/><rect id="Rectangle_7629" data-name="Rectangle 7629" x="31.85" y="57.15" width="13.51" height="2.43" style="fill:#77a0c9"/></g></g></svg>