<svg xmlns="http://www.w3.org/2000/svg" viewBox="0 0 76.26 102.9"><g id="Layer_2" data-name="Layer 2"><g id="Layer_1-2" data-name="Layer 1"><rect id="Rectangle_7017" data-name="Rectangle 7017" x="15.26" y="24.52" width="8.81" height="5.28" transform="translate(-12.15 16.57) rotate(-35.68)" style="fill:#006593"/><rect id="Rectangle_7018" data-name="Rectangle 7018" x="16.55" y="21.39" width="2.57" height="6.44" transform="translate(-11.01 15.03) rotate(-35.69)" style="fill:#006593"/><rect id="Rectangle_7019" data-name="Rectangle 7019" x="8.82" y="-2.62" width="0.84" height="30.51" transform="translate(-5.64 7.77) rotate(-35.69)" style="fill:#006593"/><rect id="Rectangle_7020" data-name="Rectangle 7020" x="30.24" y="24.6" width="11.19" height="50.15" transform="matrix(0.81, -0.58, 0.58, 0.81, -22.24, 30.22)" style="fill:#fcf2f4"/><rect id="Rectangle_7021" data-name="Rectangle 7021" x="27.03" y="26.99" width="9" height="33.36" transform="translate(-19.56 26.6) rotate(-35.69)" style="fill:#da5e64"/><rect id="Rectangle_7022" data-name="Rectangle 7022" x="37.54" y="56.68" width="9" height="3.28" transform="translate(-26.13 35.46) rotate(-35.68)" style="fill:#006593"/><rect id="Rectangle_7023" data-name="Rectangle 7023" x="52.49" y="55.38" width="7.61" height="45.6" transform="translate(-35.03 47.5) rotate(-35.68)" style="fill:#fcf2f4"/><rect id="Rectangle_7024" data-name="Rectangle 7024" x="64.33" y="94.14" width="11.22" height="6.06" transform="translate(-43.56 59.06) rotate(-35.69)" style="fill:#006593"/><rect id="Rectangle_7025" data-name="Rectangle 7025" x="43.71" y="69.5" width="16.71" height="5.56" transform="translate(-32.39 43.93) rotate(-35.68)" style="fill:#006593"/></g></g></svg>