<svg xmlns="http://www.w3.org/2000/svg" viewBox="0 0 83.67 122.43"><g id="Layer_2" data-name="Layer 2"><g id="Layer_1-2" data-name="Layer 1"><rect id="Rectangle_7026" data-name="Rectangle 7026" x="0.4" y="11.88" width="82.87" height="110.25" transform="translate(-0.49 0.31) rotate(-0.42)" style="fill:#fe9243"/><rect id="Rectangle_7027" data-name="Rectangle 7027" x="23.47" y="6.42" width="36.04" height="11.16" transform="translate(-0.09 0.3) rotate(-0.42)" style="fill:#fe9243"/><rect id="Rectangle_7028" data-name="Rectangle 7028" x="32.36" y="0.07" width="18.02" height="3.91" transform="translate(-0.01 0.3) rotate(-0.42)" style="fill:#fe9243"/><rect id="Rectangle_7029" data-name="Rectangle 7029" x="32.37" y="0.12" width="3.36" height="9.04" transform="translate(-0.03 0.25) rotate(-0.42)" style="fill:#fe9243"/><rect id="Rectangle_7030" data-name="Rectangle 7030" x="47.03" y="0.01" width="3.36" height="9.04" transform="translate(-0.03 0.36) rotate(-0.42)" style="fill:#fe9243"/><rect id="Rectangle_7031" data-name="Rectangle 7031" x="5.98" y="21.38" width="71.72" height="95.42" transform="translate(-0.52 0.32) rotate(-0.43)" style="fill:#fff"/><rect id="Rectangle_7032" data-name="Rectangle 7032" x="10.84" y="95.07" width="18.18" height="18.18" transform="translate(-0.76 0.15) rotate(-0.42)" style="fill:none;stroke:#bddee3;stroke-linecap:round;stroke-width:2.2529999639287634px"/><path id="Path_32851" data-name="Path 32851" d="M15.47,102,21,108,37.36,92.73,35,90.3,21.47,102.75l-3.37-3.7Z" style="fill:#da5e64"/><rect id="Rectangle_7033" data-name="Rectangle 7033" x="53.65" y="26.69" width="20.8" height="20.8" transform="translate(-0.28 0.49) rotate(-0.43)" style="fill:#c0e2e8"/><rect id="Rectangle_7034" data-name="Rectangle 7034" x="9.7" y="26.94" width="40.11" height="5.62" transform="translate(-0.22 0.22) rotate(-0.42)" style="fill:#c0e2e8"/><rect id="Rectangle_7035" data-name="Rectangle 7035" x="9.78" y="38.55" width="40.11" height="3.26" transform="translate(-0.29 0.22) rotate(-0.42)" style="fill:#c0e2e8"/><rect id="Rectangle_7036" data-name="Rectangle 7036" x="9.83" y="45.17" width="40.11" height="3.26" transform="translate(-0.34 0.22) rotate(-0.42)" style="fill:#c0e2e8"/><rect id="Rectangle_7037" data-name="Rectangle 7037" x="9.88" y="51.79" width="40.11" height="3.26" transform="translate(-0.39 0.22) rotate(-0.42)" style="fill:#c0e2e8"/><rect id="Rectangle_7038" data-name="Rectangle 7038" x="9.93" y="58.41" width="40.11" height="3.26" transform="translate(-0.44 0.22) rotate(-0.42)" style="fill:#c0e2e8"/><rect id="Rectangle_7039" data-name="Rectangle 7039" x="10.01" y="69.99" width="63.59" height="2.36" transform="translate(-0.52 0.31) rotate(-0.42)" style="fill:#c0e2e8"/><rect id="Rectangle_7040" data-name="Rectangle 7040" x="10.05" y="75.24" width="63.59" height="3.26" transform="translate(-0.58 0.32) rotate(-0.43)" style="fill:#c0e2e8"/><rect id="Rectangle_7041" data-name="Rectangle 7041" x="10.09" y="80.5" width="63.59" height="3.26" transform="translate(-0.6 0.31) rotate(-0.42)" style="fill:#c0e2e8"/><rect id="Rectangle_7042" data-name="Rectangle 7042" x="41.99" y="95.11" width="31.8" height="2.36" transform="translate(-0.73 0.44) rotate(-0.43)" style="fill:#c0e2e8"/><rect id="Rectangle_7043" data-name="Rectangle 7043" x="42.03" y="100.37" width="31.8" height="3.26" transform="translate(-0.74 0.42) rotate(-0.42)" style="fill:#c0e2e8"/><rect id="Rectangle_7044" data-name="Rectangle 7044" x="42.07" y="105.62" width="31.8" height="3.26" transform="translate(-0.78 0.43) rotate(-0.42)" style="fill:#c0e2e8"/></g></g></svg>