<svg xmlns="http://www.w3.org/2000/svg" viewBox="0 0 65.72 50.94"><g id="Layer_2" data-name="Layer 2"><g id="Layer_1-2" data-name="Layer 1"><path id="Path_32852" data-name="Path 32852" d="M15.11,5.34,6.5,18a2.85,2.85,0,0,1-4,.75h0l-1.29-.88a2.85,2.85,0,0,1-.75-4h0L9.1,1.25a2.85,2.85,0,0,1,4-.75h0l1.29.88a2.85,2.85,0,0,1,.75,4h0" style="fill:#fcf2f4"/><path id="Path_32853" data-name="Path 32853" d="M64.88,45.92l-2,2.9a4.85,4.85,0,0,1-6.73,1.28h0L5.56,15.84,13,4.94,63.61,39.2a4.85,4.85,0,0,1,1.27,6.72" style="fill:#fcf2f4"/><path id="Path_32854" data-name="Path 32854" d="M60,44.76h0c-1.19,1.75-2.93,2.6-5.43.9L20.34,22.35l4.41-6.28L58.91,39.32C61.4,41,61.21,43,60,44.76" style="fill:#da5e64"/></g></g></svg>