<svg xmlns="http://www.w3.org/2000/svg" xmlns:xlink="http://www.w3.org/1999/xlink" viewBox="0 0 150.83 245.47"><defs><clipPath id="clip-path"><rect x="-18.68" y="76.01" width="196.49" height="142.24" transform="translate(-67.67 226.51) rotate(-89.93)" style="fill:none"/></clipPath><clipPath id="clip-path-2"><rect x="61.44" y="141.47" width="18.57" height="36.78" transform="translate(-89.23 230.37) rotate(-89.93)" style="fill:none"/></clipPath><clipPath id="clip-path-3"><rect x="67.31" y="151.34" width="19.3" height="32.59" transform="translate(-90.78 244.38) rotate(-89.93)" style="fill:none"/></clipPath><clipPath id="clip-path-4"><rect x="60.44" y="173.87" width="32.14" height="35.83" transform="translate(-115.38 268.05) rotate(-89.93)" style="fill:none"/></clipPath><clipPath id="clip-path-5"><rect x="75.24" y="196.97" width="19.04" height="24.01" transform="translate(-124.33 293.47) rotate(-89.93)" style="fill:none"/></clipPath><clipPath id="clip-path-6"><rect x="69.09" y="177.04" width="8.28" height="17.22" transform="translate(-112.52 258.64) rotate(-89.93)" style="fill:none"/></clipPath><clipPath id="clip-path-7"><rect x="66.02" y="174.23" width="20.56" height="31.95" transform="translate(-114.01 266.26) rotate(-89.93)" style="fill:none"/></clipPath></defs><g id="Layer_2" data-name="Layer 2"><g id="Layer_1-2" data-name="Layer 1"><path id="Path_32827" data-name="Path 32827" d="M144.18,47.42,75.83,2.67,7.37,47.25l-.74-1.34L75.83.85l69.09,45.24Z" style="fill:#fe9243"/><path id="Path_32828" data-name="Path 32828" d="M79.15,3.61a3.33,3.33,0,0,1-6.64.55,2.62,2.62,0,0,1,0-.56,3.33,3.33,0,0,1,6.64-.54,3.37,3.37,0,0,1,0,.55" style="fill:#fe9243"/><g id="Group_12091" data-name="Group 12091" style="opacity:0.10000000149011612"><g id="Group_12090" data-name="Group 12090"><g style="clip-path:url(#clip-path)"><g id="Group_12089" data-name="Group 12089"><path id="Path_32829" data-name="Path 32829" d="M150.82,49,8.57,48.8V58h6.75l-.23,178H8.33v9.22l142.25.18Z" style="fill:#1d1d1b"/></g></g></g></g><rect id="Rectangle_7000" data-name="Rectangle 7000" x="-13.37" y="71.52" width="178.04" height="137.56" transform="translate(-64.74 215.77) rotate(-89.93)" style="fill:#fff"/><rect id="Rectangle_7001" data-name="Rectangle 7001" x="70.68" y="158.65" width="9.22" height="150.57" transform="translate(-158.74 308.93) rotate(-89.93)" style="fill:#fe9243"/><rect id="Rectangle_7002" data-name="Rectangle 7002" x="70.92" y="-28.62" width="9.22" height="150.57" transform="translate(28.77 122.14) rotate(-89.93)" style="fill:#fe9243"/><path id="Path_32830" data-name="Path 32830" d="M35.74,208.92c2.72-18.1,4.61-23.6,3.56-37.55,5-5.57,6.58-19.08,7.77-33.36L49.85,193l-.47,13.12c-1.16,7.67-2.07,15.52-2.75,23.19l26.48,0c.26-3.77.48-7.51.67-10.9.69,0,1.38.05,2.07.05s1.37,0,2.06,0c.18,3.39.39,7.12.65,10.9l26.47,0c-.65-7.67-1.55-15.52-2.68-23.19L101.91,193l2.92-54.94c1.16,14.29,2.66,27.81,7.69,33.39-1.09,13.95.78,19.44,3.46,37.55l6.56,1.48a199.54,199.54,0,0,0,2.71-40.4l-6.73-44.77c-.34-8.29-8.11-12.67-11.65-13.24l-21.62-6.2,0-2.17L76,103.46l-9.22.24,0,2.17L45.1,112c-3.54.56-11.33,4.92-11.68,13.21L26.57,170a199.61,199.61,0,0,0,2.6,40.41Z" style="fill:#ffcfa1"/><path id="Path_32831" data-name="Path 32831" d="M29.34,226.38c.06.42.1.84.17,1.13s.3,1,.52,1.73h4.74l-.5-.53-.32-2,.73-4.14,1.16,3.94A1.7,1.7,0,0,0,38,227.69h0a1.71,1.71,0,0,0,1.16-2.12h0l-1.69-5.87a3,3,0,0,1-.11-1l.12-2.69a8.42,8.42,0,0,0-.41-3l-1.32-4.06L29.17,210v5.59a38.34,38.34,0,0,0,.16,10.75" style="fill:#ffcfa1"/><path id="Path_32832" data-name="Path 32832" d="M113.67,227.78h0a1.72,1.72,0,0,0,2.13-1.16L117,222.7l.72,4.14-.33,2-.5.53h4.74c.23-.7.42-1.33.53-1.73s.11-.71.17-1.13a38.72,38.72,0,0,0,.2-10.75v-5.59L116,209l-1.33,4.06a8.65,8.65,0,0,0-.42,3l.12,2.69a2.78,2.78,0,0,1-.12,1l-1.71,5.86a1.71,1.71,0,0,0,1.16,2.13" style="fill:#ffcfa1"/><path id="Path_32833" data-name="Path 32833" d="M84.72,91.59c5.94-4.92,6.5-13.8,5.78-20.81-.9-8.83-9.1-11.9-17.38-11.93C60,58.79,58,67.32,57.68,70.33l-.58,4.74c-.12.53-.58,2.88.29,3.44a1.07,1.07,0,0,1,.56,1l-1.4,7a1.6,1.6,0,0,0,1.26,1.88l.29,0h1.15s0,1,0,2.75h0c0,.74,0,1.59,0,2.53l.1.72L59.58,96l.11.8L60,99a2.4,2.4,0,0,0,2.69,1.85l4.15-.16-.06,3,18.45.56Z" style="fill:#ffcfa1"/><path id="Path_32834" data-name="Path 32834" d="M68.87,163.53c1.47-1.35,2.65-3.55,4-4.95s11.46-3.3,15.71-6.18a1.08,1.08,0,0,0,.31-1.49,1.06,1.06,0,0,0-.69-.46c-6-1.59-13.32-3.85-19.09-3.11-3.6.46-5.67-1-9.27-.51a8.91,8.91,0,0,0-7,5.19c-.86,2.1-3.53,5-1,11.4a9.09,9.09,0,0,1,.44,4,1.8,1.8,0,0,0,1.83,1.74,1.92,1.92,0,0,0,.67-.15c2-.77,3.86-1.6,6-2.28,2.37-.76,5.21-.55,8.08-3.18" style="fill:#614f49"/><g id="Group_12094" data-name="Group 12094" style="opacity:0.20000000298023224"><g id="Group_12093" data-name="Group 12093"><g style="clip-path:url(#clip-path-2)"><g id="Group_12092" data-name="Group 12092"><path id="Path_32835" data-name="Path 32835" d="M57.28,163.21a7.58,7.58,0,0,1-5,4.23,1.78,1.78,0,0,0,1.87,1.69,1.92,1.92,0,0,0,.63-.14c2-.77,3.86-1.61,6-2.28,2.36-.76,5.2-.56,8.08-3.18,1.47-1.35,2.65-3.55,4.06-4.95s11.45-3.3,15.71-6.18A1.05,1.05,0,0,0,89,151a1,1,0,0,0-.37-.35c-11.31,3.23-25.78-.5-31.31,12.61" style="fill:#1d1d1b"/></g></g></g></g><path id="Path_32836" data-name="Path 32836" d="M72.65,165.23A47.87,47.87,0,0,1,71.44,157c-.17-.43-1.08-.14-1.35.07.09,1.52.26,3,.49,4.56a5.34,5.34,0,0,0-2.5-1.05.93.93,0,0,0-.2-.41,4,4,0,0,0-1.56-.84,22.09,22.09,0,0,0-2.71-1.47,3.1,3.1,0,0,0-3.1.88,2.51,2.51,0,0,0-.21,3,3.08,3.08,0,0,0,3,1.24c.87-.14,1.64-.64,2.52-.76a5.52,5.52,0,0,0,1.67-.23,1,1,0,0,0,.27-.19,4.18,4.18,0,0,1,2.38,1.13,3.43,3.43,0,0,1,1,2.65l1.35.08a2,2,0,0,0,0-.35Z" style="fill:#4ab775"/><path id="Path_32837" data-name="Path 32837" d="M64.62,168.39c-1.09.09-1.7,1.17-2.11,2.1-.55,1.27-1.1,2.77-.33,3.94a5,5,0,0,0,3.14,1.63c4.49,1,9.27,1.71,13.72.54a32.94,32.94,0,0,0,5.26-2c2.53-1.17,5.14-2.41,6.86-4.48a14.67,14.67,0,0,1,2.58-3c.46-.32,1.05-.63,1.13-1.15a6.45,6.45,0,0,0-4.87.47c-1.51.7-2.83,1.68-4.34,2.37-3.25,1.5-7,1.53-10.67,1.53a33.11,33.11,0,0,1-4-.16,16.2,16.2,0,0,1-4.68-1.29,3.5,3.5,0,0,0-1.7-.47" style="fill:#4ab775"/><path id="Path_32838" data-name="Path 32838" d="M93,158a6.28,6.28,0,0,0-1.32-2.53,8,8,0,0,0-6.83-2.56c-3.22.42-5.14,2.79-6.54,5-.26.41-.53.82-.82,1.23a10,10,0,0,1-1.27-4.74l-.06-55.8L72.37,99l-.22,55.34a13.48,13.48,0,0,0,2.51,7.73,7.52,7.52,0,0,1-2.48,1.12c-2.43.59-5.52.06-7.34,1.39a2.65,2.65,0,0,0-.84,1,8.36,8.36,0,0,0-4,4,7.53,7.53,0,0,0,1,7.66l0,0,3.24-2.17a4.07,4.07,0,0,1-.56-4.08,4.28,4.28,0,0,1,1.31-1.61,9.54,9.54,0,0,0,1.19,1c4.49,3.23,11.81,3.84,17.32,1.81s9-6.4,9.6-11A8.1,8.1,0,0,0,93,158" style="fill:#f9b659"/><g id="Group_12097" data-name="Group 12097" style="opacity:0.10000000149011612"><g id="Group_12096" data-name="Group 12096"><g style="clip-path:url(#clip-path-3)"><g id="Group_12095" data-name="Group 12095"><path id="Path_32839" data-name="Path 32839" d="M93.19,161.25c-.55,4.56-4.1,8.93-9.6,11s-12.82,1.42-17.32-1.81a9.49,9.49,0,0,1-1.19-1,4.19,4.19,0,0,0-1.3,1.62,4,4,0,0,0,.55,4.08l-3.24,2.17a7.08,7.08,0,0,1,.85-6.58,5,5,0,0,1,3-2c1.59-.3,3.18.36,4.73.82A19.2,19.2,0,0,0,81.89,169a17.12,17.12,0,0,0,8.85-7.68,12.3,12.3,0,0,1,1.72-2.84A4,4,0,0,1,93,158a8.1,8.1,0,0,1,.21,3.25" style="fill:#1d1d1b"/></g></g></g></g><path id="Path_32840" data-name="Path 32840" d="M99.68,185.8a2.85,2.85,0,0,1-.7,1.86,2.85,2.85,0,0,1,.7,1.85,2.94,2.94,0,0,1-1.23,2.36,1.06,1.06,0,0,0,0,.19,2.72,2.72,0,0,1,.25,1.16,2.9,2.9,0,0,1-.91,2.1,1.42,1.42,0,0,1-.07.22,2.83,2.83,0,0,1,.39,1.39,3,3,0,0,1-1.5,2.54,2.8,2.8,0,0,1,.21,1.07,3.12,3.12,0,0,1-3.24,3h-.06A3.16,3.16,0,0,1,90.32,206a3.31,3.31,0,0,1-1.6-.41,3.35,3.35,0,0,1-2.39,1,3.42,3.42,0,0,1-1.73-.48,3.28,3.28,0,0,1-2.67,1.32,3.33,3.33,0,0,1-1.76-.5V211c0,1.23-1.18,2.33-2.2,3s-.24,4.49-1,4.49c-.21,0-1.73,0-1.94,0s-.21-4.07-.47-4.16a3.28,3.28,0,0,1-1.84-2.94,2.22,2.22,0,0,1,0-.37v-4.41a7.45,7.45,0,0,1,4.46-6.64,8.7,8.7,0,0,1,3.09-.79l7.55-.62a1.82,1.82,0,0,0,.79-.24,1.62,1.62,0,0,0,.75-.84c2-5.47,2.72-12.12,2-19.79l-.22.11a3.38,3.38,0,0,1-3.44,2.83,3.6,3.6,0,0,1-1.75-.46,3.49,3.49,0,0,1-3.1,1.8,3.61,3.61,0,0,1-1.67-.43,3.53,3.53,0,0,1-2.72,1.24,3.46,3.46,0,0,1-1.88-.52,3.61,3.61,0,0,1-5-.14h-.16a3.58,3.58,0,0,1-2.1.66,3.55,3.55,0,0,1-2.76-1.29l-.23,0a3.76,3.76,0,0,1-1.85.51,3.51,3.51,0,0,1-3-1.62l-.39-.1a32.64,32.64,0,0,0,1.54,14s0,0,0,0a27.74,27.74,0,0,0,1.33,3.3,3.21,3.21,0,0,1-1,4,4.66,4.66,0,0,1,1.51,2.52,4.36,4.36,0,0,1-.78,3.46.69.69,0,0,1-.56.28.76.76,0,0,1-.38-.11.58.58,0,0,1-.22-.79.43.43,0,0,1,0-.07,3.16,3.16,0,0,0,.56-2.54,3.39,3.39,0,0,0-1.45-2.11,4,4,0,0,1-2.32,0,3.58,3.58,0,0,1-2.2-1.83c-.1-.2-.2-.43-.29-.64a3.28,3.28,0,0,1-2.38-3.08,3,3,0,0,1,.4-1.5,3.26,3.26,0,0,1-2-2.94,3.11,3.11,0,0,1,.95-2.2,3.11,3.11,0,0,1-.63-5,3.1,3.1,0,0,1-.14-4.38,2.85,2.85,0,0,1,.49-.43l.06-.34A2.69,2.69,0,0,1,53,178a2.92,2.92,0,0,1,1.81-2.64c.13-.32.27-.66.43-1a3.85,3.85,0,0,1,4.59-1.77C74,177.18,82.11,176.24,92,168.94a4,4,0,0,1,3.69-.53A3.49,3.49,0,0,1,98,171.07c.06.3.09.59.14.89a2.9,2.9,0,0,1,1,2.15,2.82,2.82,0,0,1-.47,1.54l0,.2a2.87,2.87,0,0,1,1,2.2,2.82,2.82,0,0,1-.62,1.76,2.87,2.87,0,0,1,.21,4.06l-.19.19a2.85,2.85,0,0,1,.59,1.73" style="fill:#c44645"/><g id="Group_12100" data-name="Group 12100" style="opacity:0.10000000149011612"><g id="Group_12099" data-name="Group 12099"><g style="clip-path:url(#clip-path-4)"><g id="Group_12098" data-name="Group 12098"><path id="Path_32841" data-name="Path 32841" d="M94.44,181.59c0,2.67-.3,5.34-.45,8-.16,3.06-.68,6.66-3.61,8.14l0,0a5.75,5.75,0,0,1-1.72.54,1.64,1.64,0,0,0,.76-.84c2-5.47,2.71-12.12,2-19.79l-.21.11a3.39,3.39,0,0,1-3.44,2.83,3.55,3.55,0,0,1-1.75-.46,3.49,3.49,0,0,1-3.11,1.8,3.6,3.6,0,0,1-1.67-.42,3.6,3.6,0,0,1-4.6.71,3.61,3.61,0,0,1-5-.14h-.16a3.63,3.63,0,0,1-4.86-.63l-.23,0a3.65,3.65,0,0,1-1.85.51,3.51,3.51,0,0,1-3-1.62l-.39-.1a32.78,32.78,0,0,0,1.54,14s0,0,0,0a27.8,27.8,0,0,0,1.34,3.3,3.22,3.22,0,0,1-1,4,4.66,4.66,0,0,1,1.51,2.52,4.36,4.36,0,0,1-.78,3.46.69.69,0,0,1-.56.28.75.75,0,0,1-.38-.1.59.59,0,0,1-.22-.8l0-.06a3.22,3.22,0,0,0,.57-2.55,3.37,3.37,0,0,0-1.45-2.1,4.11,4.11,0,0,1-2.33,0c.94-.38,2.5-.87,2.89-2.86.49-2.5-1.25-3.94-2.36-8.15a36.81,36.81,0,0,1-1.34-8.15c-.06-1.23.16-3.44,1-4.38s2-.62,3.19-.11a19.19,19.19,0,0,0,2.32.9,31.08,31.08,0,0,0,19.95-.9c1.08-.44,4.2-2.13,5.8-2.64a3,3,0,0,1,.51-.14c1.31-.21,3,.46,3,5.82" style="fill:#1d1d1b"/></g></g></g></g><g id="Group_12103" data-name="Group 12103" style="opacity:0.10000000149011612"><g id="Group_12102" data-name="Group 12102"><g style="clip-path:url(#clip-path-5)"><g id="Group_12101" data-name="Group 12101"><path id="Path_32842" data-name="Path 32842" d="M96.78,200.55a3.14,3.14,0,0,1-3.24,3h-.06A3.18,3.18,0,0,1,90.31,206a3.59,3.59,0,0,1-1.6-.41,3.28,3.28,0,0,1-2.38,1,3.38,3.38,0,0,1-1.73-.47,3.28,3.28,0,0,1-2.67,1.32,3.33,3.33,0,0,1-1.76-.5V211c0,1.22-1.18,2.33-2.2,3s-.24,4.48-1,4.48c-.21,0-1.73,0-1.94,0s-.21-4.07-.47-4.17a3.26,3.26,0,0,1-1.84-2.93,10.17,10.17,0,0,1,1.6.49,3.6,3.6,0,0,0,2.46.2,2.8,2.8,0,0,0,1.46-2.76,6.37,6.37,0,0,1,.4-3.2c1-1.62,3.37-1.78,5.38-2a24.33,24.33,0,0,0,9.7-3.09,25.58,25.58,0,0,1,2.8-1.56,2.81,2.81,0,0,1,.22,1.07" style="fill:#1d1d1b"/></g></g></g></g><path id="Path_32843" data-name="Path 32843" d="M91.51,192.56a5.58,5.58,0,0,1-.39.46,6,6,0,0,1,.26.75,4.07,4.07,0,0,1-.1,2.69A3.1,3.1,0,0,1,89.8,198h0a2.89,2.89,0,0,1-1.15.3,0,0,0,0,0,0,0,1.91,1.91,0,0,1-.79.24l-5.31.43-2.25.19h-.09c-.3,0-.6.07-.89.12s-.44.09-.65.15a8.07,8.07,0,0,0-1.45.52,4.82,4.82,0,0,1-1.12-.4,1.24,1.24,0,0,1-.23-.12,7.18,7.18,0,0,1-1.46.68h0a7.4,7.4,0,0,1-4.32.09,13.4,13.4,0,0,1-3.49-1.79c-.3-.19-.6-.38-.89-.58a11.44,11.44,0,0,1-1-.72,7.2,7.2,0,0,1-.71-.64,3.25,3.25,0,0,1-.47-.36,4.9,4.9,0,0,1-1.16-1.71,6.36,6.36,0,0,1-.43-1.93c0-.26,0-.53,0-.79,0-.09,0-.19-.07-.29-.06-.3-.13-.6-.2-.9a3,3,0,0,1-.44-.61h0a3.92,3.92,0,0,1-.49-1.48c0-.11,0-.22,0-.32a11.7,11.7,0,0,1,.26-2.83c0-.09,0-.19,0-.28,0-.3,0-.59,0-.87,0-.13-.12-.26-.18-.38a3.89,3.89,0,0,1-.38-1.93l0-.31a1.58,1.58,0,0,1,.75-1.25,0,0,0,0,0,0,0h0s0,0,0,0l.33.09a3.51,3.51,0,0,0,3,1.61h.11a3.77,3.77,0,0,0,1.74-.5l.23,0a3.55,3.55,0,0,0,2.76,1.29,3.66,3.66,0,0,0,2.1-.66h.16a3.17,3.17,0,0,0,.34.3,3.52,3.52,0,0,0,1,.57,3.67,3.67,0,0,0,1.19.2,3.58,3.58,0,0,0,2.43-.93,3.64,3.64,0,0,0,1.87.52,2.23,2.23,0,0,0,.37,0h0a3.46,3.46,0,0,0,2.34-1.22,3.71,3.71,0,0,0,.65.27,4,4,0,0,0,1,.16,3.51,3.51,0,0,0,3.1-1.8,3.6,3.6,0,0,0,1.75.46,3.73,3.73,0,0,0,2.12-.67,3.18,3.18,0,0,0,1.32-2.17l.22-.11c0,.4,0,.79.09,1.19a5.26,5.26,0,0,0-.09-1.19,9.23,9.23,0,0,1,.81,8.22,3.83,3.83,0,0,0-.23.75.41.41,0,0,0,0,.16,3.64,3.64,0,0,0,.34,1.38h0a4.82,4.82,0,0,1-.76,4.37" style="fill:#f9b659"/><g id="Group_12106" data-name="Group 12106" style="opacity:0.20000000298023224"><g id="Group_12105" data-name="Group 12105"><g style="clip-path:url(#clip-path-6)"><g id="Group_12104" data-name="Group 12104"><path id="Path_32844" data-name="Path 32844" d="M67.09,184.34a9.61,9.61,0,0,0,2.73.07l.63,0a7.89,7.89,0,0,1,3.34.4,3.26,3.26,0,0,1,2,2.06,5.06,5.06,0,0,1,.09.68,3.66,3.66,0,0,0,.32,1.35,1.9,1.9,0,0,0,1.47.94h.13a1.21,1.21,0,0,0,1-.46,1.4,1.4,0,0,0,.25-1,5.47,5.47,0,0,0-.52-1.68c-.08-.18-.15-.36-.22-.53a2,2,0,0,1-.06-1.77,3.37,3.37,0,0,1,1.56-1,3.54,3.54,0,0,0,2-1.52,3.61,3.61,0,0,1-.64-.27,3.47,3.47,0,0,1-2.35,1.21h0a3.39,3.39,0,0,0-1.43,1.17,2.81,2.81,0,0,0,0,2.51c.07.19.15.38.23.57a4.82,4.82,0,0,1,.46,1.42.56.56,0,0,1-.07.4s0,.08-.21.07a.87.87,0,0,1-.64-.41,3.08,3.08,0,0,1-.23-1,5.63,5.63,0,0,0-.11-.81,4.16,4.16,0,0,0-2.64-2.7,7.43,7.43,0,0,0-2.28-.48l1-.43.06,0a3.6,3.6,0,0,1-1-.58l-2.36,1-.14.08a7.47,7.47,0,0,1-2.11-.06c-.82-.19-1.67-.77-1.7-1.54a.4.4,0,0,0,0-.15,3.26,3.26,0,0,1-1,.18h0c0,1.28,1.31,2.14,2.47,2.4" style="fill:#1d1d1b"/></g></g></g></g><g id="Group_12109" data-name="Group 12109" style="opacity:0.20000000298023224"><g id="Group_12108" data-name="Group 12108"><g style="clip-path:url(#clip-path-7)"><g id="Group_12107" data-name="Group 12107"><path id="Path_32845" data-name="Path 32845" d="M91.93,186.79l0-.16a2,2,0,0,0-.38-.2,4.25,4.25,0,0,0-1.46-.23l-.84,0a4.91,4.91,0,0,0-.33-.74h0v0a9.77,9.77,0,0,0,1.11-.91h0a2.69,2.69,0,0,1,1.12.18.45.45,0,0,0,.2,0,.51.51,0,0,0,.46-.28.44.44,0,0,0-.23-.59l0,0a3.69,3.69,0,0,0-.79-.21,3.1,3.1,0,0,0,.62-1.75.49.49,0,0,0-.49-.48h0a.48.48,0,0,0-.5.45c0,1.1-1,2-2,2.74-.16-.25-.33-.49-.51-.73A4.79,4.79,0,0,0,89.84,180a3.58,3.58,0,0,1-1,.5,4.05,4.05,0,0,1-1.72,2.82h0a1.49,1.49,0,0,1-.2.15,2.14,2.14,0,0,1-.3.17,7.36,7.36,0,0,1-4.09.87c-.36,0-1.35-.07-1.69.64a1.22,1.22,0,0,0,0,.9c.12.45.29.91.45,1.35a12.31,12.31,0,0,1,.5,1.56s.1.77.1.77a3.73,3.73,0,0,1-.18,1,3.13,3.13,0,0,1-2.38,1.7,6.89,6.89,0,0,1-3.34-.3,4.26,4.26,0,0,1-1.32-.6,1.72,1.72,0,0,1-.41-.44,1.09,1.09,0,0,0-.08-.15,3.73,3.73,0,0,1-.17-1.66,2.87,2.87,0,0,0-.86-2.67,3.91,3.91,0,0,0-3.07-.29h-.09a11.08,11.08,0,0,1-5.9-.41A5.55,5.55,0,0,1,60.47,182a.47.47,0,0,0-.13-.25,3.77,3.77,0,0,0,.37,1.93c.07.13.13.25.19.38,0,.28,0,.57,0,.87a7.28,7.28,0,0,0,2.7,1.8l.37.14a2.91,2.91,0,0,0-.27,1.79.51.51,0,0,0,.5.39h.08a.49.49,0,0,0,.43-.52h0a2.18,2.18,0,0,1,.25-1.37,13.22,13.22,0,0,0,5.13,0h.09a3.17,3.17,0,0,1,2.25.1,1.08,1.08,0,0,1,.35.47,7.11,7.11,0,0,0-4,1l-.5.25a8.33,8.33,0,0,1-3.27,1.16,7.22,7.22,0,0,1-4.38-1.76,3.92,3.92,0,0,0,.49,1.48h0a7.09,7.09,0,0,0,3.67,1.2h.26a8.92,8.92,0,0,0,3.71-1.27l.49-.24c-.12.42-.29.83-.46,1.26s-.34.88-.48,1.33a.31.31,0,0,1,0,.08,4,4,0,0,0-2.44.56h0a.54.54,0,0,0-.21,0A2.24,2.24,0,0,1,64,192.6a8.73,8.73,0,0,1-.81-.49,9.91,9.91,0,0,0-1.19-.68l-.11,0,.06.29c0,.26,0,.53,0,.79.21.12.42.25.64.4s.57.36.88.53a4.33,4.33,0,0,0,1.4.45c-.5.74-.75,1.07-.53,1.93a13.67,13.67,0,0,0-1.88-1.34l-.08,0a4.85,4.85,0,0,0,1.16,1.71,3.1,3.1,0,0,0,.46.35,7.07,7.07,0,0,0,.71.64,11.6,11.6,0,0,0,1,.72l.88.59A13.53,13.53,0,0,0,70,200.21a7.43,7.43,0,0,0,4.33-.09h0a6.68,6.68,0,0,0,1.46-.68,1,1,0,0,0,.23.12,4.4,4.4,0,0,0,1.12.4,9.27,9.27,0,0,1,1.45-.52,9,9,0,0,1,1.55-.26,4.37,4.37,0,0,1-2.32-2,.52.52,0,0,0-.68-.21.46.46,0,0,0-.25.59l0,0a5,5,0,0,0,1.32,1.55,2.94,2.94,0,0,1-.93.09c-.25,0-.48-.15-.73-.19a1.33,1.33,0,0,0-.4,0,3.57,3.57,0,0,0-.35-2.58l.42-.26a3.66,3.66,0,0,0,.94-.9,4.36,4.36,0,0,0,.47-.91c.06-.13.11-.26.17-.38a3.29,3.29,0,0,0,.73,2.28,8.56,8.56,0,0,0,2.7,2,12.83,12.83,0,0,0,1.22.64l5.31-.44a2,2,0,0,0,.79-.23h0a2.89,2.89,0,0,0,1.15-.3h0a1.37,1.37,0,0,0,.13-.2,2,2,0,0,0,.16-1.3,6.14,6.14,0,0,0-3.6-4.33.31.31,0,0,0,0-.1,4.11,4.11,0,0,0,.21-1.3v-.1a5.39,5.39,0,0,1,4.16,2.83.53.53,0,0,0,.47.27,5.56,5.56,0,0,0-.26-.75,6,6,0,0,0,.4-.46,5.92,5.92,0,0,0-1.75-1.74l0-.14a8.6,8.6,0,0,0-.19-3.57l.48,0a3.32,3.32,0,0,1,1.08.15.72.72,0,0,1,.48.49.5.5,0,0,0,.5.43h.13a3.64,3.64,0,0,1-.34-1.38M71.13,199.65c-2-.11-5.46-2.79-5.55-3a4.68,4.68,0,0,1-.18-.48,2.38,2.38,0,0,1,.8-2.39,2.86,2.86,0,0,1,2-.62,3.36,3.36,0,0,0,.91,2.94,3.22,3.22,0,0,0,.9.6,7.81,7.81,0,0,1-1.8.39.47.47,0,0,0-.44.5v0a.5.5,0,0,0,.5.41h.06a9.68,9.68,0,0,0,3.07-.85,6.86,6.86,0,0,0,1.28.13A6.57,6.57,0,0,0,75,196.9a2.08,2.08,0,0,1-.09,2.1,7.07,7.07,0,0,1-3.74.65m5.62-5.57a3.94,3.94,0,0,1-.37.74,3.12,3.12,0,0,1-.7.66,5.35,5.35,0,0,1-3.81.83,3.73,3.73,0,0,1-.58-.12,4.16,4.16,0,0,1-.5-.16,3.18,3.18,0,0,1-1-.56,2.51,2.51,0,0,1-.62-2.17,5.37,5.37,0,0,1,.15-.8.31.31,0,0,0,0-.08c.13-.42.29-.82.46-1.26a10.81,10.81,0,0,0,.66-2.09,4.38,4.38,0,0,1,2.4-.3l0,.06c0,.14,0,.29,0,.45a4.11,4.11,0,0,0,.35,2.21,8.34,8.34,0,0,0-1.87,2.31.45.45,0,0,0,.19.61l0,0a.54.54,0,0,0,.22,0,.51.51,0,0,0,.46-.25,7.31,7.31,0,0,1,1.59-2,4.92,4.92,0,0,0,1.71.82,10.45,10.45,0,0,0,1.47.34,5.71,5.71,0,0,0-.35.7m12.32,2.56a1.19,1.19,0,0,1-.06.77,2.14,2.14,0,0,1-1.14.7,7.53,7.53,0,0,1-2.76.65,7.26,7.26,0,0,1-3.27-1.18,7.89,7.89,0,0,1-2.41-1.8,2.17,2.17,0,0,1-.34-2.36c.13,0,.27,0,.4-.06a4.19,4.19,0,0,0,3.13-2.27,3.35,3.35,0,0,0,.25-1.33,9.63,9.63,0,0,1,1.78.13h.09a.49.49,0,0,0,.5-.38.46.46,0,0,0-.39-.53h0a11.94,11.94,0,0,0-2.07-.14,14.36,14.36,0,0,0-.56-1.76c-.16-.44-.32-.86-.43-1.27a.54.54,0,0,1,0-.3s.1-.13.71-.09h.46l.08,0a4.28,4.28,0,0,1,2.21,2.18,6.8,6.8,0,0,1,.54,3.12,3.26,3.26,0,0,1-.16,1,3.92,3.92,0,0,1-.65,1l-.29.36-.43.55-1,1.29a.44.44,0,0,0,.07.62l0,0a.5.5,0,0,0,.29.09.57.57,0,0,0,.42-.19l.58-.75a3.58,3.58,0,0,0,1.63,1.45.64.64,0,0,0,.23.05.51.51,0,0,0,.45-.26.44.44,0,0,0-.19-.6l0,0a2.59,2.59,0,0,1-1.39-1.51l.45-.57L86,193a5.2,5.2,0,0,1,3.08,3.63m-.26-6.32a6.89,6.89,0,0,0-2.1-.57,6.7,6.7,0,0,0-.61-2.48,5.3,5.3,0,0,0-1.57-2,7.59,7.59,0,0,0,2.58-.88,10.07,10.07,0,0,1,.74,1.1s0,0,0,0l0,0s0,0,0,.06a.61.61,0,0,0,.07.1s0,0,0,0a7.91,7.91,0,0,1,.84,4.56" style="fill:#1d1d1b"/></g></g></g></g><path id="Path_32846" data-name="Path 32846" d="M69.25,88.49c.12.55.65.89,1.14,1.17l2.73,1.58,2.57,1.48c.21.13.5.25.7.1s.17-.44.12-.68a8.17,8.17,0,0,0-1.91-4,4.12,4.12,0,0,0-4.1-1.24c-.71.23-1.4.89-1.25,1.62" style="fill:#4ab775"/><path id="Path_32847" data-name="Path 32847" d="M65.61,97.69a.39.39,0,0,0,.32.31,1.29,1.29,0,0,0,.48,0A3,3,0,0,1,69,99.22c.29.4.6.93,1.09.86s.6-.54.62-1a2.72,2.72,0,0,0-1.81-2.6,3.08,3.08,0,0,0-3.12.77.51.51,0,0,0-.2.38" style="fill:#4ab775"/><path id="Path_32848" data-name="Path 32848" d="M68.32,93.45l-.7-.23a3.24,3.24,0,0,1,2.24-2.09A4.84,4.84,0,0,1,70.93,91l.36,0a2.56,2.56,0,0,0,1.14-.34.85.85,0,0,0,.4-.81l.72-.15a1.57,1.57,0,0,1-.7,1.56,3.15,3.15,0,0,1-1.49.47l-.37,0a4.35,4.35,0,0,0-.95.13,2.52,2.52,0,0,0-1.72,1.61" style="fill:#4ab775"/><path id="Path_32849" data-name="Path 32849" d="M69.76,99.27l-.38-.63A1.51,1.51,0,0,0,70,97a3.3,3.3,0,0,0-.46-.87c-.1-.16-.21-.32-.3-.49a1.81,1.81,0,0,1-.07-2l.59.43a1.2,1.2,0,0,0,.12,1.17,4.08,4.08,0,0,0,.28.44,4.34,4.34,0,0,1,.55,1.07,2.24,2.24,0,0,1-1,2.47" style="fill:#4ab775"/><path id="Path_32850" data-name="Path 32850" d="M76.14,97.64v6.61H72.36v-6.4a2,2,0,0,0-2-2h0L59.58,96l-.22-1.61-.1-.72c0-.94,0-1.79,0-2.53l11.23.76a5.69,5.69,0,0,1,5.68,5.7" style="fill:#f9b659"/><rect id="Rectangle_7009" data-name="Rectangle 7009" x="33.31" y="47.02" width="2.02" height="33.21" transform="translate(-29.35 97.87) rotate(-89.93)" style="fill:#614f49"/><rect id="Rectangle_7010" data-name="Rectangle 7010" x="122.03" y="47.13" width="2.02" height="33.21" transform="translate(59.14 186.7) rotate(-89.93)" style="fill:#614f49"/><rect id="Rectangle_7011" data-name="Rectangle 7011" x="122.02" y="53.2" width="2.02" height="33.21" transform="translate(53.07 192.74) rotate(-89.93)" style="fill:#614f49"/><rect id="Rectangle_7012" data-name="Rectangle 7012" x="127.72" y="64.98" width="2.02" height="21.8" transform="translate(52.69 204.51) rotate(-89.93)" style="fill:#614f49"/><rect id="Rectangle_7013" data-name="Rectangle 7013" x="33.31" y="53.08" width="2.02" height="33.21" transform="translate(-35.42 103.91) rotate(-89.93)" style="fill:#614f49"/><rect id="Rectangle_7014" data-name="Rectangle 7014" x="27.55" y="64.88" width="2.02" height="21.72" transform="translate(-47.22 104.21) rotate(-89.93)" style="fill:#614f49"/><rect id="Rectangle_7015" data-name="Rectangle 7015" x="31.1" y="67.4" width="2.02" height="28.83" transform="translate(-49.74 113.82) rotate(-89.93)" style="fill:#614f49"/><rect id="Rectangle_7016" data-name="Rectangle 7016" x="31.09" y="73.46" width="2.02" height="28.83" transform="translate(-55.81 119.86) rotate(-89.93)" style="fill:#614f49"/></g></g></svg>