<svg xmlns="http://www.w3.org/2000/svg" xmlns:xlink="http://www.w3.org/1999/xlink" viewBox="0 0 61.92 82.35"><defs><clipPath id="clip-path"><rect width="30.96" height="82.35" style="fill:none"/></clipPath></defs><g id="Layer_2" data-name="Layer 2"><g id="Group_6127" data-name="Group 6127"><path id="Path_21517" data-name="Path 21517" d="M54.65,82.34H7.27A7.27,7.27,0,0,1,0,75.07V7.27A7.28,7.28,0,0,1,7.27,0H54.65a7.27,7.27,0,0,1,7.27,7.27v67.8a7.28,7.28,0,0,1-7.27,7.28" style="fill:#122b61"/><path id="Path_21518" data-name="Path 21518" d="M31,59.42A18.25,18.25,0,1,1,49.21,41.17h0A18.27,18.27,0,0,1,31,59.42m0-35.23a17,17,0,1,0-.27,34H31a17,17,0,0,0,0-34" style="fill:#f58800"/><path id="Path_21519" data-name="Path 21519" d="M31,59.42c-6.08,0-11-8.19-11-18.25s4.95-18.24,11-18.24,11,8.18,11,18.24-5,18.25-11,18.25m0-35.23c-5.38,0-9.77,7.62-9.77,17s4.39,17,9.77,17,9.77-7.61,9.77-17-4.38-17-9.77-17" style="fill:#f58800"/><rect id="Rectangle_1734" data-name="Rectangle 1734" x="30.33" y="23.56" width="1.26" height="35.22" style="fill:#f58800"/><rect id="Rectangle_1735" data-name="Rectangle 1735" x="13.35" y="40.54" width="35.22" height="1.26" style="fill:#f58800"/><rect id="Rectangle_1736" data-name="Rectangle 1736" x="16.15" y="31.01" width="29.62" height="1.26" style="fill:#f58800"/><rect id="Rectangle_1737" data-name="Rectangle 1737" x="16.15" y="50.07" width="29.62" height="1.26" style="fill:#f58800"/><path id="Path_21520" data-name="Path 21520" d="M15.74,10.41a1.5,1.5,0,0,1,.52.57,1.66,1.66,0,0,1,0,1.56,1.61,1.61,0,0,1-.52.58,1.23,1.23,0,0,1-.67.21H13.86v1.31a.47.47,0,0,1-.11.31.42.42,0,0,1-.3.12.38.38,0,0,1-.28-.12.39.39,0,0,1-.11-.3v-4a.41.41,0,0,1,.4-.42h1.61a1.16,1.16,0,0,1,.67.21m-.41,2a.78.78,0,0,0,.21-.29.87.87,0,0,0,0-.74.74.74,0,0,0-.21-.28.36.36,0,0,0-.26-.11H13.86v1.53h1.21a.36.36,0,0,0,.26-.11" style="fill:#fff7f1"/><path id="Path_21521" data-name="Path 21521" d="M20.83,14.69a.42.42,0,0,1-.12.3.36.36,0,0,1-.27.12.4.4,0,0,1-.23-.08.45.45,0,0,1-.15-.21L19.69,14H17.62l-.36.85a.43.43,0,0,1-.15.2.35.35,0,0,1-.5,0,.38.38,0,0,1-.09-.25.68.68,0,0,1,0-.14l1.73-4.16a.5.5,0,0,1,.17-.21.36.36,0,0,1,.25-.06.37.37,0,0,1,.23.07.39.39,0,0,1,.16.2l1.72,4.08a.41.41,0,0,1,0,.16M18,13.18h1.4l-.7-1.63Z" style="fill:#fff7f1"/><path id="Path_21522" data-name="Path 21522" d="M22.09,15a2,2,0,0,1-.73-.42.54.54,0,0,1-.19-.37.36.36,0,0,1,.12-.28.35.35,0,0,1,.29-.12.29.29,0,0,1,.23.08,1.92,1.92,0,0,0,.55.33,1.47,1.47,0,0,0,.62.1,1.2,1.2,0,0,0,.67-.17.48.48,0,0,0,.28-.43.55.55,0,0,0-.27-.49,2.36,2.36,0,0,0-.89-.27c-1-.15-1.52-.62-1.52-1.42a1.22,1.22,0,0,1,.23-.76,1.44,1.44,0,0,1,.63-.49,2.06,2.06,0,0,1,.88-.17,2.27,2.27,0,0,1,.82.13,1.78,1.78,0,0,1,.65.35.47.47,0,0,1,.2.36.45.45,0,0,1-.12.29.4.4,0,0,1-.28.12.28.28,0,0,1-.19-.07,1.83,1.83,0,0,0-.5-.26,1.43,1.43,0,0,0-.58-.12,1.16,1.16,0,0,0-.68.16.53.53,0,0,0-.16.72.65.65,0,0,0,.17.16,2.3,2.3,0,0,0,.78.25,4,4,0,0,1,.95.27,1.16,1.16,0,0,1,.54.44,1.41,1.41,0,0,1,.18.75,1.24,1.24,0,0,1-.24.77,1.66,1.66,0,0,1-.66.51,2.06,2.06,0,0,1-.88.17A2.63,2.63,0,0,1,22.1,15" style="fill:#fff7f1"/><path id="Path_21523" data-name="Path 21523" d="M26.25,15a2,2,0,0,1-.73-.42.47.47,0,0,1-.19-.37.36.36,0,0,1,.12-.28.33.33,0,0,1,.28-.12.31.31,0,0,1,.24.08,1.87,1.87,0,0,0,.54.33,1.49,1.49,0,0,0,.63.1,1.22,1.22,0,0,0,.67-.17.52.52,0,0,0,.28-.43.55.55,0,0,0-.28-.49,2.26,2.26,0,0,0-.88-.27c-1-.15-1.52-.62-1.52-1.42a1.22,1.22,0,0,1,.23-.76,1.36,1.36,0,0,1,.62-.49,2.08,2.08,0,0,1,.89-.17,2.31,2.31,0,0,1,.82.13,1.83,1.83,0,0,1,.64.35.45.45,0,0,1,.2.36.44.44,0,0,1-.11.29.44.44,0,0,1-.28.12.26.26,0,0,1-.19-.07,1.83,1.83,0,0,0-.5-.26,1.47,1.47,0,0,0-.58-.12,1.15,1.15,0,0,0-.68.16.51.51,0,0,0,0,.88,2.32,2.32,0,0,0,.77.25,4,4,0,0,1,1,.27,1.22,1.22,0,0,1,.54.44,1.41,1.41,0,0,1,.18.75,1.25,1.25,0,0,1-.25.77A1.66,1.66,0,0,1,28,15a2,2,0,0,1-.88.17,2.7,2.7,0,0,1-.89-.12" style="fill:#fff7f1"/><path id="Path_21524" data-name="Path 21524" d="M32.41,10.41a1.56,1.56,0,0,1,.51.57,1.67,1.67,0,0,1-.51,2.14,1.27,1.27,0,0,1-.68.21H30.52v1.31a.47.47,0,0,1-.11.31.4.4,0,0,1-.29.12.38.38,0,0,1-.29-.12.48.48,0,0,1-.11-.3v-4a.41.41,0,0,1,.41-.42h1.6a1.13,1.13,0,0,1,.67.21m-.41,2a.68.68,0,0,0,.21-.29.87.87,0,0,0,0-.74.63.63,0,0,0-.2-.28.4.4,0,0,0-.27-.11H30.52v1.53h1.21a.36.36,0,0,0,.26-.11" style="fill:#fff7f1"/><path id="Path_21525" data-name="Path 21525" d="M38.09,13.9a2.27,2.27,0,0,1-.84.9,2.36,2.36,0,0,1-2.43,0,2.27,2.27,0,0,1-.84-.9,2.76,2.76,0,0,1,0-2.53,2.3,2.3,0,0,1,.84-.91,2.4,2.4,0,0,1,2.43,0,2.37,2.37,0,0,1,.84.91,2.76,2.76,0,0,1,0,2.53m-.78-2.11a1.47,1.47,0,0,0-.53-.6A1.33,1.33,0,0,0,36,11a1.43,1.43,0,0,0-.75.22,1.51,1.51,0,0,0-.52.6,2.1,2.1,0,0,0,0,1.7,1.44,1.44,0,0,0,.52.6,1.36,1.36,0,0,0,1.5,0,1.47,1.47,0,0,0,.53-.6,2,2,0,0,0,0-1.69" style="fill:#fff7f1"/><path id="Path_21526" data-name="Path 21526" d="M43.16,14.53a.45.45,0,0,1,.05.19.36.36,0,0,1-.08.23.39.39,0,0,1-.32.13A.68.68,0,0,1,42.5,15a1.22,1.22,0,0,1-.5-1.16.5.5,0,0,0-.16-.4.67.67,0,0,0-.47-.15h-1.3v1.35A.5.5,0,0,1,40,15a.36.36,0,0,1-.27.12.55.55,0,0,1-.35-.12.4.4,0,0,1-.15-.3v-4a.41.41,0,0,1,.41-.42h2a1.37,1.37,0,0,1,.68.19,1.51,1.51,0,0,1,.7,1.3,1.34,1.34,0,0,1-.19.68,1.45,1.45,0,0,1-.48.53,1.12,1.12,0,0,1,.48.82,1.5,1.5,0,0,1,0,.22c0,.1,0,.2,0,.3a.24.24,0,0,0,.13.15.32.32,0,0,1,.14.14m-1.33-2.07a.83.83,0,0,0,.2-.32,1.2,1.2,0,0,0,.08-.42.86.86,0,0,0-.08-.36.73.73,0,0,0-.2-.26.35.35,0,0,0-.24-.1H40.07v1.58h1.52a.37.37,0,0,0,.24-.12" style="fill:#fff7f1"/><path id="Path_21527" data-name="Path 21527" d="M47.38,10.31a.36.36,0,0,1,.11.29.34.34,0,0,1-.11.29.51.51,0,0,1-.31.11H46v3.64a.37.37,0,0,1-.14.3.49.49,0,0,1-.64,0,.4.4,0,0,1-.13-.3V11H44a.46.46,0,0,1-.3-.11.38.38,0,0,1-.12-.29.35.35,0,0,1,.12-.29.46.46,0,0,1,.3-.11h3.1a.38.38,0,0,1,.3.11" style="fill:#fff7f1"/><path id="Path_21528" data-name="Path 21528" d="M45.28,71.65H16.65a1.21,1.21,0,0,1-1.24-1.18,1.2,1.2,0,0,1,1.18-1.24H45.28a1.21,1.21,0,0,1,1.24,1.18,1.22,1.22,0,0,1-1.18,1.24h-.06" style="fill:#fff7f1"/><g id="Group_6123" data-name="Group 6123" style="opacity:0.10000000149011612"><g id="Group_6122" data-name="Group 6122"><g style="clip-path:url(#clip-path)"><g id="Group_6121" data-name="Group 6121"><g id="Group_6120" data-name="Group 6120"><g style="clip-path:url(#clip-path)"><g id="Group_6119" data-name="Group 6119"><path id="Path_21529" data-name="Path 21529" d="M31,0H7.27A7.28,7.28,0,0,0,0,7.27v67.8a7.27,7.27,0,0,0,7.27,7.27H31Z"/></g></g></g></g></g></g></g></g></g></svg>