<svg id="Group_7594" data-name="Group 7594" xmlns="http://www.w3.org/2000/svg" xmlns:xlink="http://www.w3.org/1999/xlink" width="107.196" height="105.839" viewBox="0 0 107.196 105.839">
  <defs>
    <clipPath id="clip-path">
      <rect id="Rectangle_757" data-name="Rectangle 757" width="107.196" height="105.84" fill="none"/>
    </clipPath>
  </defs>
  <g id="Group_4144" data-name="Group 4144">
    <g id="Group_4143" data-name="Group 4143" clip-path="url(#clip-path)">
      <path id="Path_5213" data-name="Path 5213" d="M95.8,92.827l-.751.18-2.092-6.141-3.411,1.091c-.462-3.671-1.593-13.719-.862-18.828.529-3.7-3.315-11.615-7.913-17.847-2.649-4.517-4.956-7.926-8.7-9.9L67.15,11.47a1.755,1.755,0,0,0-2.017-1.447L1.47,20.5A1.755,1.755,0,0,0,.023,22.52l6.4,38.891a1.755,1.755,0,0,0,2.016,1.447l31.232-5.141a3.638,3.638,0,0,0,2.114,1.508,11.007,11.007,0,0,0,2.5.535c-1.876,5.52-2.6,11.415,2.509,10.768.269-.034.526-.078.779-.127-.495,4.906.225,9.275,4.46,7.968a9.592,9.592,0,0,0,5.231-3.727c1.263,6.05,3.46,12.525,7.457,13.595a2.22,2.22,0,0,0,.233.111c3.069,1.216,5.129,4.183,5.957,5.572l-3.02.966.954,4.393-2.5.6L68.2,113.211h36.141Z" transform="translate(0.001 -7.371)" fill="#adadad"/>
      <path id="Path_5214" data-name="Path 5214" d="M204.12,139.208s-13.84,9.836-15.521,16.1-3.144,16.841,3.145,14.9,6.9-7.574,8.615-11.528,8.291-7.286,8.291-7.286,5.044,7.785,9.873,6.1,8.555-5.055,3.1-9.6-10.893-12.638-17.5-8.686" transform="translate(-137.959 -101.841)" fill="#e4a78f"/>
      <path id="Path_5215" data-name="Path 5215" d="M191.739,117.712s-15.755,7.508-18.566,13.553-6.167,16.495.545,15.644,8.328-6.446,10.764-10.146,9.686-5.908,9.686-5.908,3.728,8.776,8.917,7.921,9.557-3.6,4.835-9.17-8.791-14.726-16.18-11.894" transform="translate(-125.17 -86.382)" fill="#f8ba93"/>
      <path id="Path_5216" data-name="Path 5216" d="M187.653,116.973s-17.452-.075-22.609,4.15-12.715,12.183-6.3,14.33,10.3-2.192,14.1-4.468,11.29-1.118,11.29-1.118-.451,9.524,4.594,11.007,15.9-1.657,12.166-7.93c-4.677-7.858-7.136-13.544-13.243-15.971" transform="translate(-115.204 -86.228)" fill="#f8ba93"/>
      <path id="Path_5217" data-name="Path 5217" d="M173.494,175.39c4.232-1.268,5.293-6.771,4.681-9.335-.441-1.847-2.123-5.633-2.152-8.911a12.473,12.473,0,0,0-2.849,3.581c-1.839,3.955-3.911,9.795-3.244,13.122a2.757,2.757,0,0,0,3.565,1.543" transform="translate(-125.171 -115.841)" fill="#f8ba93"/>
      <path id="Path_5218" data-name="Path 5218" d="M208.278,129.606c-4.723-5.567-8.791-14.726-16.18-11.894,0,0-10.285,4.9-15.718,9.973.029,3.278,1.711,7.063,2.152,8.911.612,2.564-.449,8.068-4.681,9.335a2.757,2.757,0,0,1-3.565-1.543c.352,1.759,1.469,2.816,3.789,2.522,6.712-.851,8.328-6.446,10.764-10.146s9.685-5.908,9.685-5.908,3.728,8.776,8.917,7.921,9.557-3.6,4.835-9.17" transform="translate(-125.529 -86.382)" fill="#f8ba93"/>
      <path id="Path_5219" data-name="Path 5219" d="M216.854,150.789s4.37,17.3,8.442,18.912,6.368,6.311,6.368,6.311l18.411-5.315s-1.948-13.891-1.044-20.214c.955-6.674-12.323-27.07-18.58-26.547s-20.159,14.738-13.6,26.853" transform="translate(-158.589 -91.353)" fill="#fac59d"/>
      <path id="Path_5220" data-name="Path 5220" d="M187.659,116.973s-17.452-.075-22.609,4.15c-4.622,3.788-11.172,10.572-7.861,13.484,1.163.053,2.937.1,4.554,0-.237.63-.465,1.271-.674,1.916a9.118,9.118,0,0,0,4.04-.06,2.833,2.833,0,0,1,2.16.321,10.286,10.286,0,0,0-1.419,2.908c-.9,3.344-1.732,7.917-1.359,11.158.241-1.335.8-3.06,2.367-3.763,2.678-1.2,3.888-2.586,4.71-1.706.76.814.26,4.08,1.611,6.74,2.548-2.579,3.211-6.243,4.431-9.057,1.3-3.009,7.318-6.75,7.318-6.75s8.839-16.919,2.731-19.346" transform="translate(-115.21 -86.228)" fill="#e4a78f"/>
      <path id="Path_5221" data-name="Path 5221" d="M244.127,124.414s5.8-12.057,7.99-12.227,3.876,10.443,3.488,12.2c-.236,1.072-1.976,1.677-2.966,2.24-1.513.861-2.807,1.459-2.028,2.114,1.452,1.22,2.361,1.667,2.1,2.213-.349.728-1.414.148-1.884,1.917s1.262,3.683,2.841,6.341-3.795-1.469-5.445-4.559a99.591,99.591,0,0,1-4.1-10.238" transform="translate(-179.961 -82.699)" fill="#e4a78f"/>
      <path id="Path_5222" data-name="Path 5222" d="M289.5,189.427c.131,3.909.01,9.328-1.355,12.544-2.316,5.456-1.207,13.225-4.807,16.017-2.386,1.85-6.711,3.2-9.662,4.447a15,15,0,0,1,1.143,1.862l18.411-5.315s-1.948-13.891-1.043-20.214c.3-2.108-.818-5.586-2.687-9.341" transform="translate(-201.74 -139.639)" fill="#e6b591"/>
      <path id="Path_5223" data-name="Path 5223" d="M264.968,300.468l25.072-8.018,2.619,7.689-26.291,6.775Z" transform="translate(-195.325 -215.583)" fill="#fff"/>
      <path id="Path_5224" data-name="Path 5224" d="M295.024,307.288l-1.751-5.14a5.157,5.157,0,0,1-3.982,3.716c-3.633.936-16.214,4.318-21.115,5.637l.556,2.563Z" transform="translate(-197.69 -222.732)" fill="#e0e0e0"/>
      <path id="Path_5225" data-name="Path 5225" d="M259.086,322.178l29.461-7.049,9.639,23.012H261.309Z" transform="translate(-190.989 -232.302)" fill="#313863"/>
      <path id="Path_5226" data-name="Path 5226" d="M273.733,350.4a2.191,2.191,0,1,1-2.518-1.806,2.191,2.191,0,0,1,2.518,1.806" transform="translate(-198.577 -256.949)" fill="#ffd663"/>
      <path id="Path_5227" data-name="Path 5227" d="M80.22,40.361a1.755,1.755,0,0,1-1.446,2.016L15.109,52.858a1.755,1.755,0,0,1-2.017-1.447L6.691,12.52A1.755,1.755,0,0,1,8.137,10.5L71.8.024a1.755,1.755,0,0,1,2.016,1.447Z" transform="translate(-4.915 0)" fill="#f1e7e7"/>
      <path id="Path_5228" data-name="Path 5228" d="M73.818,1.471A1.755,1.755,0,0,0,71.8.024L8.137,10.5a1.755,1.755,0,0,0-1.446,2.017l1.572,9.552L75.39,11.023Z" transform="translate(-4.915 0)" fill="#315285"/>
    </g>
  </g>
  <text id="WORK_PERMIT" data-name="WORK PERMIT" transform="translate(15.114 16.261) rotate(-9.347)" fill="#fff" font-size="6" font-family="OpenSans-Bold, Open Sans" font-weight="700"><tspan x="0" y="0">WORK PERMIT</tspan></text>
  <g id="Group_4146" data-name="Group 4146">
    <g id="Group_4145" data-name="Group 4145" clip-path="url(#clip-path)">
      <rect id="Rectangle_758" data-name="Rectangle 758" width="18.898" height="21.058" transform="translate(7.4 24.421) rotate(-9.347)" fill="#dadada"/>
      <path id="Path_5229" data-name="Path 5229" d="M58.719,107.345c-.621-.613-2.8-.058-4.3-.4s-2.062-1.155-1.548-1.24.546-2.949.85-3,1.268-.664,1.071-2.256-1.477-.212-1.477-.212a18.2,18.2,0,0,0-.667-4.049c-.53-1.728-3.272-1.667-4.393-1.483s-3.739,1.006-3.687,2.813a18.216,18.216,0,0,0,.666,4.049s-1.655-.9-1.331.674,1.433,1.844,1.737,1.793,1.253,2.653,1.767,2.568.241.87-1.069,1.67-3.556.975-3.947,1.754.778,4.727.778,4.727L59.5,112.072s-.157-4.114-.778-4.727" transform="translate(-31.19 -69.751)" fill="#a1a4b3"/>
    </g>
  </g>
  <text id="Name" transform="matrix(0.987, -0.162, 0.162, 0.987, 30.605, 24.498)" fill="#315285" font-size="1" font-family="SourceSansPro-Bold, Source Sans Pro" font-weight="700"><tspan x="0" y="0">Name</tspan></text>
  <text id="Last_Name" data-name="Last Name" transform="matrix(0.987, -0.162, 0.162, 0.987, 31.582, 30.436)" fill="#315285" font-size="1" font-family="SourceSansPro-Bold, Source Sans Pro" font-weight="700"><tspan x="0" y="0">La</tspan><tspan y="0" letter-spacing="-0.02em">s</tspan><tspan y="0">t Name</tspan></text>
  <text id="Address" transform="matrix(0.987, -0.162, 0.162, 0.987, 32.56, 36.374)" fill="#315285" font-size="1" font-family="SourceSansPro-Bold, Source Sans Pro" font-weight="700"><tspan x="0" y="0">Add</tspan><tspan y="0" letter-spacing="-0.01em">r</tspan><tspan y="0">ess</tspan></text>
  <text id="Birthdate" transform="matrix(0.987, -0.162, 0.162, 0.987, 33.537, 42.312)" fill="#315285" font-size="1" font-family="SourceSansPro-Bold, Source Sans Pro" font-weight="700"><tspan x="0" y="0">Birthd</tspan><tspan y="0" letter-spacing="-0.018em">a</tspan><tspan y="0" letter-spacing="-0.019em">t</tspan><tspan y="0">e</tspan></text>
  <text id="Gender" transform="matrix(0.987, -0.162, 0.162, 0.987, 47.179, 40.066)" fill="#315285" font-size="1" font-family="SourceSansPro-Bold, Source Sans Pro" font-weight="700"><tspan x="0" y="0">Gender</tspan></text>
  <text id="IDENTIFICATION_NUMBR" data-name="IDENTIFICATION NUMBR" transform="matrix(0.987, -0.162, 0.162, 0.987, 30.115, 21.522)" fill="#315285" font-size="1" font-family="SourceSansPro-Bold, Source Sans Pro" font-weight="700"><tspan x="0" y="0">IDENTIFIC</tspan><tspan y="0" letter-spacing="-0.074em">A</tspan><tspan y="0">TION NUMBR</tspan></text>
  <g id="Group_4148" data-name="Group 4148">
    <g id="Group_4147" data-name="Group 4147" clip-path="url(#clip-path)">
      <rect id="Rectangle_760" data-name="Rectangle 760" width="20.473" height="1.98" transform="matrix(0.987, -0.162, 0.162, 0.987, 47.601, 17.564)" fill="#72a1b6"/>
      <rect id="Rectangle_761" data-name="Rectangle 761" width="20.473" height="1.98" transform="translate(30.844 25.886) rotate(-9.348)" fill="#72a1b6"/>
      <rect id="Rectangle_762" data-name="Rectangle 762" width="20.473" height="1.98" transform="translate(31.837 31.914) rotate(-9.348)" fill="#72a1b6"/>
      <rect id="Rectangle_763" data-name="Rectangle 763" width="20.473" height="1.98" transform="translate(32.829 37.942) rotate(-9.348)" fill="#72a1b6"/>
      <rect id="Rectangle_764" data-name="Rectangle 764" width="10.934" height="1.98" transform="translate(33.821 43.97) rotate(-9.347)" fill="#72a1b6"/>
      <rect id="Rectangle_765" data-name="Rectangle 765" width="10.934" height="1.98" transform="translate(47.463 41.724) rotate(-9.348)" fill="#72a1b6"/>
      <rect id="Rectangle_766" data-name="Rectangle 766" width="18.898" height="3.513" transform="translate(10.981 46.176) rotate(-9.347)" fill="#72a1b6"/>
      <rect id="Rectangle_767" data-name="Rectangle 767" width="7.987" height="0.349" transform="translate(60.577 19.52) rotate(-9.348)" fill="#181d1f"/>
      <rect id="Rectangle_768" data-name="Rectangle 768" width="7.987" height="0.585" transform="translate(60.705 20.296) rotate(-9.348)" fill="#181d1f"/>
      <rect id="Rectangle_769" data-name="Rectangle 769" width="7.987" height="0.585" transform="translate(61.199 23.297) rotate(-9.348)" fill="#181d1f"/>
      <rect id="Rectangle_770" data-name="Rectangle 770" width="7.987" height="0.585" transform="translate(61.365 24.306) rotate(-9.346)" fill="#181d1f"/>
      <rect id="Rectangle_771" data-name="Rectangle 771" width="7.987" height="0.585" transform="translate(62.581 31.69) rotate(-9.349)" fill="#181d1f"/>
      <rect id="Rectangle_772" data-name="Rectangle 772" width="7.987" height="0.347" transform="translate(60.871 21.305) rotate(-9.348)" fill="#181d1f"/>
      <rect id="Rectangle_773" data-name="Rectangle 773" width="7.987" height="0.18" transform="translate(61.099 22.688) rotate(-9.346)" fill="#181d1f"/>
      <rect id="Rectangle_774" data-name="Rectangle 774" width="7.987" height="0.18" transform="translate(60.999 22.079) rotate(-9.348)" fill="#181d1f"/>
      <rect id="Rectangle_775" data-name="Rectangle 775" width="7.987" height="0.18" transform="translate(62.125 28.924) rotate(-9.348)" fill="#181d1f"/>
      <rect id="Rectangle_776" data-name="Rectangle 776" width="7.987" height="0.18" transform="translate(62.025 28.315) rotate(-9.348)" fill="#181d1f"/>
      <rect id="Rectangle_777" data-name="Rectangle 777" width="7.987" height="0.585" transform="translate(61.531 25.314) rotate(-9.348)" fill="#181d1f"/>
      <rect id="Rectangle_778" data-name="Rectangle 778" width="7.987" height="0.347" transform="translate(61.697 26.323) rotate(-9.346)" fill="#181d1f"/>
      <rect id="Rectangle_779" data-name="Rectangle 779" width="7.987" height="0.347" transform="translate(62.747 32.699) rotate(-9.346)" fill="#181d1f"/>
      <rect id="Rectangle_780" data-name="Rectangle 780" width="7.987" height="0.347" transform="translate(62.326 30.142) rotate(-9.348)" fill="#181d1f"/>
      <rect id="Rectangle_781" data-name="Rectangle 781" width="7.987" height="0.347" transform="translate(62.453 30.916) rotate(-9.349)" fill="#181d1f"/>
      <rect id="Rectangle_782" data-name="Rectangle 782" width="7.987" height="0.18" transform="translate(61.925 27.706) rotate(-9.346)" fill="#181d1f"/>
      <rect id="Rectangle_783" data-name="Rectangle 783" width="7.987" height="0.18" transform="translate(62.226 29.533) rotate(-9.348)" fill="#181d1f"/>
      <rect id="Rectangle_784" data-name="Rectangle 784" width="7.987" height="0.18" transform="translate(61.825 27.097) rotate(-9.346)" fill="#181d1f"/>
      <rect id="Rectangle_785" data-name="Rectangle 785" width="7.987" height="0.585" transform="translate(63.202 35.465) rotate(-9.348)" fill="#181d1f"/>
      <rect id="Rectangle_786" data-name="Rectangle 786" width="7.987" height="0.585" transform="translate(63.368 36.474) rotate(-9.346)" fill="#181d1f"/>
      <rect id="Rectangle_787" data-name="Rectangle 787" width="7.987" height="0.347" transform="translate(62.874 33.473) rotate(-9.347)" fill="#181d1f"/>
      <rect id="Rectangle_788" data-name="Rectangle 788" width="7.987" height="0.18" transform="translate(63.102 34.856) rotate(-9.346)" fill="#181d1f"/>
      <rect id="Rectangle_789" data-name="Rectangle 789" width="7.987" height="0.18" transform="translate(63.002 34.248) rotate(-9.349)" fill="#181d1f"/>
      <rect id="Rectangle_790" data-name="Rectangle 790" width="7.987" height="0.18" transform="translate(64.128 41.092) rotate(-9.348)" fill="#181d1f"/>
      <rect id="Rectangle_791" data-name="Rectangle 791" width="7.987" height="0.18" transform="translate(64.028 40.483) rotate(-9.348)" fill="#181d1f"/>
      <rect id="Rectangle_792" data-name="Rectangle 792" width="7.987" height="0.585" transform="translate(63.534 37.483) rotate(-9.348)" fill="#181d1f"/>
      <rect id="Rectangle_793" data-name="Rectangle 793" width="7.987" height="0.347" transform="translate(63.7 38.491) rotate(-9.348)" fill="#181d1f"/>
      <rect id="Rectangle_794" data-name="Rectangle 794" width="7.987" height="0.18" transform="translate(63.928 39.875) rotate(-9.348)" fill="#181d1f"/>
      <rect id="Rectangle_795" data-name="Rectangle 795" width="7.987" height="0.18" transform="translate(63.828 39.265) rotate(-9.348)" fill="#181d1f"/>
      <path id="Path_5230" data-name="Path 5230" d="M201.98,155.955s-9.988-16.586-4.889-19.984,9-1.349,10.8,2.718,7.307,12.805,8.865,16.1,8.779,14.8-1.072,21.239S203.035,163.9,201.98,155.955" transform="translate(-144.22 -98.97)" fill="#fac59d"/>
      <path id="Path_5231" data-name="Path 5231" d="M211.679,144.641s-2.426-6.262-7.175-4.275c-3.953,1.654-2.023,8.067-.738,8.623.956.414,8.383-2.649,7.912-4.348" transform="translate(-149.016 -103.185)" fill="#fff3f3"/>
      <path id="Path_5232" data-name="Path 5232" d="M175.069,190.9a9.122,9.122,0,0,1-4.04.06c-1.737,5.357-2.252,10.854,2.689,10.228a9.9,9.9,0,0,0,6.472-3.392c-.091-4.057-2.336-7.589-5.121-6.9" transform="translate(-125.17 -140.657)" fill="#f8ba93"/>
      <path id="Path_5233" data-name="Path 5233" d="M194.573,224.294c-.822-.88-2.032.5-4.71,1.706-1.567.7-2.126,2.428-2.366,3.763.325,2.831,1.572,4.647,4.5,3.742a9.769,9.769,0,0,0,4.184-2.47c-1.351-2.661-.851-5.926-1.611-6.74" transform="translate(-138.216 -165.136)" fill="#f8ba93"/>
      <path id="Path_5234" data-name="Path 5234" d="M165.781,181.794a37.006,37.006,0,0,1-6.069.141,4.491,4.491,0,0,0,1.561.845,10.235,10.235,0,0,0,8.734-.943c-1.267-1.317-2.36-.308-4.227-.043" transform="translate(-117.734 -133.556)" fill="#f8ba93"/>
    </g>
  </g>
</svg>
