<?xml version="1.0" encoding="utf-8"?>
<!-- Generator: Adobe Illustrator 24.1.2, SVG Export Plug-In . SVG Version: 6.00 Build 0)  -->
<svg version="1.1" id="Layer_1" xmlns="http://www.w3.org/2000/svg" xmlns:xlink="http://www.w3.org/1999/xlink" x="0px" y="0px"
	 viewBox="0 0 166.4 204.8" style="enable-background:new 0 0 166.4 204.8;" xml:space="preserve">
<style type="text/css">
	.st0{clip-path:url(#SVGID_2_);}
	.st1{fill:#CCCCCC;}
	.st2{fill:#FFCFCA;}
	.st3{fill:#2D2D2D;}
	.st4{fill:#F9BFBB;}
	.st5{fill:#AC1B35;}
	.st6{fill:#485575;}
	.st7{fill:#3C4A68;}
	.st8{fill:#F58800;}
	.st9{fill:#FBB03B;}
	.st10{fill:#F98080;}
	.st11{fill:#070C3A;}
	.st12{fill:#CC7662;}
	.st13{fill:none;stroke:#070C3A;stroke-width:0.5;}
</style>
<g id="Group_9828">
	<g id="Group_9827">
		<g>
			<defs>
				<rect id="SVGID_1_" y="187" width="166.4" height="17.8"/>
			</defs>
			<clipPath id="SVGID_2_">
				<use xlink:href="#SVGID_1_"  style="overflow:visible;"/>
			</clipPath>
			<g class="st0">
				<g id="Group_9826">
					<path id="Path_27333" class="st1" d="M166.4,195.9c0,4.9-37.3,8.9-83.2,8.9S0,200.8,0,195.9s37.3-8.9,83.2-8.9
						S166.4,191,166.4,195.9"/>
				</g>
			</g>
		</g>
	</g>
</g>
<path id="Path_27710" class="st2" d="M75.2,143.4l-2.5,44.1l-6,0.1L63,140.2L75.2,143.4z"/>
<path id="Path_27711" class="st3" d="M72.8,187.5l3.6,7.4c0,0.1,0,0.2,0,0.2v1.1c0,0.3-0.2,0.6-0.6,0.6l-12.3,0.2
	c-0.3,0-0.6-0.2-0.6-0.5c0,0,0,0,0,0v-1.3c0-0.1,0-0.2,0.1-0.3l3.8-7.4L72.8,187.5z"/>
<path id="Path_27712" class="st2" d="M45,143.4l2.5,44.1l6,0.1l3.8-47.4L45,143.4z"/>
<path id="Path_27713" class="st3" d="M47.4,187.5l-3.6,7.4c0,0.1-0.1,0.2-0.1,0.2v1.1c0,0.3,0.2,0.6,0.5,0.6l12.4,0.2
	c0.3,0,0.6-0.2,0.6-0.5v-1.3c0-0.1,0-0.2-0.1-0.3l-3.8-7.4L47.4,187.5z"/>
<path id="Path_27714" class="st2" d="M21,37.3c0.1,0,0.1,0.1,0.1,0.2c0,0.1-0.1,0.2-0.3,0.3c-1,0.3-2.1-0.2-3.1-0.1
	c-0.6-0.1-1.1-0.4-1.6-0.8L16,36.7c-0.2-0.1-0.3-0.3-0.3-0.5c0-0.1,0.1-0.2,0.2-0.3c0.3-0.2,0.7-0.2,1-0.1c0.8,0.1,1.5,0.3,2.3,0.5
	C19.9,36.5,20.5,36.8,21,37.3"/>
<path id="Path_27715" class="st4" d="M21,37.3c0.1,0,0.1,0.1,0.1,0.2c0,0.1-0.1,0.2-0.3,0.3c-1,0.3-2.1-0.2-3.1-0.1
	c-0.6-0.1-1.1-0.4-1.6-0.8c0.3,0,0.6,0,0.9-0.1c0.7-0.1,1.4-0.3,2.1-0.5C19.8,36.5,20.5,36.8,21,37.3"/>
<path id="Path_27716" class="st2" d="M17.7,38.3c0.3,0.1,0.6,0.4,0.5,0.7s-0.5,0.3-0.8,0.2c-0.9-0.2-1.8-0.3-2.7-0.3
	c-0.4,0-0.9,0-1.3,0.1c-1.1,0.1-2.1,0-3.2-0.1c-0.1,0-0.2,0-0.3-0.1c-0.2-0.1-0.2-0.4-0.1-0.6l0,0c0.1-0.1,0.3-0.3,0.5-0.3
	c0.1-0.1,0.2-0.1,0.4-0.1c0.7-0.2,1.4-0.3,2.1-0.3C14.4,37.4,16.1,37.7,17.7,38.3"/>
<path id="Path_27717" class="st4" d="M16.4,38.4c-2.1-0.2-4.3-0.3-6.4-0.1H9.9c0.1-0.1,0.3-0.3,0.5-0.3l0.4-0.1l0.5,0
	c0.3,0,0.6-0.1,0.8-0.1s0.7,0,1,0C14.2,37.7,15.3,38,16.4,38.4"/>
<path id="Path_27718" class="st2" d="M17.7,37.9c0.1,0,0.2,0.1,0.3,0.2c0.1,0.2-0.1,0.6-0.3,0.8c-0.5-0.2-1.1-0.4-1.7-0.6
	c-1.8-0.3-3.7-0.4-5.6-0.3c-0.2,0-0.5,0-0.5-0.3c0-0.1,0-0.1,0-0.2c0.1-0.2,0.3-0.4,0.6-0.5c0.3-0.1,0.6-0.2,0.9-0.2
	c0.3,0,0.6-0.1,0.9-0.1c0.6,0.1,1.3,0.2,1.9,0.4h0.1C15.4,37.2,16.5,37.5,17.7,37.9"/>
<path id="Path_27719" class="st4" d="M15.4,37.7l-1.8-0.5c-0.3-0.1-0.6-0.2-0.9-0.2C12.2,37,11.7,37,11.3,37l-0.7,0h-0.1
	c0.3-0.1,0.6-0.2,0.9-0.2c0.3,0,0.6-0.1,0.9-0.1c0.6,0.1,1.3,0.2,1.9,0.4h0.1C14.6,37.4,15,37.6,15.4,37.7"/>
<path id="Path_27720" class="st2" d="M13,35.8c0.1,0,0.3,0,0.4,0.1c0.9,0.3,1.7,0.6,2.6,0.8l0,0l0.3,0l0,0c0.3,0.1,0.7,0.1,1,0.1
	c1,0,1.9-0.1,2.9-0.2l0,0c0.4,0,0.8,0,1.2,0c0.5,0,1,0.1,1.5,0.3c0.6,0.2,1.1,0.4,1.6,0.7l0,0l0.2,0.2l0.2,0.2
	c0.3,0.3,0.5,0.5,0.7,0.8c0.1,0.1,0.2,0.3,0.3,0.4l0.7,0.9c0.8,1,1.6,2.1,2.3,3.2c1.6,2.2,2.9,4.3,4.3,6.6V50c0.3-1,0.7-2,1.1-2.9
	c1.1-2.8,2.5-5.4,4-8h0.1c0.6-0.4,1.3-0.8,2-1.2l0.5-0.2h0l1-0.4c1.4-0.6,2.9-1,4.4-1.4l1.2-0.3l0.5-0.1l0.5-0.1h0.2l0.5-0.1
	c0.4-0.1,0.8-0.1,1.1-0.2h0c-0.4,1.2-0.8,2.5-1.4,3.6c-1.5,3.3-3,6.5-4.5,9.8c-1.3,2.8-2.5,5.6-3.9,8.4c-0.7,1.6-1.6,3.1-2.7,4.5
	c-0.8,1-1.9,1.8-3.1,2.3c-1.8,0.4-3.4-1-4.4-2.3c-1.8-2.6-3.3-5.4-4.3-8.3c-0.7-1.9-1.4-3.8-2-5.7c-0.3-1-0.7-1.9-1-2.9
	c-0.1-0.2-0.5-1.4-0.9-2.3C22.2,41.6,22,41.1,22,41l0,0c-1.7-0.5-3.4-1.1-5-1.8h-0.1l0,0c-0.2-0.1-0.3-0.2-0.4-0.4
	c0-0.1,0-0.1,0-0.2c0-0.1-0.1-0.1-0.1-0.1l-0.2-0.1l0,0h-0.1l0,0L15.4,38l0,0l-1.2-0.5l0,0l-0.5-0.2l0,0L13,37
	c-0.1,0-0.2-0.1-0.3-0.2l0,0l0,0c-0.2-0.3-0.1-0.6,0.1-0.8C12.9,35.9,13,35.9,13,35.8"/>
<path id="Path_27721" class="st4" d="M24.5,37.7c0.2,0.1,0.3,0.2,0.5,0.4c0.3,0.3,0.5,0.5,0.7,0.8c-0.2,0.2-0.4,0.3-0.7,0.5
	c-0.3,0.2-0.7,0.4-1,0.5c0.3-0.3,0.5-0.6,0.6-1C24.8,38.5,24.7,38.1,24.5,37.7"/>
<path id="Path_27722" class="st2" d="M99,37.3c-0.1,0-0.1,0.1-0.1,0.2c0,0.1,0.1,0.2,0.3,0.3c1,0.3,2.1-0.2,3.1-0.1
	c0.6-0.1,1.1-0.4,1.6-0.8l0.2-0.1c0.2-0.1,0.3-0.3,0.3-0.5c0-0.1-0.1-0.2-0.2-0.3c-0.3-0.2-0.7-0.2-1-0.1c-0.8,0.1-1.5,0.3-2.2,0.5
	C100.2,36.5,99.5,36.8,99,37.3"/>
<path id="Path_27723" class="st4" d="M99,37.3c-0.1,0-0.1,0.1-0.1,0.2c0,0.1,0.1,0.2,0.3,0.3c1,0.3,2.1-0.2,3.1-0.1
	c0.6-0.1,1.1-0.4,1.6-0.8c-0.3,0-0.6,0-0.9-0.1c-0.7-0.1-1.4-0.3-2.1-0.5C100.2,36.5,99.6,36.8,99,37.3"/>
<path id="Path_27724" class="st2" d="M102.3,38.3c-0.3,0.1-0.7,0.4-0.5,0.7s0.5,0.3,0.8,0.2c0.9-0.2,1.8-0.3,2.7-0.3
	c0.4,0,0.9,0,1.3,0.1c1.1,0.1,2.1,0,3.2-0.1c0.1,0,0.2,0,0.3-0.1c0.2-0.1,0.2-0.4,0.1-0.6l0,0c-0.1-0.1-0.3-0.3-0.5-0.3
	c-0.1-0.1-0.2-0.1-0.4-0.1c-0.7-0.2-1.4-0.3-2.1-0.3C105.6,37.4,103.9,37.7,102.3,38.3"/>
<path id="Path_27725" class="st4" d="M103.6,38.4c2.1-0.2,4.3-0.3,6.5-0.1h0.1c-0.1-0.1-0.3-0.3-0.5-0.3l-0.4-0.1l-0.5,0
	c-0.3,0-0.6-0.1-0.8-0.1s-0.7,0-1,0C105.8,37.7,104.7,38,103.6,38.4"/>
<path id="Path_27726" class="st2" d="M102.3,37.9c-0.1,0-0.2,0.1-0.3,0.2c-0.2,0.2,0.1,0.6,0.3,0.8c0.5-0.3,1.1-0.4,1.7-0.6
	c1.8-0.3,3.7-0.4,5.5-0.3c0.2,0,0.5,0,0.6-0.3c0-0.1,0-0.1,0-0.2c-0.1-0.2-0.3-0.4-0.6-0.5c-0.3-0.1-0.6-0.2-0.8-0.2
	c-0.3,0-0.6-0.1-0.8-0.1c-0.7,0.1-1.3,0.2-1.9,0.4h-0.1C104.7,37.2,103.5,37.5,102.3,37.9"/>
<path id="Path_27727" class="st4" d="M104.6,37.7l1.8-0.5c0.3-0.1,0.6-0.2,0.9-0.2c0.4-0.1,0.9-0.1,1.3-0.1l0.7,0h0.1
	c-0.3-0.1-0.6-0.2-0.8-0.2c-0.3,0-0.6-0.1-0.9-0.1c-0.6,0.1-1.3,0.2-1.9,0.4h-0.1C105.4,37.4,105,37.6,104.6,37.7"/>
<path id="Path_27728" class="st2" d="M107,35.8c-0.1,0-0.3,0-0.4,0.1c-0.9,0.3-1.8,0.6-2.7,0.8l0,0l-0.3,0l0,0
	c-0.3,0.1-0.7,0.1-1,0.1c-1,0-1.9-0.1-2.9-0.2l0,0c-0.4,0-0.8,0-1.2,0c-0.5,0-1,0.1-1.4,0.3c-0.6,0.2-1.1,0.4-1.6,0.7l0,0l-0.2,0.2
	L95,38.1c-0.3,0.3-0.5,0.5-0.7,0.8c-0.1,0.1-0.2,0.3-0.3,0.4c-0.2,0.3-0.5,0.6-0.7,0.9c-0.8,1-1.6,2.1-2.3,3.2
	c-1.6,2.2-2.9,4.3-4.3,6.6V50c-0.3-1-0.7-2-1.1-2.9c-1.1-2.8-2.4-5.4-3.9-8h-0.1c-0.7-0.4-1.3-0.8-2-1.2l-0.5-0.2l0,0l-1-0.4
	c-1.4-0.6-2.9-1-4.4-1.4l-1.2-0.3L72,35.4l-0.5-0.1h-0.2l-0.5-0.1L69.6,35l0,0c0.4,1.2,0.8,2.5,1.4,3.6c1.5,3.3,3,6.6,4.4,9.8
	c1.3,2.9,2.6,5.7,3.9,8.5c0.7,1.6,1.6,3.1,2.7,4.5c0.8,1,1.9,1.8,3.2,2.2c1.8,0.4,3.4-1,4.4-2.3c1.8-2.6,3.3-5.4,4.3-8.3
	c0.7-1.9,1.4-3.8,2-5.7c0.3-1,0.7-1.9,1-2.9l0.8-2.3l0.5-1.2l0,0c1.7-0.5,3.3-1.1,4.9-1.8h0.1l0,0c0.2-0.1,0.3-0.2,0.3-0.4
	c0-0.1,0-0.1,0-0.2c0-0.1,0.1-0.1,0.2-0.1l0.2-0.1l0,0h0.1l0,0l0.8-0.3l0,0l1.2-0.5l0,0l0.5-0.2l0,0l0.7-0.3c0.1,0,0.2-0.1,0.3-0.2
	l0,0l0,0c0.2-0.3,0.1-0.6-0.1-0.8c-0.1-0.1-0.2-0.1-0.3-0.1"/>
<path id="Path_27729" class="st4" d="M95.5,37.7c-0.2,0.1-0.3,0.2-0.4,0.4c-0.3,0.2-0.5,0.5-0.7,0.8c0.2,0.2,0.4,0.3,0.7,0.5
	c0.3,0.2,0.7,0.4,1,0.5c-0.3-0.3-0.5-0.6-0.6-1c0-0.1-0.1-0.3-0.1-0.5C95.3,38.2,95.4,37.9,95.5,37.7"/>
<path id="Path_27730" class="st5" d="M75.7,18.6c0-3.3-2.5-6-5.7-6.3c0-0.1,0-0.2,0-0.3c0-0.2,0-0.3,0-0.5c0-1.8-0.4-3.7-1.1-5.3
	c-1.5-3.7-5-6.1-9-6.3c-4,0.1-7.6,2.7-9.1,6.4c-0.7,1.6-1,3.4-1,5.2v0.1c0,0.1,0,0.2,0,0.3c-3.2-0.4-6.1,1.9-6.5,5.2
	c-0.3,2.7,1.3,5.3,3.8,6.2c0.9,3.9,4.8,6.4,8.7,5.5c1-0.2,1.9-0.7,2.7-1.3c3,2.6,7.6,2.3,10.3-0.7c0.5-0.6,0.9-1.2,1.2-1.9
	C73.3,24.7,75.7,21.9,75.7,18.6"/>
<path id="Path_27731" class="st2" d="M64.7,30.4l-9.5-0.3l0.5-5.8l0.5-5.2l7.6,0.2l0.4,4.9L64.7,30.4z"/>
<path id="Path_27732" class="st4" d="M64.2,24.2l-0.5,0.2c-2,0.7-4.2,0.8-6.3,0.3c-0.6-0.1-1.1-0.3-1.7-0.4l0.5-5.2l7.6,0.2
	L64.2,24.2z"/>
<path id="Path_27733" class="st2" d="M67.4,10.5c-0.2-1.9-0.9-3.7-2.2-5.1c-2.4-2.7-6.5-3.2-9.5-1.2C55.1,4.7,54.5,5.3,54,6
	c-1.2,1.7-1.8,3.7-1.8,5.8c0,1.8,0.2,3.6,0.8,5.4c0.3,1.1,0.8,2.1,1.4,3c0.3,0.5,0.7,1,1.2,1.5c0.9,0.9,2,1.6,3.2,2
	c1.1,0.3,2.3,0.3,3.3-0.1c1.2-0.4,2.2-1.3,2.8-2.3c1.8-2.6,2.7-5.7,2.7-8.8C67.5,11.7,67.5,11.1,67.4,10.5"/>
<path id="Path_27734" class="st2" d="M55.1,16.5c-1.7,0.8-3.7,0.1-4.5-1.6c-0.2-0.4-0.3-0.9-0.3-1.3c0-0.2,0-0.4,0-0.6
	c0-0.3,0.1-0.6,0.3-0.9c0.4-0.7,1.2-1.1,2-1c0.8,0.1,1.5,0.6,1.9,1.3l0.3,1.5L55.1,16.5z"/>
<path id="Path_27735" class="st2" d="M64.7,16.5c1.1,0.5,2.4,0.4,3.4-0.3c0.8-0.6,1.3-1.6,1.4-2.6c0-0.2,0-0.4,0-0.6
	c0-0.3-0.1-0.6-0.3-0.9c-0.4-0.7-1.2-1.1-2-1c-0.8,0.1-1.5,0.6-1.9,1.3L65,14L64.7,16.5z"/>
<path id="Path_27736" class="st6" d="M61.6,60.9l-0.5,12.6l-1.6,44.1l-1.7,46.7L42.7,164c0,0-3.8-59-0.4-84.2
	c0.9-6.8,3-13.3,6.3-19.3L61.6,60.9z"/>
<path id="Path_27737" class="st7" d="M61.1,73.5l-1.6,44.1c-1.7-5.8-1.8-12.1-1.8-18.2c0-8.6,0.2-17.3,2.3-25.6L61.1,73.5z"/>
<path id="Path_27738" class="st2" d="M68.7,30.3c-1.1,2.9-3.6,5.1-6.6,5.8c-2.3,0.5-4.8,0.1-6.8-1.2c-1-0.6-1.9-1.5-2.5-2.5
	c-0.6-1-1.1-2.2-1.4-3.3c0,0.1,4.4-2.4,5-2.6c0.7-0.1,1.5-0.2,2.2-0.1c1.3,0,2.6,0,3.9,0.2S73,30.6,68.7,30.3L68.7,30.3"/>
<path id="Path_27739" class="st6" d="M71.3,60.4c3.2,6,5.4,12.6,6.3,19.3c3.4,25.2-0.1,84.6-0.1,84.6H62.1L58.3,60.9L71.3,60.4z"/>
<path id="Path_27740" class="st5" d="M68.3,5.8c-0.3-0.1-0.7-0.2-1-0.2c-0.2,0-0.4,0-0.5,0V5.5c0-1.6-1.3-2.9-2.9-2.9l0,0
	c-0.5,0-1,0.1-1.4,0.4c-0.7-1.4-2.4-2.1-3.9-1.4c0,0,0,0,0,0c-0.8,0.4-1.4,1.1-1.6,2c-1.3-0.9-3.1-0.5-4,0.9c0,0,0,0,0,0
	c-0.2,0.3-0.4,0.7-0.4,1.2c-0.4,0-0.9,0.1-1.3,0.3c-0.7,1.3-1,2.8-1,4.2v0.1c1,1.3,2.8,1.5,4.1,0.6c0.6-0.5,1-1.1,1.1-1.9
	c1.3,0,2.5-0.9,2.8-2.2c0.9,0.6,2.1,0.6,3,0.1c0.5,1,1.5,1.7,2.6,1.7c0.2,0,0.4,0,0.5-0.1v0.1c0,1.6,1.3,2.9,2.9,2.9
	c0.8,0,1.6-0.3,2.1-0.9c0-0.1,0-0.3,0-0.4C69.4,8.6,69.1,7.1,68.3,5.8"/>
<path id="Path_27741" class="st8" d="M85.7,45.8c-3.5,1.5-7.1,2.8-10.8,4c-0.5-1.1-0.9-2.2-1.3-3.3c0,0,0,0.1,0,0.2l0,0
	c-0.1,0.5-0.3,1.7-0.6,3.2c-0.5,2.9-1.3,6.9-1.5,8.1c0,0.1,0,0.2-0.1,0.3c-0.2,0.9-0.6,1.9-0.9,2.9c-0.6,0.1-1.3,0.3-2.1,0.4
	c-2.2,0.2-5.3,0.3-8.3,0.4c-3.2-0.1-6.4-0.2-8.6-0.4c-0.8-0.1-1.5-0.3-2.1-0.4c-0.3-1-0.7-2-0.9-2.9c0-0.1,0-0.2-0.1-0.3
	c-0.3-1.2-1.1-5.6-1.7-8.6c-0.3-1.4-0.5-2.5-0.6-2.8v-0.1c-0.5,1.3-0.6,1.4-1.3,3.3c-3.5-0.9-10.8-3.7-10.8-3.7s4.5-10.7,9.7-14.5
	c2-1.5,9.8-3.7,9.8-3.7c0.4,0.5,0.8,1.3,1.2,1.9c0.6,0.8,1.2,1.4,2,2c0.9,0.5,1.8,0.8,2.8,0.9l0,0c1.2,0,2.4-0.4,3.5-1
	c0.7-0.5,1.3-1.1,1.8-1.8c0.4-0.5,0.7-1.3,1.1-1.9c0.1,0,8,2.2,10,3.8C81.5,35.2,85.8,45.8,85.7,45.8"/>
<path id="Path_27742" class="st9" d="M72.4,58.7L72.4,58.7c-0.1-0.2-0.4-0.2-0.6-0.2h-0.3h-0.3h-9.5l-13.3-0.1H48
	c-0.7,0.1-0.5,1.7-0.5,2c-0.1,0.8-0.2,1.4,0.5,1.5h0.5l0,0c2.8,0.1,14.3,0.1,20-0.2c0.8,0,1.5-0.1,2-0.2c0.4,0,0.8-0.1,1.2-0.3
	c0.2-0.2,0.3-0.5,0.3-0.7C72.2,60.1,72.6,59.1,72.4,58.7"/>
<path id="Path_27743" class="st10" d="M47.1,42.7L47,46.5c0,0.7,0,1.3-0.1,2c0,0.3-0.1,0.5-0.1,0.8c-0.3-1.4-0.5-2.5-0.6-2.8
	C46.6,45.2,46.9,44,47.1,42.7"/>
<path id="Path_27744" class="st10" d="M73.7,46.6L73.7,46.6c-0.1,0.5-0.3,1.7-0.6,3.2c-0.2-0.3-0.3-0.6-0.5-0.9
	C71.9,46.9,72,44.8,73,43C73.1,44.3,73.3,45.5,73.7,46.6"/>
<path id="Path_27745" class="st11" d="M54.8,10.9c0.6-0.4,1.4-0.6,2.1-0.7c0.7-0.1,1.5-0.1,2.3,0c0.2,0.1,0.3,0.3,0.3,0.5
	c0,0.2-0.1,0.4-0.3,0.4l0,0c-0.7-0.2-1.4-0.3-2.2-0.2c-0.7,0.1-1.4,0.2-2,0.5c-0.1,0-0.2,0-0.2-0.1C54.7,11.1,54.8,11,54.8,10.9"/>
<path id="Path_27746" class="st11" d="M66.3,11.3c-1-0.7-2.3-0.9-3.5-0.8c-0.2,0.1-0.3,0.2-0.3,0.4c0,0.2,0.1,0.3,0.2,0.3l0,0
	c0.6-0.1,1.2-0.2,1.7-0.1c0.6,0.1,1.1,0.2,1.7,0.5c0.1,0,0.1,0,0.2-0.1C66.4,11.4,66.4,11.3,66.3,11.3"/>
<path id="Path_27747" class="st12" d="M62.1,19.6c-0.3,0.7-1.3,1-2.5,0.8s-2-1-1.9-1.7L62.1,19.6z"/>
<path id="Path_27748" class="st11" d="M59.3,13.3c0-0.5-0.4-0.8-0.9-0.8l0,0c-0.5,0-0.8,0.4-0.8,0.9c0,0.5,0.4,0.8,0.9,0.8
	S59.3,13.8,59.3,13.3C59.3,13.3,59.3,13.3,59.3,13.3"/>
<path id="Path_27749" class="st11" d="M64.3,13.7c0-0.5-0.3-0.9-0.8-0.9c0,0,0,0,0,0c-0.5,0-0.9,0.3-0.9,0.8c0,0,0,0,0,0
	c0,0.5,0.3,0.9,0.8,0.9c0,0,0,0,0,0C63.8,14.5,64.2,14.2,64.3,13.7C64.3,13.7,64.3,13.7,64.3,13.7L64.3,13.7"/>
<path id="Path_27750" class="st13" d="M59.7,17.3h1.9L61,14.8"/>
</svg>
