<svg xmlns="http://www.w3.org/2000/svg" xmlns:xlink="http://www.w3.org/1999/xlink" viewBox="0 0 109.28 90.45"><defs><clipPath id="clip-path"><rect x="9.67" y="16.67" width="84.93" height="52.1" transform="translate(-11.98 21.94) rotate(-21.38)" style="fill:none"/></clipPath><clipPath id="clip-path-2"><rect x="5.02" y="5.01" width="104.26" height="85.43" style="fill:none"/></clipPath><clipPath id="clip-path-3"><rect x="14.68" y="21.71" width="84.9" height="52.07" transform="translate(-13.46 24.08) rotate(-21.35)" style="fill:none"/></clipPath></defs><g id="Layer_2" data-name="Layer 2"><g id="Layer_1-2" data-name="Layer 1"><path id="Path_27309" data-name="Path 27309" d="M0,32.73l20.62,52.7L104.26,52.7,83.64,0ZM99.41,50.8,22.9,80.74l-18-46.1L81.37,4.69Z" style="fill:#ffeab4"/><rect id="Rectangle_5079" data-name="Rectangle 5079" x="9.67" y="16.67" width="84.93" height="52.09" transform="translate(-11.98 21.94) rotate(-21.38)" style="fill:#00caac"/><g id="Group_9825" data-name="Group 9825"><g style="clip-path:url(#clip-path)"><g id="Group_9824" data-name="Group 9824"><path id="Path_27310" data-name="Path 27310" d="M10.31,44.77l1.6,4.08,2.85.17,2.94-1.79,2.53,1.26,2.3,1.78,1.23,3.15,5.16,1.41L30,56.32l6.5.46-.09,2s1,1.44,1.47,1.57,2.29.92,2.29.92l1.16,3-.11,2.19.4,2.1.23,1.41.92.71.55-.22L43,68.29l.9-1.53.68-1.55s-1.35-.44-.36-.93.92-1.54,1-1.9a13.71,13.71,0,0,0,.18-1.57l1.49-1.12-.59-2.87.36-1.27-2.06.22-2.21.65L41.72,55l-2-.28-1.41.23-.84.87-1,.4L33.47,55l-2-.18-.71-1,1.36-1.18,1.17-.56.88,1.15L34,51.67l-.18-.46.39-1.76s-.53-1.62-.14-1.72a9.83,9.83,0,0,0,1.75-1.26l.36-1.54,1.56-5-2.49-3L31.1,31.37l-6.07.1H21.78l-3.66.95-2.34,2.69-2.35,1.55L12,39.31,11.36,42l-.94,2Z" style="fill:#209f74"/><path id="Path_27311" data-name="Path 27311" d="M28.21,25.81l-1.29,2.64s.58,1.76,1.76,1.52a8.82,8.82,0,0,1,2.46-.08l2.57,3.2,1.88,2.36L37,36.76l1.06,1,.22-2,.47-3.06,1.46-1.34-.32-3.08,0-1.58-1.33-1.69L38.89,24l-.45-1.15-.79-2Z" style="fill:#209f74"/><path id="Path_27312" data-name="Path 27312" d="M50.64,28.28,48.77,32s-.37,3.57.21,3.35,2.38.61,2.38.61l-1,2-2.15-2.36-1,2.73,1.36,1.79,2.14.38L49.82,42,48.6,42l.87,2.2.47-.19-.42,2.6L50.05,48l-.6,1.56,1.63,1.9,3.62-.64,1.44-.56,1.46,1.31.2.52,1.11,2.84,2.63,3.5,1.84-.73,1-1.38.2-3.06L65,51.87l-.88-2.26,1-4.1-2.89-1.45-.95-.48-.45-1.15L64,44.16l.47-.19,1.1-1.43-1.49-1.29,1.38-.43,1.72.43,1.72-.12s.5,2.13,1.46,2.31,2.65.29,2.65.29l-1-2.59,1.12-1.66,1.29,1.05,2.91-.48.75-.07-.79-2,1.27-.71L78.52,34,77.76,32l1.29.16.83,1,.79-1.08-.41-1.06.18-1.51.44-2.27L80,25l-.89-.87,1.73-1.23,2.11-.82-.12-2.28.82.12-.45,4.49,1.18.75.25-2.75s-.1-1.4.14-1.6.94-.7,1.2-.91,1.73-2.34,1.73-2.34l-.48-2.36-3.7-.43L82.23,16l-3.67-.33-2.24-.34-.53,2.31L74,16.26,72.2,17l-2.59,1,0-2.64-2.43-.26L66,16.31l-2.4,3.92-1.41,1.89,1.16,3-1.55-2.82-.77.3-.43,1.71L59,25.44l-1.22,2.25s-3.32,1.41-3.21,1.7a19,19,0,0,0-.21-2.13L53,26.8Z" style="fill:#209f74"/><path id="Path_27313" data-name="Path 27313" d="M84.84,43.32l-2.53,2.87.41,1.06,1,2.49,2.49-1,3-.28,3-1.16L90.84,44l-2.28-.44-1.24-.62-.26,1.32s-.45-.6-.66-.85-1.57,0-1.57,0" style="fill:#209f74"/><path id="Path_27314" data-name="Path 27314" d="M31,82.32l2.1-4.8,8.66-4.16s2.41-.42,2.84-1.11,6.06-4.53,6.85-4.61,6.85-2.21,7.87-2.61,5.84-3,6.94-3.18,3.57-1.92,5.81-1.57,2.65.19,4-.33l3.24-1.27a6.83,6.83,0,0,1,3.56-.16c1.39.27,2.66,3.51,2.66,3.51l-9.43,7L38.52,84.51Z" style="fill:#fff"/></g></g></g><g id="Group_9822" data-name="Group 9822"><g id="Group_9821" data-name="Group 9821" style="opacity:0.15000000596046448"><g id="Group_9820" data-name="Group 9820"><g style="clip-path:url(#clip-path-2)"><g id="Group_9819" data-name="Group 9819"><path id="Path_27303" data-name="Path 27303" d="M5,37.75l20.62,52.7,83.64-32.74L88.65,5Zm99.41,18.06L27.91,85.75l-18-46.1L86.38,9.7Z"/><rect id="Rectangle_5075" data-name="Rectangle 5075" x="14.68" y="21.68" width="84.93" height="52.09" transform="translate(-13.47 24.11) rotate(-21.38)"/><g id="Group_9818" data-name="Group 9818"><g style="clip-path:url(#clip-path-3)"><g id="Group_9817" data-name="Group 9817"><path id="Path_27304" data-name="Path 27304" d="M15.32,49.78l1.6,4.08,2.85.17,2.94-1.79,2.53,1.26,2.3,1.78,1.23,3.16,5.16,1.41,1.12,1.49,6.5.45-.09,2s1,1.44,1.47,1.57,2.29.93,2.29.93l1.16,3-.1,2.18.39,2.1.23,1.41.92.71.56-.22L48,73.3l.9-1.53.68-1.55s-1.35-.43-.36-.93.92-1.54,1-1.9a10.21,10.21,0,0,0,.18-1.56l1.49-1.12-.59-2.88.36-1.27-2.06.22-2.2.65L46.73,60l-2-.28-1.41.23-.84.86-1,.4L38.48,60l-2-.18-.71-1,1.36-1.18,1.17-.56.88,1.15L39,56.69l-.18-.47.38-1.75s-.53-1.63-.14-1.72a10,10,0,0,0,1.75-1.27L41.19,50l1.55-5-2.49-3-4.14-5.54-6.06.1H26.79l-3.66.95-2.34,2.69-2.35,1.56-1.39,2.63L16.38,47l-.94,2Z"/><path id="Path_27305" data-name="Path 27305" d="M33.23,30.83l-1.29,2.63s.58,1.76,1.75,1.52a8.81,8.81,0,0,1,2.46-.07l2.58,3.19,1.88,2.36,1.44,1.32,1.06,1,.23-2,.46-3,1.46-1.35-.32-3.08L45,31.78l-1.32-1.69L43.9,29l-.45-1.15-.79-2Z"/><path id="Path_27306" data-name="Path 27306" d="M55.65,33.3,53.79,37s-.38,3.58.2,3.35,2.38.62,2.38.62l-1,2.05-2.15-2.37-1,2.73,1.36,1.79,2.14.38-.85,1.49-1.22,0,.86,2.2.48-.18-.42,2.6L55.06,53l-.6,1.56,1.63,1.9,3.62-.64,1.44-.56,1.46,1.31.2.53,1.11,2.83,2.63,3.5,1.85-.72,1-1.38.19-3.06.4-1.37-.89-2.26,1-4.11-2.89-1.45-1-.47-.45-1.15,3.22,1.72.48-.19,1.1-1.42-1.5-1.3,1.38-.43,1.72.44L74,46.15s.5,2.12,1.46,2.3,2.65.29,2.65.29l-1-2.59,1.12-1.65,1.29,1,2.91-.48.75-.07-.79-2,1.27-.72L83.53,39l-.75-1.92,1.28.16.83,1,.79-1.08-.41-1.06.18-1.51.44-2.27L85,30l-.89-.87,1.73-1.23,2.11-.82-.12-2.28.82.12-.45,4.49,1.18.76.25-2.76s-.1-1.4.14-1.6.95-.7,1.2-.91,1.74-2.34,1.74-2.34l-.48-2.35-3.71-.43L87.24,21l-3.67-.34-2.24-.34-.53,2.31L79,21.27,77.21,22l-2.59,1,0-2.64-2.42-.27L71,21.32l-2.39,3.93-1.42,1.88,1.16,3-1.55-2.82-.76.3-.44,1.72-1.53,1.15L62.82,32.7s-3.31,1.41-3.2,1.7a17.09,17.09,0,0,0-.22-2.13l-1.35-.46Z"/><path id="Path_27307" data-name="Path 27307" d="M89.85,48.33,87.32,51.2l.41,1.06,1,2.49,2.49-1,3-.29,3-1.16L95.85,49l-2.27-.43-1.24-.63-.26,1.32s-.46-.6-.67-.85-1.56-.05-1.56-.05"/><path id="Path_27308" data-name="Path 27308" d="M36,87.33l2.1-4.8,8.66-4.16s2.41-.41,2.84-1.11,6.06-4.53,6.85-4.6,6.85-2.22,7.86-2.61,5.85-3,6.94-3.19,3.57-1.92,5.81-1.57,2.65.19,4-.33l3.24-1.27a6.94,6.94,0,0,1,3.56-.16c1.4.27,2.67,3.52,2.67,3.52l-9.44,7L43.53,89.53Z"/></g></g></g></g></g></g></g></g><path id="Path_27315" data-name="Path 27315" d="M79.78,30.94a2.85,2.85,0,0,0-5.67.59c.19,1.82,3.25,3.75,3.25,3.75s2.6-2.52,2.42-4.34" style="fill:#fff"/><path id="Path_27316" data-name="Path 27316" d="M78.42,30.83a1.5,1.5,0,1,0-1.34,1.66,1.5,1.5,0,0,0,1.34-1.66h0" style="fill:#209f74"/><path id="Path_27317" data-name="Path 27317" d="M44.57,56.35a2.85,2.85,0,0,0-5.67.58h0c.19,1.82,3.25,3.76,3.25,3.76s2.6-2.52,2.42-4.34" style="fill:#fff"/><path id="Path_27318" data-name="Path 27318" d="M43.2,56.24a1.5,1.5,0,1,0-1.34,1.65,1.5,1.5,0,0,0,1.34-1.65h0" style="fill:#209f74"/><path id="Path_27319" data-name="Path 27319" d="M63.66,34.63a2.85,2.85,0,0,0-5.67.58h0C58.18,37,61.24,39,61.24,39s2.6-2.52,2.42-4.34" style="fill:#fff"/><path id="Path_27320" data-name="Path 27320" d="M62.3,34.52A1.5,1.5,0,1,0,61,36.18a1.5,1.5,0,0,0,1.35-1.66h0" style="fill:#209f74"/><path id="Path_27321" data-name="Path 27321" d="M55.28,44.16a2.85,2.85,0,1,0-5.66.59h0c.18,1.82,3.25,3.75,3.25,3.75s2.6-2.52,2.41-4.34" style="fill:#fff"/><path id="Path_27322" data-name="Path 27322" d="M53.92,44.06a1.5,1.5,0,1,0-1.34,1.65,1.49,1.49,0,0,0,1.34-1.64h0" style="fill:#209f74"/><path id="Path_27323" data-name="Path 27323" d="M65.68,21.65a5.5,5.5,0,0,0-4.91,6h0c.36,3.52,6.29,7.25,6.29,7.25s5-4.87,4.67-8.39a5.51,5.51,0,0,0-6-4.91m.82,7.9a2.91,2.91,0,1,1,2.59-3.19,2.89,2.89,0,0,1-2.59,3.19h0" style="fill:#9df77c"/></g></g></svg>