<svg xmlns="http://www.w3.org/2000/svg" viewBox="0 0 27.67 38.56"><g id="Layer_2" data-name="Layer 2"><g id="Layer_1-2" data-name="Layer 1"><path id="Path_27324" data-name="Path 27324" d="M.11,7.32h0v0" style="fill:#d9ffff"/><path id="Path_27325" data-name="Path 27325" d="M.11,7.32h0v0" style="fill:#d9ffff"/><path id="Path_27328" data-name="Path 27328" d="M14,0A27.59,27.59,0,0,1,.13,7.34C.13,7.71.1,9.73,0,19-.14,31.46,11.7,37.61,13.54,38.56c1.79-.81,13.86-6.79,14-19.22.1-9.31.13-11.33.13-11.7A27.35,27.35,0,0,1,14,0" style="fill:#fff"/><path id="Path_27329" data-name="Path 27329" d="M14,2.25A29.28,29.28,0,0,1,1.62,8.53L1.5,19.05A17.71,17.71,0,0,0,7.13,32a27.07,27.07,0,0,0,6.44,4.76l.19-.09L14,2.27l0,0" style="fill:#007880"/><path id="Path_27330" data-name="Path 27330" d="M14,2.27l-.23,34.44a27.63,27.63,0,0,0,6.36-4.52A17.7,17.7,0,0,0,26,19.33L26.16,8.8A29.22,29.22,0,0,1,14,2.27" style="fill:#008f99"/><path id="Path_27331" data-name="Path 27331" d="M8.32,17.41l-.06,8.15c0,.91,11.13,1,11.14.08l.05-8.16Zm6.1,4.37,0,2.31a.57.57,0,1,1-1.13,0l0-2.31a1.37,1.37,0,1,1,1.13,0" style="fill:#fff"/><path id="Path_27332" data-name="Path 27332" d="M18.48,16.89H17.35v-.55a3.47,3.47,0,0,0-6.93-.05v.55H9.29v-.55a4.6,4.6,0,0,1,9.19.06h0Z" style="fill:#fff"/></g></g></svg>