<svg xmlns="http://www.w3.org/2000/svg" xmlns:xlink="http://www.w3.org/1999/xlink" width="61" height="61" viewBox="0 0 61 61">
  <defs>
    <clipPath id="clip-path">
      <circle id="Ellipse_329" data-name="Ellipse 329" cx="30.5" cy="30.5" r="30.5" transform="translate(1064 2631)" fill="#a4a4b6"/>
    </clipPath>
    <clipPath id="clip-path-2">
      <rect id="Rectangle_7797" data-name="Rectangle 7797" width="66.262" height="181.774" fill="none"/>
    </clipPath>
  </defs>
  <g id="Group_13120" data-name="Group 13120" transform="translate(-1064 -2631)">
    <circle id="Ellipse_328" data-name="Ellipse 328" cx="30.5" cy="30.5" r="30.5" transform="translate(1064 2631)" fill="#d8ffe9"/>
    <g id="Mask_Group_3830" data-name="Mask Group 3830" clip-path="url(#clip-path)">
      <g id="Group_13123" data-name="Group 13123" transform="translate(1064 2641.579)">
        <path id="Path_40522" data-name="Path 40522" d="M50.26,199.939l-4.427,40.546-9.161-.19,1.018-42.281Z" transform="translate(-20.762 -112.109)" fill="#ffb99f"/>
        <g id="Group_13122" data-name="Group 13122">
          <g id="Group_13121" data-name="Group 13121" clip-path="url(#clip-path-2)">
            <path id="Path_40523" data-name="Path 40523" d="M43.663,295.663l-9.161-.19L32.84,339.936h4.482c3.163-16.4,6.358-32.7,6.341-44.272" transform="translate(-18.593 -167.286)" fill="#ffb99f"/>
            <path id="Path_40524" data-name="Path 40524" d="M88.62,200.174l7.96,40-8.8,2.57L76.052,202.115Z" transform="translate(-43.058 -113.332)" fill="#ffb99f"/>
            <path id="Path_40525" data-name="Path 40525" d="M111.892,292.382l-8.8,2.571,11.9,42.805,4.025-1.348c-1.909-16.588-3.635-33-7.127-44.029" transform="translate(-58.37 -165.536)" fill="#ffb99f"/>
            <path id="Path_40526" data-name="Path 40526" d="M19.407,389.6s-2.945,1.346-5.022-.151a7.039,7.039,0,0,1-4.109,3.14c-2.752.679-7.84.652-9.671,3.5a3.193,3.193,0,0,0-.469,2.8l22.192-.089a12.243,12.243,0,0,0-2.921-9.2" transform="translate(0 -220.494)" fill="#f4a548"/>
            <path id="Path_40527" data-name="Path 40527" d="M.118,403.075l4.233-.226a13.49,13.49,0,0,1,2.624.031,8.1,8.1,0,0,0-.682-2.273,9.435,9.435,0,0,0-1.1-1.8c-1.876.433-3.646,1.138-4.575,2.586a3.634,3.634,0,0,0-.593,1.686l.09,0" transform="translate(-0.016 -225.79)" fill="#ffe9cc"/>
            <path id="Path_40528" data-name="Path 40528" d="M20.086,398.443a.163.163,0,0,1-.157-.118,4.774,4.774,0,0,0-.949-1.771.163.163,0,0,1,.248-.212,5.1,5.1,0,0,1,1.014,1.894.163.163,0,0,1-.112.2.172.172,0,0,1-.044.006" transform="translate(-10.724 -224.362)" fill="#ffe9cc"/>
            <path id="Path_40529" data-name="Path 40529" d="M23.953,397.4a.162.162,0,0,1-.159-.125,3.117,3.117,0,0,0-1.243-1.81.163.163,0,0,1,.185-.268,3.445,3.445,0,0,1,1.375,2,.162.162,0,0,1-.12.2.14.14,0,0,1-.038,0" transform="translate(-12.728 -223.731)" fill="#ffe9cc"/>
            <path id="Path_40530" data-name="Path 40530" d="M27.06,396.114a.163.163,0,0,1-.145-.087,6.309,6.309,0,0,0-.617-1.017,1.986,1.986,0,0,0-.89-.669.163.163,0,1,1,.1-.309,2.307,2.307,0,0,1,1.042.775,6.515,6.515,0,0,1,.652,1.069.163.163,0,0,1-.144.239" transform="translate(-14.322 -223.082)" fill="#ffe9cc"/>
            <path id="Path_40531" data-name="Path 40531" d="M30.366,395.175a.164.164,0,0,1-.157-.117,2.959,2.959,0,0,0-1.539-1.8.163.163,0,1,1,.14-.295,3.293,3.293,0,0,1,1.712,2,.164.164,0,0,1-.11.2.171.171,0,0,1-.046.007" transform="translate(-16.179 -222.474)" fill="#ffe9cc"/>
            <path id="Path_40532" data-name="Path 40532" d="M32.936,392.978a.163.163,0,0,1-.149-.1,6.247,6.247,0,0,0-.58-1.078,1.97,1.97,0,0,0-.888-.723.163.163,0,1,1,.112-.306,2.289,2.289,0,0,1,1.04.838,6.508,6.508,0,0,1,.612,1.134.163.163,0,0,1-.081.216.159.159,0,0,1-.067.015" transform="translate(-17.671 -221.238)" fill="#ffe9cc"/>
            <path id="Path_40533" data-name="Path 40533" d="M16.328,394.925a2.623,2.623,0,0,0,1.206,1.185,2.414,2.414,0,0,0,.982.184,5.577,5.577,0,0,0,1.113-.141,12,12,0,0,0,4.429-1.782,7.882,7.882,0,0,0,2.739-3.485,3.544,3.544,0,0,1-.364.05,7.6,7.6,0,0,1-2.56,3.167,11.668,11.668,0,0,1-4.31,1.732,3.194,3.194,0,0,1-1.9-.023,2.3,2.3,0,0,1-1.049-1.041,4.974,4.974,0,0,1-.344-.837l-.325.052a5.39,5.39,0,0,0,.383.94" transform="translate(-9.028 -221.305)" fill="#e08428"/>
            <path id="Path_40534" data-name="Path 40534" d="M43.945,396.5a6.6,6.6,0,0,0-3.824,6.016.163.163,0,1,0,.326,0,6.274,6.274,0,0,1,3.631-5.717c-.043-.1-.086-.2-.133-.3" transform="translate(-22.715 -224.485)" fill="#e08428"/>
            <path id="Path_40535" data-name="Path 40535" d="M11.837,405.677a86.25,86.25,0,0,1-11.376-.343,3.127,3.127,0,0,0-.325,2.553l22.192-.089a8.341,8.341,0,0,0,.125-2.376c-2.41.005-6.884.046-10.617.256" transform="translate(-0.001 -229.486)" fill="#ffe9cc"/>
            <path id="Path_40536" data-name="Path 40536" d="M32.694,407.89l-14.486.208a.163.163,0,0,0,0,.326h0l14.466-.207c.007-.1.012-.211.015-.327" transform="translate(-10.218 -230.933)" fill="#3e6b7f"/>
            <path id="Path_40537" data-name="Path 40537" d="M118.881,382.361s-2.217,2.36-4.705,1.761a7.04,7.04,0,0,1-2.616,4.462c-2.291,1.67-7.01,3.57-7.626,6.9a3.192,3.192,0,0,0,.624,2.768l20.508-8.48a12.243,12.243,0,0,0-6.186-7.413" transform="translate(-58.804 -216.479)" fill="#f4a548"/>
            <path id="Path_40538" data-name="Path 40538" d="M104.106,408.978l3.832-1.811a13.48,13.48,0,0,1,2.44-.964,8.092,8.092,0,0,0-1.491-1.846,9.483,9.483,0,0,0-1.7-1.251c-1.573,1.111-2.944,2.433-3.256,4.125a3.632,3.632,0,0,0,.089,1.785l.082-.037" transform="translate(-58.805 -228.224)" fill="#ffe9cc"/>
            <path id="Path_40539" data-name="Path 40539" d="M119,399.59a.163.163,0,0,1-.19-.05,4.78,4.78,0,0,0-1.548-1.281.163.163,0,1,1,.15-.29,5.106,5.106,0,0,1,1.655,1.369.163.163,0,0,1-.027.229.166.166,0,0,1-.039.023" transform="translate(-66.338 -225.306)" fill="#ffe9cc"/>
            <path id="Path_40540" data-name="Path 40540" d="M122.184,397.165a.163.163,0,0,1-.194-.056,3.12,3.12,0,0,0-1.836-1.206.163.163,0,1,1,.07-.318,3.448,3.448,0,0,1,2.03,1.334.163.163,0,0,1-.037.227.159.159,0,0,1-.033.019" transform="translate(-67.955 -223.964)" fill="#ffe9cc"/>
            <path id="Path_40541" data-name="Path 40541" d="M124.573,394.791a.163.163,0,0,1-.167-.026,6.317,6.317,0,0,0-.956-.707,1.98,1.98,0,0,0-1.077-.282.163.163,0,0,1-.022-.326,2.307,2.307,0,0,1,1.258.323,6.529,6.529,0,0,1,1.007.743.163.163,0,0,1,.02.23.166.166,0,0,1-.062.046" transform="translate(-69.184 -222.755)" fill="#ffe9cc"/>
            <path id="Path_40542" data-name="Path 40542" d="M127.279,392.675a.164.164,0,0,1-.19-.049,2.959,2.959,0,0,0-2.106-1.083.163.163,0,0,1,.018-.326,3.291,3.291,0,0,1,2.342,1.2.163.163,0,0,1-.025.23.165.165,0,0,1-.04.023" transform="translate(-70.674 -221.494)" fill="#ffe9cc"/>
            <path id="Path_40543" data-name="Path 40543" d="M128.825,389.668a.163.163,0,0,1-.174-.032,6.291,6.291,0,0,0-.945-.779,1.971,1.971,0,0,0-1.1-.333.163.163,0,1,1-.012-.326,2.289,2.289,0,0,1,1.279.382,6.47,6.47,0,0,1,1,.818.163.163,0,0,1,.007.23.165.165,0,0,1-.056.039" transform="translate(-71.587 -219.784)" fill="#ffe9cc"/>
            <path id="Path_40544" data-name="Path 40544" d="M115.656,392.5a2.618,2.618,0,0,0,1.565.64,2.422,2.422,0,0,0,.978-.2,5.6,5.6,0,0,0,.977-.552,12.006,12.006,0,0,0,3.425-3.325,7.855,7.855,0,0,0,1.207-4.257c-.1.061-.214.135-.328.189a7.534,7.534,0,0,1-1.152,3.89,11.677,11.677,0,0,1-3.334,3.234,3.194,3.194,0,0,1-1.766.7,2.306,2.306,0,0,1-1.365-.566,5.01,5.01,0,0,1-.635-.645l-.281.172a5.382,5.382,0,0,0,.71.725" transform="translate(-65.078 -217.864)" fill="#e08428"/>
            <path id="Path_40545" data-name="Path 40545" d="M142.6,386.973a6.6,6.6,0,0,0-1.264,7.016.163.163,0,1,0,.3-.125,6.275,6.275,0,0,1,1.2-6.666c-.077-.075-.155-.15-.236-.225" transform="translate(-79.74 -219.091)" fill="#e08428"/>
            <path id="Path_40546" data-name="Path 40546" d="M114.555,398.523A86.2,86.2,0,0,1,103.9,402.51a3.128,3.128,0,0,0,.665,2.486l20.508-8.48a8.362,8.362,0,0,0-.783-2.247c-2.229.917-6.355,2.647-9.731,4.254" transform="translate(-58.807 -223.221)" fill="#ffe9cc"/>
            <path id="Path_40547" data-name="Path 40547" d="M134.347,396.429l-13.33,5.674a.163.163,0,0,0,.126.3h0l13.312-5.666c-.033-.1-.069-.2-.11-.308" transform="translate(-68.459 -224.444)" fill="#3e6b7f"/>
            <path id="Path_40548" data-name="Path 40548" d="M32.544,178.475s-1.558,31.113-1.875,39.135-3.637,48.82-3.637,48.82,10.1.8,12.509.416c0,0,3.1-27.95,4.309-37.613s3.667-28.184,3.667-28.184l8.474,31.368,7.924,32.509s11.292-.46,12.951-2.648c0,0-5.643-28.638-7.3-37.167s-9.9-46.636-9.9-46.636Z" transform="translate(-15.305 -101.046)" fill="#2e3449"/>
            <path id="Path_40549" data-name="Path 40549" d="M41.448,273.75q-1.818-.208-3.624-.492.232-3.3.514-6.59,1.916.325,3.844.561c.011-.1.023-.2.034-.3q-1.931-.238-3.853-.561.3-3.506.647-7c1.32.279,2.649.512,3.984.709.012-.1.023-.2.034-.3-1.336-.2-2.666-.429-3.987-.71q.293-2.975.61-5.938,2.031.333,4.082.518c.012-.1.024-.2.036-.3q-2.052-.187-4.085-.518.349-3.262.714-6.5,2.052.3,4.147.434c.012-.1.024-.2.036-.3q-2.093-.132-4.15-.434.385-3.407.774-6.788c1.4.189,2.817.313,4.232.385.013-.1.026-.2.038-.3q-2.124-.108-4.236-.392c.034-.289.066-.579.1-.868l.7-6.055q2.177.159,4.359.2.02-.154.039-.307c-1.455-.026-2.911-.088-4.364-.193l.609-5.3c.446.01.891.018,1.337.018q1.574,0,3.147-.09c.013-.1.027-.207.041-.31-1.495.085-2.993.118-4.489.083l.8-6.985q1.75.122,3.5.124.539,0,1.077-.013c.014-.1.028-.207.041-.306q-2.294.051-4.587-.1l1.566-13.63a.151.151,0,0,0-.133-.167.147.147,0,0,0-.167.133L43.249,218.8a49.865,49.865,0,0,1-6.182-.856q.056-6.52-.043-13.028a.14.14,0,0,0-.153-.148.15.15,0,0,0-.148.153q.105,6.473.044,12.961-2.2-.461-4.356-1.125c-.005.1-.01.207-.016.311,1.442.439,2.9.817,4.369,1.123q-.034,3.718-.115,7.439-2.325-.31-4.621-.821l-.014.307q2.3.508,4.629.82-.061,2.585-.148,5.172-2.373-.342-4.715-.828c0,.1-.009.2-.013.3q2.341.484,4.717.825-.113,3.293-.271,6.586-2.409-.575-4.755-1.38c-.007.1-.013.206-.02.312q2.345.8,4.76,1.374-.161,3.407-.366,6.813a46.965,46.965,0,0,1-4.855-1.489c-.007.1-.015.21-.023.315a47.156,47.156,0,0,0,4.86,1.482q-.2,3.263-.433,6.524-2.487-.608-4.912-1.442l-.023.311q2.425.825,4.914,1.436-.213,2.9-.461,5.79-2.472-.7-4.88-1.613c-.008.1-.016.207-.024.31q2.406.9,4.877,1.6-.309,3.612-.669,7.217-2.416-.534-4.8-1.21c-.008.1-.016.2-.024.306q2.382.671,4.794,1.2-.329,3.3-.7,6.6-2.33-.495-4.626-1.122c-.008.1-.016.206-.024.306q2.291.621,4.617,1.116-.5,4.434-1.079,8.854l.3.018q.571-4.4,1.073-8.81,1.874.389,3.766.7-.289,4.152-.482,8.3l.3.006q.192-4.129.479-8.261,1.8.283,3.611.488c.01-.1.022-.2.033-.3m-4.384-55.5a50.184,50.184,0,0,0,6.15.848l-.8,7q-2.738-.079-5.462-.427.086-3.71.115-7.417m-.121,7.724q2.706.345,5.433.423l-.607,5.287q-2.5-.191-4.975-.538.087-2.586.149-5.172m-.16,5.475q2.464.345,4.951.536l-.695,6.043-.1.862q-2.231-.314-4.43-.824.154-3.308.272-6.617m-.288,6.92q2.187.5,4.411.82-.388,3.38-.773,6.789c-1.353-.208-2.688-.475-4-.793q.2-3.407.367-6.815m-.385,7.123q1.968.474,3.989.784-.364,3.241-.715,6.5-1.866-.317-3.708-.761.239-3.261.433-6.525m-.455,6.829c1.224.291,2.456.547,3.7.757q-.315,2.954-.609,5.923-1.787-.389-3.55-.878.246-2.9.462-5.8m-.489,6.1q1.76.49,3.547.877-.345,3.5-.647,7.015-1.79-.31-3.567-.7.357-3.6.668-7.2m2.359,14.789q-1.886-.3-3.754-.694.37-3.294.7-6.6,1.779.386,3.572.7-.281,3.293-.515,6.593" transform="translate(-16.32 -115.931)" fill="#5483a3"/>
            <path id="Path_40550" data-name="Path 40550" d="M100.239,270.8q1.59-.419,3.16-.9l-.059-.3q-1.582.483-3.183.908-.793-2.848-1.568-5.705c1.215-.275,2.424-.582,3.628-.91-.019-.1-.039-.2-.058-.3-1.211.33-2.426.64-3.649.916q-.966-3.569-1.9-7.15,2.056-.59,4.067-1.324l-.059-.3c-1.347.491-2.707.939-4.083,1.334q-.972-3.716-1.912-7.442,2.257-.8,4.443-1.79l-.06-.3q-2.191.992-4.458,1.8-.841-3.337-1.656-6.68,2.416-.849,4.785-1.908l-.059-.3q-2.371,1.065-4.8,1.918-.78-3.2-1.533-6.407a51.328,51.328,0,0,0,5.019-2.026l-.063-.3a50.869,50.869,0,0,1-5.025,2.033q-.7-2.993-1.388-5.991a27.07,27.07,0,0,0,5.2-1.822c-.021-.1-.043-.2-.064-.3a26.7,26.7,0,0,1-5.206,1.831q-.762-3.349-1.5-6.7a55.68,55.68,0,0,0,5.245-2.013l-.064-.3a54.875,54.875,0,0,1-5.245,2.02q-.64-2.921-1.258-5.843a50.142,50.142,0,0,0,5.312-1.756l-.064-.3a49.815,49.815,0,0,1-5.311,1.76q-1.381-6.525-2.662-13.05a.151.151,0,1,0-.3.058q1.279,6.535,2.666,13.071-2.244.592-4.533.971a100.449,100.449,0,0,0-5.383-12.669.151.151,0,0,0-.269.138,100,100,0,0,1,5.349,12.582,50.441,50.441,0,0,1-5.659.581l.08.3a51.029,51.029,0,0,0,5.68-.591q1.039,2.986,1.921,6a56.14,56.14,0,0,1-5.852,1.063l.079.294a56.478,56.478,0,0,0,5.857-1.068q.915,3.128,1.693,6.26c-.374.054-.743.105-1.1.152-1.617.207-3.246.357-4.88.461l.082.3q2.429-.157,4.836-.465c.37-.047.752-.1,1.138-.157q.8,3.215,1.489,6.408A50.99,50.99,0,0,1,81.5,237.97l.079.294a51.242,51.242,0,0,0,5.591-1.081q.59,2.724,1.126,5.413c.074.368.146.738.22,1.108q-2.573.691-5.161,1.135l.079.292q2.574-.442,5.141-1.131c.446,2.262.881,4.539,1.305,6.778q-2.369.619-4.786,1.031l.072.294q2.406-.415,4.771-1.028c.061.324.123.651.184.973q.59,3.121,1.2,6.28-2.219.433-4.465.7l.073.3q2.237-.274,4.45-.7.678,3.479,1.414,6.975c-1.4.217-2.8.4-4.2.543l.072.3c1.4-.149,2.8-.328,4.194-.545q.638,2.986,1.345,5.961-2.019.38-4.058.661l.072.3q2.036-.285,4.055-.665.773,3.211,1.659,6.386l.3-.032q-.892-3.183-1.662-6.409,2.709-.52,5.376-1.216.933,3.349,1.892,6.685c.1-.026.195-.054.291-.081q-.957-3.333-1.89-6.678M82.153,217.589q2.266-.379,4.494-.967.621,2.93,1.262,5.86-1.9.612-3.844,1.085-.883-3-1.912-5.979m2,6.268c1.286-.314,2.56-.679,3.823-1.084q.733,3.34,1.493,6.678c-1.238.295-2.456.516-3.618.691q-.785-3.14-1.7-6.284m1.772,6.578c1.16-.175,2.376-.4,3.612-.691q.686,3.01,1.394,6.016-1.743.588-3.525,1.049-.691-3.172-1.481-6.375m2.675,12.1q-.54-2.7-1.13-5.431,1.784-.461,3.531-1.049.756,3.209,1.534,6.413c-1.233.427-2.474.817-3.719,1.158-.072-.364-.143-.728-.216-1.091m.275,1.387c1.249-.342,2.494-.732,3.731-1.161q.815,3.344,1.657,6.681-2.017.7-4.082,1.259c-.424-2.24-.859-4.516-1.306-6.78m1.55,8.068c-.062-.328-.125-.661-.188-.992q2.073-.552,4.1-1.262.937,3.715,1.906,7.421-2.288.644-4.619,1.114-.613-3.156-1.2-6.281m1.256,6.574q2.339-.469,4.639-1.116.935,3.571,1.9,7.131-2.547.565-5.12.977-.744-3.5-1.418-6.991M94.5,271.8q-.71-2.967-1.342-5.949,2.581-.411,5.137-.979.776,2.863,1.572,5.719-2.66.691-5.367,1.209" transform="translate(-43.079 -114.975)" fill="#5483a3"/>
            <path id="Path_40551" data-name="Path 40551" d="M60.083,75.693,53.2,73.772l-6.882,1.921a6.749,6.749,0,0,0-4.927,6.185l-1.824,38.894H66.834L65.01,81.877a6.749,6.749,0,0,0-4.927-6.185" transform="translate(-22.401 -41.767)" fill="#ffb99f"/>
            <path id="Path_40552" data-name="Path 40552" d="M29.3,114.28l4.462-26.345a3.085,3.085,0,1,0-6.084-1.03L23.213,113.25Z" transform="translate(-13.142 -47.747)" fill="#ffb99f"/>
            <path id="Path_40553" data-name="Path 40553" d="M18.022,155.542l-3.044,29.486,3.58.526,5.569-29.115Z" transform="translate(-8.48 -88.063)" fill="#ffb99f"/>
            <path id="Path_40554" data-name="Path 40554" d="M17.109,224.191a7.971,7.971,0,0,0-1.047-1.711l-3.107-.682a6.4,6.4,0,0,0-1.807,2.177,2.989,2.989,0,0,0,.047,2.742,2.769,2.769,0,0,0,1.79,1.205,4.334,4.334,0,0,0,2.189-.155,3.05,3.05,0,0,0,2.023-1.614,2.692,2.692,0,0,0-.089-1.962" transform="translate(-6.137 -125.574)" fill="#ffb99f"/>
            <path id="Path_40555" data-name="Path 40555" d="M103.684,115.06,93.81,90.231a3.085,3.085,0,0,1,5.734-2.28l9.873,24.83Z" transform="translate(-52.988 -48.693)" fill="#ffb99f"/>
            <path id="Path_40556" data-name="Path 40556" d="M121.948,150.3l-3.017,29.77-3.583-.489.441-29.639Z" transform="translate(-65.306 -84.89)" fill="#ffb99f"/>
            <path id="Path_40557" data-name="Path 40557" d="M124.569,222.9a3.037,3.037,0,0,0-1.665-1.571,4.728,4.728,0,0,0-2.574-.53c-.823.26-1.436,1.564-1.643,2.324a2.845,2.845,0,0,0,.718,2.869,2.979,2.979,0,0,0,1.957.645,3.6,3.6,0,0,0,2.621-1.05,2.622,2.622,0,0,0,.587-2.687" transform="translate(-67.131 -124.974)" fill="#ffb99f"/>
            <path id="Path_40558" data-name="Path 40558" d="M37.093,205.338l-.421,3.845a61.859,61.859,0,0,0,18.669,1.04c9.35-1.115,13.937-2.85,13.937-2.85l-1.344-5.208Z" transform="translate(-20.762 -114.459)" fill="#f6d198"/>
            <path id="Path_40559" data-name="Path 40559" d="M62.751,105.651c-1.357-6.258-8.973-26.592-12.442-28.264A84.954,84.954,0,0,0,39.8,73.772H32.339s-9.3,2.018-12.518,4.393-11.3,38.706-10.645,61.719c2.4,1.886,5.311,1.348,8.257.524,0,0,2.323-16.422,3.724-25.906-.573,6.177-.524,9.751-.337,18.747,0,0,22.847,3.575,32.38-1.935,0,0-2.212-25.135-3.593-33.581,0,0,4,10.219,4.084,14.007s1.224,23.6,1.526,26.544c0,0,5.413,2.272,8.354.538,0,0,.539-26.914-.819-33.172" transform="translate(-5.174 -41.767)" fill="#f4a548"/>
            <path id="Path_40560" data-name="Path 40560" d="M38.5,134.15h-.014a.15.15,0,0,1-.136-.164L39.888,117.6a.151.151,0,1,1,.3.028l-1.541,16.381a.152.152,0,0,1-.15.137" transform="translate(-21.71 -66.506)" fill="#e08428"/>
            <path id="Path_40561" data-name="Path 40561" d="M95.561,115.524a.15.15,0,0,1-.139-.092l-2.962-7a.151.151,0,0,1,.278-.118l2.962,7a.151.151,0,0,1-.08.2.155.155,0,0,1-.059.012" transform="translate(-52.341 -61.27)" fill="#e08428"/>
            <path id="Path_40562" data-name="Path 40562" d="M9.15,217.143c0,.1,0,.207,0,.309.321.09.644.173.97.242l-.047,3.855c.1.053.2.1.3.143l.047-3.939a15.742,15.742,0,0,0,1.592.222l-.028,4.192c.1.015.2.026.3.037l.028-4.2c.357.024.713.04,1.071.04.136,0,.272-.006.408-.009a.146.146,0,0,0,0,.019l-.177,4.185c.1-.006.2-.016.3-.024l.175-4.148a.16.16,0,0,0-.006-.038,15.5,15.5,0,0,0,1.616-.158l-.268,4.122c.1-.021.2-.041.306-.063L16,217.879a.151.151,0,0,0-.009-.061,15.3,15.3,0,0,0,2.041-.5c.016-.108.031-.218.047-.329a15.28,15.28,0,0,1-8.926.15" transform="translate(-5.179 -122.854)" fill="#e08428"/>
            <path id="Path_40563" data-name="Path 40563" d="M67.963,196.81a48.161,48.161,0,0,1-15.775,2.8,136.055,136.055,0,0,1-16.308-.836c0,.1,0,.2,0,.3l1.7.157-.047,3.9.3.038.047-3.907q1.054.095,2.114.184l-.035,3.969.3.031.036-3.975q1.1.09,2.2.169l-.242,4,.3.026.243-4q1.018.07,2.039.124l-.583,4.009.3.02.58-3.989a.129.129,0,0,0,0-.026q1.061.054,2.122.088l-.191,4.067.3.013.191-4.071q.957.028,1.915.035l-.021,4.1.3.006.021-4.1c.119,0,.238,0,.356,0,.468,0,.936-.01,1.4-.019l-.17,4.131h.3l.171-4.134c.117,0,.235,0,.352,0,.659-.018,1.306-.047,1.945-.083L54.06,204l.3-.011.082-4.181q.953-.059,1.877-.145l.4,4.19.3-.024-.4-4.194q1.188-.115,2.331-.276l.492,4.215.3-.04-.492-4.218q.925-.136,1.82-.3l.867,4.158.3-.06-.866-4.153q1.173-.226,2.3-.507a35.3,35.3,0,0,0,.256,4.263l.295-.079a34.893,34.893,0,0,1-.25-4.227.133.133,0,0,0-.007-.032q1.044-.267,2.049-.58a30.483,30.483,0,0,0,.277,4.15c.1-.038.193-.077.288-.117a30.165,30.165,0,0,1-.265-4.1.146.146,0,0,0,0-.025c.572-.184,1.133-.383,1.687-.589-.009-.1-.019-.2-.028-.308" transform="translate(-20.314 -111.427)" fill="#e08428"/>
            <path id="Path_40564" data-name="Path 40564" d="M123.239,209.8a11.259,11.259,0,0,1-8.844-.679c.008.118.015.235.023.351a10.78,10.78,0,0,0,1.47.625l.33,5.312.308.091-.329-5.307a11.486,11.486,0,0,0,2.186.441.118.118,0,0,0,0,.012l-.028,5.276c.1.017.2.033.3.049l.028-5.307c.3.023.608.039.912.039.375,0,.749-.024,1.122-.06l-.183,5.459c.1,0,.2-.007.3-.013l.182-5.439a.138.138,0,0,0-.007-.038,11.53,11.53,0,0,0,2.226-.5c0-.1,0-.211,0-.317" transform="translate(-64.766 -118.395)" fill="#e08428"/>
            <path id="Path_40565" data-name="Path 40565" d="M68.646,76.268l0,0a.15.15,0,0,0,.023-.061,6.371,6.371,0,0,0,.413-1.515l-.291-.087a6.01,6.01,0,0,1-.341,1.347c-.351-.238-.7-.467-1.044-.688-.39-.252-.794-.514-1.194-.789a.151.151,0,1,0-.171.249c.4.278.809.54,1.2.793.356.231.724.47,1.09.719a6.258,6.258,0,0,1-.7,1.2,15.086,15.086,0,0,1-1.688-2.656.151.151,0,0,0-.27.134,15.4,15.4,0,0,0,1.768,2.769,5.9,5.9,0,0,1-.962.928L65.4,75.71a.151.151,0,0,0-.282.106l1.118,2.98c-.1.068-.2.133-.3.194a5.693,5.693,0,0,1-1.468.6l-.25-3.659a.151.151,0,0,0-.3.02l.253,3.706a6.19,6.19,0,0,1-1.739.109l.667-3.385a.151.151,0,0,0-.3-.058l-.672,3.41A5.91,5.91,0,0,1,60.1,79.1l1.384-3.141a.151.151,0,1,0-.276-.122l-1.371,3.111c-.023-.014-.048-.026-.071-.041a5.755,5.755,0,0,1-1.4-1.252L60.881,75.4a.151.151,0,1,0-.2-.225l-2.5,2.24a6.215,6.215,0,0,1-.816-1.52l3.019-1.413a.151.151,0,0,0-.128-.273l-2.989,1.4a6.069,6.069,0,0,1-.23-1.056l-.3.077A6.4,6.4,0,0,0,59.6,79.16a6.187,6.187,0,0,0,9.042-2.892" transform="translate(-32.123 -42.005)" fill="#e08428"/>
            <path id="Path_40566" data-name="Path 40566" d="M91.127,116.65Z" transform="translate(-51.593 -66.043)" fill="#e08428"/>
            <path id="Path_40567" data-name="Path 40567" d="M82.987,125.406l-.534-7.632a1.22,1.22,0,0,0-.055-.279.147.147,0,0,0-.011-.029,1.206,1.206,0,0,0-1.261-.823l-2.9.263-.636.057c-.248.023-.543.028-.856.033a4.987,4.987,0,0,0-2.622.492c-.709.5-.669,1.436-.636,2.191.005.112.01.22.012.323l.149,7.292a1.22,1.22,0,0,0,1.218,1.2l.077,0,5.756-.355a2.068,2.068,0,0,0,2.3-2.728m-8.7-7.67a4.817,4.817,0,0,1,2.454-.436c.318-.006.619-.011.878-.035l.636-.058c.756-.068,2-.18,2.9-.263a.905.905,0,0,1,.934.581l-2.174,3c-.371.511-.784.978-1.309.964a1.753,1.753,0,0,1-.987-.517l-3.59-2.967a1.024,1.024,0,0,1,.258-.271m8.015,9.6a2.42,2.42,0,0,1-1.63.5l-5.756.355a.919.919,0,0,1-.975-.9L73.788,120c0-.1-.007-.216-.012-.33a3.768,3.768,0,0,1,.108-1.387l3.539,2.925a2.049,2.049,0,0,0,1.169.586h.042c.643,0,1.111-.522,1.522-1.089l2.005-2.768.525,7.491a2.431,2.431,0,0,1-.388,1.906" transform="translate(-41.59 -66.037)" fill="#e08428"/>
            <path id="Path_40568" data-name="Path 40568" d="M64.251,7.1a4.911,4.911,0,0,0-5.217-3C56.648.221,50.478-.258,46.6,1.372c-4.8,2.018-7.217,7.761-4.341,12.334,2.915,4.635,8.873,6.085,11.722,10.739.622,1.015,1.4,2.157,2.743,2.132,1.233-.023,2.019-1.128,2.652-2.04a33.945,33.945,0,0,0,4.216-8.422c.964-2.837,1.934-6.112.659-9.012" transform="translate(-23.225 -0.278)" fill="#51352f"/>
            <path id="Path_40569" data-name="Path 40569" d="M60.193,13.039c-3.308-6.065-14.946-3.994-15.85.827-1.861,9.918-.448,13.99,2.308,16.333,3.19,2.711,5.272,2.366,5.272,8.063a3.977,3.977,0,0,0,7.328,0A34.342,34.342,0,0,1,61.749,25s-.192-9.457-1.556-11.957" transform="translate(-24.628 -5.265)" fill="#ffb99f"/>
            <path id="Path_40570" data-name="Path 40570" d="M63.646,38.5a.746.746,0,1,1-.746-.746.746.746,0,0,1,.746.746" transform="translate(-35.189 -21.373)"/>
            <path id="Path_40571" data-name="Path 40571" d="M63.162,38.643a.273.273,0,1,1-.273-.273.273.273,0,0,1,.273.273" transform="translate(-35.45 -21.724)" fill="#fff"/>
            <path id="Path_40572" data-name="Path 40572" d="M50.344,38.5a.746.746,0,1,1-.746-.746.746.746,0,0,1,.746.746" transform="translate(-27.658 -21.373)"/>
            <path id="Path_40573" data-name="Path 40573" d="M49.859,38.643a.273.273,0,1,1-.273-.273.273.273,0,0,1,.273.273" transform="translate(-27.919 -21.724)" fill="#fff"/>
            <path id="Path_40574" data-name="Path 40574" d="M49.287,32.137a2.442,2.442,0,0,0-3.038.149.492.492,0,0,0-.069.617.357.357,0,0,0,.538.079,1.753,1.753,0,0,1,1.275-.422,1.789,1.789,0,0,1,.663.182c.185.092.366.253.574.133a.39.39,0,0,0,.126-.121.488.488,0,0,0-.07-.617" transform="translate(-26.102 -17.935)" fill="#51352f"/>
            <path id="Path_40575" data-name="Path 40575" d="M59.927,32.137a3.124,3.124,0,0,1,3.483.149.44.44,0,0,1-.538.7,2.192,2.192,0,0,0-1.462-.415,2.371,2.371,0,0,0-.761.179c-.213.089-.422.248-.659.129a.423.423,0,0,1-.144-.121.443.443,0,0,1,.08-.617" transform="translate(-33.833 -17.935)" fill="#51352f"/>
            <path id="Path_40576" data-name="Path 40576" d="M54.661,47.161a2.637,2.637,0,0,1-1.239-.3.39.39,0,1,1,.362-.69,2.048,2.048,0,0,0,2.4-.446.39.39,0,0,1,.63.46,2.793,2.793,0,0,1-2.155.98" transform="translate(-30.128 -25.795)" fill="#c16b5b"/>
            <path id="Path_40577" data-name="Path 40577" d="M54.216,42.8a.1.1,0,0,1-.094-.07c-.184-.636.032-.852.246-.922a.941.941,0,0,1,.773.169.1.1,0,0,1,.031.134.1.1,0,0,1-.134.031.76.76,0,0,0-.61-.149c-.192.062-.232.292-.118.682a.1.1,0,0,1-.067.121.1.1,0,0,1-.027,0" transform="translate(-30.603 -23.655)" fill="#c16b5b"/>
            <path id="Path_40578" data-name="Path 40578" d="M85.973,40.736a2.572,2.572,0,0,1-3.516.72,2.572,2.572,0,0,1,.1-3.588,2.572,2.572,0,0,1,3.516-.72,2.573,2.573,0,0,1-.1,3.588" transform="translate(-46.299 -20.786)" fill="#ffb99f"/>
            <path id="Path_40579" data-name="Path 40579" d="M87.093,38.846a1.722,1.722,0,0,0-1.512.029,1.412,1.412,0,0,0-.578.45.856.856,0,0,0-.123.788,1.218,1.218,0,0,0,.415.49,1.153,1.153,0,0,1,.279.281.438.438,0,0,1-.563.619.2.2,0,0,0-.164.354.81.81,0,0,0,.34.073.824.824,0,0,0,.724-1.243,1.48,1.48,0,0,0-.37-.387.9.9,0,0,1-.3-.328.471.471,0,0,1,.078-.423.788.788,0,0,1,.148-.149.8.8,0,0,1,.558.192.7.7,0,0,1,.17.571.2.2,0,0,0,.161.224l.032,0a.2.2,0,0,0,.192-.163,1.08,1.08,0,0,0-.267-.9.883.883,0,0,0-.292-.2,1.227,1.227,0,0,1,.888.061.754.754,0,0,1,.378.916.2.2,0,0,0,.354.164,1.141,1.141,0,0,0-.55-1.425" transform="translate(-47.973 -21.902)" fill="#c16b5b"/>
            <path id="Path_40580" data-name="Path 40580" d="M60.758,18.967a2.3,2.3,0,0,1-.8-.421,13.362,13.362,0,0,1-5.038-7.4,8.74,8.74,0,0,1-2.089,1.22,2.943,2.943,0,0,1-2.356-.067,1.8,1.8,0,0,1-.927-2.034,4.642,4.642,0,0,1-3.031,2.978,3.337,3.337,0,0,1-2.558-.18A3.165,3.165,0,0,1,42.6,9.638,5.038,5.038,0,0,1,44.964,6.6,13.038,13.038,0,0,1,48.652,5.21c2.714-.689,5.657-1.193,8.253-.145a8.9,8.9,0,0,1,4.961,5.8,12.654,12.654,0,0,1,.384,4.864c-.09.867-.1,3.57-1.492,3.239" transform="translate(-24.071 -2.527)" fill="#51352f"/>
            <path id="Path_40581" data-name="Path 40581" d="M77.078,1.009a.912.912,0,0,1,.159-.875.885.885,0,0,1,.911-.017A3.632,3.632,0,0,1,80.3,4.262a.532.532,0,0,1-.269.416c-.19.07-.385-.075-.535-.21a6.252,6.252,0,0,1-2.414-3.459" transform="translate(-43.617 0.001)" fill="#51352f"/>
            <path id="Path_40582" data-name="Path 40582" d="M84.075,6.194a3.987,3.987,0,0,1,2.219-.042,2.084,2.084,0,0,1,.878.375.887.887,0,0,1,.338.85A.889.889,0,0,1,87,7.945a2.24,2.24,0,0,1-.765.168,6.6,6.6,0,0,1-3.254-.26c-.827-.492.554-1.468,1.09-1.659" transform="translate(-46.837 -3.406)" fill="#51352f"/>
          </g>
        </g>
      </g>
    </g>
  </g>
</svg>
