<svg xmlns="http://www.w3.org/2000/svg" width="16.25" height="14.575" viewBox="0 0 16.25 14.575">
  <g id="down-arrow_7_" data-name="down-arrow (7)" transform="translate(0 14.575) rotate(-90)">
    <path id="Path_4869" data-name="Path 4869" d="M.625,15.8a.625.625,0,0,0,.625-.625V.625A.625.625,0,1,0,0,.625v14.55A.625.625,0,0,0,.625,15.8Z" transform="translate(6.658 0.45)" fill-rule="evenodd"/>
    <path id="Path_4870" data-name="Path 4870" d="M.163,6.854a.625.625,0,0,0,.883.042l6.19-5.632h0a.1.1,0,0,1,.1,0h0L13.529,6.9a.625.625,0,1,0,.841-.925L8.179.338l0,0a1.346,1.346,0,0,0-1.78,0l0,0L.2,5.971a.625.625,0,0,0-.042.883Z" transform="translate(0 0)" fill-rule="evenodd"/>
  </g>
</svg>
