<svg xmlns="http://www.w3.org/2000/svg" xmlns:xlink="http://www.w3.org/1999/xlink" width="61" height="61" viewBox="0 0 61 61">
  <defs>
    <clipPath id="clip-path">
      <circle id="Ellipse_329" data-name="Ellipse 329" cx="30.5" cy="30.5" r="30.5" transform="translate(1064 2631)" fill="#a4a4b6"/>
    </clipPath>
    <clipPath id="clip-path-2">
      <rect id="Rectangle_7798" data-name="Rectangle 7798" width="63.704" height="189.968" fill="none"/>
    </clipPath>
  </defs>
  <g id="Group_13124" data-name="Group 13124" transform="translate(-1064 -2631)">
    <circle id="Ellipse_328" data-name="Ellipse 328" cx="30.5" cy="30.5" r="30.5" transform="translate(1064 2631)" fill="#ffd8d8"/>
    <g id="Mask_Group_3830" data-name="Mask Group 3830" clip-path="url(#clip-path)">
      <g id="Group_13126" data-name="Group 13126" transform="translate(1062.648 2641.563)">
        <g id="Group_13125" data-name="Group 13125" clip-path="url(#clip-path-2)">
          <path id="Path_40583" data-name="Path 40583" d="M53.45,6.253a11.74,11.74,0,0,1,2.312,6.121A41.568,41.568,0,0,0,56.8,18.918a62.592,62.592,0,0,0,2.82,6.242c1.6,3.707,1.986,8.35-.522,11.512a12.517,12.517,0,0,1-6.121,3.721,33.519,33.519,0,0,1-20.98-.125,17.575,17.575,0,0,1-5.961-3.184,9.1,9.1,0,0,1-3.231-5.8c-.241-2.435.756-4.817,1.908-6.976s2.5-4.266,3.051-6.65a59.834,59.834,0,0,0,.6-6.194,14.121,14.121,0,0,1,3.724-8.1A10.813,10.813,0,0,1,40.219.012,9.071,9.071,0,0,1,45.76,2.3a8.2,8.2,0,0,1,1.047,1.135c.214.282.5.994.815,1.075.3.076,1.1-.3,1.473-.311a4.877,4.877,0,0,1,1.476.194A5.993,5.993,0,0,1,53.45,6.253" transform="translate(-8.858 0)" fill="#1b1b28"/>
          <path id="Path_40584" data-name="Path 40584" d="M62.917,14.389c-3.258-5.972-14.719-3.934-15.61.814-1.833,9.768-.441,13.777,2.274,16.085,3.141,2.67,5.192,2.33,5.192,7.941a3.916,3.916,0,0,0,7.216,0,33.816,33.816,0,0,1,2.46-13.064s-.189-9.313-1.532-11.776" transform="translate(-24.562 -5.22)" fill="#f0d0c6"/>
          <path id="Path_40585" data-name="Path 40585" d="M57.331,17.488a34.331,34.331,0,0,1-12.958-.052s-.858-2.143,1.767-5.717c1.679-2.287,6.56-2.85,10.723-2.081s5.972,2.579,6.108,5.565.439,6.715.439,6.715L61.794,23.15a20.368,20.368,0,0,1-3.9-8.157,5.068,5.068,0,0,0-.3,2.473" transform="translate(-22.377 -4.541)" fill="#1b1b28"/>
          <path id="Path_40586" data-name="Path 40586" d="M64.6,35.16a.735.735,0,1,1-.735-.735.735.735,0,0,1,.735.735" transform="translate(-33.243 -16.783)"/>
          <path id="Path_40587" data-name="Path 40587" d="M65.1,35.211a.269.269,0,1,1-.269-.269.269.269,0,0,1,.269.269" transform="translate(-34.48 -17.036)" fill="#fff"/>
          <path id="Path_40588" data-name="Path 40588" d="M75.688,35.16a.735.735,0,1,1-.735-.735.735.735,0,0,1,.735.735" transform="translate(-50.018 -16.783)"/>
          <path id="Path_40589" data-name="Path 40589" d="M76.19,35.211a.269.269,0,1,1-.269-.269.269.269,0,0,1,.269.269" transform="translate(-51.255 -17.036)" fill="#fff"/>
          <path id="Path_40590" data-name="Path 40590" d="M76.111,29.815a2.406,2.406,0,0,0-2.992.147.485.485,0,0,0-.067.608.351.351,0,0,0,.53.077,1.725,1.725,0,0,1,1.256-.416,1.764,1.764,0,0,1,.653.179c.183.091.36.249.566.131a.379.379,0,0,0,.125-.119.48.48,0,0,0-.069-.607" transform="translate(-49.949 -14.316)" fill="#1b1b28"/>
          <path id="Path_40591" data-name="Path 40591" d="M60.818,29.815a3.077,3.077,0,0,1,3.43.147.433.433,0,0,1-.53.685,2.161,2.161,0,0,0-1.439-.408,2.345,2.345,0,0,0-.749.176c-.21.088-.416.244-.649.127a.415.415,0,0,1-.142-.119.437.437,0,0,1,.079-.607" transform="translate(-31.792 -14.316)" fill="#1b1b28"/>
          <path id="Path_40592" data-name="Path 40592" d="M70.731,38.791a.1.1,0,0,1-.092-.069c-.182-.627.031-.839.242-.908a.928.928,0,0,1,.761.167.1.1,0,1,1-.1.163.75.75,0,0,0-.6-.147c-.189.061-.228.287-.116.672a.1.1,0,0,1-.066.119.1.1,0,0,1-.027,0" transform="translate(-44.148 -18.422)" fill="#d19d8f"/>
          <path id="Path_40593" data-name="Path 40593" d="M69.929,40.778c-.285-.366-.914.1-1.7.229s-1.531-.105-1.682.335c-.191.555.7,1.709,1.987,1.495s1.755-1.595,1.395-2.059" transform="translate(-40.432 -19.813)" fill="#8e4136"/>
          <path id="Path_40594" data-name="Path 40594" d="M69.473,42.589a6.257,6.257,0,0,0-.8.08,3.913,3.913,0,0,0-1.987.8,1.823,1.823,0,0,0,2.782-.881" transform="translate(-39.946 -20.764)" fill="#c16b5b"/>
          <path id="Path_40595" data-name="Path 40595" d="M68.75,41.449c.7-.117,1.27-.383,1.425-.8-.332-.073-.863.25-1.5.356s-1.243-.028-1.533.149a1.749,1.749,0,0,0,1.607.293" transform="translate(-40.879 -19.814)" fill="#fff"/>
          <path id="Path_40596" data-name="Path 40596" d="M44.21,37.521a2.533,2.533,0,0,1-3.463.709,2.533,2.533,0,0,1,.1-3.533,2.532,2.532,0,0,1,3.463-.709,2.533,2.533,0,0,1-.1,3.533" transform="translate(-1.809 -16.362)" fill="#f0d0c6"/>
          <path id="Path_40597" data-name="Path 40597" d="M43.742,35.363a1.7,1.7,0,0,0-1.489.029,1.387,1.387,0,0,0-.569.443.844.844,0,0,0-.121.777,1.193,1.193,0,0,0,.409.482,1.137,1.137,0,0,1,.274.277.431.431,0,0,1-.554.609.192.192,0,0,0-.161.348.79.79,0,0,0,.335.072.812.812,0,0,0,.712-1.223,1.457,1.457,0,0,0-.364-.381.888.888,0,0,1-.293-.322A.465.465,0,0,1,42,36.057a.8.8,0,0,1,.146-.147.784.784,0,0,1,.55.189.687.687,0,0,1,.168.562.191.191,0,0,0,.158.22.161.161,0,0,0,.031,0,.192.192,0,0,0,.189-.16,1.065,1.065,0,0,0-.262-.884.878.878,0,0,0-.287-.2,1.208,1.208,0,0,1,.874.06.743.743,0,0,1,.373.9.192.192,0,1,0,.348.161,1.124,1.124,0,0,0-.542-1.4" transform="translate(-1.887 -17.164)" fill="#d19d8f"/>
          <path id="Path_40598" data-name="Path 40598" d="M89.35,86.2l6.035-16.31c-4.944,2.978-9.364,8.171-13.236,15.676l-.073-4.022-4.1-.255s-8.754,21.3-1.583,23.5c4.545.869,9.924-8.871,12.958-18.588" transform="translate(-69.383 -34.074)" fill="#f0d0c6"/>
          <path id="Path_40599" data-name="Path 40599" d="M99.4,111.144q.206-4.741.867-9.445c.05-.355-.5-.41-.554-.055q-.66,4.7-.867,9.445c-.015.356.538.414.554.055" transform="translate(-87.222 -49.438)" fill="#d19d8f"/>
          <path id="Path_40600" data-name="Path 40600" d="M104.756,83.347a21.677,21.677,0,0,1-3.293-1.166A3.531,3.531,0,0,1,99.448,79.5a4.066,4.066,0,0,1,.567-2.1,13.37,13.37,0,0,0,.952-2A12.654,12.654,0,0,1,99.6,73.846a1.557,1.557,0,0,1-.268-.48.569.569,0,0,1,.086-.524c.207-.24.591-.179.89-.074a6.588,6.588,0,0,1,1.6.767,14.987,14.987,0,0,1,1.476-2.708c.155-.224.369-.47.64-.439a.529.529,0,0,1,.415.434,1.48,1.48,0,0,1-.048.634,22.489,22.489,0,0,1-1.2,3.715,1.61,1.61,0,0,1,1.64.5,1.287,1.287,0,0,1,1.07-.06,1.247,1.247,0,0,1,.731.757,1.051,1.051,0,0,1,1.222.241,3.026,3.026,0,0,1,.639,1.157c.3.817,1.208,1.342,1.509,2.161a2.613,2.613,0,0,1-.256,2.49,3.466,3.466,0,0,1-1.305.907,5.383,5.383,0,0,1-1.851.562,4.777,4.777,0,0,1-1.832-.538" transform="translate(-97.383 -34.315)" fill="#f0d0c6"/>
          <path id="Path_40601" data-name="Path 40601" d="M113.275,81.188a.068.068,0,0,1-.045,0,.07.07,0,0,1-.049-.086,3.836,3.836,0,0,1,.423-.98.069.069,0,0,1,.1-.024.07.07,0,0,1,.024.1,3.714,3.714,0,0,0-.408.945.07.07,0,0,1-.04.046" transform="translate(-108.029 -39.047)" fill="#d19d8f"/>
          <path id="Path_40602" data-name="Path 40602" d="M110.1,82a.067.067,0,0,1-.044,0,.069.069,0,0,1-.051-.085,2.178,2.178,0,0,1,.5-.937.07.07,0,1,1,.1.094,2.042,2.042,0,0,0-.468.877A.07.07,0,0,1,110.1,82" transform="translate(-103.303 -39.471)" fill="#d19d8f"/>
          <path id="Path_40603" data-name="Path 40603" d="M106.515,83.66a.069.069,0,0,1-.048,0,.07.07,0,0,1-.046-.087,3.922,3.922,0,0,1,.626-1.215.071.071,0,0,1,.1-.013.07.07,0,0,1,.013.1,3.759,3.759,0,0,0-.6,1.171.072.072,0,0,1-.04.044" transform="translate(-98.004 -40.14)" fill="#d19d8f"/>
          <path id="Path_40604" data-name="Path 40604" d="M115.854,78.373a.068.068,0,0,1-.05,0,.07.07,0,0,1-.043-.089,10.024,10.024,0,0,1,.551-1.256.07.07,0,0,1,.124.065,9.766,9.766,0,0,0-.542,1.238.069.069,0,0,1-.039.041" transform="translate(-112.061 -37.536)" fill="#d19d8f"/>
          <path id="Path_40606" data-name="Path 40606" d="M27.472,111.8c.434-1.245.941-2.453,1.468-3.805,1.162-2.985,2.346-5.882,2.233-9.141a46.121,46.121,0,0,0-1.9-9.9c-1.463-5.636-1.463-8.078,0-13.714.858-3.3,5.6-9.88,5.6-9.88a11.37,11.37,0,0,1,1.536-.842,14.072,14.072,0,0,1,2-.716l-.011-.012s-.025-2.378-.126-2.8.417-.388.93,0c.236.179,5.8.681,7.185-.256,1.082-.73.7,1.745.479,2.88l.022,0c.663.164,1.3.3,1.906.472A7.607,7.607,0,0,1,52.584,66.1c1.58,1.863,2.351,5.733,2.551,8.125.824,9.914-1.034,15.521.136,25.4.112.9.273,1.77.463,2.612.166.716.351,1.423.556,2.125.171.585.351,1.165.531,1.755a20.045,20.045,0,0,1,.664,2.6c.19,1,.468,2.02.7,3.1a31.564,31.564,0,0,1,.979,7.1,53.968,53.968,0,0,1-32.992-1.194,22.87,22.87,0,0,1,1.3-5.935" transform="translate(-8.877 -29.543)" fill="#fe346e"/>
          <path id="Path_40607" data-name="Path 40607" d="M70.981,76.372a50.7,50.7,0,0,1,2.365-9.123c.243-.668,1.319-.379,1.073.3-3.836,10.536-3.608,21.924-2.4,32.915.361,3.283.807,6.555,1.253,9.827.1.7-.977,1-1.073.3-1.544-11.318-3.092-22.833-1.219-34.211" transform="translate(-46.686 -32.602)" fill="#fdc20b"/>
          <path id="Path_40608" data-name="Path 40608" d="M45.691,77.028q.42-4.836,1.144-9.638c.106-.706,1.178-.406,1.073.3a154.24,154.24,0,0,0-1.27,34.03q.36,4.9,1.032,9.762c.1.7-.975,1-1.073.3a155.493,155.493,0,0,1-.906-34.746" transform="translate(-7.332 -32.659)" fill="#fdc20b"/>
          <path id="Path_40609" data-name="Path 40609" d="M51.421,64.712a8.5,8.5,0,0,0,.082-1.979.278.278,0,0,1,.557,0,9.1,9.1,0,0,1-.1,2.127.28.28,0,0,1-.342.194.285.285,0,0,1-.194-.342" transform="translate(-14.727 -30.449)" fill="#b7184e"/>
          <path id="Path_40610" data-name="Path 40610" d="M54.763,63.514a.284.284,0,0,1,.278-.278.281.281,0,0,1,.278.278q-.051.986-.1,1.972a.284.284,0,0,1-.278.278.281.281,0,0,1-.278-.278q.051-.986.1-1.972" transform="translate(-19.627 -30.83)" fill="#b7184e"/>
          <path id="Path_40611" data-name="Path 40611" d="M58.179,63.608a.284.284,0,0,1,.278-.278.281.281,0,0,1,.278.278q-.055,1.058-.11,2.116a.284.284,0,0,1-.278.278.281.281,0,0,1-.278-.278q.055-1.058.11-2.116" transform="translate(-24.79 -30.876)" fill="#b7184e"/>
          <path id="Path_40612" data-name="Path 40612" d="M61.5,63.483a.281.281,0,0,1,.278-.278.284.284,0,0,1,.278.278c.007.529-.01,1.059-.054,1.587a.278.278,0,1,1-.556,0q.065-.792.053-1.587" transform="translate(-29.846 -30.815)" fill="#b7184e"/>
          <path id="Path_40613" data-name="Path 40613" d="M64.12,63.013a.278.278,0,0,1,.557,0q-.048.889-.025,1.779a.28.28,0,0,1-.278.278.284.284,0,0,1-.278-.278q-.022-.889.025-1.779" transform="translate(-33.815 -30.585)" fill="#b7184e"/>
          <path id="Path_40614" data-name="Path 40614" d="M56.621,111.221a32.97,32.97,0,0,0,8.135.588c.358-.017.357.539,0,.557a33.5,33.5,0,0,1-8.283-.609c-.351-.069-.2-.606.148-.536" transform="translate(-30.157 -54.221)" fill="#b7184e"/>
          <path id="Path_40615" data-name="Path 40615" d="M79.6,108a.285.285,0,0,1,.394,0,2.544,2.544,0,0,0,.3.236,3.781,3.781,0,0,0,.38.226c.064.033.128.064.193.093l.028.013.029.012.1.038a3.692,3.692,0,0,0,.423.128.281.281,0,0,1,.194.342.284.284,0,0,1-.342.194,4.026,4.026,0,0,1-1.7-.889.28.28,0,0,1,0-.394" transform="translate(-58.703 -52.617)" fill="#b7184e"/>
          <path id="Path_40616" data-name="Path 40616" d="M2.572,70.384s18.834,14.172,19.179,62.064h-5.29S14.9,108.419,6.978,90.87A42.924,42.924,0,0,1,3.442,78.044Z" transform="translate(40.635 -34.315)" fill="#f0d0c6"/>
          <path id="Path_40617" data-name="Path 40617" d="M1.242,188.927a.277.277,0,0,1,.415-.086.3.3,0,0,1,.084-.048c1.223-.417,2.68-.783,3.754.157a6.372,6.372,0,0,1,1.679,3.087,8.331,8.331,0,0,1-1.117,6.8.289.289,0,0,1-.279.127,2.411,2.411,0,0,1-.949,1.086.276.276,0,0,1-.369-.07,1.35,1.35,0,0,1-.213.206.948.948,0,0,1-.943.123.752.752,0,0,1-.817-.028c-.534-.367-.387-1.014-.287-1.542a9.785,9.785,0,0,0,.165-2.1,9.976,9.976,0,0,0-.622-3.178c-.023.175-.045.349-.068.524a11.909,11.909,0,0,1-.217,1.592.682.682,0,0,1-.889.523c-.407-.172-.427-.72-.477-1.078a9.809,9.809,0,0,1,1.149-6.1" transform="translate(56.245 -91.832)" fill="#f0d0c6"/>
          <path id="Path_40618" data-name="Path 40618" d="M1.961,183.065a14.96,14.96,0,0,1,5.475-.384.574.574,0,0,1,.557.557.56.56,0,0,1-.557.557,14.1,14.1,0,0,0-5.179.344.557.557,0,0,1-.3-1.073" transform="translate(54.91 -89.016)" fill="#1b1b28"/>
          <path id="Path_40619" data-name="Path 40619" d="M3.552,180.65a1.392,1.392,0,0,1,0,2.783,1.392,1.392,0,0,1,0-2.783" transform="translate(57.677 -88.074)" fill="#1b1b28"/>
          <path id="Path_40620" data-name="Path 40620" d="M90.745,361.613l-3.434.442s-4.691,1.021-13.966.107a.833.833,0,0,1-.707-1.107c.738-1.952,3.842-2.356,7.033-3.272a14.457,14.457,0,0,0,4.738-2.131l6.748-.168c.005.011.005.022.011.033.9,2.74-.422,6.1-.422,6.1" transform="translate(-64.973 -173.312)" fill="#42255b"/>
          <path id="Path_40621" data-name="Path 40621" d="M88.107,357.925a.284.284,0,0,1,.381.1l.446.751a.278.278,0,1,1-.48.281l-.447-.752a.282.282,0,0,1,.1-.381" transform="translate(-70.348 -174.485)" fill="#fff"/>
          <path id="Path_40622" data-name="Path 40622" d="M91.156,359.2a.279.279,0,0,1,.381-.1.316.316,0,0,1,.128.167l.229.607a.278.278,0,0,1-.409.314.316.316,0,0,1-.128-.166l-.229-.608a.28.28,0,0,1,.028-.214" transform="translate(-74.893 -175.056)" fill="#fff"/>
          <path id="Path_40623" data-name="Path 40623" d="M93.781,359.826a.278.278,0,0,1,.508.067c.035.159.07.319.105.479a.3.3,0,0,1-.028.215.279.279,0,0,1-.381.1.281.281,0,0,1-.128-.167l-.105-.479a.294.294,0,0,1,.028-.214" transform="translate(-78.74 -175.362)" fill="#fff"/>
          <path id="Path_40624" data-name="Path 40624" d="M61.53,172.743l13.349,1.338v9.03c-3.2,31.148-7.612,83.28-7.612,83.28a6.149,6.149,0,0,1-6.748.168C55.14,214.3,61.53,172.743,61.53,172.743" transform="translate(-41.085 -84.219)" fill="#f0d0c6"/>
          <path id="Path_40625" data-name="Path 40625" d="M40.893,356.826s2.957,4.206,1.983,5.81-8.785,1.724-10.134.342,1.653-6.061,1.653-6.061Z" transform="translate(4.032 -173.966)" fill="#42255b"/>
          <path id="Path_40626" data-name="Path 40626" d="M40.308,358.88a10.092,10.092,0,0,0,1.881-.119.287.287,0,0,1,.342.194.281.281,0,0,1-.194.342,10.849,10.849,0,0,1-2.029.139.278.278,0,0,1,0-.557" transform="translate(0.65 -174.907)" fill="#fff"/>
          <path id="Path_40627" data-name="Path 40627" d="M40.68,361.062l1.6-.064a.281.281,0,0,1,.278.278.284.284,0,0,1-.278.278l-1.6.064a.281.281,0,0,1-.278-.278.284.284,0,0,1,.278-.278" transform="translate(0.438 -176)" fill="#fff"/>
          <path id="Path_40628" data-name="Path 40628" d="M41.307,363.051l.929-.016a.281.281,0,0,1,.278.278.284.284,0,0,1-.278.278l-.929.016a.278.278,0,0,1,0-.557" transform="translate(0.164 -176.993)" fill="#fff"/>
          <path id="Path_40629" data-name="Path 40629" d="M39.886,266.957a7.346,7.346,0,0,1-6.5.137l-.6-9.1-5.169-73.523c-.45-4.827.307-7.479.847-11.962l16.045,1.278a433,433,0,0,1-1.646,45.83c-.949,10.578-1.752,25.084-2.518,39.02v.005c-.163,2.968-.3,5.448-.46,8.319" transform="translate(5.039 -84.103)" fill="#f0d0c6"/>
          <path id="Path_40630" data-name="Path 40630" d="M16.094,211.484c1.331,2.606,4.921,3.573,8.12,4.1a97,97,0,0,0,32.507.145c2.69-.469,5.7-1.308,6.823-3.506.649-1.275.425-2.74.341-4.144-.022-.4-.05-.816-.073-1.241-.022-.369-.05-.744-.072-1.124-.124-2.019-.269-4.205-.431-6.521-.028-.369-.056-.744-.084-1.118-.168-2.36-.364-4.843-.582-7.4-.034-.369-.067-.738-.1-1.113-.2-2.259-.419-4.58-.665-6.918q-.059-.553-.117-1.107c-.28-2.617-.587-5.256-.934-7.885-.05-.369-.095-.733-.151-1.1-.33-2.472-.694-4.921-1.091-7.321-.061-.369-.123-.732-.184-1.1-.414-2.411-.867-4.765-1.353-7.019-.078-.363-.157-.721-.235-1.079-.386-1.711-.8-3.366-1.23-4.943a100.745,100.745,0,0,1-27.715-.817q-1.09,2.584-2.1,5.458c-.123.352-.246.7-.369,1.062-.7,2.036-1.359,4.155-2,6.336-.106.358-.207.716-.307,1.074-.615,2.159-1.2,4.368-1.751,6.6-.089.363-.179.722-.269,1.085-.676,2.8-1.314,5.631-1.9,8.45-.078.363-.151.732-.223,1.1-.509,2.472-.984,4.932-1.421,7.343-.067.369-.134.732-.2,1.1-.537,3.02-1.023,5.95-1.454,8.729-.056.369-.112.738-.168,1.1-.3,1.985-.575,3.887-.822,5.676-.05.375-.1.749-.151,1.113,0,.016-.006.033-.006.05a8.278,8.278,0,0,0,.369,4.921" transform="translate(-8.247 -73.271)" fill="#fdc20b"/>
          <path id="Path_40631" data-name="Path 40631" d="M15.881,258.944q4.488,1.175,9.076,1.907a98.666,98.666,0,0,0,39.006-1.577c-.023-.369-.05-.744-.073-1.124q-4.672,1.157-9.445,1.851a97.245,97.245,0,0,1-38.413-2.17c-.051.375-.1.75-.151,1.113" transform="translate(-8.398 -125.702)" fill="#ffedbb"/>
          <path id="Path_40632" data-name="Path 40632" d="M16.863,245.191q3.045.6,6.118,1.018a116.059,116.059,0,0,0,40.488-1.544c-.028-.369-.056-.744-.084-1.118-3.311.727-6.649,1.314-10.016,1.739a114.84,114.84,0,0,1-36.339-1.2c-.056.369-.112.738-.168,1.1" transform="translate(-8.406 -118.738)" fill="#ffedbb"/>
          <path id="Path_40633" data-name="Path 40633" d="M18.162,226.528q3.548.806,7.141,1.365a110.066,110.066,0,0,0,37.178-.576c-.034-.369-.067-.738-.1-1.113-2.829.542-5.687.968-8.55,1.275a108.617,108.617,0,0,1-35.466-2.047c-.067.369-.134.733-.2,1.1" transform="translate(-8.084 -109.907)" fill="#ffedbb"/>
          <path id="Path_40634" data-name="Path 40634" d="M19.657,210.061q3.355.729,6.755,1.258a113.8,113.8,0,0,0,35.175-.062q-.058-.553-.117-1.107-4.093.663-8.237,1.013a112.483,112.483,0,0,1-33.353-2.2c-.078.363-.151.733-.223,1.1" transform="translate(-7.957 -101.878)" fill="#ffedbb"/>
          <path id="Path_40635" data-name="Path 40635" d="M21.708,191.444c2.366.626,4.754,1.163,7.158,1.594a91.813,91.813,0,0,0,31.6.157c-.05-.369-.1-.733-.151-1.1-2.527.436-5.077.76-7.634.973a90.609,90.609,0,0,1-30.7-2.712c-.09.363-.179.722-.269,1.085" transform="translate(-7.883 -92.807)" fill="#ffedbb"/>
          <path id="Path_40636" data-name="Path 40636" d="M24.131,176.451q2.449.52,4.916.912a99.6,99.6,0,0,0,30.579.112c-.061-.369-.123-.733-.184-1.1-2.349.358-4.7.637-7.069.822a98.41,98.41,0,0,1-27.933-1.823c-.106.358-.207.716-.307,1.074" transform="translate(-8.287 -85.503)" fill="#ffedbb"/>
          <path id="Path_40637" data-name="Path 40637" d="M27.132,162c1.471.3,2.942.548,4.424.766a85.53,85.53,0,0,0,27.229-.447c-.078-.363-.157-.722-.235-1.079-2.063.369-4.144.66-6.229.872A83.987,83.987,0,0,1,27.5,160.94c-.123.352-.246.7-.369,1.062" transform="translate(-8.984 -78.464)" fill="#ffedbb"/>
        </g>
      </g>
    </g>
  </g>
</svg>
