<svg xmlns="http://www.w3.org/2000/svg" viewBox="0 0 31.38 32.1"><g id="Layer_2" data-name="Layer 2"><g id="Group_4120" data-name="Group 4120"><path id="Path_5149" data-name="Path 5149" d="M2.07,23.47a15.67,15.67,0,1,1,8.08,6.9,4.74,4.74,0,0,0-3.09-.11L1,32.1l1.49-4.93a4.73,4.73,0,0,0-.38-3.7" style="fill:#f58800"/><path id="Path_5150" data-name="Path 5150" d="M15.35,7.22l-1.61,5a.7.7,0,0,1-.65.47H7.86a.67.67,0,0,0-.4,1.22L11.69,17a.66.66,0,0,1,.25.75l-1.62,5a.69.69,0,0,0,.44.86.67.67,0,0,0,.61-.1l4.22-3.07a.69.69,0,0,1,.8,0l4.24,3.07a.68.68,0,0,0,1-.76l-1.61-5A.66.66,0,0,1,20.3,17l4.23-3.07a.67.67,0,0,0-.4-1.22H18.9a.68.68,0,0,1-.64-.47l-1.62-5a.67.67,0,0,0-.85-.44.69.69,0,0,0-.44.44" style="fill:#fff"/></g></g></svg>