<svg xmlns="http://www.w3.org/2000/svg" xmlns:xlink="http://www.w3.org/1999/xlink" width="61" height="61" viewBox="0 0 61 61">
  <defs>
    <clipPath id="clip-path">
      <circle id="Ellipse_325" data-name="Ellipse 325" cx="30.5" cy="30.5" r="30.5" transform="translate(918 2631)" fill="#a4a4b6"/>
    </clipPath>
    <clipPath id="clip-path-2">
      <rect id="Rectangle_7793" data-name="Rectangle 7793" width="57.792" height="174.054" fill="none"/>
    </clipPath>
  </defs>
  <g id="Group_13117" data-name="Group 13117" transform="translate(-918 -2631)">
    <circle id="Ellipse_324" data-name="Ellipse 324" cx="30.5" cy="30.5" r="30.5" transform="translate(918 2631)" fill="#d8d8ff"/>
    <g id="Mask_Group_3828" data-name="Mask Group 3828" clip-path="url(#clip-path)">
      <g id="Group_13108" data-name="Group 13108" transform="translate(919.604 2643.444)">
        <g id="Group_13107" data-name="Group 13107" clip-path="url(#clip-path-2)">
          <path id="Path_40243" data-name="Path 40243" d="M62.47,1.359a12.346,12.346,0,0,1,6.394,9.077c.223,1.593.126,3.214.238,4.819a8.275,8.275,0,0,0,1.444,4.531c.593.768,1.384,1.356,2.037,2.074a3.427,3.427,0,0,1,1.064,2.61c-.176,1.417-1.693,2.487-1.588,3.912.07.952.848,1.673,1.351,2.485a5.41,5.41,0,0,1-1.49,6.862,7.063,7.063,0,0,1-7.294.455A10.3,10.3,0,0,1,59.8,32.423a19.5,19.5,0,0,1-.932-7.594c.118-2.564.513-5.108.725-7.666.189-2.276.2-4.7-.94-6.676-.981-1.7-2.677-2.837-4.189-4.09-.974-.807-4.139-3.7-2.8-5.166C52.315.51,53.939.305,54.85.158A12.582,12.582,0,0,1,58.543.116,12,12,0,0,1,62.47,1.359" transform="translate(-28.339 0)" fill="#51352f"/>
          <path id="Path_40244" data-name="Path 40244" d="M29.23,14.106a26.884,26.884,0,0,1-1.186,5.736,31.777,31.777,0,0,1-2.207,3.847,7.473,7.473,0,0,0-1.259,4.187c.133,1.916,1.454,3.776.906,5.616-.517,1.738-2.48,2.632-3.348,4.225a4.429,4.429,0,0,0,.6,4.793,6.2,6.2,0,0,0,4.514,2.1,10.519,10.519,0,0,0,4.942-1.154,12.778,12.778,0,0,0,5.09-4.188,8.956,8.956,0,0,0,1.571-6.319c-.541-3.526-3.388-6.192-4.993-9.377a14.167,14.167,0,0,1-1.228-9.08,14.071,14.071,0,0,0,.534-3.273c-.028-.714-.3-2.284-1.3-2.164-1.748.211-2.412,3.739-2.638,5.056" transform="translate(-11.968 -4.992)" fill="#51352f"/>
          <path id="Path_40245" data-name="Path 40245" d="M99.328,274.221l-6.152,1.233c1.47,12.488,5.147,26.731,9.263,42.026l3.792-.76c-3.793-18.395-.72-29.5-6.9-42.5" transform="translate(-51.438 -151.384)" fill="#ffb99f"/>
          <path id="Path_40246" data-name="Path 40246" d="M110.082,356.256q.828,3.135,1.69,6.333l3.792-.76c-.423-2.053-.757-4.011-1.032-5.9-.22.068-.394.117-.465.137a9.2,9.2,0,0,1-3.985.187" transform="translate(-60.771 -196.493)" fill="#cc6d17"/>
          <path id="Path_40247" data-name="Path 40247" d="M55.085,97.691,56.1,73.065a4.9,4.9,0,0,0-3.909-5l-6.045-1.241L40.1,68.065a4.9,4.9,0,0,0-3.909,5l1.015,24.626L31.66,112.137H60.633Z" transform="translate(-17.478 -36.89)" fill="#ffb99f"/>
          <path id="Path_40248" data-name="Path 40248" d="M39.05,215.184c2.267-11.885,5.87-24.5,6.786-37.556L33.826,167.3c-3.876,11.782-2.682,28.214-1.038,47.493Z" transform="translate(-17.244 -92.359)" fill="#ffb99f"/>
          <path id="Path_40249" data-name="Path 40249" d="M85.445,218.848c-.863-12.068-.621-25.181-3.093-38.038l-14.26-6.893c-.719,12.382,4.658,27.956,11.2,46.165Z" transform="translate(-37.555 -96.01)" fill="#ffb99f"/>
          <path id="Path_40250" data-name="Path 40250" d="M39.188,273.714l-6.262-.389c-2.605,13.665-.89,27.219-.842,43.057l3.893.242c1.061-18.751,6.82-29.327,3.211-42.91" transform="translate(-17.381 -150.889)" fill="#ffb99f"/>
          <path id="Path_40251" data-name="Path 40251" d="M31.8,134.505s-5.456,12.064-6.58,16.757c-1.493,6.229-3.45,21.293-3.348,20.672a55.58,55.58,0,0,0,39.549-1.467s-2.354-10.977-5.344-20.409a150.553,150.553,0,0,0-6.333-16.548Z" transform="translate(-12.074 -73.705)" fill="#5483a3"/>
          <path id="Path_40252" data-name="Path 40252" d="M61.386,168.978c-.022-.1-.046-.2-.071-.312a52.751,52.751,0,0,1-18.265,4.152l-4.807-10.2a2.645,2.645,0,0,1,.075-3.03c.61-1.219,1.231-2.477,1.853-3.735s1.236-2.5,1.844-3.718c.333-.2.649-.663.62-1.74-.051-1.912-.1-3.876-.143-5.84-.045-1.913-.09-3.825-.139-5.688q1.5-.021,3.055-.154l-.035.027a9.127,9.127,0,0,0,5.412,3.064,17.245,17.245,0,0,0,2.8.318l-.122-.319a16.691,16.691,0,0,1-2.615-.3,8.91,8.91,0,0,1-5.112-2.817,51.563,51.563,0,0,0,6.105-.954l-.121-.292c-1.252.27-2.487.495-3.7.668a9.753,9.753,0,0,1-.326-4.25.17.17,0,0,0,0-.05l-.307.017a10.072,10.072,0,0,0,.323,4.323q-1.893.258-3.716.354l.021-4.41a.148.148,0,0,0-.024-.079l-.274.015a.15.15,0,0,0-.013.062l-.021,4.43c-.634.03-1.263.049-1.883.049h-.045a38.181,38.181,0,0,1-3.906-.2,21.91,21.91,0,0,0,.187-4.022l-.311.017a21.571,21.571,0,0,1-.186,3.972,33.965,33.965,0,0,1-3.653-.614,14.591,14.591,0,0,1,1.394-3.223l-.372.021a14.926,14.926,0,0,0-1.327,3.132q-1.254-.295-2.461-.684l-.125.287a32.383,32.383,0,0,0,4.109,1.034,9.737,9.737,0,0,1-6.041,3.5l-.138.333a10.04,10.04,0,0,0,6.529-3.77,36.3,36.3,0,0,0,4.5.489,101.438,101.438,0,0,0,.245,11.423,3.122,3.122,0,0,0,.326,1.36,1.27,1.27,0,0,0,1.032.647c.019,0,.039,0,.058,0-.566,1.132-1.139,2.292-1.713,3.455-.621,1.258-1.242,2.515-1.852,3.734a2.935,2.935,0,0,0-.079,3.3l4.751,10.08a52.6,52.6,0,0,1-20.2-3.083c-.015.108-.029.212-.043.314a52.715,52.715,0,0,0,18.062,3.166q1.027,0,2.056-.04c.1,0,.194-.01.291-.014l.814,1.727.334-.021-.812-1.722a52.959,52.959,0,0,0,18.176-4.18m-20.6-17.518a2.887,2.887,0,0,1-.284-1.226,101.224,101.224,0,0,1-.245-11.387q.4.015.8.023a36.824,36.824,0,0,0,.47,12.85.156.156,0,0,0,.152.123.143.143,0,0,0,.033,0,.156.156,0,0,0,.12-.185,36.515,36.515,0,0,1-.461-12.781c.127,0,.254,0,.381,0h.046c.082,0,.165,0,.247,0,.049,1.864.095,3.777.139,5.69.047,1.964.093,3.929.143,5.841.016.606-.075,1.362-.6,1.522a.886.886,0,0,1-.941-.467" transform="translate(-12.402 -73.868)" fill="#3e6b7f"/>
          <path id="Path_40253" data-name="Path 40253" d="M62.032,139.942a.983.983,0,0,0,1.15.192.935.935,0,0,0,.436-1.071,1.284,1.284,0,0,0-1.069-.74c-.453-.024-.763.482-.779.885a1.019,1.019,0,0,0,.263.735" transform="translate(-34.099 -76.36)" fill="#3e6b7f"/>
          <path id="Path_40254" data-name="Path 40254" d="M37.239,353.749c-.3.077-.594.146-.9.2a13.335,13.335,0,0,1-3.779-.168c.062,2.288.108,4.618.115,7l3.893.242c.146-2.57.381-4.982.667-7.273" transform="translate(-17.978 -195.287)" fill="#cc6d17"/>
          <path id="Path_40255" data-name="Path 40255" d="M18.563,366.323a3.5,3.5,0,0,1-3.971,0,11.482,11.482,0,0,1-4.759,2.819c-2.63.638-7.488.592-9.247,3.308a3.048,3.048,0,0,0-.459,2.671h21.19a11.69,11.69,0,0,0-2.754-8.8" transform="translate(0 -202.229)" fill="#f4a548"/>
          <path id="Path_40256" data-name="Path 40256" d="M.114,378.586l4.043-.2a12.9,12.9,0,0,1,2.505.039,7.738,7.738,0,0,0-.642-2.173,9.052,9.052,0,0,0-1.041-1.723c-1.794.406-3.485,1.072-4.378,2.452a3.468,3.468,0,0,0-.573,1.607l.086,0" transform="translate(-0.015 -206.76)" fill="#ffe9cc"/>
          <path id="Path_40257" data-name="Path 40257" d="M18.648,374.289a.155.155,0,0,1-.15-.114,4.565,4.565,0,0,0-.9-1.7.156.156,0,1,1,.238-.2,4.872,4.872,0,0,1,.961,1.812.156.156,0,0,1-.108.192.152.152,0,0,1-.042.006" transform="translate(-9.695 -205.487)" fill="#ffe9cc"/>
          <path id="Path_40258" data-name="Path 40258" d="M22.239,373.344a.156.156,0,0,1-.151-.12,2.973,2.973,0,0,0-1.18-1.733.156.156,0,1,1,.178-.256,3.29,3.29,0,0,1,1.3,1.917.155.155,0,0,1-.116.188.16.16,0,0,1-.036,0" transform="translate(-11.505 -204.925)" fill="#ffe9cc"/>
          <path id="Path_40259" data-name="Path 40259" d="M25.125,372.159a.156.156,0,0,1-.138-.084,5.967,5.967,0,0,0-.586-.973,1.894,1.894,0,0,0-.847-.642.156.156,0,1,1,.1-.295,2.2,2.2,0,0,1,.992.744,6.223,6.223,0,0,1,.618,1.023.156.156,0,0,1-.066.21.158.158,0,0,1-.072.017" transform="translate(-12.944 -204.345)" fill="#ffe9cc"/>
          <path id="Path_40260" data-name="Path 40260" d="M28.188,371.307a.156.156,0,0,1-.15-.112,2.827,2.827,0,0,0-1.463-1.724.156.156,0,0,1,.135-.281,3.144,3.144,0,0,1,1.627,1.918.156.156,0,0,1-.106.193.168.168,0,0,1-.044.006" transform="translate(-14.622 -203.803)" fill="#ffe9cc"/>
          <path id="Path_40261" data-name="Path 40261" d="M30.943,369.64a.156.156,0,0,1-.142-.091,5.956,5.956,0,0,0-.55-1.032,1.877,1.877,0,0,0-.845-.693.156.156,0,0,1,.108-.292,2.187,2.187,0,0,1,.99.8,6.209,6.209,0,0,1,.58,1.085.156.156,0,0,1-.142.22" transform="translate(-16.178 -202.891)" fill="#ffe9cc"/>
          <path id="Path_40262" data-name="Path 40262" d="M15.149,371.323a2.5,2.5,0,0,0,1.148,1.136,2.312,2.312,0,0,0,.937.179,5.356,5.356,0,0,0,1.063-.13,11.462,11.462,0,0,0,4.235-1.685,7.137,7.137,0,0,0,2.628-3.161,3.369,3.369,0,0,1-.351.033,6.88,6.88,0,0,1-2.453,2.871,11.154,11.154,0,0,1-4.122,1.637,3.054,3.054,0,0,1-1.813-.029,2.2,2.2,0,0,1-1-1,4.748,4.748,0,0,1-.325-.8l-.311.049a5.113,5.113,0,0,0,.361.9" transform="translate(-8.164 -202.968)" fill="#e08428"/>
          <path id="Path_40263" data-name="Path 40263" d="M40.774,372.535a6.3,6.3,0,0,0-3.675,5.73.156.156,0,0,0,.312,0,5.99,5.99,0,0,1,3.489-5.446c-.041-.094-.082-.189-.126-.284" transform="translate(-20.481 -205.658)" fill="#e08428"/>
          <path id="Path_40264" data-name="Path 40264" d="M11.308,380.9a82.274,82.274,0,0,1-10.861-.371,2.987,2.987,0,0,0-.32,2.436h21.19a7.974,7.974,0,0,0,.129-2.268c-2.3,0-6.573.018-10.139.2" transform="translate(-0.001 -210.069)" fill="#ffe9cc"/>
          <path id="Path_40265" data-name="Path 40265" d="M30.679,383.078l-13.833.143a.156.156,0,0,0,0,.311h0l13.814-.142c.006-.1.012-.2.015-.312" transform="translate(-9.215 -211.479)" fill="#3e6b7f"/>
          <path id="Path_40266" data-name="Path 40266" d="M98.984,368.32a3.574,3.574,0,0,1-4.058.016,11.73,11.73,0,0,1-4.851,2.9c-2.685.663-7.65.636-9.436,3.419a3.115,3.115,0,0,0-.458,2.73l21.653-.087a11.945,11.945,0,0,0-2.85-8.979" transform="translate(-44.191 -203.331)" fill="#f4a548"/>
          <path id="Path_40267" data-name="Path 40267" d="M80.163,380.994l4.13-.22a13.171,13.171,0,0,1,2.56.03,7.908,7.908,0,0,0-.665-2.218,9.228,9.228,0,0,0-1.07-1.756c-1.831.422-3.557,1.11-4.464,2.523A3.547,3.547,0,0,0,80.075,381l.088,0" transform="translate(-44.205 -208.029)" fill="#ffe9cc"/>
          <path id="Path_40268" data-name="Path 40268" d="M99.063,376.552a.159.159,0,0,1-.154-.116,4.657,4.657,0,0,0-.925-1.728.159.159,0,1,1,.242-.207,4.986,4.986,0,0,1,.99,1.847.16.16,0,0,1-.11.2.141.141,0,0,1-.043.006" transform="translate(-54.071 -206.713)" fill="#ffe9cc"/>
          <path id="Path_40269" data-name="Path 40269" d="M102.729,375.572a.159.159,0,0,1-.155-.122,3.042,3.042,0,0,0-1.213-1.767.159.159,0,0,1,.181-.262,3.363,3.363,0,0,1,1.341,1.954.159.159,0,0,1-.117.192.147.147,0,0,1-.037,0" transform="translate(-55.919 -206.132)" fill="#ffe9cc"/>
          <path id="Path_40270" data-name="Path 40270" d="M105.673,374.35a.159.159,0,0,1-.142-.085,6.176,6.176,0,0,0-.6-.992,1.936,1.936,0,0,0-.869-.653.159.159,0,0,1,.1-.3,2.252,2.252,0,0,1,1.016.756,6.377,6.377,0,0,1,.636,1.043.159.159,0,0,1-.067.215.154.154,0,0,1-.073.018" transform="translate(-57.387 -205.534)" fill="#ffe9cc"/>
          <path id="Path_40271" data-name="Path 40271" d="M108.8,373.466a.159.159,0,0,1-.153-.114,2.886,2.886,0,0,0-1.5-1.755.159.159,0,1,1,.137-.288,3.212,3.212,0,0,1,1.67,1.953.159.159,0,0,1-.107.2.155.155,0,0,1-.045.007" transform="translate(-59.098 -204.973)" fill="#ffe9cc"/>
          <path id="Path_40272" data-name="Path 40272" d="M111.608,371.752a.159.159,0,0,1-.146-.093,6.138,6.138,0,0,0-.566-1.052,1.916,1.916,0,0,0-.866-.7.159.159,0,0,1,.109-.3,2.236,2.236,0,0,1,1.015.818,6.343,6.343,0,0,1,.6,1.106.159.159,0,0,1-.078.211.154.154,0,0,1-.065.014" transform="translate(-60.685 -204.034)" fill="#ffe9cc"/>
          <path id="Path_40273" data-name="Path 40273" d="M95.49,373.485a2.555,2.555,0,0,0,1.177,1.156,2.362,2.362,0,0,0,.958.18,5.459,5.459,0,0,0,1.086-.138,11.7,11.7,0,0,0,4.321-1.739,7.291,7.291,0,0,0,2.672-3.24c-.115.017-.235.028-.358.034a7.029,7.029,0,0,1-2.5,2.943,11.385,11.385,0,0,1-4.205,1.69,3.111,3.111,0,0,1-1.853-.022,2.246,2.246,0,0,1-1.024-1.015,4.865,4.865,0,0,1-.336-.817l-.317.051a5.241,5.241,0,0,0,.373.917" transform="translate(-52.509 -204.095)" fill="#e08428"/>
          <path id="Path_40274" data-name="Path 40274" d="M121.693,374.652a6.439,6.439,0,0,0-3.731,5.87.159.159,0,0,0,.318,0,6.121,6.121,0,0,1,3.543-5.579c-.042-.1-.085-.193-.13-.29" transform="translate(-65.121 -206.827)" fill="#e08428"/>
          <path id="Path_40275" data-name="Path 40275" d="M91.6,383.333A84.027,84.027,0,0,1,80.5,383a3.051,3.051,0,0,0-.317,2.491l21.653-.087a8.158,8.158,0,0,0,.122-2.318c-2.352,0-6.716.045-10.359.25" transform="translate(-44.192 -211.434)" fill="#ffe9cc"/>
          <path id="Path_40276" data-name="Path 40276" d="M111.393,385.414l-14.134.2a.159.159,0,0,0,0,.318h0l14.115-.2q.009-.15.014-.318" transform="translate(-53.606 -212.768)" fill="#3e6b7f"/>
          <path id="Path_40277" data-name="Path 40277" d="M60.884,221.373l-2-.088.425-9.662a31.5,31.5,0,0,0-.153-6.42,9.94,9.94,0,0,0-2.491-5.374,5.55,5.55,0,0,0-5.1-1.654,6.018,6.018,0,0,0-3.717,3.286,16.286,16.286,0,0,0-1.394,5.429,68.707,68.707,0,0,0-.349,13.655l-2,.149a70.8,70.8,0,0,1,.359-14.054,18.467,18.467,0,0,1,1.595-6.084,8.007,8.007,0,0,1,5.022-4.327,7.588,7.588,0,0,1,7.005,2.186,11.741,11.741,0,0,1,3.048,6.463,33.008,33.008,0,0,1,.177,6.833Z" transform="translate(-24.24 -108.229)" fill="#f6d198"/>
          <path id="Path_40278" data-name="Path 40278" d="M21.915,233.59c4.105.426,12.3,1.362,22.659,2.995a3.126,3.126,0,0,1,2.759,3.05l-.762,25.5a2.853,2.853,0,0,1-2.085,2.6c-4.131,1.3-14.414,3.15-29.432-3.542a2.956,2.956,0,0,1-1.812-3.252l5.259-25.08a3.066,3.066,0,0,1,3.414-2.268" transform="translate(-7.279 -128.943)" fill="#ffe9cc"/>
          <path id="Path_40279" data-name="Path 40279" d="M53.688,218.688l-1.988-.263,1.27-9.587a31.481,31.481,0,0,0,.411-6.408,9.941,9.941,0,0,0-2.01-5.572,5.552,5.552,0,0,0-4.933-2.1,6.02,6.02,0,0,0-3.991,2.947,16.294,16.294,0,0,0-1.865,5.285,68.74,68.74,0,0,0-1.546,13.572l-2.005-.027a70.744,70.744,0,0,1,1.591-13.969,18.46,18.46,0,0,1,2.122-5.921,8.007,8.007,0,0,1,5.382-3.869,7.585,7.585,0,0,1,6.786,2.793,11.746,11.746,0,0,1,2.47,6.7,33.013,33.013,0,0,1-.423,6.822Z" transform="translate(-20.443 -106.384)" fill="#ffe9cc"/>
          <path id="Path_40280" data-name="Path 40280" d="M48.07,248.157l-17.209-2.086A2.2,2.2,0,0,0,28.415,248c-.484,4.166-1.464,8.346-2.166,12.459q-.378,2.211-.755,4.423a5.19,5.19,0,0,0,0,2.575c.526,1.5,2.25,2.17,3.793,2.572a46.777,46.777,0,0,0,17.832,1.107,2.01,2.01,0,0,0,1.206-.447,2.057,2.057,0,0,0,.422-1.351L50,250.485a2.2,2.2,0,0,0-1.929-2.328" transform="translate(-13.982 -135.835)" fill="#ba6006"/>
          <path id="Path_40281" data-name="Path 40281" d="M48.323,278.708a2.059,2.059,0,0,0,.422-1.35l1.115-16.772a3.309,3.309,0,0,0-1.708,1.2,8.261,8.261,0,0,0-1.43,3.528,10.089,10.089,0,0,1-1.283,3.6,3.2,3.2,0,0,1-3.287,1.477,3.363,3.363,0,0,1-2.092-2.232,21.793,21.793,0,0,1-.629-3.115,4.787,4.787,0,0,0-1.39-2.8,2.217,2.217,0,0,0-2.894-.091,2.654,2.654,0,0,0-.479,2.446,25.72,25.72,0,0,1,.655,2.515,3.993,3.993,0,0,1-7.3,2.658c-.633-.954-.844-2.148-1.454-3.107-.112.605-.222,1.21-.325,1.813l-.755,4.423a5.188,5.188,0,0,0,0,2.575c.527,1.5,2.251,2.17,3.793,2.572a46.774,46.774,0,0,0,17.831,1.107,2.008,2.008,0,0,0,1.206-.447" transform="translate(-13.982 -143.857)" fill="#cc6d17"/>
          <path id="Path_40282" data-name="Path 40282" d="M37.454,252.584c-2.9,0-2.908,4.512,0,4.512s2.908-4.512,0-4.512" transform="translate(-19.473 -139.439)" fill="#f4a548"/>
          <path id="Path_40283" data-name="Path 40283" d="M21.606,102.562l7.888-23.913a2.988,2.988,0,1,0-5.675-1.872l-8.107,24.578s-.623,1.857-.134,2.778l16.935,23.184,2.916-1.944Z" transform="translate(-8.496 -41.252)" fill="#ffb99f"/>
          <path id="Path_40284" data-name="Path 40284" d="M53.5,188.492s-.511,3.534.839,4.676,3.063.26,4.023-.181,3.3-3.922-1.945-6.438l-2.752-1.011Z" transform="translate(-29.48 -102.426)" fill="#ffb99f"/>
          <path id="Path_40285" data-name="Path 40285" d="M87.594,101.355,79.487,76.777a2.988,2.988,0,1,0-5.675,1.872L81.7,102.562,67.878,125.373l2.916,1.944,16.935-23.184c.488-.921-.134-2.778-.134-2.778" transform="translate(-37.472 -41.252)" fill="#ffb99f"/>
          <path id="Path_40286" data-name="Path 40286" d="M63.135,187.794s-3.1.98-3.748,2.779,1.946,5.684,4.477,5.216,2.187-6.052,2.187-6.052Z" transform="translate(-32.729 -103.672)" fill="#ffb99f"/>
          <path id="Path_40287" data-name="Path 40287" d="M45.8,68.563c-4.186-.727-10.165-1.74-10.165-1.74s-5.98,1.013-10.166,1.74-5.847,2.8-12.854,22.942a9.688,9.688,0,0,0,10.366,3.447l3.246-12.7s-1.829,14.339.469,15.437a41.353,41.353,0,0,0,6.212.93,25.928,25.928,0,0,0,5.454,0,41.371,41.371,0,0,0,6.212-.93c2.3-1.1.638-15.839.638-15.839l3.478,12.924c6.488,1.142,9.568-2.837,9.568-2.837C51.246,71.8,49.982,69.289,45.8,68.563" transform="translate(-6.962 -36.89)" fill="#f4a548"/>
          <path id="Path_40288" data-name="Path 40288" d="M57.851,66.823s-2.27.384-4.99.849a9.3,9.3,0,0,0,.515,1.039A6.037,6.037,0,0,0,55.408,70.9a5.019,5.019,0,0,0,5.529-.077A6.406,6.406,0,0,0,63,67.7c-2.793-.478-5.153-.878-5.153-.878" transform="translate(-29.182 -36.89)" fill="#ba6006"/>
          <path id="Path_40289" data-name="Path 40289" d="M22.977,123.458l.5-1.949a14.988,14.988,0,0,1-9.412-2.38,10.339,10.339,0,0,1-.91-.669c-.177.506-.357,1.021-.542,1.551a9.688,9.688,0,0,0,10.366,3.447" transform="translate(-6.962 -65.396)" fill="#ba6006"/>
          <path id="Path_40290" data-name="Path 40290" d="M95.864,122.383c-1.116.2-2.475-.027-3.533.309-.018.005-.034.013-.052.02l.387,1.44c6.488,1.142,9.568-2.838,9.568-2.838-.151-.435-.3-.858-.445-1.277a15.725,15.725,0,0,1-2.291,1.247,16.092,16.092,0,0,1-3.634,1.1" transform="translate(-50.942 -66.267)" fill="#ba6006"/>
          <path id="Path_40291" data-name="Path 40291" d="M61.512,97.289a42.017,42.017,0,0,0-13.478-.049A1.271,1.271,0,0,0,47,98.409a153.8,153.8,0,0,0,.006,16.126c1.307.215,3.2.434,4.762.6a25.989,25.989,0,0,0,5.454,0c1.511-.16,3.341-.371,4.642-.579,1.007-4.766.834-13.12.735-16.052a1.273,1.273,0,0,0-1.09-1.214" transform="translate(-25.829 -53.403)" fill="#ffe9cc"/>
          <path id="Path_40292" data-name="Path 40292" d="M62.641,109.335a6.763,6.763,0,0,0-1.239-3.092,3.284,3.284,0,0,0-1.076-.843c.018-.019.038-.036.055-.056a2.776,2.776,0,0,0-.748-4.1c-1.473-.827-2.669.633-2.859,2a2.587,2.587,0,0,0,.822,2.441c.021.016.043.028.064.043a5.471,5.471,0,0,0-1.114,1.584,22.48,22.48,0,0,0-1.469,3.5,4.579,4.579,0,0,0-1.06-1.88,4.407,4.407,0,0,0,.959-2.179,6.047,6.047,0,0,0-.048-2.7,3.489,3.489,0,0,0-1.579-2.128,2.582,2.582,0,0,0-2.858.17,6.228,6.228,0,0,0-1.094,3.276,4.548,4.548,0,0,0,.623,2.99,4.375,4.375,0,0,0-.539.268c-.518,0-1.39,1.136-1.681,1.5a14.856,14.856,0,0,0-.934,1.328c0,.009,0,.018,0,.027,0,.177.008.352.011.524,0,.006,0,.012,0,.018.026,1.105.059,2.113.092,2.974v.019c0,.132.01.259.015.384,0,.02,0,.04,0,.06q.007.163.013.318c0,.029,0,.057,0,.086,0,.087.008.172.012.256,0,.039,0,.078,0,.116,0,.071.007.139.01.206,0,.042,0,.084.005.124,0,.056.005.109.008.162s0,.1.007.141v.018c1.307.215,3.2.434,4.762.6a25.989,25.989,0,0,0,5.454,0c1.511-.16,3.341-.371,4.642-.579a34.014,34.014,0,0,0,.554-4.1c0-.015,0-.03,0-.046q.021-.258.04-.518c0-.024,0-.047,0-.072q.017-.245.034-.493c0-.047.006-.093.009-.14.009-.144.018-.288.026-.433,0-.058.006-.116.009-.175q.011-.2.021-.4l.009-.212q.009-.183.017-.366c0-.082.006-.163.009-.244,0-.1.008-.2.011-.294-.005-.027-.009-.054-.014-.082" transform="translate(-25.871 -55.759)" fill="#f6d198"/>
          <path id="Path_40293" data-name="Path 40293" d="M61.483,71.5a10.044,10.044,0,0,0,1.525-2.265l-.322-.055a9.653,9.653,0,0,1-1.433,2.11,6.629,6.629,0,0,1-3.7,2.139A6.409,6.409,0,0,1,52.66,72.1a8.517,8.517,0,0,1-2.4-3l-.317.054a8.857,8.857,0,0,0,2.523,3.2,6.924,6.924,0,0,0,4.168,1.467,5.681,5.681,0,0,0,.963-.081A6.94,6.94,0,0,0,61.483,71.5" transform="translate(-27.573 -38.145)" fill="#e08428"/>
          <path id="Path_40294" data-name="Path 40294" d="M43.455,92.741a.155.155,0,0,0-.182.123L42.7,95.823a.156.156,0,0,0,.123.182.139.139,0,0,0,.03,0,.155.155,0,0,0,.152-.126l.573-2.959a.155.155,0,0,0-.123-.182" transform="translate(-23.571 -51.196)" fill="#e08428"/>
          <path id="Path_40295" data-name="Path 40295" d="M91.736,120.836a20.413,20.413,0,0,0,9.488-2.574l-.1-.3a20.079,20.079,0,0,1-9.466,2.564Z" transform="translate(-50.597 -65.122)" fill="#e08428"/>
          <path id="Path_40296" data-name="Path 40296" d="M14.411,116.409a23.775,23.775,0,0,0,10.323,2.767l.079-.31a23.885,23.885,0,0,1-10.3-2.757l-.105.3" transform="translate(-7.956 -64.098)" fill="#e08428"/>
          <path id="Path_40297" data-name="Path 40297" d="M84.123,94.7l.025,0a.156.156,0,0,0,.129-.178l-.508-3.186a.156.156,0,0,0-.307.049l.507,3.186a.156.156,0,0,0,.154.131" transform="translate(-46.075 -50.351)" fill="#e08428"/>
          <path id="Path_40298" data-name="Path 40298" d="M47.062,24.262c-6.45-.173-9.629-5.643-9.45-12.281S41.257.051,47.707.224,61.145,5.97,60.966,12.607s-7.455,11.827-13.9,11.654" transform="translate(-20.759 -0.121)" fill="#51352f"/>
          <path id="Path_40299" data-name="Path 40299" d="M54.742,11.253c-3.136-5.749-14.169-3.787-15.026.784-1.764,9.4-.425,13.262,2.189,15.483,3.024,2.571,5,2.243,5,7.644a3.77,3.77,0,0,0,6.947,0,32.548,32.548,0,0,1,2.368-12.575s-.182-8.965-1.475-11.336" transform="translate(-21.483 -4.255)" fill="#ffb99f"/>
          <path id="Path_40300" data-name="Path 40300" d="M57.46,34.536a.707.707,0,1,1-.707-.707.707.707,0,0,1,.707.707" transform="translate(-30.94 -18.675)"/>
          <path id="Path_40301" data-name="Path 40301" d="M56.986,34.657a.259.259,0,1,1-.259-.259.259.259,0,0,1,.259.259" transform="translate(-31.173 -18.989)" fill="#fff"/>
          <path id="Path_40302" data-name="Path 40302" d="M45.246,34.536a.707.707,0,1,1-.707-.707.707.707,0,0,1,.707.707" transform="translate(-24.197 -18.675)"/>
          <path id="Path_40303" data-name="Path 40303" d="M44.772,34.657a.259.259,0,1,1-.259-.259.259.259,0,0,1,.259.259" transform="translate(-24.43 -18.989)" fill="#fff"/>
          <path id="Path_40304" data-name="Path 40304" d="M44.325,28.69a2.315,2.315,0,0,0-2.88.142.466.466,0,0,0-.065.585.338.338,0,0,0,.51.074,1.659,1.659,0,0,1,1.209-.4,1.684,1.684,0,0,1,.628.172c.176.088.347.24.544.126a.366.366,0,0,0,.12-.115.462.462,0,0,0-.066-.585" transform="translate(-22.803 -15.598)" fill="#51352f"/>
          <path id="Path_40305" data-name="Path 40305" d="M54,28.69a2.961,2.961,0,0,1,3.3.142.417.417,0,0,1-.51.659A2.079,2.079,0,0,0,55.41,29.1a2.246,2.246,0,0,0-.721.17c-.2.085-.4.235-.625.122a.394.394,0,0,1-.137-.115A.42.42,0,0,1,54,28.69" transform="translate(-29.725 -15.598)" fill="#51352f"/>
          <path id="Path_40306" data-name="Path 40306" d="M49.208,42.517a2.505,2.505,0,0,1-1.175-.288.369.369,0,0,1,.344-.654,1.942,1.942,0,0,0,2.278-.422.369.369,0,1,1,.6.436,2.647,2.647,0,0,1-2.043.929" transform="translate(-26.408 -22.634)" fill="#c16b5b"/>
          <path id="Path_40307" data-name="Path 40307" d="M48.76,38.5a.093.093,0,0,1-.089-.067c-.175-.6.03-.808.233-.874a.893.893,0,0,1,.732.16.092.092,0,0,1,.03.127.094.094,0,0,1-.127.03.721.721,0,0,0-.578-.142c-.182.059-.22.276-.112.646a.093.093,0,0,1-.063.115.1.1,0,0,1-.026,0" transform="translate(-26.832 -20.719)" fill="#c16b5b"/>
          <path id="Path_40308" data-name="Path 40308" d="M78.039,36.691a2.438,2.438,0,0,1-3.333.683,2.439,2.439,0,0,1,.091-3.4,2.439,2.439,0,0,1,3.333-.683,2.438,2.438,0,0,1-.091,3.4" transform="translate(-40.885 -18.151)" fill="#ffb99f"/>
          <path id="Path_40309" data-name="Path 40309" d="M79.012,34.84a1.632,1.632,0,0,0-1.433.028,1.331,1.331,0,0,0-.548.426.812.812,0,0,0-.117.747,1.148,1.148,0,0,0,.394.465,1.108,1.108,0,0,1,.264.267.416.416,0,0,1-.534.586.185.185,0,0,0-.155.336.766.766,0,0,0,.322.069.781.781,0,0,0,.686-1.178,1.4,1.4,0,0,0-.35-.367.856.856,0,0,1-.282-.31.447.447,0,0,1,.073-.4.373.373,0,0,1,.67.04.661.661,0,0,1,.161.542.185.185,0,0,0,.152.212.142.142,0,0,0,.03,0,.184.184,0,0,0,.182-.155,1.022,1.022,0,0,0-.253-.851A.836.836,0,0,0,78,35.11a1.163,1.163,0,0,1,.841.057.716.716,0,0,1,.359.869.185.185,0,1,0,.336.155,1.081,1.081,0,0,0-.521-1.351" transform="translate(-42.384 -19.149)" fill="#c16b5b"/>
          <path id="Path_40310" data-name="Path 40310" d="M44.069,6.973A8.015,8.015,0,0,0,49.011,13.5c1.4.549,3.069.768,3.989,1.958.529.685.822,1.689,1.657,1.915s1.632-.533,2.044-1.3a7.9,7.9,0,0,0-.427-7.55,9.9,9.9,0,0,0-18.457,5.008c0,.627-.051,1.153.7.9a6.189,6.189,0,0,0,1.56-.953,10.414,10.414,0,0,0,2.495-2.664,9.994,9.994,0,0,0,1.5-3.836" transform="translate(-20.876 -1.995)" fill="#51352f"/>
        </g>
      </g>
    </g>
  </g>
</svg>
