<svg xmlns="http://www.w3.org/2000/svg" xmlns:xlink="http://www.w3.org/1999/xlink" width="418.588" height="124.301" viewBox="0 0 418.588 124.301">
  <defs>
    <clipPath id="clip-path">
      <rect id="Rectangle_751" data-name="Rectangle 751" width="418.588" height="124.301" transform="translate(0 0)" fill="none"/>
    </clipPath>
  </defs>
  <g id="Group_4130" data-name="Group 4130" opacity="0.11">
    <g id="Group_4129" data-name="Group 4129" clip-path="url(#clip-path)">
      <path id="Path_5159" data-name="Path 5159" d="M58.069,124.3c6.251,0,6.582-9.305.345-9.7l-.178-.011c0-.038,0-.077,0-.116A12.045,12.045,0,0,0,40.41,103.907a12.506,12.506,0,0,0-23.526,5.911c0,.37.019.736.052,1.1A14.562,14.562,0,0,0,.814,116.795,4.849,4.849,0,0,0,4.887,124.3Z" fill="#7bc7ff"/>
      <path id="Path_5160" data-name="Path 5160" d="M250.109,48.289c8.19,0,8.624-12.193.451-12.714l-.233-.014c0-.051,0-.1,0-.152a15.783,15.783,0,0,0-23.36-13.842,16.387,16.387,0,0,0-30.827,7.744c0,.486.025.966.067,1.441a19.075,19.075,0,0,0-21.123,7.7,6.353,6.353,0,0,0,5.335,9.835Z" fill="#7bc7ff"/>
      <path id="Path_5161" data-name="Path 5161" d="M348.668,76.99c-7.526,0-7.924-11.2-.414-11.683l.214-.013c0-.046,0-.093,0-.14A14.5,14.5,0,0,1,369.93,52.435a15.058,15.058,0,0,1,28.328,7.116c0,.446-.024.887-.062,1.324a17.533,17.533,0,0,1,19.411,7.077,5.838,5.838,0,0,1-4.9,9.038Z" fill="#7bc7ff"/>
    </g>
  </g>
</svg>
