<svg xmlns="http://www.w3.org/2000/svg" viewBox="0 0 72.17 172.71"><g id="Layer_2" data-name="Layer 2"><g id="Group_4120" data-name="Group 4120"><path d="M26.5,23.31A2.1,2.1,0,0,1,25,22.65L19.1,31.53a3.67,3.67,0,0,0,2.4.88,100.74,100.74,0,0,1,18.9,3.1,21.14,21.14,0,0,0,10.6,0C51.4,22.81,31.3,23.51,26.5,23.31Z" style="fill:#ffa683"/><path id="Path_5075" data-name="Path 5075" d="M43.5,20.51v6.4H33.8v-3.6s-6.4-1.5-6.1-7.3,3-8.6,4.5-9,8.5,2.4,8.7,2.8.9,6.5.9,6.5Z" style="fill:#ffa683"/><path id="Path_5076" data-name="Path 5076" d="M33.2,11.81s1.7-2.4,3.3-1.2.8,3.6-1.2,4.8c0,0,2,6.8,6,6.4A10.45,10.45,0,0,0,50,10.51C49.5,3.81,40.9-.79,36.2.11s-9.3,6.3-3,11.7" style="fill:#3c3c3b"/><path id="Path_5077" data-name="Path 5077" d="M50.1,6.31s5.2-6.7,10.5-.9,8.5,12.3,10.9,13.5-2,4.3-7.8,2.4-13.3-8.9-13.6-15" style="fill:#3c3c3b"/><path id="Path_5078" data-name="Path 5078" d="M33.7,26.91v-3.6s4,.2,5.7-1.4c0,0-1.2,2.8-3.8,2.8v2.2Z" style="fill:#ed7d5a"/><path id="Path_5079" data-name="Path 5079" d="M29.4,78.21s2.3,35.9,5.2,43.4S56,163.21,56,163.21l9.6-2.1L52,120.31c-.1,2.5-1.9-9.3,1.5-21.2a30.17,30.17,0,0,0-1.7-20.7l-23.9-.3" style="fill:#0b2a43"/><path id="Path_5080" data-name="Path 5080" d="M51.5,76.71s-.9,10-12.3,21.3c-11.6,11.4-16.1,19.1-16.1,19.1l-1.7,49.4H11.9s-5.6-52.1-5.5-53.9,15.9-35.8,17.8-38.8,27.3,2.9,27.3,2.9" style="fill:#123c5e"/><path id="Path_5081" data-name="Path 5081" d="M44.5,26.41s10.2.8,6.5,13.4c-4.1,13.9.6,36.1,1.5,38.4l-3.1,1.2a38.2,38.2,0,0,1-28.4-.6s8.1-17.9,2.3-27.3c-3.7-6-2.6-12.1,1.7-17.5,2.8-3.5,6.4-7.1,7.8-7.2Z" style="fill:#f58800"/><path id="Path_5082" data-name="Path 5082" d="M11.8,166.41h2l-4.1-53.6c.7-1.1,3-5.4,10.1-19a71.79,71.79,0,0,0,5.4-13.5c-1.3-.4-2.6-.8-3.8-1.3-5.1,10.4-15,32-15.1,33.5-.1,1.9,5.5,53.9,5.5,53.9" style="fill:#123c5e"/><path id="Path_5083" data-name="Path 5083" d="M31.6,48.21c-4.8,1.8-1.2,14.5-6.4,32.2a35.23,35.23,0,0,1-4.2-1.5s8.1-17.9,2.3-27.3a14,14,0,0,1-2.2-8.9l20.3-4.6c.1-.1-3.3,7.6-9.8,10.1" style="fill:#f58800"/><path id="Path_5085" data-name="Path 5085" d="M2.7,169.61c2.6-.9,7.6-1.9,9.3-3.2h9.3c-.1,1.9-.1,3.7-.2,4.9a1.45,1.45,0,0,1-1.5,1.4H1.2a1.16,1.16,0,0,1-1.2-1.2,1.1,1.1,0,0,1,.6-1,7.84,7.84,0,0,1,2.1-.9" style="fill:#004cba"/><path id="Path_5086" data-name="Path 5086" d="M47.9,168.41c2.4-1.4,6.9-3.6,8.4-5.2l9-2.1c.3,1.8.7,3.6.9,4.8a1.35,1.35,0,0,1-1.1,1.7l-18,4.2a1.24,1.24,0,0,1-1.4-.9,1.13,1.13,0,0,1,.3-1.1,13.3,13.3,0,0,1,1.9-1.4" style="fill:#004cba"/><path id="Path_5088" data-name="Path 5088" d="M49.9,5.91l-1.4.2a9.83,9.83,0,0,1,1.4,5.5l1.8-.3c0,.1-.2-4.8-1.8-5.4" style="fill:#fff"/><path d="M41,35v-.22l-.07,0C40.9,34.81,40.93,34.89,41,35Z" style="fill:none"/><path d="M32.35,29.26c3.6-.7,7.6,2,8.6,5.5V13.36H11.85V35.67Z" style="fill:none"/><path d="M41,37.86c-.05.2-.11.4-.17.6H41Z" style="fill:none"/><path d="M41.1,35.81A5.77,5.77,0,0,0,41,35v2.88A6.67,6.67,0,0,0,41.1,35.81Z" style="fill:#ffa683"/><path d="M41,35c0-.09-.05-.17-.07-.26-5.31-3.39-24.65,3.84-29,3.74H40.78c.06-.2.12-.4.17-.6Z" style="fill:#ffa683"/><path d="M11.85,49l.05,0c2.4.8,17.4-5.1,23.7-6.1a6.7,6.7,0,0,0,5.18-4.45H11.85Z" style="fill:#ffa683"/><path d="M32.35,29.26l-20.5,6.41v0L32.3,29.31c3.54-.72,7.56,1.93,8.58,5.41l.07,0C40,31.26,36,28.56,32.35,29.26Z" style="fill:#ed7d5a"/><path d="M32.3,29.31,11.85,35.7v2.76c4.38.1,23.72-7.13,29-3.74C39.86,31.24,35.84,28.59,32.3,29.31Z" style="fill:#ed7d5a"/></g></g></svg>