<svg xmlns="http://www.w3.org/2000/svg" width="100.074" height="16.827" viewBox="0 0 100.074 16.827">
  <g id="Group_4098" data-name="Group 4098" transform="translate(0)">
    <path id="Path_3427" data-name="Path 3427" d="M8.846,0,6.441,5.991,0,6.428l4.954,4.139L3.379,16.827l5.468-3.433,5.468,3.433-1.575-6.261,4.954-4.139-6.441-.437Z" fill="#ffc300"/>
    <path id="Path_3428" data-name="Path 3428" d="M626.244,0l-2.406,5.991-6.441.437,4.954,4.139-1.575,6.261,5.468-3.433,5.468,3.433-1.575-6.261,4.954-4.139-6.441-.437Z" transform="translate(-596.802)" fill="#ffc300"/>
    <path id="Path_3429" data-name="Path 3429" d="M1243.641,0l-2.406,5.991-6.441.437,4.954,4.139-1.575,6.261,5.468-3.433,5.468,3.433-1.575-6.261,4.954-4.139-6.441-.437Z" transform="translate(-1193.604)" fill="#ffc300"/>
    <path id="Path_3430" data-name="Path 3430" d="M1861.038,0l-2.406,5.991-6.441.437,4.954,4.139-1.575,6.261,5.468-3.433,5.468,3.433-1.575-6.261,4.954-4.139-6.441-.437Z" transform="translate(-1790.406)" fill="#ffc300"/>
    <path id="Path_3431" data-name="Path 3431" d="M2478.437,0l-2.406,5.991-6.441.437,4.954,4.139-1.575,6.261,5.467-3.433,5.467,3.433-1.575-6.261,4.954-4.139-6.441-.437Z" transform="translate(-2387.21)" fill="#ffc300"/>
  </g>
</svg>
