<svg xmlns="http://www.w3.org/2000/svg" viewBox="0 0 59.04 44.35"><g id="Layer_2" data-name="Layer 2"><g id="Group_4120" data-name="Group 4120"><path id="Path_5146" data-name="Path 5146" d="M54.73,0H6.29A6.29,6.29,0,0,0,0,6.29V44.35L12.32,33.19A5.42,5.42,0,0,1,16,31.78H54.73A4.31,4.31,0,0,0,59,27.46V4.32A4.31,4.31,0,0,0,54.73,0" style="fill:#f58800"/><path id="Path_5147" data-name="Path 5147" d="M43.27,16.29a1.68,1.68,0,0,0-.13-3.36H39.85a4.07,4.07,0,0,0-.5,0,9.1,9.1,0,0,1-2.55-.14c-1.43-.31.25-2-.64-5.24s-4-3-3.85-1.51.32,5-.5,6.16a7.32,7.32,0,0,1-4.92,2.77l-.06,8.46,3.33,0a8,8,0,0,0,4.61,2.11v0H41.1A1.54,1.54,0,0,0,42.64,24a1.58,1.58,0,0,0-.58-1.21,1.68,1.68,0,0,0,.41-3.27h.24a1.68,1.68,0,0,0,.56-3.26" style="fill:#fff"/><path id="Path_5148" data-name="Path 5148" d="M17.54,25h5.69l.07-12.35H17.61Z" style="fill:#fff"/></g></g></svg>