<svg xmlns="http://www.w3.org/2000/svg" viewBox="0 0 58.71 44.09"><g id="Layer_2" data-name="Layer 2"><g id="Group_4120" data-name="Group 4120"><path id="Path_5144" data-name="Path 5144" d="M54.41,0H6.25A6.25,6.25,0,0,0,0,6.25H0V44.09L12.25,33a5.41,5.41,0,0,1,3.63-1.4H54.41a4.29,4.29,0,0,0,4.3-4.28h0V4.3A4.3,4.3,0,0,0,54.42,0h0" style="fill:#f58800"/><path id="Path_5145" data-name="Path 5145" d="M37.92,9.71a5.32,5.32,0,0,0-7.54,0l-.71.7L29,9.71a5.33,5.33,0,1,0-7.54,7.54l.71.71,7.54,7.54L37.21,18l.71-.71a5.34,5.34,0,0,0,0-7.54" style="fill:#fff"/></g></g></svg>