<svg xmlns="http://www.w3.org/2000/svg" xmlns:xlink="http://www.w3.org/1999/xlink" viewBox="0 0 172.19 69.09"><defs><clipPath id="clip-path"><path d="M13.12,28.08A22.11,22.11,0,1,0,35.23,6h0A22.11,22.11,0,0,0,13.12,28.08" style="fill:none"/></clipPath></defs><g id="Layer_2" data-name="Layer 2"><g id="Group_4120" data-name="Group 4120"><path id="Path_5060" data-name="Path 5060" d="M164.28,0H7.91A7.91,7.91,0,0,0,0,7.91v38.7a7.92,7.92,0,0,0,7.91,7.92H164.28a7.92,7.92,0,0,0,7.91-7.92V7.91A7.91,7.91,0,0,0,164.28,0h0" style="fill:#fff"/><path id="Path_5061" data-name="Path 5061" d="M76.07,18.19l1.06,3.26a.58.58,0,0,0,.53.39h3.43a.54.54,0,0,1,.55.55.58.58,0,0,1-.22.45l-2.78,2a.57.57,0,0,0-.2.62l1.06,3.27a.55.55,0,0,1-.36.69.51.51,0,0,1-.49-.08l-2.78-2a.56.56,0,0,0-.65,0l-2.77,2a.56.56,0,0,1-.78-.12.59.59,0,0,1-.08-.5l1.07-3.26a.57.57,0,0,0-.2-.62l-2.79-2a.57.57,0,0,1-.12-.78.55.55,0,0,1,.45-.22h3.43a.58.58,0,0,0,.53-.39L75,18.19a.55.55,0,0,1,.69-.36.58.58,0,0,1,.36.36" style="fill:#fbbe42"/><path id="Path_5062" data-name="Path 5062" d="M95.11,18.19l1.06,3.26a.57.57,0,0,0,.53.39h3.43a.54.54,0,0,1,.55.55.58.58,0,0,1-.22.45l-2.78,2a.57.57,0,0,0-.2.62l1.06,3.27a.54.54,0,0,1-.36.69.51.51,0,0,1-.49-.08l-2.78-2a.56.56,0,0,0-.65,0l-2.77,2a.56.56,0,0,1-.78-.12.59.59,0,0,1-.08-.5l1.07-3.26a.57.57,0,0,0-.2-.62l-2.78-2a.56.56,0,0,1-.12-.78.54.54,0,0,1,.44-.22h3.44a.57.57,0,0,0,.52-.39l1.06-3.26a.57.57,0,0,1,.7-.36.55.55,0,0,1,.35.36" style="fill:#fbbe42"/><path id="Path_5063" data-name="Path 5063" d="M114.16,18.19l1.06,3.26a.56.56,0,0,0,.52.39h3.43a.54.54,0,0,1,.56.55.59.59,0,0,1-.23.45l-2.78,2a.57.57,0,0,0-.2.62l1.06,3.27a.54.54,0,0,1-.35.69.53.53,0,0,1-.5-.08l-2.77-2a.56.56,0,0,0-.65,0l-2.78,2a.55.55,0,0,1-.77-.12.53.53,0,0,1-.08-.5l1.06-3.26a.57.57,0,0,0-.2-.62l-2.78-2a.56.56,0,0,1-.12-.78.52.52,0,0,1,.45-.22h3.43a.56.56,0,0,0,.52-.39l1.06-3.26a.57.57,0,0,1,.7-.36.58.58,0,0,1,.36.36" style="fill:#fbbe42"/><path id="Path_5064" data-name="Path 5064" d="M133.2,18.19l1.06,3.26a.57.57,0,0,0,.52.39h3.44a.54.54,0,0,1,.55.55.56.56,0,0,1-.23.45l-2.78,2a.57.57,0,0,0-.2.62l1.06,3.27a.54.54,0,0,1-.35.69.53.53,0,0,1-.5-.08l-2.77-2a.56.56,0,0,0-.65,0l-2.78,2a.55.55,0,0,1-.77-.12.59.59,0,0,1-.08-.5l1.06-3.26a.57.57,0,0,0-.2-.62l-2.78-2a.57.57,0,0,1-.12-.78.54.54,0,0,1,.45-.22h3.43a.58.58,0,0,0,.53-.39l1.06-3.26a.56.56,0,0,1,.7-.36.57.57,0,0,1,.35.36" style="fill:#fbbe42"/><path id="Path_5065" data-name="Path 5065" d="M152.24,18.19l1.06,3.26a.58.58,0,0,0,.53.39h3.43a.54.54,0,0,1,.55.55.58.58,0,0,1-.22.45l-2.78,2a.57.57,0,0,0-.2.62l1.06,3.27a.55.55,0,0,1-.36.69.51.51,0,0,1-.49-.08l-2.78-2a.56.56,0,0,0-.65,0l-2.77,2a.56.56,0,0,1-.78-.12.59.59,0,0,1-.08-.5l1.06-3.26a.54.54,0,0,0-.2-.62l-2.77-2a.56.56,0,0,1-.13-.78.55.55,0,0,1,.45-.22h3.43a.56.56,0,0,0,.53-.39l1.06-3.26a.56.56,0,0,1,.7-.36.55.55,0,0,1,.35.36" style="fill:#b1d7dd"/><rect id="Rectangle_726" data-name="Rectangle 726" x="69.44" y="34.82" width="55.38" height="1.54" style="fill:#b1d7dd"/><rect id="Rectangle_727" data-name="Rectangle 727" x="69.44" y="9.5" width="55.38" height="2.9" style="fill:#379cf7"/><rect id="Rectangle_728" data-name="Rectangle 728" x="69.44" y="40.67" width="55.38" height="1.54" style="fill:#b1d7dd"/><rect id="Rectangle_729" data-name="Rectangle 729" x="69.45" y="46.11" width="25.31" height="1.54" style="fill:#b1d7dd"/><path id="Path_5066" data-name="Path 5066" d="M57.34,28.08A22.11,22.11,0,1,0,35.23,50.19h0A22.11,22.11,0,0,0,57.34,28.08h0" style="fill:#7bc7ff"/><g id="Group_4105" data-name="Group 4105"><g style="clip-path:url(#clip-path)"><g id="Group_4104" data-name="Group 4104"><path id="Path_5067" data-name="Path 5067" d="M46.19,41.47,44.25,21c0-5.23-2-10-7.59-8.62a6.66,6.66,0,0,0-7.66.94,11.69,11.69,0,0,0-3.41,8.36L23.42,41.58Z" style="fill:#0a4d7a"/><path id="Path_5068" data-name="Path 5068" d="M38.51,31v4.5s-.63,3.52-3.59,4.11a5.18,5.18,0,0,1-3.56-4.11V31Z" style="fill:#ffa683"/><path id="Path_5069" data-name="Path 5069" d="M38.51,30.33v2.86a7.55,7.55,0,0,1-7.15,0V30.33Z" style="fill:#e57c5c"/><path id="Path_5070" data-name="Path 5070" d="M42.19,21.28a8.1,8.1,0,0,1-5.44-2.64c-2,1.74-9,2.64-9,2.64l-.05,2.77A12,12,0,0,0,30,30.62a6.17,6.17,0,0,0,8.62,1.31,6.26,6.26,0,0,0,1.31-1.31,12,12,0,0,0,2.29-6.57Z" style="fill:#ffa683"/><path id="Path_5071" data-name="Path 5071" d="M52.62,43C49.82,38.13,38,35.47,38,35.47l-3.12,1.2-3.12-1.2S19.86,38.13,17.06,43l-3.43,26,5.45-.09,3.19-21.68s2,7,1.9,11.09a89.88,89.88,0,0,1-1.38,10.85h24.1A92,92,0,0,1,45.5,58.24c-.11-4.09,1.9-11.09,1.9-11.09l3.2,21.68,5.45.09Z" style="fill:#ffa683"/><path id="Path_5072" data-name="Path 5072" d="M44.45,37.49a10,10,0,0,1-19.15,0A28,28,0,0,0,20,40.09l2.13,7.06a1.11,1.11,0,0,1,.09.19l0-.19s.09.31.23.82l.06.24c.55,2.12,1.7,6.92,1.62,10a92,92,0,0,1-1.39,10.85h24.1a89.88,89.88,0,0,1-1.38-10.85c-.12-4.09,1.9-11.09,1.9-11.09l.05.3a2.1,2.1,0,0,1,.15-.3l2.11-7a27.05,27.05,0,0,0-5.27-2.64" style="fill:#379cf7"/></g></g></g></g></g></svg>