<svg xmlns="http://www.w3.org/2000/svg" xmlns:xlink="http://www.w3.org/1999/xlink" width="61" height="61" viewBox="0 0 61 61">
  <defs>
    <clipPath id="clip-path">
      <circle id="Ellipse_327" data-name="Ellipse 327" cx="30.5" cy="30.5" r="30.5" transform="translate(989 2631)" fill="#a4a4b6"/>
    </clipPath>
    <clipPath id="clip-path-2">
      <rect id="Rectangle_7794" data-name="Rectangle 7794" width="59.5" height="168.088" fill="none"/>
    </clipPath>
  </defs>
  <g id="Group_13118" data-name="Group 13118" transform="translate(-989 -2631)">
    <circle id="Ellipse_326" data-name="Ellipse 326" cx="30.5" cy="30.5" r="30.5" transform="translate(989 2631)" fill="#7bc7ff"/>
    <g id="Mask_Group_3829" data-name="Mask Group 3829" clip-path="url(#clip-path)">
      <g id="Group_13111" data-name="Group 13111" transform="translate(989 2643.723)">
        <path id="Path_40311" data-name="Path 40311" d="M89.587,199.308l-4.1,37.576-8.49-.176.943-39.184Z" transform="translate(-61.043 -118.108)" fill="#ffb99f"/>
        <g id="Group_13110" data-name="Group 13110" transform="translate(0)">
          <g id="Group_13109" data-name="Group 13109" clip-path="url(#clip-path-2)">
            <path id="Path_40312" data-name="Path 40312" d="M97.21,295.158l-8.49-.176L87.2,335.646a.523.523,0,0,0,.522.542h3.611c2.931-15.194,5.893-30.308,5.877-41.03" transform="translate(-72.768 -176.382)" fill="#ffb99f"/>
            <path id="Path_40313" data-name="Path 40313" d="M47.288,197.524l2.579,37.712-8.389,1.321L35.506,197.82Z" transform="translate(-4.642 -118.108)" fill="#ffb99f"/>
            <path id="Path_40314" data-name="Path 40314" d="M18.981,294.225l-7.944,3,13.992,38.136,3.794-.874c-2.945-15.192-5.831-30.32-9.842-40.263" transform="translate(26.24 -175.929)" fill="#ffb99f"/>
            <path id="Path_40315" data-name="Path 40315" d="M41.774,179.08a99.208,99.208,0,0,1-25.643,0s-1.714,33.731-1.993,45.513-1.491,36.381-1.491,36.381,4.357,1.454,7.292.476l8.827-68.195s4.519,25,6.476,33.363,11.475,33.239,11.475,33.239a6.494,6.494,0,0,0,6.714-2.708s-7.525-31.054-8.246-33.492c-1.488-5.031-.234-20.529-3.411-44.577" transform="translate(0.984 -107.079)" fill="#5483a3"/>
            <path id="Path_40316" data-name="Path 40316" d="M15.688,206.39a.14.14,0,0,1,.136.144c-.233,8.811-.474,17.923.727,26.811a167.827,167.827,0,0,0,3.5,16.971l5.92,24.388c-.079.071-.158.139-.238.2l-5.954-24.526a168.176,168.176,0,0,1-3.509-17c-1.2-8.91-.963-18.033-.73-26.856a.15.15,0,0,1,.144-.136" transform="translate(27.352 -123.409)" fill="#3e6b7f"/>
            <path id="Path_40317" data-name="Path 40317" d="M105.139,208.018a.139.139,0,0,1,.145-.134.14.14,0,0,1,.134.145l-2.733,70.666-.277-.057Z" transform="translate(-87.092 -124.302)" fill="#3e6b7f"/>
            <path id="Path_40318" data-name="Path 40318" d="M12.389,369.5c-.228-.6-.723-1.9-1.394-3.69a.706.706,0,0,1,.589-.949,13.666,13.666,0,0,0,4.285-1.2,13.489,13.489,0,0,0,2.464-1.5.7.7,0,0,1,1.109.4c.453,1.864.78,3.214.922,3.8a.7.7,0,0,1-.12.587,7.629,7.629,0,0,1-7.3,3,.707.707,0,0,1-.557-.446" transform="translate(34.715 -216.463)" fill="#689dba"/>
            <path id="Path_40319" data-name="Path 40319" d="M101.29,372.706l.107-.015a.8.8,0,0,1,.909.895l-.406,3.136a.8.8,0,0,1-.6.673c-2.643.641-6.007-.145-7.367-.524a.794.794,0,0,1-.581-.805c.031-.636.084-1.736.154-3.188a.8.8,0,0,1,1.088-.705,11.5,11.5,0,0,0,3.512.681,19.967,19.967,0,0,0,3.182-.146" transform="translate(-80.346 -222.505)" fill="#689dba"/>
            <path id="Path_40320" data-name="Path 40320" d="M111.941,395.5s-2.4.975-4.178-.307a6.5,6.5,0,0,1-3.647,2.871c-2.358.583-6.719.561-8.287,3.005a2.737,2.737,0,0,0-.4,2.4l19.019-.083a10.492,10.492,0,0,0-2.506-7.886" transform="translate(-93.333 -236.303)" fill="#2e3449"/>
            <path id="Path_40321" data-name="Path 40321" d="M128.312,407.955l3.628-.2a11.567,11.567,0,0,1,2.249.026,6.94,6.94,0,0,0-.585-1.948,8.115,8.115,0,0,0-.94-1.543,6.052,6.052,0,0,0-3.92,2.218,3.115,3.115,0,0,0-.508,1.445l.077,0" transform="translate(-126.246 -241.745)" fill="#ffe9cc"/>
            <path id="Path_40322" data-name="Path 40322" d="M123.75,403.81a.139.139,0,0,1-.135-.1,4.093,4.093,0,0,0-.814-1.518.14.14,0,0,1,.213-.182,4.381,4.381,0,0,1,.87,1.623.14.14,0,0,1-.1.173.137.137,0,0,1-.038.005" transform="translate(-113.75 -240.348)" fill="#ffe9cc"/>
            <path id="Path_40323" data-name="Path 40323" d="M120.059,402.842a.14.14,0,0,1-.136-.107,2.67,2.67,0,0,0-1.066-1.551.14.14,0,0,1,.159-.23,2.955,2.955,0,0,1,1.179,1.716.14.14,0,0,1-.1.168.116.116,0,0,1-.032,0" transform="translate(-108.461 -239.732)" fill="#ffe9cc"/>
            <path id="Path_40324" data-name="Path 40324" d="M117.085,401.659a.139.139,0,0,1-.125-.075,5.38,5.38,0,0,0-.53-.871,1.7,1.7,0,0,0-.763-.573.14.14,0,1,1,.088-.265,1.977,1.977,0,0,1,.893.664,5.6,5.6,0,0,1,.559.916.14.14,0,0,1-.059.188.136.136,0,0,1-.064.016" transform="translate(-104.19 -239.097)" fill="#ffe9cc"/>
            <path id="Path_40325" data-name="Path 40325" d="M114.018,400.78a.14.14,0,0,1-.135-.1,2.536,2.536,0,0,0-1.32-1.542.14.14,0,1,1,.12-.252,2.822,2.822,0,0,1,1.468,1.714.14.14,0,0,1-.094.174.154.154,0,0,1-.039.006" transform="translate(-99.882 -238.502)" fill="#ffe9cc"/>
            <path id="Path_40326" data-name="Path 40326" d="M111.291,399.1a.14.14,0,0,1-.128-.082,5.373,5.373,0,0,0-.5-.924,1.688,1.688,0,0,0-.761-.619.14.14,0,1,1,.1-.263,1.96,1.96,0,0,1,.891.718,5.574,5.574,0,0,1,.525.971.14.14,0,0,1-.069.185.142.142,0,0,1-.058.012" transform="translate(-96.081 -237.507)" fill="#ffe9cc"/>
            <path id="Path_40327" data-name="Path 40327" d="M105.524,400.636a2.245,2.245,0,0,0,1.035,1.015,2.063,2.063,0,0,0,.842.157,4.807,4.807,0,0,0,.954-.121,10.281,10.281,0,0,0,3.8-1.529,6.4,6.4,0,0,0,2.346-2.847,3.029,3.029,0,0,1-.315.03,6.174,6.174,0,0,1-2.19,2.586,10.011,10.011,0,0,1-3.694,1.486,2.738,2.738,0,0,1-1.627-.019,1.972,1.972,0,0,1-.9-.891,4.27,4.27,0,0,1-.3-.717l-.279.045a4.612,4.612,0,0,0,.328.8" transform="translate(-97.29 -237.569)" fill="#232838"/>
            <path id="Path_40328" data-name="Path 40328" d="M100.81,402.152a5.658,5.658,0,0,0-3.276,5.157.14.14,0,0,0,.279,0,5.379,5.379,0,0,1,3.111-4.9c-.037-.084-.074-.169-.114-.255" transform="translate(-80.638 -240.463)" fill="#232838"/>
            <path id="Path_40329" data-name="Path 40329" d="M105.292,410.626a73.912,73.912,0,0,1-9.75-.291,2.68,2.68,0,0,0-.277,2.188l19.019-.083a7.164,7.164,0,0,0,.107-2.037c-2.066.005-5.9.041-9.1.222" transform="translate(-93.171 -245.356)" fill="#ffe9cc"/>
            <path id="Path_40330" data-name="Path 40330" d="M107.711,412.683l-12.415.182a.14.14,0,0,0,0,.28h0l12.4-.182c.005-.088.01-.181.012-.28" transform="translate(-86.469 -246.76)" fill="#3e6b7f"/>
            <path id="Path_40331" data-name="Path 40331" d="M15.852,388.647s-2.079,1.541-4.122.743a6.5,6.5,0,0,1-2.818,3.689c-2.139,1.152-6.368,2.216-7.278,4.974a2.736,2.736,0,0,0,.208,2.423l18.4-4.815a10.493,10.493,0,0,0-4.39-7.014" transform="translate(38.672 -232.388)" fill="#2e3449"/>
            <path id="Path_40332" data-name="Path 40332" d="M33.951,408.9l3.465-1.091a11.525,11.525,0,0,1,2.184-.535,6.944,6.944,0,0,0-1.051-1.741,8.1,8.1,0,0,0-1.3-1.26,6.051,6.051,0,0,0-3.245,3.124,3.116,3.116,0,0,0-.132,1.526l.074-.022" transform="translate(6.297 -241.73)" fill="#ffe9cc"/>
            <path id="Path_40333" data-name="Path 40333" d="M31.594,401.888a.14.14,0,0,1-.156-.065,4.092,4.092,0,0,0-1.166-1.267.14.14,0,0,1,.161-.229,4.375,4.375,0,0,1,1.246,1.355.14.14,0,0,1-.05.191.153.153,0,0,1-.035.014" transform="translate(15.654 -239.356)" fill="#ffe9cc"/>
            <path id="Path_40334" data-name="Path 40334" d="M28.253,400.065a.14.14,0,0,1-.159-.069,2.668,2.668,0,0,0-1.418-1.237.14.14,0,0,1,.1-.262,2.952,2.952,0,0,1,1.569,1.369.139.139,0,0,1-.058.188.13.13,0,0,1-.03.012" transform="translate(20.455 -238.272)" fill="#ffe9cc"/>
            <path id="Path_40335" data-name="Path 40335" d="M25.682,398.209a.139.139,0,0,1-.139-.041,5.4,5.4,0,0,0-.73-.712,1.7,1.7,0,0,0-.882-.365.14.14,0,1,1,.02-.279,1.974,1.974,0,0,1,1.03.42,5.609,5.609,0,0,1,.77.748.14.14,0,0,1-.01.2.145.145,0,0,1-.058.031" transform="translate(24.145 -237.27)" fill="#ffe9cc"/>
            <path id="Path_40336" data-name="Path 40336" d="M22.916,396.6a.14.14,0,0,1-.155-.063,2.536,2.536,0,0,0-1.662-1.165.14.14,0,1,1,.053-.274A2.818,2.818,0,0,1,23,396.39a.14.14,0,0,1-.048.192.141.141,0,0,1-.037.015" transform="translate(28.043 -236.242)" fill="#ffe9cc"/>
            <path id="Path_40337" data-name="Path 40337" d="M20.693,394.287a.139.139,0,0,1-.144-.047,5.373,5.373,0,0,0-.712-.771,1.686,1.686,0,0,0-.891-.41.14.14,0,1,1,.027-.278,1.964,1.964,0,0,1,1.042.473,5.586,5.586,0,0,1,.75.81.14.14,0,0,1-.021.2.144.144,0,0,1-.053.027" transform="translate(31.136 -234.859)" fill="#ffe9cc"/>
            <path id="Path_40338" data-name="Path 40338" d="M15.939,396.281a2.243,2.243,0,0,0,1.254.725,2.07,2.07,0,0,0,.854-.057,4.783,4.783,0,0,0,.894-.355,10.279,10.279,0,0,0,3.295-2.425,6.4,6.4,0,0,0,1.564-3.341,3.148,3.148,0,0,1-.3.108,6.175,6.175,0,0,1-1.478,3.051,10.011,10.011,0,0,1-3.207,2.358,2.741,2.741,0,0,1-1.581.387,1.976,1.976,0,0,1-1.094-.64,4.285,4.285,0,0,1-.464-.621l-.259.113a4.638,4.638,0,0,0,.518.7" transform="translate(29.5 -233.692)" fill="#232838"/>
            <path id="Path_40339" data-name="Path 40339" d="M8.708,393.679a5.656,5.656,0,0,0-1.889,5.81.14.14,0,0,0,.17.1h0a.14.14,0,0,0,.1-.17A5.377,5.377,0,0,1,8.882,393.9c-.057-.073-.114-.146-.174-.219" transform="translate(47.95 -235.397)" fill="#232838"/>
            <path id="Path_40340" data-name="Path 40340" d="M11.081,403.6a73.854,73.854,0,0,1-9.515,2.145,2.679,2.679,0,0,0,.276,2.188l18.4-4.814a7.161,7.161,0,0,0-.4-2c-2,.519-5.7,1.509-8.758,2.48" transform="translate(38.672 -239.846)" fill="#ffe9cc"/>
            <path id="Path_40341" data-name="Path 40341" d="M13.811,403.217,1.832,406.484a.14.14,0,0,0,.072.27h0l11.963-3.262c-.016-.086-.035-.178-.057-.274" transform="translate(44.937 -241.1)" fill="#3e6b7f"/>
            <path id="Path_40342" data-name="Path 40342" d="M94.249,107.132l15.037-19.676a2.859,2.859,0,0,0-4.543-3.472L89.706,103.66Z" transform="translate(-86.44 -49.546)" fill="#ffb99f"/>
            <path id="Path_40343" data-name="Path 40343" d="M92.9,145.77l17.323,21.321,2.691-2L97.49,142.359Z" transform="translate(-90.766 -85.122)" fill="#ffb99f"/>
            <path id="Path_40344" data-name="Path 40344" d="M23.747,107.132,8.711,87.457a2.859,2.859,0,0,1,4.543-3.472L28.291,103.66Z" transform="translate(27.944 -49.546)" fill="#ffb99f"/>
            <path id="Path_40345" data-name="Path 40345" d="M25.324,145.77,8,167.091l-2.691-2,15.425-22.732Z" transform="translate(32.042 -85.122)" fill="#ffb99f"/>
            <path id="Path_40346" data-name="Path 40346" d="M61.582,75.061,55.2,73.281l-6.378,1.78a6.254,6.254,0,0,0-4.567,5.732l-1.69,36.045h25.27l-1.69-36.045a6.254,6.254,0,0,0-4.567-5.732" transform="translate(-25.454 -43.818)" fill="#ffb99f"/>
            <path id="Path_40347" data-name="Path 40347" d="M52.875,75.245l-1.5-.559H44.582l-2.189.559s-5.362,1.454-4.9,2.049S33.2,128.95,33.2,128.95s12.209,4.286,31.029-.745l-6.78-50.91Z" transform="translate(-18.081 -44.658)" fill="#2e3449"/>
            <path id="Path_40348" data-name="Path 40348" d="M69.93,14.48a31.459,31.459,0,0,1-3.907,7.8c-.587.846-1.314,1.869-2.458,1.891C62.324,24.2,61.6,23.14,61.024,22.2c-2.641-4.313-8.162-5.657-10.864-9.953C47.5,8.009,49.735,2.686,54.183.816,57.777-.695,63.495-.25,65.706,3.347a4.551,4.551,0,0,1,4.835,2.781c1.182,2.687.283,5.723-.611,8.352" transform="translate(-31.313 0)" fill="#2e3449"/>
            <path id="Path_40349" data-name="Path 40349" d="M74.893,12.275c-3.066-5.62-13.851-3.7-14.69.766-1.724,9.192-.415,12.965,2.14,15.137,2.956,2.513,4.886,2.192,4.886,7.472a3.686,3.686,0,0,0,6.791,0,31.826,31.826,0,0,1,2.315-12.294s-.178-8.764-1.442-11.082" transform="translate(-40.725 -5.267)" fill="#ffb99f"/>
            <path id="Path_40350" data-name="Path 40350" d="M71.107,12.521c-1.852,2.67-5.578,2.055-5.578,2.055l2.15-1.852s-5.322,3.151-10.817,2.059c0,0-.807-2.016,1.663-5.38C60.1,7.251,64.7,6.72,68.616,7.444s5.62,2.427,5.748,5.237S74.778,19,74.778,19l-1.521,1.16c-2.385-1.591-2.15-7.638-2.15-7.638" transform="translate(-38.088 -4.269)" fill="#2e3449"/>
            <path id="Path_40351" data-name="Path 40351" d="M80.776,37.952a.692.692,0,1,1-.692-.692.691.691,0,0,1,.692.692" transform="translate(-53.196 -22.279)"/>
            <path id="Path_40352" data-name="Path 40352" d="M81.619,38.132a.253.253,0,1,1-.253-.253.253.253,0,0,1,.253.253" transform="translate(-54.73 -22.649)" fill="#fff"/>
            <path id="Path_40353" data-name="Path 40353" d="M94.078,37.952a.692.692,0,1,1-.692-.692.691.691,0,0,1,.692.692" transform="translate(-71.847 -22.279)"/>
            <path id="Path_40354" data-name="Path 40354" d="M94.922,38.132a.253.253,0,1,1-.253-.253.253.253,0,0,1,.253.253" transform="translate(-73.382 -22.649)" fill="#fff"/>
            <path id="Path_40355" data-name="Path 40355" d="M94.156,31.614a2.263,2.263,0,0,0-2.816.138.455.455,0,0,0-.064.571.33.33,0,0,0,.5.073,1.624,1.624,0,0,1,1.182-.391,1.653,1.653,0,0,1,.614.169c.172.086.339.234.533.123a.361.361,0,0,0,.117-.112.453.453,0,0,0-.065-.572" transform="translate(-71.462 -18.649)" fill="#2e3449"/>
            <path id="Path_40356" data-name="Path 40356" d="M76.58,31.614a2.9,2.9,0,0,1,3.228.138.407.407,0,0,1-.5.644,2.032,2.032,0,0,0-1.355-.384,2.2,2.2,0,0,0-.7.166c-.2.083-.391.23-.611.119a.4.4,0,0,1-.134-.112.411.411,0,0,1,.074-.572" transform="translate(-51.191 -18.649)" fill="#2e3449"/>
            <path id="Path_40357" data-name="Path 40357" d="M84.636,46.553a2.443,2.443,0,0,1-1.148-.282.361.361,0,1,1,.336-.639,1.9,1.9,0,0,0,2.226-.413.361.361,0,1,1,.584.426,2.589,2.589,0,0,1-2,.908" transform="translate(-60.692 -26.95)" fill="#c16b5b"/>
            <path id="Path_40358" data-name="Path 40358" d="M88.471,42.237a.091.091,0,0,1-.087-.065c-.171-.59.029-.79.228-.854a.872.872,0,0,1,.716.157.09.09,0,0,1,.029.125.091.091,0,0,1-.124.029.7.7,0,0,0-.565-.138c-.178.057-.215.27-.11.632a.09.09,0,0,1-.062.112.089.089,0,0,1-.025,0" transform="translate(-65.381 -24.689)" fill="#c16b5b"/>
            <path id="Path_40359" data-name="Path 40359" d="M55.635,39.95a2.384,2.384,0,0,1-3.258.667,2.675,2.675,0,0,1,3.348-3.992,2.384,2.384,0,0,1-.09,3.325" transform="translate(-17.659 -21.659)" fill="#ffb99f"/>
            <path id="Path_40360" data-name="Path 40360" d="M55.539,38.343a1.6,1.6,0,0,0-1.4.027,1.308,1.308,0,0,0-.536.417.793.793,0,0,0-.114.731,1.129,1.129,0,0,0,.385.454,1.068,1.068,0,0,1,.259.26.406.406,0,0,1-.521.573.181.181,0,0,0-.152.328.751.751,0,0,0,.315.068.764.764,0,0,0,.671-1.151,1.371,1.371,0,0,0-.343-.358.838.838,0,0,1-.275-.3A.437.437,0,0,1,53.9,39a.729.729,0,0,1,.137-.138.738.738,0,0,1,.517.178.645.645,0,0,1,.157.529.181.181,0,0,0,.149.207.144.144,0,0,0,.029,0,.181.181,0,0,0,.178-.151,1,1,0,0,0-.247-.832.819.819,0,0,0-.27-.185,1.137,1.137,0,0,1,.823.056.7.7,0,0,1,.351.849.181.181,0,1,0,.328.152,1.057,1.057,0,0,0-.51-1.32" transform="translate(-18.078 -22.838)" fill="#c16b5b"/>
            <path id="Path_40361" data-name="Path 40361" d="M115.747,78.945s-18.1,19.846-17.82,25.088,15.948,20.825,15.948,20.825l3.294-8.875-9.807-11.542,10.692-14.175Z" transform="translate(-97.923 -47.204)" fill="#80b6bc"/>
            <path id="Path_40362" data-name="Path 40362" d="M31.734,72.572s-3.18,29.047-.386,52c0,0,8.464,1.411,13.335-1.267L40.4,87.806l-.944-12.951s-5.741-2.172-7.722-2.283" transform="translate(2.675 -43.394)" fill="#80b6bc"/>
            <path id="Path_40363" data-name="Path 40363" d="M2.76,78.25s17.645,20.126,17.366,25.367S6.5,123.428,6.5,123.428l-3.445-8.093,7.64-11.309L0,89.851Z" transform="translate(39.371 -46.789)" fill="#80b6bc"/>
            <path id="Path_40364" data-name="Path 40364" d="M92.35,72.572s1.4,14.84,1.4,28.408-.908,23.2-.908,23.2-6,1.9-11.314-.4l3.137-34.428.186-14.21a75.91,75.91,0,0,1,7.5-2.562" transform="translate(-67.026 -43.394)" fill="#80b6bc"/>
            <path id="Path_40365" data-name="Path 40365" d="M87.329,71.01a2.374,2.374,0,0,0-2.194,1.01c-.823,1.211-3.284,9.335-3.284,9.335l3.844,1.4L82.9,84.6s4.033,3.035,4.589,7.72c0,0-.152-18.464-.117-19.232s-.042-2.082-.042-2.082" transform="translate(-60.897 -42.452)" fill="#5a929b"/>
            <path id="Path_40366" data-name="Path 40366" d="M31.377,123.947a26.16,26.16,0,0,0,2.824.382,82.572,82.572,0,0,1-1.6-14.985l-.676-15.421-.8.042h-.008a.14.14,0,0,1-.007-.279l.8-.042L31.754,90a.14.14,0,0,1,.133-.146.143.143,0,0,1,.146.133l.16,3.639,8.732-.464a63.38,63.38,0,0,1-.658-9.416q-.007-.439-.01-.882a29.465,29.465,0,0,0-.182-3.651l-7.482-1.969a.14.14,0,0,1,.071-.27l7.366,1.938a10.7,10.7,0,0,0-.341-1.485l.15.056.24.275a21.022,21.022,0,0,1,.459,5.1c0,.295,0,.588.009.88a62.319,62.319,0,0,0,.681,9.542v0h0q.147.87.341,1.751l-.276-.365.105.874q-.248-1.063-.428-2.106l-1.379.073.593,8.538a.14.14,0,0,1-.115.148,18.622,18.622,0,0,1-2.467.268.136.136,0,0,1,.029.08,181.339,181.339,0,0,0,1.406,21.721,26.467,26.467,0,0,0,5.679-1.222l.034.283a26.752,26.752,0,0,1-5.8,1.228.122.122,0,0,1-.018.006h-.017l-.01,0q-1.294.125-2.6.127c-.583,0-1.166-.021-1.748-.059.237.983.511,1.956.828,2.913l-.3-.013c-.315-.961-.586-1.937-.821-2.922a26.653,26.653,0,0,1-2.863-.377c-.01-.1-.02-.192-.029-.289m2.592-30.132,2.241,1.633a.99.99,0,0,0,.468.233c.262.024.509-.2.718-.414l1.7-1.724Zm5.928,8.133-.573-8.242L37.6,95.463a1.315,1.315,0,0,1-.877.5c-.021,0-.042,0-.064,0a1.248,1.248,0,0,1-.609-.285l-2.207-1.608c.091,1.314.185,2.607.28,3.9.1,1.352.2,2.7.293,4.084a18.285,18.285,0,0,0,5.485-.1m-5.4,22.4a26.713,26.713,0,0,0,4.267-.051,181.56,181.56,0,0,1-1.407-21.745.138.138,0,0,1,.025-.076c-.183.005-.366.012-.549.012a18.625,18.625,0,0,1-2.566-.179.14.14,0,0,1-.12-.129c-.1-1.419-.2-2.808-.3-4.2-.1-1.372-.2-2.745-.3-4.146l-1.337.071.676,15.423a81.911,81.911,0,0,0,1.612,15.015" transform="translate(2.293 -46.025)" fill="#5a929b"/>
            <path id="Path_40367" data-name="Path 40367" d="M91.659,144.135a16.08,16.08,0,0,1-3.8.455,15.882,15.882,0,0,1-5.462-.963l.027-.29a15.607,15.607,0,0,0,5.455.971,108.413,108.413,0,0,0,1.1-23.412l-2.4-.072a.14.14,0,0,1-.135-.144l.232-8.021-1.466.043.026-.281,7.513-.218q-.04-1.62-.084-3.232a.14.14,0,0,1,.136-.143.151.151,0,0,1,.143.136q.043,1.611.085,3.231l.926-.027a.151.151,0,0,1,.144.136.14.14,0,0,1-.135.144l-.927.027c.258,10.339.366,20.9-1.048,31.279a15.549,15.549,0,0,0,1.766-.6c-.008.108-.015.209-.023.312a15.848,15.848,0,0,1-1.784.589q-.156,1.121-.338,2.239l-.291.048q.18-1.1.336-2.206M87.09,112.649a12.543,12.543,0,0,0,1.948,2.26l2.766-2.4Zm4.776.179L89.127,115.2a.14.14,0,0,1-.185,0,12.812,12.812,0,0,1-1.99-2.262l-.221,7.613,5.261.159Zm.895-.344-.582.017a.142.142,0,0,1-.037.084l.133,8.267a.14.14,0,0,1-.14.142h0l-2.867-.087a108.709,108.709,0,0,1-1.1,23.4,15.771,15.771,0,0,0,3.538-.468c1.428-10.394,1.32-20.986,1.061-31.353" transform="translate(-67.73 -65.073)" fill="#5a929b"/>
            <path id="Path_40368" data-name="Path 40368" d="M94.489,76.467a.14.14,0,0,1-.072.184l-6.463,2.812c.018.65.038,1.3.059,1.934A63.793,63.793,0,0,1,87.7,92.69l.054-.6-.312.413a64.215,64.215,0,0,0,.293-11.1c-.039-1.184-.077-2.4-.094-3.617l.275-.3q.009.841.031,1.676l6.359-2.767a.139.139,0,0,1,.184.072" transform="translate(-70.157 -45.672)" fill="#5a929b"/>
            <path id="Path_40369" data-name="Path 40369" d="M33.286,170.71H33.3a.14.14,0,0,0,.131-.145l-.012-.313a.14.14,0,0,0-.025-.074l-.8-8.518a.14.14,0,0,0-.278.026l.84,8.9a.14.14,0,0,0,.139.127" transform="translate(13.085 -96.588)" fill="#5a929b"/>
            <path id="Path_40370" data-name="Path 40370" d="M108.338,172.652a.14.14,0,0,0,.139-.13l.667-9.3a.14.14,0,1,0-.279-.02l-.667,9.3a.14.14,0,0,0,.129.149h.01" transform="translate(-93.146 -97.51)" fill="#5a929b"/>
            <path id="Path_40371" data-name="Path 40371" d="M17.984,144.134a3.1,3.1,0,0,0,2.58.587.14.14,0,1,1,.064.272,3.185,3.185,0,0,1-.725.083,3.413,3.413,0,0,1-2.076-.71Z" transform="translate(31.597 -86.184)" fill="#5a929b"/>
            <path id="Path_40372" data-name="Path 40372" d="M18.6,137.743a.14.14,0,1,1,.2.2,6.12,6.12,0,0,1-3.217,1.693l.039-.058-.154-.2a5.845,5.845,0,0,0,3.133-1.627" transform="translate(34.44 -82.338)" fill="#5a929b"/>
            <path id="Path_40373" data-name="Path 40373" d="M126.37,139.019a5.142,5.142,0,0,1-2.268-2.03.14.14,0,0,1,.24-.142,4.86,4.86,0,0,0,2.2,1.944Z" transform="translate(-116.93 -81.785)" fill="#5a929b"/>
            <path id="Path_40374" data-name="Path 40374" d="M122.378,146.212a.14.14,0,0,1-.209-.186,5.091,5.091,0,0,1,2.262-1.444l.2.234a4.8,4.8,0,0,0-2.252,1.4" transform="translate(-114.235 -86.452)" fill="#5a929b"/>
            <path id="Path_40375" data-name="Path 40375" d="M51.745,70.75a2.374,2.374,0,0,1,2.194,1.01c.823,1.211,3.284,9.335,3.284,9.335l-3.843,1.4,2.8,1.852s-4.164,3.035-4.72,7.72c0,0,.282-18.464.247-19.233s.042-2.082.042-2.082" transform="translate(-18.412 -42.297)" fill="#5a929b"/>
            <path id="Path_40376" data-name="Path 40376" d="M50.359,122.21a.9.9,0,0,1,.067.748.869.869,0,1,1-.067-.748" transform="translate(-10.574 -72.827)" fill="#5a929b"/>
            <path id="Path_40377" data-name="Path 40377" d="M59.812,198.281a.6.6,0,0,1-.7.227c-.463-.179-.589-1.1-.054-1.27a.71.71,0,0,1,.749,1.043" transform="translate(-24.014 -117.921)" fill="#5a929b"/>
            <path id="Path_40378" data-name="Path 40378" d="M64.068,131.9a.392.392,0,0,1-.748.233c-.116-.23-.081-.707.218-.8s.509.325.53.57" transform="translate(-30.002 -78.521)" fill="#5a929b"/>
            <path id="Path_40379" data-name="Path 40379" d="M63.8,144.544a.553.553,0,0,1-.62.343.737.737,0,0,1-.045-1.308c.573-.232.849.525.666.966" transform="translate(-29.587 -85.825)" fill="#5a929b"/>
            <path id="Path_40380" data-name="Path 40380" d="M63.278,156.774a.553.553,0,0,1-.62.343.737.737,0,0,1-.045-1.308c.573-.232.849.525.666.966" transform="translate(-28.857 -93.138)" fill="#5a929b"/>
            <path id="Path_40381" data-name="Path 40381" d="M62.935,169.867a.552.552,0,0,1-.62.343.738.738,0,0,1-.045-1.309c.573-.231.849.525.666.966" transform="translate(-28.376 -100.967)" fill="#5a929b"/>
            <path id="Path_40382" data-name="Path 40382" d="M61.571,182.625a.553.553,0,0,1-.62.343.737.737,0,0,1-.045-1.308c.573-.232.849.525.666.966" transform="translate(-26.463 -108.595)" fill="#5a929b"/>
            <path id="Path_40383" data-name="Path 40383" d="M94.077,123.222a.793.793,0,0,1-.271.439.757.757,0,0,1-.567.112,1.145,1.145,0,0,1-.574-1.976c.851-.646,1.611.686,1.412,1.424" transform="translate(-71.708 -72.725)" fill="#5a929b"/>
          </g>
        </g>
      </g>
    </g>
  </g>
</svg>
