<svg xmlns="http://www.w3.org/2000/svg" xmlns:xlink="http://www.w3.org/1999/xlink" viewBox="0 0 172.19 71.58"><defs><clipPath id="clip-path"><path d="M13.11,28.58A22.11,22.11,0,1,0,35.22,6.47h0A22.11,22.11,0,0,0,13.11,28.58h0" style="fill:none"/></clipPath></defs><g id="Layer_2" data-name="Layer 2"><g id="Group_4120" data-name="Group 4120"><path id="Path_5089" data-name="Path 5089" d="M164.27,0H7.91A7.91,7.91,0,0,0,0,7.91v38.7a7.92,7.92,0,0,0,7.91,7.92H164.27a7.93,7.93,0,0,0,7.92-7.92V7.91A7.92,7.92,0,0,0,164.27,0h0" style="fill:#fff"/><path id="Path_5090" data-name="Path 5090" d="M76.07,18.19l1.06,3.26a.56.56,0,0,0,.52.39h3.43a.54.54,0,0,1,.56.55.59.59,0,0,1-.23.45l-2.78,2a.57.57,0,0,0-.2.62l1.06,3.27a.54.54,0,0,1-.35.69.55.55,0,0,1-.5-.07l-2.78-2a.56.56,0,0,0-.65,0l-2.77,2a.55.55,0,0,1-.77-.13.51.51,0,0,1-.08-.49l1.06-3.27a.57.57,0,0,0-.2-.62l-2.78-2a.56.56,0,0,1-.12-.78.55.55,0,0,1,.45-.22h3.43a.56.56,0,0,0,.52-.39L75,18.19a.57.57,0,0,1,.7-.36.58.58,0,0,1,.36.36" style="fill:#fbbe42"/><path id="Path_5091" data-name="Path 5091" d="M95.11,18.19l1.06,3.26a.56.56,0,0,0,.53.39h3.43a.54.54,0,0,1,.55.55.56.56,0,0,1-.23.45l-2.77,2a.54.54,0,0,0-.2.62l1.06,3.27a.55.55,0,0,1-.36.69.53.53,0,0,1-.49-.07l-2.78-2a.59.59,0,0,0-.65,0l-2.78,2a.56.56,0,0,1-.77-.13.51.51,0,0,1-.08-.49l1.06-3.27a.57.57,0,0,0-.2-.62l-2.78-2a.57.57,0,0,1-.12-.78.54.54,0,0,1,.45-.22h3.43a.58.58,0,0,0,.53-.39l1.06-3.26a.55.55,0,0,1,.69-.36.56.56,0,0,1,.36.36" style="fill:#fbbe42"/><path id="Path_5092" data-name="Path 5092" d="M114.15,18.19l1.06,3.26a.57.57,0,0,0,.53.39h3.43a.54.54,0,0,1,.55.55.58.58,0,0,1-.22.45l-2.78,2a.57.57,0,0,0-.2.62l1.06,3.27a.54.54,0,0,1-.36.69.54.54,0,0,1-.49-.07l-2.78-2a.56.56,0,0,0-.65,0l-2.77,2a.57.57,0,0,1-.78-.13.53.53,0,0,1-.07-.49l1.06-3.27a.57.57,0,0,0-.2-.62l-2.78-2a.56.56,0,0,1-.12-.78.52.52,0,0,1,.44-.22h3.44a.56.56,0,0,0,.52-.39l1.06-3.26a.57.57,0,0,1,.7-.36.58.58,0,0,1,.36.36" style="fill:#fbbe42"/><path id="Path_5093" data-name="Path 5093" d="M133.2,18.19l1.06,3.26a.56.56,0,0,0,.52.39h3.43a.54.54,0,0,1,.56.55.59.59,0,0,1-.23.45l-2.78,2a.57.57,0,0,0-.2.62l1.06,3.27a.54.54,0,0,1-.35.69.55.55,0,0,1-.5-.07l-2.77-2a.56.56,0,0,0-.65,0l-2.78,2a.55.55,0,0,1-.77-.13.51.51,0,0,1-.08-.49l1.06-3.27a.57.57,0,0,0-.2-.62l-2.78-2a.57.57,0,0,1-.12-.78.55.55,0,0,1,.45-.22h3.43a.58.58,0,0,0,.53-.39l1.06-3.26a.55.55,0,0,1,.69-.36.58.58,0,0,1,.36.36" style="fill:#fbbe42"/><path id="Path_5094" data-name="Path 5094" d="M152.24,18.19l1.06,3.26a.57.57,0,0,0,.53.39h3.43a.55.55,0,0,1,.55.55.56.56,0,0,1-.22.45l-2.79,2a.56.56,0,0,0-.2.61l1.06,3.27a.55.55,0,0,1-.35.7.59.59,0,0,1-.5-.08l-2.78-2a.56.56,0,0,0-.65,0l-2.77,2a.56.56,0,0,1-.78-.13.53.53,0,0,1-.07-.49l1.06-3.27a.56.56,0,0,0-.2-.61l-2.78-2a.56.56,0,0,1-.12-.78.55.55,0,0,1,.45-.22h3.43a.57.57,0,0,0,.53-.39l1.06-3.26a.55.55,0,0,1,.69-.36.58.58,0,0,1,.36.36" style="fill:#fbbe42"/><rect id="Rectangle_732" data-name="Rectangle 732" x="69.44" y="34.82" width="55.38" height="1.54" style="fill:#b1d7dd"/><rect id="Rectangle_733" data-name="Rectangle 733" x="69.44" y="9.5" width="55.38" height="2.9" style="fill:#0a4d7a"/><rect id="Rectangle_734" data-name="Rectangle 734" x="69.44" y="40.67" width="55.38" height="1.54" style="fill:#b1d7dd"/><rect id="Rectangle_735" data-name="Rectangle 735" x="69.44" y="46.11" width="25.31" height="1.54" style="fill:#b1d7dd"/><path id="Path_5095" data-name="Path 5095" d="M57.33,28.08A22.11,22.11,0,1,0,35.22,50.19h0A22.11,22.11,0,0,0,57.33,28.08h0" style="fill:#7bc7ff"/><g id="Group_4112" data-name="Group 4112"><g style="clip-path:url(#clip-path)"><g id="Group_4111" data-name="Group 4111"><path id="Path_5110" data-name="Path 5110" d="M59.5,61,58.08,48.21a7.07,7.07,0,0,0-3.18-5.05l-4.42-2.9,0,.11v-.1l-3.65-1.41-3.72-1.44L40,36.23l-1.35-.52-3.39,1.73L31.9,35.71l-1.19.46-2.9,1.12-3.93,1.52-3.77,1.46v.06l-4.32,2.83a7,7,0,0,0-3.18,5.05L11.18,61h9l0,10.61H50.39l0-10.61Z" style="fill:#fbbe42"/><path id="Path_5111" data-name="Path 5111" d="M35.42,13.3h0a9,9,0,0,0-9,9v4.3h18v-4.3a9,9,0,0,0-9-9" style="fill:#0a4d7a"/><path id="Path_5112" data-name="Path 5112" d="M39,33.34v3.15s0,.1-.06.26c-.47,1.86-2,5.46-3.58,5.42s-3.06-3.71-3.42-5.59a.62.62,0,0,1,0-.09V33.34Z" style="fill:#ffa683"/><path id="Path_5113" data-name="Path 5113" d="M39,32.7v2.83a7.45,7.45,0,0,1-7.07,0V32.7Z" style="fill:#e57c5c"/><path id="Path_5114" data-name="Path 5114" d="M30.69,26.66a2.19,2.19,0,1,0-2.19,2.19,2.19,2.19,0,0,0,2.19-2.19h0" style="fill:#ffa683"/><path id="Path_5115" data-name="Path 5115" d="M44.4,26.66a2.19,2.19,0,1,0-2.19,2.19,2.19,2.19,0,0,0,2.19-2.19" style="fill:#ffa683"/><path id="Path_5116" data-name="Path 5116" d="M42.63,23A15.83,15.83,0,0,1,39,20.35H31.9C31.33,22,28.35,23,28.35,23l-.06,3.54A11.9,11.9,0,0,0,30.56,33a6,6,0,0,0,2.15,1.83,6.11,6.11,0,0,0,2.75.65A6,6,0,0,0,40.37,33a11.87,11.87,0,0,0,2.27-6.5Z" style="fill:#ffa683"/></g></g></g></g></g></svg>