<svg xmlns="http://www.w3.org/2000/svg" xmlns:xlink="http://www.w3.org/1999/xlink" viewBox="0 0 419.72 257.96"><defs><clipPath id="clip-path"><rect x="119.08" y="6.77" width="125.55" height="234.47" style="fill:none"/></clipPath></defs><g id="Layer_2" data-name="Layer 2"><g id="Group_4120" data-name="Group 4120"><rect width="419.72" height="257.96" style="fill:none"/><path id="Path_5055" data-name="Path 5055" d="M233.33,0H130.39a18.07,18.07,0,0,0-18.08,18.08h0V233a18.07,18.07,0,0,0,18.08,18.07H233.33A18.08,18.08,0,0,0,251.41,233v-215A18.08,18.08,0,0,0,233.33,0" style="fill:#0a4d7a"/><path id="Path_5056" data-name="Path 5056" d="M233.33,0H130.39a18.07,18.07,0,0,0-18.08,18.08h0V233a18,18,0,0,0,7,14.24L249.92,10.9A18.08,18.08,0,0,0,233.33,0" style="fill:#2a418d"/><path id="Path_5057" data-name="Path 5057" d="M202,8.81H163.77a1.91,1.91,0,0,0,0,3.82H202a1.91,1.91,0,0,0,0-3.82" style="fill:#fff"/><path id="Path_5058" data-name="Path 5058" d="M233.32,6.78h-15.1l-5.43,10.29a11.74,11.74,0,0,1-10.38,6.26h-41.1a11.74,11.74,0,0,1-10.38-6.26L145.5,6.77H130.4a11.32,11.32,0,0,0-11.3,11.3V233a11.31,11.31,0,0,0,11.3,11.3H233.32a11.31,11.31,0,0,0,11.3-11.3V18.08a11.31,11.31,0,0,0-11.3-11.3" style="fill:#caedff"/><g id="Group_4101" data-name="Group 4101" style="opacity:0.8500000238418579"><g id="Group_4100" data-name="Group 4100"><g style="clip-path:url(#clip-path)"><g id="Group_4099" data-name="Group 4099"><path id="Path_5059" data-name="Path 5059" d="M244.63,18.08v2.39l-122,220.77a11.28,11.28,0,0,1-3.54-8.21V18.08a11.32,11.32,0,0,1,11.3-11.31h15.11l5.43,10.31a11.76,11.76,0,0,0,10.39,6.25h41.1a11.75,11.75,0,0,0,10.38-6.25l5.43-10.31h15.11a11.32,11.32,0,0,1,11.3,11.31" style="fill:#bae6f7"/></g></g></g></g></g></g></svg>