<svg xmlns="http://www.w3.org/2000/svg" xmlns:xlink="http://www.w3.org/1999/xlink" viewBox="0 0 172.19 68.4"><defs><clipPath id="clip-path"><path d="M12.7,27.39A22.11,22.11,0,1,0,34.81,5.28h0A22.11,22.11,0,0,0,12.7,27.39h0" style="fill:none"/></clipPath></defs><g id="Layer_2" data-name="Layer 2"><g id="Group_4120" data-name="Group 4120"><g id="Group_4113" data-name="Group 4113"><path id="Path_5118" data-name="Path 5118" d="M164.28,0H7.91A7.91,7.91,0,0,0,0,7.91v38.7a7.92,7.92,0,0,0,7.91,7.92H164.28a7.92,7.92,0,0,0,7.91-7.92V7.91A7.91,7.91,0,0,0,164.28,0h0" style="fill:#fff"/><path id="Path_5119" data-name="Path 5119" d="M76.07,18.19l1.06,3.26a.56.56,0,0,0,.53.38h3.43a.55.55,0,0,1,.55.56.54.54,0,0,1-.22.44l-2.78,2a.57.57,0,0,0-.2.62l1.06,3.27a.55.55,0,0,1-.36.69.51.51,0,0,1-.49-.08l-2.78-2a.56.56,0,0,0-.65,0l-2.77,2a.56.56,0,0,1-.78-.12.57.57,0,0,1-.08-.49l1.07-3.27a.57.57,0,0,0-.2-.62l-2.79-2a.55.55,0,0,1,.33-1h3.43a.56.56,0,0,0,.53-.38L75,18.19a.55.55,0,0,1,.69-.36.58.58,0,0,1,.36.36" style="fill:#fbbe42"/><path id="Path_5120" data-name="Path 5120" d="M95.11,18.19l1.06,3.26a.56.56,0,0,0,.53.38h3.43a.55.55,0,0,1,.55.56.54.54,0,0,1-.22.44l-2.78,2a.57.57,0,0,0-.2.62l1.06,3.27a.54.54,0,0,1-.36.69.51.51,0,0,1-.49-.08l-2.78-2a.56.56,0,0,0-.65,0l-2.77,2a.56.56,0,0,1-.78-.12.54.54,0,0,1-.07-.49l1.06-3.27a.57.57,0,0,0-.2-.62l-2.78-2a.55.55,0,0,1-.12-.77.56.56,0,0,1,.45-.23h3.43a.54.54,0,0,0,.52-.38l1.06-3.26a.57.57,0,0,1,.7-.36.58.58,0,0,1,.36.36" style="fill:#fbbe42"/><path id="Path_5121" data-name="Path 5121" d="M114.16,18.19l1.06,3.26a.54.54,0,0,0,.52.38h3.43a.55.55,0,0,1,.33,1l-2.78,2a.57.57,0,0,0-.2.62l1.06,3.27a.54.54,0,0,1-.35.69.53.53,0,0,1-.5-.08l-2.77-2a.56.56,0,0,0-.65,0l-2.78,2a.55.55,0,0,1-.77-.12.51.51,0,0,1-.08-.49l1.06-3.27a.57.57,0,0,0-.2-.62l-2.78-2a.55.55,0,0,1,.33-1h3.43a.56.56,0,0,0,.53-.38l1.06-3.26a.55.55,0,0,1,.69-.36.58.58,0,0,1,.36.36" style="fill:#b1d7dd"/><path id="Path_5122" data-name="Path 5122" d="M113.54,17.83a.54.54,0,0,0-.44.36L112,21.45a.54.54,0,0,1-.52.38h-3.43a.55.55,0,0,0-.33,1l2.78,2a.57.57,0,0,1,.2.62l-1.06,3.26a.54.54,0,0,0,.35.7.53.53,0,0,0,.5-.08l2.77-2a.57.57,0,0,1,.24-.08Z" style="fill:#fbbe42"/><path id="Path_5123" data-name="Path 5123" d="M133.2,18.19l1.06,3.26a.55.55,0,0,0,.52.38h3.44a.56.56,0,0,1,.55.56.53.53,0,0,1-.23.44l-2.77,2a.54.54,0,0,0-.2.62l1.06,3.27a.55.55,0,0,1-.36.69.51.51,0,0,1-.49-.08l-2.78-2a.56.56,0,0,0-.65,0l-2.78,2a.55.55,0,0,1-.77-.12.57.57,0,0,1-.08-.49l1.06-3.27a.54.54,0,0,0-.2-.62l-2.77-2a.55.55,0,0,1-.13-.77.57.57,0,0,1,.45-.23h3.43a.56.56,0,0,0,.53-.38l1.06-3.26a.56.56,0,0,1,.7-.36.57.57,0,0,1,.35.36" style="fill:#b1d7dd"/><path id="Path_5124" data-name="Path 5124" d="M152.24,18.19l1.06,3.26a.56.56,0,0,0,.53.38h3.43a.55.55,0,0,1,.55.56.54.54,0,0,1-.22.44l-2.78,2a.57.57,0,0,0-.2.62l1.06,3.27a.55.55,0,0,1-.36.69.51.51,0,0,1-.49-.08l-2.78-2a.56.56,0,0,0-.65,0l-2.77,2a.56.56,0,0,1-.78-.12.57.57,0,0,1-.08-.49l1.06-3.27a.54.54,0,0,0-.2-.62l-2.77-2a.55.55,0,0,1-.12-.77.55.55,0,0,1,.44-.23h3.44a.54.54,0,0,0,.52-.38l1.06-3.26a.57.57,0,0,1,.7-.36.55.55,0,0,1,.35.36" style="fill:#b1d7dd"/><rect id="Rectangle_737" data-name="Rectangle 737" x="69.44" y="34.82" width="55.38" height="1.54" style="fill:#b1d7dd"/><rect id="Rectangle_738" data-name="Rectangle 738" x="69.44" y="9.5" width="55.38" height="2.9" style="fill:#ff5a5a"/><rect id="Rectangle_739" data-name="Rectangle 739" x="69.44" y="40.67" width="55.38" height="1.54" style="fill:#b1d7dd"/><rect id="Rectangle_740" data-name="Rectangle 740" x="69.45" y="46.11" width="25.31" height="1.54" style="fill:#b1d7dd"/><path id="Path_5125" data-name="Path 5125" d="M57.34,27.47A22.11,22.11,0,1,0,35.23,49.58h0A22.11,22.11,0,0,0,57.34,27.47h0" style="fill:#7bc7ff"/></g><g id="Group_4116" data-name="Group 4116"><g style="clip-path:url(#clip-path)"><g id="Group_4115" data-name="Group 4115"><path id="Path_5126" data-name="Path 5126" d="M25.9,22.65s-1.26-5,.7-7.22,5.83-4.54,9-3.35c0,0,2.49-1.51,4.76-.25s5.55,2.37,5.9.85c0,0,.19,5.77-2.4,6.69l-1.07,4.44H26.22Z" style="fill:#0a4d7a"/><path id="Path_5127" data-name="Path 5127" d="M52.2,42.25c-2.8-4.81-14.66-7.48-14.66-7.48L34.42,36l-3.11-1.2s-11.86,2.66-14.66,7.48l-3.44,26,5.45-.09,3.2-21.68s2,7,1.9,11.1A90.16,90.16,0,0,1,22.37,68.4h24.1a90.14,90.14,0,0,1-1.38-10.85C45,53.46,47,46.45,47,46.45l3.19,21.68,5.45.09Z" style="fill:#0a4d7a"/><path id="Path_5128" data-name="Path 5128" d="M38.09,30.28v4.5s-.63,3.51-3.59,4.11a5.21,5.21,0,0,1-3.56-4.11v-4.5Z" style="fill:#ffa683"/><path id="Path_5129" data-name="Path 5129" d="M38.09,29.63v2.86a7.55,7.55,0,0,1-7.15,0V29.63Z" style="fill:#e57c5c"/><path id="Path_5130" data-name="Path 5130" d="M41.77,20.58a8.1,8.1,0,0,1-5.44-2.64c-2,1.75-9,2.64-9,2.64l0,2.77a12,12,0,0,0,2.3,6.58,6.16,6.16,0,0,0,9.92,0,11.94,11.94,0,0,0,2.29-6.58Z" style="fill:#ffa683"/><path id="Path_5131" data-name="Path 5131" d="M29.15,23.69a2,2,0,1,1-2-2h0a2,2,0,0,1,2,2" style="fill:#ffa683"/><path id="Path_5132" data-name="Path 5132" d="M43.79,23.69a2,2,0,1,1-2-2h0a2,2,0,0,1,2,2" style="fill:#ffa683"/></g></g></g></g></g></svg>