<svg xmlns="http://www.w3.org/2000/svg" viewBox="0 0 89.96 120.98"><g id="Layer_2" data-name="Layer 2"><g id="Group_4120" data-name="Group 4120"><path id="Path_5096" data-name="Path 5096" d="M43.54,81.85s37.5-31.4,44.1-20.3-3.1,47-3.1,47Z" style="fill:#0a85e0"/><path id="Path_5097" data-name="Path 5097" d="M63.24,94.75l21.3,13.9s8.9-32.9,3.9-45.4c2.2,16.5-15.3,26.9-25.2,31.5" style="fill:#006cbc"/><path id="Path_5098" data-name="Path 5098" d="M62.74,78.55s23.2,18.6,25.1,25.3c3.1,10.9-15.1,9.7-23,9.7s-57.9-1.4-57.9-1.4l.5-7.7,46.2-2.2S28,98.45,29,83.65s33.7-5.1,33.7-5.1" style="fill:#379cf7"/><path id="Path_5099" data-name="Path 5099" d="M86.64,110.05c-4.2,4.2-15.8,3.5-21.7,3.5-7.9,0-57.9-1.4-57.9-1.4l.5-7.7,46.2-2.2s18.4,8.9,32.6,7.8h.3" style="fill:#0a85e0"/><path id="Path_5100" data-name="Path 5100" d="M7.24,112.05s-2,4.6-.5,7.6-5.2.8-6.3-5.2-.6-13.1,7-9.9Z" style="fill:#004cba"/><path id="Path_5103" data-name="Path 5103" d="M54.34,19.45c-1.2,4.6-6.2,3.7-6.2,3.7v4.4h-8.5v-5.9h0c4.4,1,9.2-2.2,7.1-3.8s-2.6-4.2-1.5-5.5,3.8-.3,3.8-.3a12.37,12.37,0,0,0,5.4-1,19.79,19.79,0,0,1-.1,8.4" style="fill:#ffa683"/><path id="Path_5104" data-name="Path 5104" d="M49.14,12.15s-2.7-1-3.8.3-.7,3.9,1.5,5.5-2.7,4.8-7.1,3.8-6.9-10.3-3.1-16.3c3.5-5.5,15.7-7.9,18.2-2.1s2.6,8.6-5.7,8.8" style="fill:#3c3c3b"/><path id="Path_5105" data-name="Path 5105" d="M48.14,27.55v-4.4a18,18,0,0,1-4-1,8.81,8.81,0,0,0,2.5,2.2v3.1h1.5Z" style="fill:#e57c5c"/><path id="Path_5108" data-name="Path 5108" d="M64.84,80.75s-4.3-29.5-5.1-32.2c.1.1.3.2.4.3l-.5-.5s-10.7-2.6-14.5-7.1c0,0,3.6,7.5,8.3,9.2,4.2,1.6,2.7,24.1,5.9,32.2,1.3-.4,2.6-.8,3.9-1.3Z" style="fill:#083954"/><path d="M59.64,48.35s0,.12.11.19C59.7,48.35,59.66,48.28,59.64,48.35Z" style="fill:#0a4d7a"/><path d="M78.14,39.15S55,28,50.44,27.65c0,0-14.1-4.9-18,6.1s2.8,37.3-4.4,46.3a45.53,45.53,0,0,0,35.3,1.3l1.5-.6s-4.3-29.41-5.09-32.21c-.08-.07-.12-.14-.11-.19s.06,0,.11.19c1.33,1.29,15.58,5.68,19.49,4.47l-1-13.9Z" style="fill:#0a4d7a"/></g></g></svg>