<svg xmlns="http://www.w3.org/2000/svg" xmlns:xlink="http://www.w3.org/1999/xlink" width="61" height="61" viewBox="0 0 61 61">
  <defs>
    <clipPath id="clip-path">
      <circle id="Ellipse_329" data-name="Ellipse 329" cx="30.5" cy="30.5" r="30.5" transform="translate(1064 2631)" fill="#a4a4b6"/>
    </clipPath>
    <clipPath id="clip-path-2">
      <rect id="Rectangle_7796" data-name="Rectangle 7796" width="65.622" height="168.573" fill="none"/>
    </clipPath>
  </defs>
  <g id="Group_13119" data-name="Group 13119" transform="translate(-1064 -2631)">
    <circle id="Ellipse_328" data-name="Ellipse 328" cx="30.5" cy="30.5" r="30.5" transform="translate(1064 2631)" fill="#ff7b7b"/>
    <g id="Mask_Group_3830" data-name="Mask Group 3830" clip-path="url(#clip-path)">
      <g id="Group_13116" data-name="Group 13116" transform="translate(1061.689 2642.673)">
        <g id="Group_13115" data-name="Group 13115" clip-path="url(#clip-path-2)">
          <path id="Path_40457" data-name="Path 40457" d="M56.845,7.2c3.146,6.062.542,13.766,3.153,20.077,1.017,2.458,2.773,4.552,3.828,6.995s1.238,5.6-.645,7.481c-1.812,1.811-4.762,1.726-7.263,1.169s-5.065-1.466-7.56-.88c-2.055.483-3.731,1.91-5.49,3.076s-3.911,2.128-5.934,1.524A5.734,5.734,0,0,1,33.4,42.858a16.242,16.242,0,0,1-.58-5.319c.039-7.114.373-14.227,1.053-21.308.357-3.719.857-7.568,2.845-10.73C38.375,2.871,41.391.747,44.593.858c3.154.109,6.053.4,8.718,2.307A11.536,11.536,0,0,1,56.845,7.2" transform="translate(-13.071 -0.487)" fill="#2e3449"/>
          <path id="Path_40458" data-name="Path 40458" d="M36.253,98.2l-6.03-24.041a2.862,2.862,0,1,1,5.551-1.393L41.8,96.8Z" transform="translate(10.889 -40.31)" fill="#ffb99f"/>
          <path id="Path_40459" data-name="Path 40459" d="M38.274,137.879,31.89,164.623l-3.295-.638,4.061-27.194Z" transform="translate(15.08 -78.107)" fill="#ffb99f"/>
          <path id="Path_40460" data-name="Path 40460" d="M73.426,64.847a27.609,27.609,0,0,0-10.464.472L60.75,69.644l2.535,5.866,7.9,1.74,3.568-2.734Z" transform="translate(-35.198 -36.857)" fill="#994b05"/>
          <path id="Path_40461" data-name="Path 40461" d="M107.43,273.432l-5.973-.661c-3.123,12.952-1.978,26.011-2.663,41.164l3.583.4c1.88-17.889,7.878-27.74,5.053-40.9" transform="translate(-84.935 -155.751)" fill="#ffb99f"/>
          <path id="Path_40462" data-name="Path 40462" d="M87.75,213.029c2.717-11.264,6.747-23.162,8.225-35.612L84.963,166.984c-4.252,11.092-3.868,26.866-3.186,45.383Z" transform="translate(-65.255 -95.347)" fill="#ffb99f"/>
          <path id="Path_40463" data-name="Path 40463" d="M17.507,273.064l-5.557,2.287c3.67,11.469,9.563,24.235,16.236,37.857l3.268-1.637c-6.937-16.6-5.753-27.424-13.947-38.506" transform="translate(29.042 -155.918)" fill="#ffb99f"/>
          <path id="Path_40464" data-name="Path 40464" d="M53.821,213.828c.451-11.578,2.064-24.035,1.068-36.534l-12.847-8.065c-1.99,11.711,1.486,27.1,5.793,45.125Z" transform="translate(-7.376 -96.629)" fill="#ffb99f"/>
          <path id="Path_40465" data-name="Path 40465" d="M66.169,96.165l.973-23.585A4.691,4.691,0,0,0,63.4,67.791L57.608,66.6l-5.789,1.188a4.692,4.692,0,0,0-3.744,4.789l.973,23.585L43.734,110H71.482Z" transform="translate(-24.623 -38.03)" fill="#ffe9cc"/>
          <path id="Path_40466" data-name="Path 40466" d="M59.365,23.025c-6.177-.166-9.221-5.4-9.051-11.762S53.806-.162,59.983,0s12.87,5.5,12.7,11.86-7.14,11.327-13.317,11.161" transform="translate(-28.646 0)" fill="#2e3449"/>
          <path id="Path_40467" data-name="Path 40467" d="M77.691,10.882c-3-5.506-13.569-3.627-14.391.751-1.689,9-.407,12.7,2.1,14.829,2.9,2.462,4.787,2.148,4.787,7.321a3.61,3.61,0,0,0,6.653,0A31.172,31.172,0,0,1,79.1,21.738s-.175-8.586-1.413-10.856" transform="translate(-40.31 -4.275)" fill="#ffb99f"/>
          <path id="Path_40468" data-name="Path 40468" d="M82.226,34.286a.677.677,0,1,1-.677-.677.677.677,0,0,1,.677.677" transform="translate(-51.298 -19.191)"/>
          <path id="Path_40469" data-name="Path 40469" d="M82.946,34.426a.248.248,0,1,1-.248-.248.248.248,0,0,1,.248.248" transform="translate(-52.696 -19.515)" fill="#fff"/>
          <path id="Path_40470" data-name="Path 40470" d="M94.44,34.286a.677.677,0,1,1-.677-.677.677.677,0,0,1,.677.677" transform="translate(-68.752 -19.191)"/>
          <path id="Path_40471" data-name="Path 40471" d="M95.16,34.426a.248.248,0,1,1-.248-.248.248.248,0,0,1,.248.248" transform="translate(-70.15 -19.515)" fill="#fff"/>
          <path id="Path_40472" data-name="Path 40472" d="M94.608,28.451a2.217,2.217,0,0,0-2.759.136.446.446,0,0,0-.062.56.324.324,0,0,0,.489.071,1.589,1.589,0,0,1,1.158-.383,1.613,1.613,0,0,1,.6.165c.169.084.332.23.521.121a.351.351,0,0,0,.115-.11.442.442,0,0,0-.063-.56" transform="translate(-68.467 -16.008)" fill="#2e3449"/>
          <path id="Path_40473" data-name="Path 40473" d="M78.3,28.451a2.836,2.836,0,0,1,3.163.136.4.4,0,1,1-.489.631,1.99,1.99,0,0,0-1.327-.376,2.151,2.151,0,0,0-.69.163c-.193.081-.383.225-.6.117a.378.378,0,0,1-.131-.11.4.4,0,0,1,.073-.56" transform="translate(-49.516 -16.008)" fill="#2e3449"/>
          <path id="Path_40474" data-name="Path 40474" d="M85.768,42.233a2.4,2.4,0,0,1-1.125-.276.354.354,0,0,1,.329-.626,1.86,1.86,0,0,0,2.181-.4.354.354,0,1,1,.571.417,2.535,2.535,0,0,1-1.957.89" transform="translate(-58.403 -23.286)" fill="#c16b5b"/>
          <path id="Path_40475" data-name="Path 40475" d="M89.216,38.237a.089.089,0,0,1-.085-.063c-.168-.578.029-.774.223-.837a.854.854,0,0,1,.7.154.088.088,0,0,1,.029.122.09.09,0,0,1-.122.028.688.688,0,0,0-.553-.135c-.174.056-.211.264-.108.619a.088.088,0,0,1-.06.109.1.1,0,0,1-.024,0" transform="translate(-62.687 -21.304)" fill="#c16b5b"/>
          <path id="Path_40476" data-name="Path 40476" d="M59.3,36.308a2.335,2.335,0,0,1-3.192.654,2.335,2.335,0,0,1,.088-3.257,2.335,2.335,0,0,1,3.192-.654,2.335,2.335,0,0,1-.088,3.257" transform="translate(-18.185 -18.647)" fill="#ffb99f"/>
          <path id="Path_40477" data-name="Path 40477" d="M59.106,34.614a1.563,1.563,0,0,0-1.373.027,1.275,1.275,0,0,0-.525.408.777.777,0,0,0-.112.716,1.1,1.1,0,0,0,.377.445,1.07,1.07,0,0,1,.253.255.4.4,0,0,1-.511.562.177.177,0,0,0-.149.321.732.732,0,0,0,.308.067.748.748,0,0,0,.657-1.128,1.342,1.342,0,0,0-.335-.351.82.82,0,0,1-.27-.3.428.428,0,0,1,.07-.384.357.357,0,0,1,.641.038.633.633,0,0,1,.154.519.177.177,0,0,0,.146.2.134.134,0,0,0,.029,0,.177.177,0,0,0,.174-.148.979.979,0,0,0-.242-.815.8.8,0,0,0-.265-.181,1.114,1.114,0,0,1,.806.055.685.685,0,0,1,.344.832.177.177,0,1,0,.321.148,1.036,1.036,0,0,0-.5-1.293" transform="translate(-18.498 -19.681)" fill="#c16b5b"/>
          <path id="Path_40478" data-name="Path 40478" d="M65.454,7.979a8.824,8.824,0,0,0,6.107,4.349A6.945,6.945,0,0,1,70.5,9.318c1.366,3.453,3.627,6.347,7.319,7.015.378-2.143,1.1-4.15.562-6.26a9.33,9.33,0,0,0-3.485-5.359A8.273,8.273,0,0,0,68.04,3.556a9.379,9.379,0,0,0-5.53,4.3A10.754,10.754,0,0,0,61.1,13.8c.031.638.043.889.6.422a10.257,10.257,0,0,0,1.018-.993,11.731,11.731,0,0,0,2.287-3.75c.1-.254.574-1.263.448-1.5" transform="translate(-39.153 -1.866)" fill="#2e3449"/>
          <path id="Path_40479" data-name="Path 40479" d="M122.977,363.024a3.35,3.35,0,0,1-3.8,0,11,11,0,0,1-4.558,2.7c-2.52.611-7.173.567-8.856,3.168a2.921,2.921,0,0,0-.44,2.558h20.294a11.2,11.2,0,0,0-2.637-8.426" transform="translate(-105.199 -207.285)" fill="#2e3449"/>
          <path id="Path_40480" data-name="Path 40480" d="M138.206,375.116l3.872-.191a12.341,12.341,0,0,1,2.4.037,7.411,7.411,0,0,0-.615-2.081,8.649,8.649,0,0,0-1-1.65,6.453,6.453,0,0,0-4.193,2.348,3.321,3.321,0,0,0-.549,1.539l.082,0" transform="translate(-138.112 -211.971)" fill="#ffe9cc"/>
          <path id="Path_40481" data-name="Path 40481" d="M133.668,370.9a.149.149,0,0,1-.143-.109,4.372,4.372,0,0,0-.861-1.623.149.149,0,1,1,.228-.193,4.671,4.671,0,0,1,.921,1.735.149.149,0,0,1-.1.184.144.144,0,0,1-.04.006" transform="translate(-125.094 -210.654)" fill="#ffe9cc"/>
          <path id="Path_40482" data-name="Path 40482" d="M129.991,369.955a.149.149,0,0,1-.145-.115,2.848,2.848,0,0,0-1.13-1.66.149.149,0,0,1,.17-.245,3.151,3.151,0,0,1,1.25,1.836.148.148,0,0,1-.111.179.135.135,0,0,1-.034,0" transform="translate(-119.712 -210.074)" fill="#ffe9cc"/>
          <path id="Path_40483" data-name="Path 40483" d="M127.029,368.776a.149.149,0,0,1-.133-.08,5.71,5.71,0,0,0-.561-.932,1.814,1.814,0,0,0-.811-.615.149.149,0,1,1,.1-.282,2.11,2.11,0,0,1,.949.712,5.977,5.977,0,0,1,.592.98.15.15,0,0,1-.064.2.152.152,0,0,1-.069.017" transform="translate(-115.363 -209.474)" fill="#ffe9cc"/>
          <path id="Path_40484" data-name="Path 40484" d="M123.959,367.918a.15.15,0,0,1-.143-.107,2.706,2.706,0,0,0-1.4-1.651.149.149,0,0,1,.129-.269,3.011,3.011,0,0,1,1.559,1.837.149.149,0,0,1-.1.185.145.145,0,0,1-.042.006" transform="translate(-110.967 -208.913)" fill="#ffe9cc"/>
          <path id="Path_40485" data-name="Path 40485" d="M121.22,366.252a.149.149,0,0,1-.136-.088,5.7,5.7,0,0,0-.526-.988,1.8,1.8,0,0,0-.809-.664.149.149,0,0,1,.1-.28,2.1,2.1,0,0,1,.948.77,5.948,5.948,0,0,1,.556,1.039.149.149,0,0,1-.136.211" transform="translate(-107.079 -207.969)" fill="#ffe9cc"/>
          <path id="Path_40486" data-name="Path 40486" d="M115.363,367.869a2.4,2.4,0,0,0,1.1,1.088,2.214,2.214,0,0,0,.9.172,5.131,5.131,0,0,0,1.018-.125,10.981,10.981,0,0,0,4.056-1.614,6.835,6.835,0,0,0,2.517-3.027,3.217,3.217,0,0,1-.336.031,6.589,6.589,0,0,1-2.35,2.75,10.683,10.683,0,0,1-3.948,1.568,2.924,2.924,0,0,1-1.737-.028,2.108,2.108,0,0,1-.956-.956,4.55,4.55,0,0,1-.311-.767l-.3.047a4.9,4.9,0,0,0,.346.861" transform="translate(-108.673 -208.049)" fill="#232838"/>
          <path id="Path_40487" data-name="Path 40487" d="M110.9,369.237a6.036,6.036,0,0,0-3.52,5.487.149.149,0,0,0,.3,0,5.737,5.737,0,0,1,3.342-5.215c-.039-.091-.079-.181-.121-.272" transform="translate(-91.462 -210.832)" fill="#232838"/>
          <path id="Path_40488" data-name="Path 40488" d="M115.863,377.583a78.814,78.814,0,0,1-10.4-.356,2.86,2.86,0,0,0-.306,2.333h20.294a7.634,7.634,0,0,0,.124-2.172c-2.2,0-6.3.017-9.71.195" transform="translate(-105.034 -215.394)" fill="#ffe9cc"/>
          <path id="Path_40489" data-name="Path 40489" d="M118.441,379.779l-13.248.137a.149.149,0,0,0,0,.3h0l13.23-.136c.006-.094.011-.193.015-.3" transform="translate(-97.885 -216.852)" fill="#3e6b7f"/>
          <path id="Path_40490" data-name="Path 40490" d="M12.481,356.311a3.349,3.349,0,0,1-3.36,1.781,10.994,10.994,0,0,1-2.763,4.52c-1.94,1.719-6.071,3.859-6.342,6.946a2.92,2.92,0,0,0,.809,2.466l17.932-9.5a11.2,11.2,0,0,0-6.275-6.211" transform="translate(46.865 -203.451)" fill="#2e3449"/>
          <path id="Path_40491" data-name="Path 40491" d="M30.542,383.392l3.332-1.982a12.333,12.333,0,0,1,2.138-1.091,7.411,7.411,0,0,0-1.518-1.551,8.634,8.634,0,0,0-1.653-.991,6.456,6.456,0,0,0-2.606,4.038,3.328,3.328,0,0,0,.236,1.617l.072-.041" transform="translate(16.646 -215.709)" fill="#ffe9cc"/>
          <path id="Path_40492" data-name="Path 40492" d="M30.271,373.851a.149.149,0,0,1-.178-.029,4.37,4.37,0,0,0-1.521-1.031.149.149,0,0,1,.111-.277,4.666,4.666,0,0,1,1.626,1.1.149.149,0,0,1-.005.211.137.137,0,0,1-.033.024" transform="translate(23.053 -212.697)" fill="#ffe9cc"/>
          <path id="Path_40493" data-name="Path 40493" d="M27.454,371.338a.15.15,0,0,1-.182-.033,2.848,2.848,0,0,0-1.776-.938.149.149,0,0,1,.036-.3,3.152,3.152,0,0,1,1.964,1.037.149.149,0,0,1-.014.21.146.146,0,0,1-.029.02" transform="translate(27.206 -211.307)" fill="#ffe9cc"/>
          <path id="Path_40494" data-name="Path 40494" d="M25.41,368.924a.15.15,0,0,1-.155-.009,5.728,5.728,0,0,0-.932-.561,1.809,1.809,0,0,0-1.005-.163.149.149,0,0,1-.048-.295,2.113,2.113,0,0,1,1.173.185,5.957,5.957,0,0,1,.982.589.149.149,0,0,1-.015.254" transform="translate(30.204 -210.055)" fill="#ffe9cc"/>
          <path id="Path_40495" data-name="Path 40495" d="M23.08,366.756a.149.149,0,0,1-.177-.028,2.706,2.706,0,0,0-2.011-.8.149.149,0,1,1-.012-.3,3.009,3.009,0,0,1,2.236.893.15.15,0,0,1,0,.211.136.136,0,0,1-.034.025" transform="translate(33.566 -208.77)" fill="#ffe9cc"/>
          <path id="Path_40496" data-name="Path 40496" d="M21.443,363.978a.15.15,0,0,1-.161-.014,5.715,5.715,0,0,0-.928-.627,1.8,1.8,0,0,0-1.026-.208.149.149,0,1,1-.04-.3,2.091,2.091,0,0,1,1.2.236,5.958,5.958,0,0,1,.978.658.149.149,0,0,1-.021.25" transform="translate(35.88 -207.168)" fill="#ffe9cc"/>
          <path id="Path_40497" data-name="Path 40497" d="M17.725,366.719a2.4,2.4,0,0,0,1.481.447,2.216,2.216,0,0,0,.873-.268,5.13,5.13,0,0,0,.841-.587,10.967,10.967,0,0,0,2.828-3.325,6.829,6.829,0,0,0,.807-3.853,3.227,3.227,0,0,1-.282.185,6.588,6.588,0,0,1-.789,3.529,10.683,10.683,0,0,1-2.754,3.234,2.921,2.921,0,0,1-1.547.789,2.108,2.108,0,0,1-1.292-.4,4.579,4.579,0,0,1-.634-.531l-.241.181a4.889,4.889,0,0,0,.709.6" transform="translate(33.735 -205.062)" fill="#232838"/>
          <path id="Path_40498" data-name="Path 40498" d="M9,359.992a6.035,6.035,0,0,0-.541,6.5.149.149,0,0,0,.264-.139,5.738,5.738,0,0,1,.511-6.173c-.077-.062-.154-.123-.234-.184" transform="translate(53.055 -205.553)" fill="#232838"/>
          <path id="Path_40499" data-name="Path 40499" d="M9.358,370.9A78.9,78.9,0,0,1,0,375.454a2.861,2.861,0,0,0,.822,2.205l17.932-9.5a7.636,7.636,0,0,0-.908-1.977c-1.949,1.028-5.555,2.962-8.489,4.719" transform="translate(46.867 -209.086)" fill="#ffe9cc"/>
          <path id="Path_40500" data-name="Path 40500" d="M12.484,368.084.843,374.408a.149.149,0,0,0,.141.263h0l11.626-6.315c-.039-.086-.081-.176-.127-.271" transform="translate(52.682 -210.174)" fill="#3e6b7f"/>
          <path id="Path_40501" data-name="Path 40501" d="M101.917,99.994l3.239-24.573a2.862,2.862,0,0,0-5.674-.748L96.243,99.246Z" transform="translate(-80.848 -41.217)" fill="#ffb99f"/>
          <path id="Path_40502" data-name="Path 40502" d="M113.031,135.008l-7.915,26.332,3.17,1.1,10.151-25.554Z" transform="translate(-97.91 -77.089)" fill="#ffb99f"/>
          <path id="Path_40503" data-name="Path 40503" d="M133.346,198.327a2.774,2.774,0,0,1-1.013,2.6,3.132,3.132,0,0,1-2.148.379,4.354,4.354,0,0,1-2.451-1.036,2.64,2.64,0,0,1-.849-2.44,3.658,3.658,0,0,1,1.444-1.933,4.494,4.494,0,0,1,2.046-1.015c1.944-.293,2.8,1.845,2.971,3.448" transform="translate(-122.155 -111.259)" fill="#ffb99f"/>
          <path id="Path_40504" data-name="Path 40504" d="M42.268,135.51a34.457,34.457,0,0,1-17.122,0s-5.055,9.052-6.851,18.1c-2.038,10.268-2.589,24.756-2.674,34.151s-2.173,19.685-3.217,31.169c0,0,3.281,4.474,14.018,1.491,0,0-1.044-23.115-.895-27.291s6.343-27.888,7.261-34c0,0,2.532,18.642,6.807,35.973l7.985,26.345s7.624,2.057,13.44-6.27c0,0-8.958-19.37-9.391-22.494-1.283-9.246-2.019-32.874-3.077-40.564s-6.286-16.608-6.286-16.608" transform="translate(-0.722 -77.375)" fill="#2e3449"/>
          <path id="Path_40505" data-name="Path 40505" d="M51.614,143.819a41.031,41.031,0,0,0,20.8-.083l.13.268a40.939,40.939,0,0,1-9.994,1.4,66.326,66.326,0,0,1-.42,13.141,2.616,2.616,0,0,1-.238.9.993.993,0,0,1-.823.56h-.015a1.01,1.01,0,0,1-.885-.684,2.662,2.662,0,0,1-.111-1.069l.46-12.863a41.517,41.517,0,0,1-9.035-1.3l.128-.273m8.745,14.449a2.435,2.435,0,0,0,.091.95.722.722,0,0,0,.607.494h.009a.707.707,0,0,0,.565-.4,2.342,2.342,0,0,0,.205-.8,66.042,66.042,0,0,0,.417-13.1c-.125,0-.251.007-.376.007-.353,0-.706-.006-1.059-.015Z" transform="translate(-29.012 -82.072)" fill="#232838"/>
          <path id="Path_40506" data-name="Path 40506" d="M94.7,256.2c-.477-.2-.942-.419-1.4-.653.011-.106.023-.211.034-.316.461.239.928.465,1.408.665a457.783,457.783,0,0,0,4.127-51.83l.3.006a458.118,458.118,0,0,1-4.141,51.939,19.673,19.673,0,0,0,11.923.834c0,.1.009.206.013.3a19.323,19.323,0,0,1-4.62.558,20.158,20.158,0,0,1-7.359-1.393q-.2,1.485-.419,2.966c-.1-.055-.19-.111-.278-.166q.21-1.457.411-2.916" transform="translate(-81.369 -116.52)" fill="#232838"/>
          <path id="Path_40507" data-name="Path 40507" d="M23.8,254.281c-2.988-5.313-6.079-10.807-7.488-16.825-1.28-5.466-1.13-11.182-.985-16.711.088-3.333.178-6.781-.045-10.143l.3-.02c.224,3.376.133,6.83.045,10.17-.145,5.509-.294,11.207.977,16.634,1.4,5.978,4.48,11.453,7.458,16.747.6,1.075,1.214,2.16,1.814,3.255q.816-.582,1.58-1.23l.129.282q-.756.636-1.565,1.211.537.984,1.057,1.981c-.071.081-.142.16-.212.238q-.536-1.03-1.091-2.048A24.675,24.675,0,0,1,14.2,262.109l-.088-.289a24.349,24.349,0,0,0,11.508-4.258c-.6-1.1-1.219-2.2-1.829-3.281" transform="translate(31.987 -120.242)" fill="#232838"/>
          <path id="Path_40508" data-name="Path 40508" d="M76.973,141.453a1.082,1.082,0,0,1-1.968.392,1.035,1.035,0,0,1-.16-.719.939.939,0,0,1,.386-.623,1.6,1.6,0,0,1,1.266-.151,1.059,1.059,0,0,1,.476,1.1" transform="translate(-43.471 -80.099)" fill="#232838"/>
          <path id="Path_40509" data-name="Path 40509" d="M19.9,83.72l-1.42-13.064L20.794,68.2a8.34,8.34,0,0,1,3.948,3.877c1.272,2.759,9.1,21.027,9.175,23.563S32.6,108.1,32.5,112.783c0,0-7.946-.269-13.428-5l4.015-10.951Z" transform="translate(23.773 -38.941)" fill="#ba6006"/>
          <path id="Path_40510" data-name="Path 40510" d="M21.2,151.084a29.385,29.385,0,0,0,3.787,2.061.123.123,0,0,1,.088.041,29.442,29.442,0,0,0,8.378,2.35c-.009.1-.018.2-.026.291-.243-.03-.486-.06-.728-.1a25.671,25.671,0,0,0-.595,4.294l-.3-.034a26.012,26.012,0,0,1,.6-4.3c-.422-.067-.842-.146-1.26-.232A18.676,18.676,0,0,0,30.5,159.8l-.3-.052a18.982,18.982,0,0,1,.65-4.355c-.3-.066-.608-.135-.91-.21a31.59,31.59,0,0,0-.871,4.336l-.293-.068a31.964,31.964,0,0,1,.875-4.343q-.6-.156-1.2-.339c-.29,1.461-.506,2.946-.649,4.433l-.29-.081c.145-1.489.361-2.976.653-4.439-.262-.083-.522-.171-.782-.261a21.259,21.259,0,0,0-1.1,4.313l-.286-.1a21.535,21.535,0,0,1,1.106-4.31c-.294-.106-.586-.217-.876-.332a24.223,24.223,0,0,0-1.147,4.294c-.094-.038-.188-.075-.282-.115a24.481,24.481,0,0,1,1.151-4.287c-.3-.123-.6-.252-.9-.385a13.691,13.691,0,0,0-.961,3.1.15.15,0,0,1-.147.122l-.027,0a.149.149,0,0,1-.12-.173,14,14,0,0,1,.98-3.161,29.564,29.564,0,0,1-3.677-2.01Z" transform="translate(23.118 -86.268)" fill="#994b05"/>
          <path id="Path_40511" data-name="Path 40511" d="M27.719,145.117a5.539,5.539,0,0,1,2.65,3.011c2.112,4.482,2.632,9.523,3.122,14.454a2.513,2.513,0,0,1-.336,1.934,2.5,2.5,0,0,1-1.312.636l-2.32.6a3.81,3.81,0,0,1-2.972-.057,3.654,3.654,0,0,1-1.287-2.158,49.58,49.58,0,0,1-1.841-9.2q-.246-2.382-.262-4.78c-.006-.986-.362-3.221.361-4,.817-.879,3.207-.828,4.2-.434" transform="translate(22.193 -82.706)" fill="#e08428"/>
          <path id="Path_40512" data-name="Path 40512" d="M29.748,153.317a14.789,14.789,0,0,1-3.495-4.221c-.064-1.1-.248-2.871.379-3.545.817-.879,3.207-.828,4.2-.434a5.539,5.539,0,0,1,2.65,3.011,26.847,26.847,0,0,1,1.829,5.433,2.627,2.627,0,0,1-.741.777,3.086,3.086,0,0,1-2.545.294,6.476,6.476,0,0,1-2.274-1.315" transform="translate(19.083 -82.706)" fill="#f4a548"/>
          <path id="Path_40513" data-name="Path 40513" d="M116.236,68.2s-4.047.373-4.867,2.982-3.612,22.3-4.677,24.234-8.3,17.367-8.3,17.367a12.632,12.632,0,0,0,12.378,5.226l5.145-21.182Z" transform="translate(-92.827 -38.941)" fill="#ba6006"/>
          <path id="Path_40514" data-name="Path 40514" d="M110.317,163.488l.142-.3a19.5,19.5,0,0,0,11.445,5.478l-.073.3a18.913,18.913,0,0,1-2.741-.5l-1.332,3.844c-.1-.01-.205-.018-.305-.03l1.349-3.892q-.6-.166-1.2-.372l-1.595,4.008c-.1-.023-.195-.048-.291-.074l1.6-4.033q-.7-.256-1.387-.568l-2.059,3.962c-.093-.041-.181-.084-.271-.126l2.058-3.961c-.317-.15-.63-.309-.939-.476a17.942,17.942,0,0,1-1.891,4.043c-.088-.049-.173-.1-.258-.148a17.645,17.645,0,0,0,1.884-4.039q-.429-.241-.846-.5l-2.333,3.671c-.081-.062-.157-.124-.235-.187l2.317-3.644q-.672-.437-1.308-.928l-1.976,3.711c-.077-.075-.149-.15-.22-.223l1.958-3.677c-.248-.2-.492-.4-.73-.611l-1.78,3.677c-.076-.09-.146-.176-.208-.255l1.758-3.632c-.184-.169-.365-.342-.543-.518" transform="translate(-103.088 -93.179)" fill="#994b05"/>
          <path id="Path_40515" data-name="Path 40515" d="M35.651,65.244s-.5,8.391-1.193,18.269c-1.146,16.265-1.591,27.39.5,37.084s13.72,9.594,13.72,9.594-1.845-18.466-3.42-24.606c-1.564-6.1-4.355-23.249-4.157-26s.891-13.074.891-13.074S37.9,65.5,35.651,65.244" transform="translate(2.577 -37.254)" fill="#ba6006"/>
          <path id="Path_40516" data-name="Path 40516" d="M98.635,66.345S100,84.092,100,91.349s2.386,24.483-3.281,31.193A17.984,17.984,0,0,1,83.9,128.881s6.869-23.753,8.312-31.616C94.286,85.95,94.281,67.14,94.281,67.14a37.242,37.242,0,0,1,4.354-.8" transform="translate(-70.871 -37.883)" fill="#ba6006"/>
          <path id="Path_40517" data-name="Path 40517" d="M51.065,95.022h.012a.149.149,0,0,0,.136-.161l-.552-6.76a.149.149,0,0,0-.3.024l.553,6.76a.149.149,0,0,0,.148.137" transform="translate(-7.199 -50.226)" fill="#994b05"/>
          <path id="Path_40518" data-name="Path 40518" d="M100.47,132.249a.149.149,0,0,0,.145-.117A208.9,208.9,0,0,0,105.4,96.466a.149.149,0,1,0-.3-.014,208.655,208.655,0,0,1-4.774,35.616.149.149,0,0,0,.113.178.168.168,0,0,0,.033,0" transform="translate(-82.813 -54.992)" fill="#994b05"/>
          <path id="Path_40519" data-name="Path 40519" d="M84.844,126.848q-.467.163-.939.314l.1-.345a31.012,31.012,0,0,0,4.244-1.71c.137-.069.278-.142.419-.216a.147.147,0,0,1,.079-.04,16.429,16.429,0,0,0,7.524-7.518c1.439-3.25,1.413-7.1,1.392-10.185-.005-.787-.016-1.577-.023-2.365a.145.145,0,0,1-.008-.051.15.15,0,0,1,.007-.03q-.065-6.734-.235-13.5a.143.143,0,0,1-.021-.074.141.141,0,0,1,.018-.066c-.208-8.092-.536-16.193-.972-24.234l.3-.05q.021.394.042.788a6.625,6.625,0,0,0,1.374-.181c.007.092.015.194.023.3a6.94,6.94,0,0,1-1.381.178q.024.463.049.925a4.909,4.909,0,0,0,1.4-.188q.011.147.022.3a5.237,5.237,0,0,1-1.349.185h-.056c.017.324.036.647.052.971l1.424-.165c.007.1.014.2.021.3l-1.431.166c.015.307.028.615.044.923a.142.142,0,0,1,.033,0,3.361,3.361,0,0,0,1.429-.026c.007.1.014.2.021.3a3.684,3.684,0,0,1-.8.091,3.612,3.612,0,0,1-.673-.065c.015.3.028.59.042.886a12.913,12.913,0,0,0,1.482-.136c.007.1.014.2.021.3a13.13,13.13,0,0,1-1.488.135q.021.443.042.887l1.508-.107c.007.1.013.2.02.3l-1.515.107c.016.344.033.689.049,1.033l1.539-.035c.006.1.013.2.02.3l-1.545.035c.015.352.029.7.044,1.057l1.565-.088c.006.1.013.2.019.3l-1.572.088c.016.378.031.756.046,1.134a6.893,6.893,0,0,1,1.592-.176c.006.1.012.2.018.3a6.563,6.563,0,0,0-1.6.179c.016.393.033.786.048,1.18l.015,0,1.613-.083c.006.1.012.2.018.3l-1.616.083h-.008l-.01,0c.014.361.03.721.044,1.081l1.658.017c.006.1.012.2.017.3l-1.664-.017c.016.43.029.86.045,1.29l1.68-.18c.006.1.011.2.016.3l-1.675.18h-.011q.017.479.033.958l1.7-.207.015.3-1.706.208c.009.279.02.558.029.837l1.722-.138.014.3-1.725.137c.009.274.02.547.028.82l1.736-.123.013.3-1.738.123c.009.287.016.574.025.861A11.49,11.49,0,0,1,99.33,86.8c0,.1.008.2.012.3a11.165,11.165,0,0,0-1.755.075c.009.312.018.624.027.936l1.766.026c0,.1.006.2.01.3l-1.768-.026q.019.662.038,1.323l1.761-.165q0,.151.007.3l-1.759.165c.009.315.019.63.027.945l1.749.018c0,.1,0,.2,0,.3L97.7,91.275c.009.328.014.656.022.984a10.767,10.767,0,0,0,1.728.041c0,.1.005.2.007.3-.2.011-.406.019-.609.019a10.971,10.971,0,0,1-1.12-.059q.015.642.029,1.284l1.737-.072c0,.1.008.2.012.3l-1.742.072q.011.494.022.988l1.766-.034c0,.1.009.2.015.3l-1.774.034c.005.253.012.5.017.757l1.8-.009c0,.1.01.2.015.3l-1.8.009c.007.384.012.768.019,1.152l1.842-.051c.005.1.01.2.015.3l-1.852.051q.007.42.014.84a8.53,8.53,0,0,1,1.886.063c.005.1.01.2.015.305a8.2,8.2,0,0,0-1.9-.07q.006.421.013.841a14.336,14.336,0,0,0,1.928.239c0,.1.009.2.013.3a14.668,14.668,0,0,1-1.937-.238c.006.405.014.812.02,1.217l1.956.013.012.3-1.963-.013c.006.422.009.843.013,1.264a17.291,17.291,0,0,0,1.992.2q0,.152.007.3a17.568,17.568,0,0,1-2-.2q.007.648.013,1.3l2,.08c0,.1,0,.2,0,.3l-2-.08c0,.526.012,1.051.015,1.576l1.989.024c0,.1,0,.2,0,.3l-1.983-.024c0,.126,0,.252,0,.378,0,.262,0,.531,0,.8l1.951.133c0,.1,0,.2-.008.3l-1.942-.132c0,.283,0,.571,0,.863l1.908.221c0,.1-.008.2-.013.3l-1.9-.22q-.008.5-.028,1.007h0l1.855.327c-.007.1-.016.2-.024.3l-1.849-.326q-.024.508-.065,1.022a12.65,12.65,0,0,0,1.81.473c-.01.1-.021.2-.032.3a13.079,13.079,0,0,1-1.8-.466c-.042.468-.1.937-.168,1.406.607.1,1.212.23,1.81.386-.014.1-.027.2-.042.3-.6-.157-1.206-.289-1.816-.389-.059.354-.127.707-.206,1.058l1.8.623c-.019.1-.039.2-.058.3l-1.813-.628c-.1.418-.221.832-.359,1.24a11.445,11.445,0,0,1,1.887.662c-.025.1-.051.2-.077.293a11.12,11.12,0,0,0-1.886-.667.165.165,0,0,1-.021-.01c-.1.284-.211.566-.334.843-.04.091-.086.177-.128.266a17.459,17.459,0,0,1,1.964.915c-.033.1-.062.193-.1.287a17,17,0,0,0-2-.933c-.16.321-.328.634-.509.934a15.09,15.09,0,0,0,2.024,1.188c-.041.091-.082.182-.124.271a15.363,15.363,0,0,1-2.061-1.209q-.263.414-.549.8c.705.454,1.393.943,2.055,1.461-.051.087-.109.166-.162.251-.666-.521-1.359-1.014-2.069-1.47-.2.259-.407.5-.618.746l1.685,2.062c-.066.076-.133.153-.2.227l-1.687-2.065q-.409.448-.84.855a.167.167,0,0,1,.015.019l1.222,2.48q-.116.1-.232.205l-1.23-2.5q-.458.416-.928.789l1.024,2.616-.25.18-1.02-2.6c-.436.334-.875.643-1.309.924,0,.006.006.01.008.016l.718,2.677c-.09.05-.18.1-.269.146l-.718-2.676c-.454.284-.9.543-1.331.773l.318,2.719c-.1.039-.191.076-.287.113l-.314-2.686c-.089.045-.179.094-.266.137-.28.139-.562.272-.846.4l.07,2.616c-.1.03-.2.06-.3.088l-.069-2.571q-.546.241-1.1.46l-.091,2.423-.3.06.088-2.365q-.337.129-.677.251L84.86,129l-.306.039Z" transform="translate(-70.317 -38.127)" fill="#994b05"/>
          <path id="Path_40520" data-name="Path 40520" d="M35.755,110.63a9.007,9.007,0,0,0-1.588-.014c-.005-.1-.012-.2-.017-.3a9.276,9.276,0,0,1,1.633.015.148.148,0,0,1,.058.019c0-.73.018-1.459.042-2.183l-1.815.166c0-.1-.006-.2-.009-.3l1.835-.169c.017-.459.034-.916.053-1.371l.015-.367-1.939.061c0-.1,0-.2,0-.3l1.946-.061h.01l.057-1.371-2.017-.1c0-.1,0-.2,0-.3l2.028.106L36.092,103l-2.063-.4c0-.1,0-.2,0-.3l2.071.4.039-.937a15.038,15.038,0,0,0-2.1-.171c0-.1,0-.2.006-.3a15.275,15.275,0,0,1,2.1.17l.033-.807-2.12-.031c0-.1,0-.2.007-.3l2.125.031.045-1.085-2.135-.1c0-.1.006-.2.009-.3l2.138.1.048-1.157-.193,0a11.349,11.349,0,0,1-1.947-.169c0-.1.009-.2.012-.3.006,0,.012,0,.018,0a11,11,0,0,0,2.122.165l.06-1.444-2.135-.215.014-.3,2.133.215.047-1.148h-.006l-2.118-.205.015-.3,2.121.206.05-1.209H34.382c.006-.1.011-.2.016-.3h2.113l.055-1.342-2.081-.185c.006-.1.012-.2.018-.3l2.076.184.053-1.281a12.86,12.86,0,0,0-2.048-.227c.006-.1.013-.2.019-.3a13.231,13.231,0,0,1,2.041.224l.052-1.271-2.023-.051c.006-.1.013-.2.02-.3l2.016.051.048-1.17-1.982-.111c.007-.1.014-.2.021-.3l1.974.11.055-1.333c-.193.019-.389.03-.584.03a6.017,6.017,0,0,1-1.353-.157c.007-.1.014-.2.021-.3a5.71,5.71,0,0,0,1.928.13l.05-1.213-1.894-.125c.007-.1.014-.2.021-.3l1.885.125.047-1.148c-.115.005-.23.011-.346.011a8,8,0,0,1-1.506-.146q.011-.151.021-.3a7.741,7.741,0,0,0,1.843.138L37,80.974h-.146c-.557,0-1.117-.03-1.674-.075.007-.1.013-.194.02-.29.6.048,1.212.07,1.812.065l.04-.961-1.784-.1c.006-.1.013-.2.02-.3l1.776.1.043-1.043-1.749-.1c.007-.1.013-.2.02-.3l1.741.1L37.164,77l-1.716-.064c.006-.1.013-.2.02-.3l1.708.064.05-1.21-1.677-.072.019-.3,1.671.072.04-.981-1.646-.081c.006-.1.013-.2.019-.3l1.639.08.051-1.251-1.613-.039c.006-.1.013-.2.019-.3l1.606.039.052-1.264-1.535.027h0a.137.137,0,0,1-.044-.009l.018-.284a.2.2,0,0,1,.023-.005l1.552-.027.044-1.061h-.006l-.025,0-1.5-.261c.006-.1.012-.2.019-.3l1.527.265.049-1.181L36.015,68.1c.006-.1.013-.2.018-.3l1.5.167.044-1.057-1.472-.313c.006-.109.012-.208.018-.3l1.466.311.035-.853.3.053L36.551,99.092a.157.157,0,0,1,.007.045.146.146,0,0,1-.011.043l-.3,7.33a45.841,45.841,0,0,0,.154,8.22,15.053,15.053,0,0,0,2.991,7.505,12.57,12.57,0,0,0,3.978,3.207.137.137,0,0,1,.04,0,.146.146,0,0,1,.119.085,19.5,19.5,0,0,0,5.418,1.752q.013.156.026.306-.853-.153-1.652-.352l.142,3.128c-.1-.012-.2-.024-.3-.038l-.144-3.167c-.538-.143-1.054-.305-1.553-.481l.04,3.351c-.1-.022-.2-.045-.3-.069l-.039-3.323a.141.141,0,0,1,.011-.057,16.723,16.723,0,0,1-1.656-.721l-.314,3.5-.29-.11.317-3.535a14.2,14.2,0,0,1-1.545-.939l-.2,3.832c-.1-.05-.194-.1-.291-.154l.2-3.863a.168.168,0,0,1,.006-.025,12.546,12.546,0,0,1-1.339-1.145L38.4,126.373c-.073-.073-.145-.148-.217-.223l1.668-2.953c-.24-.249-.472-.5-.689-.773-.1-.122-.19-.254-.285-.382l-2.2,2.054c-.05-.089-.1-.18-.146-.272L38.7,121.8a12.705,12.705,0,0,1-.8-1.305l-2.13,1.479c-.031-.1-.061-.2-.09-.3l2.079-1.444c-.2-.387-.386-.784-.553-1.2l-1.891,1.049c-.021-.1-.04-.206-.06-.308l1.849-1.025a16.755,16.755,0,0,1-.546-1.71l-1.587,1.151c-.018-.11-.035-.221-.052-.331l1.566-1.136c-.073-.3-.143-.613-.2-.931l-1.552.785c-.015-.1-.03-.208-.044-.312l1.544-.78c-.041-.234-.085-.466-.118-.707-.051-.367-.093-.735-.127-1.1l-1.533.561c-.01-.1-.019-.2-.029-.307l1.538-.563q-.053-.631-.078-1.264l-1.58.453c-.008-.1-.017-.2-.024-.3l1.591-.456c-.012-.393-.021-.787-.022-1.18a.151.151,0,0,1-.085.021" transform="translate(2.057 -37.544)" fill="#994b05"/>
          <path id="Path_40521" data-name="Path 40521" d="M45.6,103.425a.448.448,0,0,0,.3-.761,26.244,26.244,0,0,1-6.995-13.219,47.025,47.025,0,0,1-.557-10.413c.128-4.553.333-8.259.686-12.394a.447.447,0,1,0-.891-.076c-.354,4.153-.559,7.874-.689,12.445a47.779,47.779,0,0,0,.573,10.611,27.157,27.157,0,0,0,7.236,13.675.447.447,0,0,0,.336.133" transform="translate(3.542 -37.773)" fill="#f4a548"/>
        </g>
      </g>
    </g>
  </g>
</svg>
