<svg xmlns="http://www.w3.org/2000/svg" viewBox="0 0 26.69 40.56"><g id="Layer_2" data-name="Layer 2"><g id="Group_4120" data-name="Group 4120"><path d="M4.79,5.05v.1l.26.28Z" style="fill:none"/><path d="M4.74,5.1S3.14,0,.74,0c-2.2-.1,1.1,6.3,2,8.1,0,0,.78,1.29,2.05,3.33V5.15Z" style="fill:#ffa683"/><path d="M26.44,30.11C21.79,29.28,7.15,8.44,5.05,5.43l-.26-.28v6.28c2.72,4.37,7.7,12.22,12.39,18.72h9.26Z" style="fill:#ffa683"/><path d="M17.18,30.15c3.72,5.17,7.24,9.45,9.26,10.41V30.15Z" style="fill:#ffa683"/><path d="M26.34,27.5l.1,0v0h-.05S8.79,9.25,4.79,5.05l.26.38C9.56,10.15,26.34,27.5,26.34,27.5Z" style="fill:#ed7d5a"/><path d="M26.34,27.5S9.56,10.15,5.05,5.43c2.1,3,16.74,23.85,21.39,24.68V27.47Z" style="fill:#ed7d5a"/><path d="M26.44,30.15h.25c-.07,0-.16,0-.25,0Z" style="fill:#ffa683"/></g></g></svg>