<svg xmlns="http://www.w3.org/2000/svg" viewBox="0 0 68.71 106.97"><g id="Layer_2" data-name="Layer 2"><g id="Group_4120" data-name="Group 4120"><path id="Path_5134" data-name="Path 5134" d="M31.17,83.57,32.78,83c.23-2.77-1-7.45-7.26-14.67C13.85,55,3.85,36,6.38,28.55c0,0-11.41,17.18-3.71,28.51C9.89,67.7,29.09,70,31.17,83.57" style="fill:#379cf7"/><path id="Path_5135" data-name="Path 5135" d="M31.83,83.35l1-.32c.23-2.77-1-7.45-7.26-14.67C13.85,55,3.85,36,6.38,28.55c0,0-6,15.79,1.79,26.35S29.71,67.5,31.83,83.35" style="fill:#006cbc"/><path id="Path_5136" data-name="Path 5136" d="M35.84,72.16a32.53,32.53,0,0,1-2.17,6.65l.74.13c3.42-4.61,9-13.73,10.28-25.3C46.5,36.73,49,15.55,49,15.55s-17.22,14.2-13.36,34c1.92,9.84,1.42,17.34.25,22.66" style="fill:#379cf7"/><path id="Path_5137" data-name="Path 5137" d="M41.9,41.42c-.94,14.12-3.6,29.64-7,35.8L36.43,76a52,52,0,0,0,8.25-22.39C46.5,36.72,49,15.55,49,15.55s-5.83,7.5-7.06,25.87" style="fill:#006cbc"/><path id="Path_5138" data-name="Path 5138" d="M38.93,78.72A25.78,25.78,0,0,1,35,82.4l.45.36A41,41,0,0,0,51.74,69.51c7.49-10.72,17-24.07,17-24.07S51.86,48.66,47.15,63.37a42.52,42.52,0,0,1-8.22,15.35" style="fill:#379cf7"/><path id="Path_5139" data-name="Path 5139" d="M54.38,60.26c-5.85,9.16-13.39,18.63-18,21.5l1.51-.22a40,40,0,0,0,13.85-12c7.49-10.72,17-24.07,17-24.07S62,48.34,54.39,60.26" style="fill:#006cbc"/><path id="Path_5140" data-name="Path 5140" d="M32.47,78.2c1.06,3,1.84,5.08,2.29,6.51l.61-.14c-1-5.29-2.71-14.42-4.32-20.42-2.38-8.83-.53-13.12-2.44-28.49S17.58,0,17.58,0,11.7,21.42,20.11,41.85s7.7,23.07,12.36,36.35" style="fill:#379cf7"/><path id="Path_5141" data-name="Path 5141" d="M34.8,84.7l.11,0L35,82.52c-1-5.38-2.51-13.09-3.93-18.37-2.38-8.83-.53-13.12-2.44-28.49S17.58,0,17.58,0s2.86,30.52,7,43.87C28.49,56.21,34,81.06,34.8,84.7" style="fill:#006cbc"/><path id="Path_5142" data-name="Path 5142" d="M17.38,81.62l3.69,21.83A4.24,4.24,0,0,0,25.24,107H46.57a4.23,4.23,0,0,0,4.17-3.52l3.69-21.83a3.23,3.23,0,0,0-2.65-3.73,3.29,3.29,0,0,0-.54,0H20.57a3.23,3.23,0,0,0-3.23,3.24,3.27,3.27,0,0,0,0,.54" style="fill:#fff"/><path id="Path_5143" data-name="Path 5143" d="M54.41,80.51h0a4.5,4.5,0,0,0-.17-.6l0,0a3.33,3.33,0,0,0-.25-.5l-.07-.09a2,2,0,0,0-.31-.4,1.85,1.85,0,0,0-.14-.14c-.1-.1-.21-.19-.32-.28s-.17-.1-.25-.15a2,2,0,0,0-.69-.31l-.25-.08a3.34,3.34,0,0,0-.7-.08H20.57a3.22,3.22,0,0,0-3.21,3.23v.1H44.75a3.4,3.4,0,0,1,0,.45L41,103.44A4.22,4.22,0,0,1,36.86,107h9.71a4.22,4.22,0,0,0,4.17-3.52l3.69-21.83a3.12,3.12,0,0,0,0-1.1" style="fill:#caedff"/></g></g></svg>