<?xml version="1.0" encoding="utf-8"?>
<!-- Generator: Adobe Illustrator 24.1.2, SVG Export Plug-In . SVG Version: 6.00 Build 0)  -->
<svg version="1.1" id="Layer_1" xmlns="http://www.w3.org/2000/svg" xmlns:xlink="http://www.w3.org/1999/xlink" x="0px" y="0px"
	 viewBox="0 0 14.5 14.5" style="enable-background:new 0 0 14.5 14.5;" xml:space="preserve">
<style type="text/css">
	.st0{fill-rule:evenodd;clip-rule:evenodd;fill:#FFFFFF;}
</style>
<path id="Path_5703" class="st0" d="M14.4,11.5L14.4,11.5c-0.1,0.3-0.2,0.6-0.4,0.9c-0.1,0.3-0.2,0.5-0.3,0.8
	c-0.1,0.2-0.2,0.3-0.3,0.5c-0.1,0.1-0.3,0.2-0.4,0.3c-0.8,0.4-1.8,0.5-2.7,0.2c-3.8-1-9-6.2-10-10C0,3.3,0,2.3,0.5,1.5
	c0.1-0.1,0.2-0.3,0.3-0.4C1,1,1.1,0.9,1.3,0.8c0.2-0.1,0.5-0.2,0.8-0.3C2.4,0.3,2.7,0.2,3,0.1l0,0c0.3-0.1,0.7,0,0.9,0.3L5.4,3
	c0.2,0.3,0.1,0.8-0.3,1C4.6,4.2,4.2,4.7,4,5.3C3.9,5.9,4,6.5,4.4,7c0.9,1.2,2,2.2,3.1,3.1c0.5,0.4,1.1,0.5,1.7,0.4
	c0.6-0.1,1.1-0.5,1.4-1.1c0.2-0.3,0.6-0.5,1-0.3l2.6,1.5C14.4,10.8,14.6,11.2,14.4,11.5L14.4,11.5z"/>
</svg>
