<svg xmlns="http://www.w3.org/2000/svg" width="15.706" height="13.552" viewBox="0 0 15.706 13.552">
  <g id="send" transform="translate(-214)">
    <g id="Group_3860" data-name="Group 3860" transform="translate(214)">
      <path id="Path_4872" data-name="Path 4872" d="M14.77,40.486,2.1,35.228A1.517,1.517,0,0,0,.047,37l1.245,4.883L.047,46.77A1.517,1.517,0,0,0,2.1,48.546L14.77,43.287a1.517,1.517,0,0,0,0-2.8Zm-.353,1.952L1.746,47.7A.6.6,0,0,1,.939,47l1.186-4.651H6.7a.46.46,0,0,0,0-.92H2.125L.939,36.776a.6.6,0,0,1,.806-.7l12.672,5.258a.6.6,0,0,1,0,1.1Z" transform="translate(0 -35.111)" fill="#fff"/>
    </g>
  </g>
</svg>
