<svg xmlns="http://www.w3.org/2000/svg" xmlns:xlink="http://www.w3.org/1999/xlink" width="142.089" height="21.477" viewBox="0 0 142.089 21.477">
  <defs>
    <clipPath id="clip-path">
      <rect id="Rectangle_308" data-name="Rectangle 308" width="141.597" height="16.545" fill="#f35a29"/>
    </clipPath>
  </defs>
  <g id="Group_3857" data-name="Group 3857" transform="translate(0.577 0) rotate(2)" opacity="0.14">
    <g id="Group_3692" data-name="Group 3692" transform="translate(0 0)" clip-path="url(#clip-path)">
      <path id="Path_3691" data-name="Path 3691" d="M90.622.4c3.741-.4,8.135-.023,12.121-.387V.3c.32.016.264-.29.566-.29.412-.094.053.471.567.29.159-.034.009-.17-.114-.193a1.013,1.013,0,0,1,.907.29c.382-.039-.3-.375.226-.29,1.821.319,3.951-.382,6,.387,3.457-.119,7.383,0,11.328.193a15.11,15.11,0,0,0,2.266.1,19.862,19.862,0,0,1,2.378.1c.757.028,1.567.319,2.152.29-.35.017,1.6-.392,1.359.1,1.451-.357,3.264.19,4.758.1.242-.046.217.138.227.29.328-.387,1,.071,1.246-.29.132.6.762-.22,1.02.386.618-.479,1.447.083,2.265.194.577.078,1.555-.214,1.7.484a8.775,8.775,0,0,1-3.4,0c.311.233-.967.315-1.02-.1-.48.634-1.88-.117-2.265.58-.382-.088-.014-.216-.227-.387-1.471.31-2.425-.167-3.852-.1a4.184,4.184,0,0,0,3.059.677c.381.007.019.221.339.387.4-.1.208-.167.34-.387,1.647.529,4.6.266,6.343.87-1.4-.055-3.356.329-4.531-.193a43.368,43.368,0,0,1-7.476-.1c-.161-.017-.53.085-.227-.193a3.161,3.161,0,0,1-1.7.1c-11.111-.479-23.969-.029-34.436.387C80.82,4.441,69.8,5.207,58.112,6.489,39.948,8.484,23.042,12.284,6.8,15.675a39.036,39.036,0,0,1-4.418.871c-.4-.057-.778-.5-.453-.871-.595-.057-.858.171-1.473.1A2.921,2.921,0,0,1,0,14.9a4.028,4.028,0,0,1,1.813-1.064c.212-.184.012-.243,0-.483a50.023,50.023,0,0,1,13.14-3.868C22.722,8.4,30.662,6.536,38.288,5.426c1.836-.268,3.46-.316,5.438-.484,2.454-.208,5.6-.845,8.609-.87,1.861-.016,4.02-.555,6.23-.773C69.1,2.255,81.293,1.124,91.755.688,91.537.021,90.963.647,90.622.4M130.61,2.332h-.566c-.111.389.677.389.566,0" transform="translate(0 0)" fill="#f35a29" fill-rule="evenodd"/>
      <path id="Path_3692" data-name="Path 3692" d="M235.618,2.164c.507-.368,1.994-.108.906,0a4.976,4.976,0,0,0-.906,0" transform="translate(-152.585 -1.38)" fill="#f35a29" fill-rule="evenodd"/>
    </g>
  </g>
</svg>
