<svg id="Group_4094" data-name="Group 4094" xmlns="http://www.w3.org/2000/svg" xmlns:xlink="http://www.w3.org/1999/xlink" width="78.684" height="153.931" viewBox="0 0 78.684 153.931">
  <defs>
    <clipPath id="clip-path">
      <rect id="Rectangle_721" data-name="Rectangle 721" width="78.684" height="153.931" fill="none"/>
    </clipPath>
  </defs>
  <g id="Group_4093" data-name="Group 4093" clip-path="url(#clip-path)">
    <path id="Path_5048" data-name="Path 5048" d="M4.853,2.63A2.224,2.224,0,1,1,2.63.406,2.224,2.224,0,0,1,4.853,2.63Z" transform="translate(-0.013 -0.013)" fill="none" stroke="#648ac9" stroke-width="0.81"/>
    <path id="Path_5049" data-name="Path 5049" d="M29,108.914a3.865,3.865,0,1,1-3.865-3.865A3.865,3.865,0,0,1,29,108.914" transform="translate(-0.669 -3.305)" fill="#ffc557"/>
    <path id="Path_5050" data-name="Path 5050" d="M61.933,154.8a3.875,3.875,0,1,1-3.875-3.875,3.875,3.875,0,0,1,3.875,3.875" transform="translate(-1.705 -4.748)" fill="#839dc9"/>
    <path id="Path_5051" data-name="Path 5051" d="M81.108,73.169a2.039,2.039,0,1,1-2.04-2.04,2.04,2.04,0,0,1,2.04,2.04" transform="translate(-2.423 -2.238)" fill="#839dc9"/>
  </g>
</svg>
