<svg xmlns="http://www.w3.org/2000/svg" xmlns:xlink="http://www.w3.org/1999/xlink" viewBox="0 0 150.83 93.28"><defs><clipPath id="clip-path" transform="translate(0 -2.59)"><rect x="62.39" y="9.69" width="52.81" height="59.35" transform="translate(-6.83 56.38) rotate(-34)" style="fill:none"/></clipPath><clipPath id="clip-path-3" transform="translate(0 -2.59)"><rect x="84.8" y="18.66" width="10.69" height="29.93" transform="translate(-3.39 56.16) rotate(-34)" style="fill:none"/></clipPath><clipPath id="clip-path-4" transform="translate(0 -2.59)"><rect x="88.15" y="27.71" width="61.58" height="54.8" transform="translate(26.73 148.28) rotate(-70.16)" style="fill:none"/></clipPath><clipPath id="clip-path-6" transform="translate(0 -2.59)"><rect x="109.04" y="47.18" width="31.06" height="11.09" transform="matrix(0.34, -0.94, 0.94, 0.34, 32.69, 152.01)" style="fill:none"/></clipPath></defs><g id="Layer_2" data-name="Layer 2"><g id="Layer_1-2" data-name="Layer 1"><circle cx="16.25" cy="16.25" r="16.25" style="fill:#e0e0e0"/><ellipse cx="30.81" cy="45.13" rx="15.69" ry="16.5" style="fill:#e0e0e0"/><path id="Path_32606" data-name="Path 32606" d="M27.44,7s5.79,5.08,6.76,9S56,64.89,56,64.89l10.33,2.79L69,73.41A15.92,15.92,0,0,1,64.54,93a10.16,10.16,0,0,1-1.1.75c-5.59,3.32-15.62,3.19-21.47-3.7-5.54-6.54-21.74-30-21.74-30V31.26Z" transform="translate(0 -2.59)" style="fill:#e0e0e0"/><path id="Path_32607" data-name="Path 32607" d="M61.32,69.44l14.86-8.77,7.16,8.77-1.48,4.25L62.71,87.9a12.74,12.74,0,0,1-4.45-7.7c-.89-5.33,3.06-10.76,3.06-10.76" transform="translate(0 -2.59)" style="fill:#ffc09d"/><path id="Path_32608" data-name="Path 32608" d="M56.6,64.91c0,.14-1.26,0-3.12.63a13.9,13.9,0,0,0-6.18,4.28,28.14,28.14,0,0,0-3.92,6.59A17.46,17.46,0,0,1,42,79.33a11.47,11.47,0,0,1,.91-3.13,23.4,23.4,0,0,1,3.84-6.88A13.1,13.1,0,0,1,53.33,65a5.78,5.78,0,0,1,3.27-.11" transform="translate(0 -2.59)" style="fill:#263238"/><path id="Path_32609" data-name="Path 32609" d="M75.84,65.54c-.08-.27-.69-6.58,2-10.7a23.79,23.79,0,0,1,6.57-6.73c1.46-1.17,4.49-5.7,5-4.6a5.9,5.9,0,0,1,0,4.73c-.77,2-5.17,5-4.56,7.5.25,1,1.64,1.22,1.64,1.22a43,43,0,0,0,7.53.27c2.23-.34,4.22.41,4.11,1.79s-.54,2.12-2.38,2.4-4.84.07-5,.82.46,1.24,1.54,1.1,6.15-.14,6.49.89.08,2.61-.61,3L97,67.94s.69,1.72.11,2.68a1.78,1.78,0,0,1-1.88.62l-6.72-.35a1.8,1.8,0,0,0-.2,1.22c.2.5,5.46-.19,5.5.84s.5,1.51-1.08,2.2a11.93,11.93,0,0,1-6.95,0C84.37,74.47,78.41,74,78.41,74Z" transform="translate(0 -2.59)" style="fill:#ffc09d"/><path id="Path_32619" data-name="Path 32619" d="M65.49,89.5a2.27,2.27,0,0,1-.93-.28,10,10,0,0,1-2.26-1.36A12.17,12.17,0,0,1,59.24,72a10.29,10.29,0,0,1,1.6-2.11c.44-.44.72-.64.75-.6s-.9,1-1.87,3a12.37,12.37,0,0,0,2.93,15.16c1.62,1.43,2.9,1.93,2.84,2.06" transform="translate(0 -2.59)" style="fill:#263238"/><rect x="8.5" y="19.62" width="12.5" height="35.4" transform="translate(-15.35 8.19) rotate(-27.03)" style="fill:#e0e0e0"/><g id="Group_11903" data-name="Group 11903"><g style="clip-path:url(#clip-path)"><g id="Group_11902" data-name="Group 11902"><g id="Group_11901" data-name="Group 11901"><g style="clip-path:url(#clip-path)"><g id="Group_11900" data-name="Group 11900"><path id="Path_32645" data-name="Path 32645" d="M101,10.21l15.84,23.48c-6,1.12-10.72,4.06-15,7.73-2.72,2.34-5.24,5-7.76,7.61L78.24,25.54c1.91-2,3.82-4,5.81-5.85,4.77-4.46,10-8.2,16.93-9.48" transform="translate(0 -2.59)" style="fill:#fff"/><path id="Path_32646" data-name="Path 32646" d="M101,10.21,108.9,22c-6.45,1.2-11.45,4.53-16,8.59-2.35,2.12-4.56,4.43-6.78,6.74L78.24,25.54c1.91-2,3.82-4,5.81-5.85,4.77-4.46,10-8.2,16.93-9.48" transform="translate(0 -2.59)" style="fill:red"/><g id="Group_11899" data-name="Group 11899" style="opacity:0.6600000262260437"><g id="Group_11898" data-name="Group 11898"><g style="clip-path:url(#clip-path-3)"><g id="Group_11897" data-name="Group 11897"><path id="Path_32647" data-name="Path 32647" d="M101.85,41.42c-2.72,2.34-5.24,5-7.76,7.61L78.24,25.54c1.91-2,3.82-4,5.81-5.85l8.89,10.85Z" transform="translate(0 -2.59)" style="fill:#afb0b8"/></g></g></g></g><path id="Path_32648" data-name="Path 32648" d="M94.09,49a19.41,19.41,0,0,1,2.17-6.88l-4.85,3.6-.85,1.58A12.3,12.3,0,0,0,94.09,49" transform="translate(0 -2.59)" style="fill:#212856"/><path id="Path_32649" data-name="Path 32649" d="M80.42,18.66,96.26,42.15c-6.47,6.76-12.94,13.51-22.73,15.33L57.69,34C67.48,32.17,74,25.42,80.42,18.66" transform="translate(0 -2.59)" style="fill:#fff"/><path id="Path_32650" data-name="Path 32650" d="M80.42,18.66l7.92,11.75c-.68.71-1.36,1.42-2,2.12s-1.52,1.56-2.3,2.32c-.45.44-.89.87-1.34,1.29-1.16,1.09-2.34,2.13-3.57,3.11A31.79,31.79,0,0,1,68.72,45a30,30,0,0,1-3.11.77L57.69,34C67.48,32.17,74,25.42,80.42,18.66" transform="translate(0 -2.59)" style="fill:red"/><rect id="Rectangle_6927" data-name="Rectangle 6927" x="69.44" y="26.61" width="2.15" height="55.19" transform="translate(-18.25 46.11) rotate(-34)" style="fill:#d6cece"/><rect id="Rectangle_6928" data-name="Rectangle 6928" x="70.39" y="26.32" width="1.11" height="55.19" transform="matrix(0.83, -0.56, 0.56, 0.83, -18.02, 46.3)" style="fill:#c5baba"/><path id="Path_32651" data-name="Path 32651" d="M56.88,28.68a3,3,0,1,1-4.12-.8h0a3,3,0,0,1,4.12.8" transform="translate(0 -2.59)" style="fill:#d6cece"/><path id="Path_32652" data-name="Path 32652" d="M56.87,28.68a3,3,0,0,1-4.7,3.57,2.66,2.66,0,1,0,1.67-4.82,2.94,2.94,0,0,1,3,1.25" transform="translate(0 -2.59)" style="fill:#c5baba"/></g></g></g></g></g></g><g id="Group_11885" data-name="Group 11885"><g style="clip-path:url(#clip-path-4)"><g id="Group_11884" data-name="Group 11884"><g id="Group_11883" data-name="Group 11883"><g style="clip-path:url(#clip-path-4)"><g id="Group_11882" data-name="Group 11882"><path id="Path_32625" data-name="Path 32625" d="M150.83,47.46l-10,27.66c-4.59-4.33-10-6.49-15.64-7.82-3.62-.84-7.37-1.34-11.13-1.84l10-27.66c2.84.38,5.68.76,8.46,1.29,6.66,1.26,13,3.37,18.31,8.37" transform="translate(0 -2.59)" style="fill:#ec2029"/><path id="Path_32626" data-name="Path 32626" d="M150.83,47.46l-5,13.83c-5-4.67-10.81-6.82-17-8.11-3.21-.67-6.5-1.11-9.8-1.55l5-13.83c2.84.38,5.68.76,8.46,1.29,6.66,1.26,13,3.37,18.31,8.37" transform="translate(0 -2.59)" style="fill:#2c3694"/><g id="Group_11881" data-name="Group 11881" style="opacity:0.6600000262260437"><g id="Group_11880" data-name="Group 11880"><g style="clip-path:url(#clip-path-6)"><g id="Group_11879" data-name="Group 11879"><path id="Path_32627" data-name="Path 32627" d="M125.21,67.3c-3.62-.84-7.37-1.34-11.13-1.84l10-27.66c2.84.38,5.68.76,8.46,1.29l-3.65,14.09Z" transform="translate(0 -2.59)" style="fill:#afb0b8"/></g></g></g></g><path id="Path_32628" data-name="Path 32628" d="M114.09,65.46a20.24,20.24,0,0,1,7.09-2.39l-6-1.86-1.84.26s.11,2.92.74,4" transform="translate(0 -2.59)" style="fill:#212856"/><path id="Path_32629" data-name="Path 32629" d="M131.15,35.41l-10,27.66c-9.62-1.29-19.24-2.57-26.75-9.66l10-27.65c7.53,7.09,17.15,8.37,26.76,9.65" transform="translate(0 -2.59)" style="fill:#ec2029"/><path id="Path_32630" data-name="Path 32630" d="M131.15,35.41l-5,13.83-3-.41c-1.12-.16-2.24-.32-3.35-.51-.64-.1-1.27-.21-1.9-.33-1.62-.3-3.22-.66-4.8-1.09A33,33,0,0,1,102,41.72a27.37,27.37,0,0,1-2.56-2.14l5-13.82c7.53,7.09,17.15,8.37,26.76,9.65" transform="translate(0 -2.59)" style="fill:#2c3694"/><path id="Path_32631" data-name="Path 32631" d="M123.14,48.83c-10.25,3.4-20.33,6.32-28.72,4.58l10-27.65c5.06,11,11.81,17.26,18.74,23.07" transform="translate(0 -2.59)" style="fill:#fff"/><path id="Path_32632" data-name="Path 32632" d="M112.33,47.34c.26-.14.51-.29.77-.45l-.33-.75c-.84-.16-1.68-.34-2.5-.55,0-.08,0-.17,0-.25.75.14,1.5.26,2.27.35l-.14-.32c-.71-.09-1.41-.19-2.11-.32a2.79,2.79,0,0,0,0-.5l2-.6c0-.12.07-.23.1-.35-.74.24-1.48.46-2.21.66l-.06-.24c.79-.28,1.6-.58,2.41-.89l.24-.82-.79-.32-2.2,1.29-.15-.21c.63-.41,1.26-.84,1.89-1.27l-.33-.15c-.58.41-1.16.8-1.74,1.19a4,4,0,0,0-.36-.35l1-1.82-.17-.33-1.1,2-.21-.14,1.08-2.28-.39-.8-.78.26c-.21.83-.42,1.66-.64,2.49l-.24-.07.43-2.27-.32.11-.39,2.12a1.94,1.94,0,0,0-.48,0c-.17-.73-.34-1.47-.5-2.21l-.33-.16c.19.8.37,1.6.56,2.38l-.23,0c-.27-.87-.52-1.75-.77-2.65-.26-.13-.51-.27-.76-.41l-.34.78c.38.87.77,1.72,1.17,2.54l-.2.13c-.39-.72-.78-1.46-1.16-2.22l-.15.32c.36.71.72,1.39,1.09,2.06a2.08,2.08,0,0,0-.32.34c-.57-.47-1.14-1-1.69-1.46l-.29.11c.59.56,1.2,1.08,1.82,1.57a2.39,2.39,0,0,0-.13.21q-1.06-.75-2.1-1.62l-.7.25c.09.32.18.64.26.95.74.43,1.5.82,2.27,1.18a2.21,2.21,0,0,0,0,.25c-.7-.26-1.38-.56-2.06-.88l.11.39c.63.29,1.27.56,1.92.79a3.11,3.11,0,0,0,0,.53c-.65.1-1.28.17-1.91.24l-.11.35c.68-.07,1.36-.17,2.06-.28a2.56,2.56,0,0,0,0,.27c-.76.19-1.51.35-2.25.5l-.25.83c.24.17.48.35.73.51.69-.33,1.38-.67,2.08-1,0,.08.09.16.14.23l-1.8,1.09.31.2,1.66-1a3.33,3.33,0,0,0,.36.39l-1,1.81.16.34,1.09-1.95.21.15c-.35.76-.71,1.52-1.07,2.28l.39.8.78-.27.64-2.48.24.06-.42,2.26.33-.12c.13-.7.25-1.4.38-2.1a2.77,2.77,0,0,0,.5,0c.19.69.37,1.38.56,2.06l.35.1c-.21-.73-.42-1.46-.62-2.21l.24-.06c.28.81.57,1.61.86,2.4l.83.22.34-.79c-.45-.7-.88-1.42-1.31-2.16l.21-.14c.42.63.85,1.24,1.29,1.85l.15-.33c-.41-.56-.82-1.13-1.22-1.71a3.07,3.07,0,0,0,.34-.38c.61.35,1.23.67,1.86,1l.32-.19c-.68-.33-1.35-.67-2-1a1.59,1.59,0,0,0,.13-.22c.77.36,1.55.69,2.33,1" transform="translate(0 -2.59)" style="fill:#ffcb01"/><path id="Path_32633" data-name="Path 32633" d="M98.17,49.39c0,.41.07.81.11,1.22l1,.46-.89.28.12,1.2-.66-1-.87.25.47-.91-.63-1.09c.3.18.61.36.93.53l.47-.91" transform="translate(0 -2.59)" style="fill:#ffcb01"/><path id="Path_32634" data-name="Path 32634" d="M104.79,30c.12.41.25.81.37,1.21.32,0,.64.09,1,.12l-.73.61q.19.6.39,1.17c-.28-.26-.56-.52-.84-.8l-.72.6.21-1.11-.81-.87c.31.06.63.13,1,.18l.21-1.11" transform="translate(0 -2.59)" style="fill:#ffcb01"/><path id="Path_32635" data-name="Path 32635" d="M119.32,46.85l-.27,1,1,.4-1.13.23-.27,1-.43-.88-1.12.21.86-.76-.42-.89.95.42.86-.76" transform="translate(0 -2.59)" style="fill:#ffcb01"/><rect id="Rectangle_6910" data-name="Rectangle 6910" x="66.69" y="47.77" width="57.27" height="2.23" transform="matrix(0.34, -0.94, 0.94, 0.34, 16.99, 119.36)" style="fill:#3f51bc"/><rect id="Rectangle_6911" data-name="Rectangle 6911" x="67.19" y="48.48" width="57.27" height="1.16" transform="translate(17.15 119.95) rotate(-70.16)" style="fill:#2c3694"/><path id="Path_32636" data-name="Path 32636" d="M108.35,21.82a3.07,3.07,0,1,1-1.84-3.93,3.06,3.06,0,0,1,1.84,3.93h0" transform="translate(0 -2.59)" style="fill:#ffcb01"/><path id="Path_32637" data-name="Path 32637" d="M108.35,21.82a3.07,3.07,0,0,1-5.88-1.75A2.77,2.77,0,1,0,108,20a2.73,2.73,0,0,0-.46-1.51,3.09,3.09,0,0,1,.81,3.31" transform="translate(0 -2.59)" style="fill:#ff9a01"/></g></g></g></g></g></g></g></g></svg>