<svg xmlns="http://www.w3.org/2000/svg" xmlns:xlink="http://www.w3.org/1999/xlink" viewBox="0 0 92.26 91.93"><defs><clipPath id="clip-path" transform="translate(0 -10.15)"><rect x="15.11" y="8.96" width="55.06" height="61.17" transform="translate(-13 22.62) rotate(-25.92)" style="fill:none"/></clipPath><clipPath id="clip-path-3" transform="translate(0 -10.15)"><rect x="27.01" y="19.81" width="40.56" height="25.42" transform="translate(-9.46 23.94) rotate(-25.92)" style="fill:none"/></clipPath><clipPath id="clip-path-4" transform="translate(0 -10.15)"><rect x="14.36" y="17.76" width="40.56" height="27.43" transform="translate(-10.27 18.31) rotate(-25.92)" style="fill:none"/></clipPath></defs><g id="Layer_2" data-name="Layer 2"><g id="Layer_1-2" data-name="Layer 1"><path id="Path_32604" data-name="Path 32604" d="M74.56,10.83c-.74,0-11.32,4.23-14.1,14.62S50.07,73.9,50.07,73.9L42,85.06s2.61,20.4,17.45,16.53c0,0,9.9,1.73,13.06-8.31s9.27-40,9.27-40Z" transform="translate(0 -10.15)" style="fill:#e0e0e0"/><path id="Path_32610" data-name="Path 32610" d="M55.05,76.59,41.16,65.06l-8,9,1,4.39L51.53,94.77A12.09,12.09,0,0,0,57,88.1c1.72-4.92-1.93-11.51-1.93-11.51" transform="translate(0 -10.15)" style="fill:#ffc09d"/><path id="Path_32611" data-name="Path 32611" d="M41,71c.16-.26,2-6.4-2.3-11.05s-8.42-6.58-10.87-8-7.31-6.59-8.39-5.62-1.69,2.57-.55,4.7,6.53,4.64,6.33,7.38a2,2,0,0,1-2.16,1.89h0A134,134,0,0,1,9.67,59c-3.91-.81-7.55-.47-7.5.91s.71,2.23,3.94,2.88,8.58,1.08,8.77,1.86-1,1.13-2.86.77S1.14,64,.41,64.93a2,2,0,0,0,.41,2.86,1.61,1.61,0,0,0,.33.2l2,1s-1.43,1.56-.52,2.63,3.27,1,3.27,1l12,1.06s.6.8.2,1.25-9.65-1.33-9.84-.31S7.19,76,9.9,77s9.74,1.84,12.34,1.45,13.22.38,13.22.38Z" transform="translate(0 -10.15)" style="fill:#ffc09d"/><path id="Path_32615" data-name="Path 32615" d="M64.8,92.51A32.26,32.26,0,0,1,64,88.62a30.26,30.26,0,0,0-3-8.93,16.59,16.59,0,0,0-6.49-6.59,29.33,29.33,0,0,0-3.65-1.42,2.62,2.62,0,0,1,1.08,0,10.34,10.34,0,0,1,2.81.89,15.77,15.77,0,0,1,6.92,6.7,26.66,26.66,0,0,1,2.87,9.21,15.62,15.62,0,0,1,.24,4" transform="translate(0 -10.15)" style="fill:#263238"/><path id="Path_32616" data-name="Path 32616" d="M68.41,77.33c-.16.18-2.4-2.12-6-3.33s-6.79-.81-6.81-1,3.23-1,7.06.33,5.95,4,5.78,4" transform="translate(0 -10.15)" style="fill:#263238"/><path id="Path_32618" data-name="Path 32618" d="M54.38,76.11c.06-.08,1.1.76,2,2.61a13.17,13.17,0,0,1,1.19,3.43,14.44,14.44,0,0,1,.06,4.45,12.31,12.31,0,0,1-1.3,4.27,8.38,8.38,0,0,1-2.43,2.73,4.78,4.78,0,0,1-3.13,1.13,13.25,13.25,0,0,0,2.8-1.56,8.27,8.27,0,0,0,2.13-2.64,12.3,12.3,0,0,0,1.17-4,14.92,14.92,0,0,0,0-4.22,14.32,14.32,0,0,0-1-3.33,31.06,31.06,0,0,0-1.53-2.84" transform="translate(0 -10.15)" style="fill:#263238"/><path id="Path_32622" data-name="Path 32622" d="M19.73,69.84c0,.21-3.75.4-8.36.18s-8.32-.76-8.3-1,3.75,0,8.34.21,8.31.37,8.32.58" transform="translate(0 -10.15)" style="fill:#ff9b6c"/><path id="Path_32623" data-name="Path 32623" d="M28.23,69.21c0,.08-.89-.07-1.95-1a6.15,6.15,0,0,1-2.12-4.8,16.19,16.19,0,0,1,.52-2.83A8,8,0,0,0,25,58.44a7.15,7.15,0,0,0-.47-2c.05-.08.83.52,1,1.93a7.31,7.31,0,0,1-.13,2.38,20.7,20.7,0,0,0-.45,2.71,6.21,6.21,0,0,0,1.72,4.37c.87.92,1.63,1.24,1.58,1.36" transform="translate(0 -10.15)" style="fill:#ff9b6c"/><circle cx="78.67" cy="13.59" r="13.59" style="fill:#e0e0e0"/><ellipse cx="69.57" cy="49.63" rx="13.12" ry="13.79" transform="translate(-5.99 -0.44) rotate(-7.65)" style="fill:#e0e0e0"/><rect x="76.5" y="24.43" width="10.45" height="29.59" transform="translate(145.79 93.21) rotate(-160.62)" style="fill:#e0e0e0"/><g id="Group_11895" data-name="Group 11895"><g style="clip-path:url(#clip-path)"><g id="Group_11894" data-name="Group 11894"><rect id="Rectangle_6914" data-name="Rectangle 6914" x="20.38" y="23.87" width="1.74" height="56.9" transform="translate(-20.73 4.41) rotate(-25.92)" style="fill:#d6cece"/><rect id="Rectangle_6915" data-name="Rectangle 6915" x="21.21" y="23.68" width="0.87" height="56.9" transform="translate(-20.61 4.56) rotate(-25.92)" style="fill:#c5baba"/><g id="Group_11893" data-name="Group 11893"><g style="clip-path:url(#clip-path)"><g id="Group_11892" data-name="Group 11892"><path id="Path_32638" data-name="Path 32638" d="M10.38,24.3a2.68,2.68,0,0,1-1.11,3.63,2.69,2.69,0,0,1-3.55-1.36,2.69,2.69,0,0,1,1.12-3.63,2.69,2.69,0,0,1,3.54,1.36" transform="translate(0 -10.15)" style="fill:#d6cece"/><path id="Path_32639" data-name="Path 32639" d="M8.64,22.8c.08.12.16.25.23.38a2.69,2.69,0,0,1-1.12,3.63A2.49,2.49,0,0,1,6,27a2.64,2.64,0,0,0,3.31,1,2.69,2.69,0,0,0,1.12-3.63A2.86,2.86,0,0,0,8.64,22.8" transform="translate(0 -10.15)" style="fill:#c5baba"/><rect id="Rectangle_6916" data-name="Rectangle 6916" x="22.57" y="18.82" width="40.56" height="9.14" transform="translate(-5.92 10.94) rotate(-25.92)" style="fill:#f9a700"/><rect id="Rectangle_6917" data-name="Rectangle 6917" x="26.57" y="27.05" width="40.56" height="9.14" transform="translate(-9.11 13.52) rotate(-25.92)" style="fill:#008d00"/><rect id="Rectangle_6918" data-name="Rectangle 6918" x="30.57" y="35.27" width="40.56" height="9.14" transform="translate(-12.3 16.09) rotate(-25.92)" style="fill:#ff1446"/><g id="Group_11888" data-name="Group 11888" style="opacity:0.09000000357627869"><g id="Group_11887" data-name="Group 11887"><g style="clip-path:url(#clip-path-3)"><g id="Group_11886" data-name="Group 11886"><path id="Path_32640" data-name="Path 32640" d="M34.6,52.82l2-1c-.66.33-1.34.63-2,.92Z" transform="translate(0 -10.15)" style="fill:#00283d"/><path id="Path_32641" data-name="Path 32641" d="M36.59,51.85l34.5-16.76L60,12.23c2.73,14.86-6.58,31.45-23.39,39.62" transform="translate(0 -10.15)" style="fill:#00283d"/></g></g></g></g><path id="Path_32642" data-name="Path 32642" d="M34.6,52.82,58.88,35,32.22,47.9Z" transform="translate(0 -10.15)" style="fill:#c2102e"/><rect id="Rectangle_6920" data-name="Rectangle 6920" x="10.36" y="18.68" width="40.56" height="9.14" transform="translate(-7.08 5.59) rotate(-25.92)" style="fill:#ffb800"/><rect id="Rectangle_6921" data-name="Rectangle 6921" x="14.36" y="26.9" width="40.56" height="9.14" transform="translate(-10.27 8.16) rotate(-25.92)" style="fill:#00c115"/><rect id="Rectangle_6922" data-name="Rectangle 6922" x="18.36" y="35.13" width="40.56" height="9.14" transform="translate(-13.47 10.74) rotate(-25.92)" style="fill:#ff244e"/><path id="Path_32643" data-name="Path 32643" d="M30.73,23.43,36,28.33l6-2.9L39,31.9,43.7,37l-6.86-1-3.43,6-1.12-6.87-6.94-1.63,6-3Z" transform="translate(0 -10.15)" style="fill:#fff"/><g id="Group_11891" data-name="Group 11891" style="opacity:0.09000000357627869"><g id="Group_11890" data-name="Group 11890"><g style="clip-path:url(#clip-path-4)"><g id="Group_11889" data-name="Group 11889"><path id="Path_32644" data-name="Path 32644" d="M20.78,49.36l1.62,3.32L58.88,35l-12-24.67-.51.24c1,14.68-8.89,30.46-25.6,38.84" transform="translate(0 -10.15)" style="fill:#00283d"/></g></g></g></g></g></g></g></g></g></g></g></g></svg>