<svg xmlns="http://www.w3.org/2000/svg" viewBox="0 0 96.21 235.61"><g id="Layer_2" data-name="Layer 2"><g id="Layer_1-2" data-name="Layer 1"><path d="M95.52,231.14l-3.86-28.7L9.32,209.06a106,106,0,0,0-2.54,26.52H96Z" style="fill:#455a64"/><path id="Path_32580" data-name="Path 32580" d="M47.26,217s.2-.16.62-.19a2.72,2.72,0,0,1,1.69.55,3,3,0,0,1,1.27,2.33,3,3,0,0,1-5.1,1.91,3,3,0,0,1-.57-2.59,2.66,2.66,0,0,1,.91-1.53c.34-.25.58-.29.59-.26A3.36,3.36,0,0,0,45.61,219a2.66,2.66,0,0,0,.58,2.12,2.45,2.45,0,0,0,4.07-1.53,2.63,2.63,0,0,0-1-2,3.43,3.43,0,0,0-2-.71" style="fill:#263238"/><path id="Path_32581" data-name="Path 32581" d="M95.1,229.37a3.27,3.27,0,0,1-1,.17,19.08,19.08,0,0,1-2.83,0,27.48,27.48,0,0,1-16.95-7.14,19.87,19.87,0,0,1-2-2.05c-.43-.52-.64-.82-.61-.85s1.06,1,2.86,2.56a30.54,30.54,0,0,0,16.69,7c2.34.22,3.82.14,3.82.25" style="fill:#263238"/><path id="Path_32582" data-name="Path 32582" d="M23.8,216.51a13.12,13.12,0,0,1-1.56,3.08A34.5,34.5,0,0,1,17,226.08a34.39,34.39,0,0,1-6.64,5.06,12.93,12.93,0,0,1-3.12,1.48,30.17,30.17,0,0,1,2.88-1.87,43,43,0,0,0,6.43-5.13,42.43,42.43,0,0,0,5.31-6.28c.6-1,1.25-1.92,1.94-2.83" style="fill:#263238"/><path id="Path_32583" data-name="Path 32583" d="M44.11,6.56l1.2-.07A23.32,23.32,0,0,1,69.75,26.57c1.56,11.2,3.13,23.58,3.4,29.62.57,12.5-11.82,15.16-11.82,15.16l.45,5.09A15.2,15.2,0,0,1,31.5,79.21h0L27.06,32.82C25.19,19.91,31.15,8.07,44.11,6.56" style="fill:#ffc09d"/><path id="Path_32584" data-name="Path 32584" d="M61.43,71.33a30.31,30.31,0,0,1-16.64-3.85s4.36,8.77,16.77,6.93Z" style="fill:#ff9b6c"/><path id="Path_32585" data-name="Path 32585" d="M66.26,38.18a1.8,1.8,0,0,1-1.62,1.9,1.71,1.71,0,0,1-1.93-1.46v0a1.78,1.78,0,0,1,1.61-1.9,1.71,1.71,0,0,1,1.93,1.46v0" style="fill:#263238"/><path id="Path_32586" data-name="Path 32586" d="M67.42,32.83c-.21.25-1.62-.68-3.54-.56s-3.27,1.16-3.49.93.09-.53.68-1a4.87,4.87,0,0,1,2.78-1,4.63,4.63,0,0,1,2.83.73c.62.42.84.83.74.94" style="fill:#263238"/><path id="Path_32587" data-name="Path 32587" d="M49.65,39.36A1.79,1.79,0,0,1,48,41.26a1.71,1.71,0,0,1-1.92-1.46v0a1.78,1.78,0,0,1,1.62-1.9,1.71,1.71,0,0,1,1.93,1.46v0" style="fill:#263238"/><path id="Path_32588" data-name="Path 32588" d="M48.57,34.28c-.21.24-1.62-.68-3.54-.57s-3.27,1.16-3.49.94.09-.53.68-1a4.82,4.82,0,0,1,2.78-1,4.73,4.73,0,0,1,2.83.74c.61.42.84.83.73.94" style="fill:#263238"/><path id="Path_32589" data-name="Path 32589" d="M56.35,48.12a12.57,12.57,0,0,1,3.09-.75c.48-.08.94-.2,1-.54A2.49,2.49,0,0,0,60,45.4l-1.67-3.65c-2.32-5.2-4-9.49-3.82-9.58s2.26,4,4.59,9.25c.56,1.28,1.1,2.5,1.6,3.67A2.91,2.91,0,0,1,61.11,47a1.28,1.28,0,0,1-.77.77,3.39,3.39,0,0,1-.83.16,12.86,12.86,0,0,1-3.16.19" style="fill:#263238"/><path id="Path_32590" data-name="Path 32590" d="M48.63,26.72c-.16.54-2.09.4-4.33.8s-4,1.12-4.35.67c-.15-.22.14-.73.85-1.27a7.58,7.58,0,0,1,6.61-1.12c.84.28,1.28.67,1.22.92" style="fill:#263238"/><path id="Path_32591" data-name="Path 32591" d="M66.39,27.31c-.31.46-1.66.08-3.25.15s-2.92.46-3.26,0c-.15-.2,0-.65.6-1.1a4.54,4.54,0,0,1,2.61-.87,4.49,4.49,0,0,1,2.64.73c.59.42.8.86.66,1.08" style="fill:#263238"/><path id="Path_32592" data-name="Path 32592" d="M68.22,20.9s-3.75-7.63-7.62-9.24c-4.7-1.95-6.37,3.18-10.8,2.21s-8.9-2.84-13.16.79c-4.66,4-2.23,6.41-2.21,12,.08,22.55-3.66,29.14-5.44,18.62-.19-1.15-3.47-1.89-4.23-6.76-1-6.32-1.67-14-.51-18.61,1-3.87,3-6.62,6.71-9.74,5.88-4.93,14.3-5.51,20-5.26s17.17,6.2,17.21,16" style="fill:#263238"/><path id="Path_32593" data-name="Path 32593" d="M29.76,44.87a3.4,3.4,0,0,0-3.69-3.08l-.15,0c-2.32.35-4.84,1.83-4.41,6.63.77,8.53,9.17,6,9.16,5.76s-.55-5.77-.91-9.33" style="fill:#ffc09d"/><path id="Path_32594" data-name="Path 32594" d="M28.53,51.16s-.14.11-.38.25a1.48,1.48,0,0,1-1.11.12c-.93-.25-1.82-1.61-2-3.14a5,5,0,0,1,.23-2.17,1.74,1.74,0,0,1,1-1.24.78.78,0,0,1,.92.33c.13.23.1.4.14.42s.17-.16.07-.51a.94.94,0,0,0-.38-.5,1.13,1.13,0,0,0-.84-.15A2.11,2.11,0,0,0,24.75,46a5.24,5.24,0,0,0-.3,2.42c.21,1.71,1.23,3.24,2.5,3.49a1.62,1.62,0,0,0,1.34-.35c.24-.23.27-.43.24-.44" style="fill:#ff9b6c"/><path id="Path_32595" data-name="Path 32595" d="M70,11.66c-1.31-1-3.12-1.13-4.42-2.13-2.37-1.82-2.47-5.95-5.26-7-1.65-.64-3.51.15-5.27,0C52.23,2.17,51.13,0,46.8,0c-5.63,0-7.44,4.18-7.44,4.18a6.45,6.45,0,0,0-6.47.61C30.34,6.51,30.18,10,30.18,10s-.9-.45-3.6,1.68C24.87,13,23.46,15.93,22.84,18c-.93,3.12.43,6.42,1.76,9.4.72,1.61,1.61,3.38,3.28,3.94,2,.69,4.29-.9,5.08-2.9s2.06-4,3-5.93c1.68-3.34,3.4-6.45,2-8.59a9.72,9.72,0,0,1,6,0c1.95.65,3.66,1.9,5.61,2.6s4.41.64,5.73-.94a4.19,4.19,0,0,0,5.61,1.91,4.57,4.57,0,0,0,.8-.52c1.53,2.52,5.13,3.68,7.65,2.16s3-5.7.64-7.46" style="fill:#263238"/><path id="Path_32596" data-name="Path 32596" d="M23.74,25.42a10.34,10.34,0,0,1,1,2,4.11,4.11,0,0,0,1.4,1.72,3.67,3.67,0,0,0,2.64.31,6.4,6.4,0,0,0,2.56-1.08A9.79,9.79,0,0,0,33,26.72a13.31,13.31,0,0,1,1.43-1.66,7.25,7.25,0,0,1-1.15,1.88,8.7,8.7,0,0,1-1.67,1.76,6.4,6.4,0,0,1-2.74,1.21,4.1,4.1,0,0,1-3-.41,4.31,4.31,0,0,1-1.48-2,8.65,8.65,0,0,1-.67-2.11" style="fill:#455a64"/><path id="Path_32597" data-name="Path 32597" d="M24.06,32a7,7,0,0,0,1.69.94,4.71,4.71,0,0,0,2,.18,5.87,5.87,0,0,0,2.35-.9,11.62,11.62,0,0,0,3.21-3.38,9.76,9.76,0,0,1,1.16-1.62A6.8,6.8,0,0,1,33.66,29a10.36,10.36,0,0,1-3.25,3.62,5.91,5.91,0,0,1-2.56.93,4.82,4.82,0,0,1-2.22-.3C24.42,32.79,24,32,24.06,32" style="fill:#455a64"/><path id="Path_32598" data-name="Path 32598" d="M50.9,51.26a10.71,10.71,0,0,0-.48,2.87,3.25,3.25,0,0,0,.93,2.52,3.59,3.59,0,0,0,2.76,1.27h0a4,4,0,0,0,3.93-3.39l.34-2.12c-2-.54-7.37-1-7.52-1.15" style="fill:#ff9b6c"/><path id="Path_32599" data-name="Path 32599" d="M56.15,57.31s-.25,0-.68.07a6,6,0,0,1-1.8,0,3.53,3.53,0,0,1-2.2-1.29,4.4,4.4,0,0,1-.86-3,4.35,4.35,0,0,1,.45-1.73l-.26.13c1.92.29,3.6.52,4.8.67a8.36,8.36,0,0,0,1.93.13,8.61,8.61,0,0,0-1.88-.46c-1.19-.23-2.86-.53-4.78-.84l-.17,0-.09.16a4.84,4.84,0,0,0-.53,1.94,4.79,4.79,0,0,0,1,3.34,3.75,3.75,0,0,0,2.52,1.34,5.09,5.09,0,0,0,1.9-.18,1.52,1.52,0,0,0,.64-.27" style="fill:#263238"/><path id="Path_32600" data-name="Path 32600" d="M28.81,45.86A1.76,1.76,0,0,0,26.46,45l-.07,0c-1,.55-1.16,1.32-1.43,2.4a2.92,2.92,0,0,0,.3,2.29,1.88,1.88,0,0,0,2,.83,2.69,2.69,0,0,0,1.51-1.88,3.72,3.72,0,0,0,0-2.82" style="fill:#455a64"/><path id="Path_32601" data-name="Path 32601" d="M44,60.69A18.39,18.39,0,0,1,26.26,47.42L27.68,47A17,17,0,0,0,51.05,57.7L51.66,59A18.63,18.63,0,0,1,44,60.69" style="fill:#455a64"/><path id="Path_32602" data-name="Path 32602" d="M53.35,60.73l-3.06.6a2.36,2.36,0,0,1-2.76-1.85l0-.08a2.35,2.35,0,0,1,1.85-2.76l3.07-.6a2.35,2.35,0,0,1,2.76,1.85h0V58a2.35,2.35,0,0,1-1.85,2.76h0" style="fill:#455a64"/><path id="Path_32603" data-name="Path 32603" d="M28.65,47.28a7.2,7.2,0,0,0,1.7-2.52,3.43,3.43,0,0,0-.2-2.95,4.19,4.19,0,0,0-2.09-1.55,5,5,0,0,0-2.26-.42,2.75,2.75,0,0,0-2,1A1,1,0,0,0,23.68,42c.3.37.89.28,1.35.16A5.34,5.34,0,0,1,27,42a2.17,2.17,0,0,1,1.66.93,2.24,2.24,0,0,1,0,2.16,6.45,6.45,0,0,1-1.44,1.73" style="fill:#455a64"/><path id="Path_32605" data-name="Path 32605" d="M30.88,75.22l-5.6,8.48L0,92.65l7.24,73.28L4.53,204.34a8.67,8.67,0,0,0,8,9.26c.28,0,.56,0,.85,0l79.43-2.35c2-.05,2.91-2.57,3.25-5.28a18.61,18.61,0,0,0-.64-7.27L91.27,184c.63,9.15-2.11-54.53-2.22-56.85L95.17,94.4,66.42,82.78,62,75.91,49,85.75Z" style="fill:#e0e0e0"/><path id="Path_32612" data-name="Path 32612" d="M65.7,84.87a19.82,19.82,0,0,1-2.5,2.6c-1.58,1.55-3.74,3.71-6,6.19L55.75,95.2l-.3.34-.28-.35c-1.77-2.29-3.31-4.31-4.38-5.78A12.1,12.1,0,0,1,49.17,87a12.29,12.29,0,0,1,2,2.14c1.18,1.39,2.79,3.36,4.59,5.62l-.57,0,1.41-1.56a81.26,81.26,0,0,1,6.24-6.07,14.52,14.52,0,0,1,2.86-2.2" style="fill:#263238"/><path id="Path_32613" data-name="Path 32613" d="M1.65,112.08a6.45,6.45,0,0,1,.41,1.55c.22,1,.48,2.48.77,4.3.59,3.64,1.21,8.7,1.73,14.29s.9,10.67,1.18,14.34c.12,1.7.23,3.15.31,4.34a6.19,6.19,0,0,1,0,1.61,6.51,6.51,0,0,1-.31-1.58c-.16-1-.35-2.5-.56-4.32-.42-3.66-.89-8.73-1.4-14.32S2.74,121.65,2.3,118q-.31-2.53-.54-4.32a6.63,6.63,0,0,1-.11-1.6" style="fill:#263238"/><path id="Path_32614" data-name="Path 32614" d="M89.51,109.52a9.86,9.86,0,0,1,.28,2c.12,1.26.26,3.09.38,5.35.25,4.52.38,10.78.4,17.68v23a9.33,9.33,0,0,1-.09,2,10,10,0,0,1-.21-2c-.09-1.27-.18-3.1-.25-5.36-.15-4.53-.21-10.78-.22-17.68s-.06-13.15-.17-17.67c-.06-2.14-.1-3.93-.14-5.35a10,10,0,0,1,0-2" style="fill:#263238"/><path id="Path_32617" data-name="Path 32617" d="M50.84,211.34a7.62,7.62,0,0,1-.08-1.26q0-1.34-.09-3.6c-.06-3.2-.15-7.7-.26-13.23-.26-11.25-.63-26.66-1-43.68s-.62-32.51-.6-43.7c0-5.59.06-10.12.13-13.24C49,91.12,49,89.92,49,89a8.9,8.9,0,0,1,.09-1.26A6.65,6.65,0,0,1,49.17,89c0,.89,0,2.09,0,3.6,0,3.2.07,7.71.12,13.24.12,11.18.43,26.62.82,43.68s.71,32.5.8,43.69c.06,5.59,0,10.12,0,13.24q0,2.27-.06,3.6a7.61,7.61,0,0,1-.07,1.26" style="fill:#263238"/><path id="Path_32620" data-name="Path 32620" d="M76.47,143.23a12.39,12.39,0,0,1-1.92,1.13c-1.26.68-3.1,1.63-5.39,2.77-4.59,2.28-11,5.28-18.18,8.33S37.17,161,32.34,162.71c-2.41.86-4.38,1.52-5.74,1.95a11.55,11.55,0,0,1-2.14.6,11.48,11.48,0,0,1,2-.87l5.66-2.18c4.77-1.83,11.34-4.41,18.52-7.45s13.61-6,18.24-8.11l5.5-2.55a12.37,12.37,0,0,1,2-.87" style="fill:#263238"/><path id="Path_32624" data-name="Path 32624" d="M48.26,86.23a28.42,28.42,0,0,1-1.7,4.35l-.94,2.16a23.72,23.72,0,0,1-1.18,2.5,1.61,1.61,0,0,1-1.58.77,4.08,4.08,0,0,1-1.49-.77l-2.64-1.81c-3.62-2.5-6.87-4.79-9.2-6.48a26.92,26.92,0,0,1-3.68-2.87,28.52,28.52,0,0,1,4,2.43c2.41,1.57,5.71,3.8,9.32,6.29l2.64,1.83a3.59,3.59,0,0,0,1.18.65.88.88,0,0,0,.89-.45c.85-1.55,1.56-3.22,2.2-4.48a27.1,27.1,0,0,1,2.19-4.12" style="fill:#263238"/><path d="M43.71,234.12c-1-5-1.68-9.47-2.17-12.75-.24-1.53-.43-2.83-.59-3.88a6.2,6.2,0,0,0-.29-1.41,6.3,6.3,0,0,0,0,1.44c.07.93.2,2.26.39,3.91.38,3.3,1,7.84,2,12.81l.27,1.37H44C43.91,235.12,43.81,234.62,43.71,234.12Z" style="fill:#263238"/></g></g></svg>