<svg xmlns="http://www.w3.org/2000/svg" width="14.664" height="13.153" viewBox="0 0 14.664 13.153">
  <g id="down-arrow_7_" data-name="down-arrow (7)" transform="translate(0 13.153) rotate(-90)">
    <path id="Path_4869" data-name="Path 4869" d="M.564,0a.564.564,0,0,1,.564.564v13.13a.564.564,0,1,1-1.128,0V.564A.564.564,0,0,1,.564,0Z" transform="translate(6.009 0)" fill="#f58732" fill-rule="evenodd"/>
    <path id="Path_4870" data-name="Path 4870" d="M.147.184a.564.564,0,0,1,.8-.038L6.53,5.229h0a.094.094,0,0,0,.094,0h0L12.209.147a.564.564,0,1,1,.759.834L7.381,6.065h0a1.214,1.214,0,0,1-1.606,0h0L.184.981a.564.564,0,0,1-.038-.8Z" transform="translate(0 8.295)" fill="#f58732" fill-rule="evenodd"/>
  </g>
</svg>
