<svg xmlns="http://www.w3.org/2000/svg" xmlns:xlink="http://www.w3.org/1999/xlink" width="32.968" height="29.076" viewBox="0 0 32.968 29.076">
  <defs>
    <clipPath id="clip-path">
      <rect id="Rectangle_7790" data-name="Rectangle 7790" width="30.413" height="26.04" fill="none"/>
    </clipPath>
  </defs>
  <g id="Group_13106" data-name="Group 13106" transform="matrix(0.995, -0.105, 0.105, 0.995, 0, 3.179)">
    <g id="Group_13105" data-name="Group 13105" clip-path="url(#clip-path)">
      <path id="Path_40241" data-name="Path 40241" d="M107.526,9.319H99.371a.315.315,0,0,1-.308-.4,13.627,13.627,0,0,0,.361-3.66,21.3,21.3,0,0,0-.041-2.152,3.875,3.875,0,0,0-.695-2.019A2.616,2.616,0,0,0,96.678,0c-1.863,0-2.157,1.825-2.331,3.3A15.782,15.782,0,0,1,93.3,8.4a4.743,4.743,0,0,1-2.479,2.538,13.339,13.339,0,0,1-2.547.829.315.315,0,0,0-.257.309V24.137a.317.317,0,0,0,.317.317h3.336a.319.319,0,0,1,.255.132,3.6,3.6,0,0,0,2.9,1.454h10.452a2.782,2.782,0,0,0,2.774-2.774,2.426,2.426,0,0,0-.263-1.1.31.31,0,0,1,.083-.383,3.186,3.186,0,0,0,.931-2.255v-.317a2.426,2.426,0,0,0-.263-1.1.31.31,0,0,1,.083-.383,2.451,2.451,0,0,0,.931-1.919v-.318a2.425,2.425,0,0,0-.263-1.1.31.31,0,0,1,.083-.383,2.451,2.451,0,0,0,.931-1.919,2.782,2.782,0,0,0-2.774-2.774" transform="translate(-79.887)" fill="#f58733"/>
      <path id="Path_40242" data-name="Path 40242" d="M6.181,127.933H.254A.254.254,0,0,1,0,127.68V112.908a.254.254,0,0,1,.254-.254H6.181a.254.254,0,0,1,.254.254V127.68a.254.254,0,0,1-.254.254" transform="translate(0 -102.246)" fill="#f58733"/>
    </g>
  </g>
</svg>
