<svg xmlns="http://www.w3.org/2000/svg" viewBox="0 0 82.32 256"><g id="Layer_2" data-name="Layer 2"><g id="Layer_1-2" data-name="Layer 1"><path id="Path_25497" data-name="Path 25497" d="M18.28,240.26s1.16-2.5,5.49-1.83,4.83,1.5,5.33,3.66,2,4.5,3,5,4.66,3,7.66,3.5,3.33,2.33,2.66,3.16-12,1.5-14.48,1.16c0,0-8.49-.16-10.49-.83s.66-13,.83-13.82" style="fill:#2d2737"/><path id="Path_25498" data-name="Path 25498" d="M13.47,181.73a8.19,8.19,0,0,1,6-9.21c7.28-2.31,8.66,1,10.87,7.34s-1.9,60-1.9,60-8.38,1.43-10.53.16c0,0-6.39-35-6-44.56s1.5-13.74,1.5-13.74" style="fill:#3d4776"/><path id="Path_25499" data-name="Path 25499" d="M17,237.93s9.49-.84,12.48-1.34l-.17,4.33s-7.49,1.33-12.15.67Z" style="fill:#51598d"/><path id="Path_25500" data-name="Path 25500" d="M14.7,47.13s-6,.34-9.66,14-6,30.3-4.66,34.63,15.65,16,21,16,5.66-4,4.66-7.33S14.7,92.09,14.7,92.09s8.32-26.64,8-33.63-4.33-11.33-8-11.33" style="fill:#7e78c7"/><path id="Path_25506" data-name="Path 25506" d="M39.36,5.05s4.92,1.26,7.71,8.83S48,37.51,46.14,39.4,38.63,40.57,30.8,38c-8.28-2.73-11.08-11.34-12.56-17-2.84-10.87,6.62-22,21.12-15.91" style="fill:#ffc59d"/><path id="Path_25507" data-name="Path 25507" d="M21.69,46.8l4-14.32s8-2.33,13,3l1.67,2.33v9.33a53.36,53.36,0,0,1-18.65-.34" style="fill:#ffc59d"/><path id="Path_25508" data-name="Path 25508" d="M10.53,123.88a132.06,132.06,0,0,0,0,37.46c3,20,9,22,14.49,22s7-16,8-23,5-31-2.5-36.46-16-6-20,0" style="fill:#3d4776"/><path id="Path_25509" data-name="Path 25509" d="M31.51,147.36s-6-16,4.5-23,18.48-6,21,5.49,3,50.95-.5,58.94-16-4.5-25-41.45" style="fill:#3d4776"/><path id="Path_25510" data-name="Path 25510" d="M49,5.74a7.19,7.19,0,0,1,.94,6.61c-1.41,3.55-6.61,5-6.61,5a5.73,5.73,0,0,1,0,5.67l-1.19,1.89s1.66,3.78,1.18,4.73-2.12.71-2.12.71-1.89-5.2-2.6-4.73a7.57,7.57,0,0,0-2.6,5c0,2.13.71,3.78.23,5.2s-7.8,1.42-10.87,1-7.8-9.93-9-14.18c0,0-1.65-5.91.71-10.88,0,0-.47-4.25,3.54-8.5S37.39.3,39.51,2A1.65,1.65,0,0,1,41.64.06,11.3,11.3,0,0,1,49,5.74" style="fill:#c53a45"/><path id="Path_25511" data-name="Path 25511" d="M41.88,27.24s-.71-3.07-3.31-1.65.47,8.74,2.6,8.27,1.18-5.43.71-6.62" style="fill:#e79370"/><path id="Path_25512" data-name="Path 25512" d="M19.57,46.72s1.12-3.92,2.12-4.25,13.32-1.66,20,2.33c3,2.33,2.66,4,2.66,4S24.45,45,19.57,46.72" style="fill:#dee0e8"/><path id="Path_25513" data-name="Path 25513" d="M17.11,45.8s20.64-1.33,35.3,5C59.07,54.13,74.3,69.2,74.3,69.2s10.45,12.43,7.49,17.72c-4,3.33-23.06-7.49-23.06-7.49s3,38.63,2,55.94c-1.33,3.33-27.3,5-32,4.66s-21-5.66-21.31-6.66S9.79,92.42,9.12,87.76s-2.66-27.64-2-31,3.67-9.66,10-11" style="fill:#7e78c7"/><path id="Path_25514" data-name="Path 25514" d="M39,241.26s1.17-2.5,5.5-1.83,4.82,1.5,5.32,3.66,2,4.5,3,5,4.67,3,7.66,3.5,3.33,2.34,2.67,3.17-12,1.5-14.49,1.16c0,0-8.49-.16-10.49-.83s.67-13,.84-13.82" style="fill:#3e3343"/><path id="Path_25515" data-name="Path 25515" d="M41,182.82a8.21,8.21,0,0,1,7-8.49c7.5-1.5,8.49,2,10,8.49s-8.49,59.44-8.49,59.44-8.49.5-10.49-1c0,0-2.5-35.46-1-44.95s3-13.49,3-13.49" style="fill:#3d4776"/><path id="Path_25516" data-name="Path 25516" d="M38.34,242.09s6.49,1.83,12,.83l.5-3.83-12.65-.83Z" style="fill:#51598d"/><path id="Path_25517" data-name="Path 25517" d="M29.51,143.61s7,22.48,12.24,33.47" style="fill:none;stroke:#2a2e59;stroke-width:1.0260000228881836px"/><path id="Path_25518" data-name="Path 25518" d="M43.75,181.57a8.88,8.88,0,0,1,8.49,0" style="fill:none;stroke:#2a2e59;stroke-width:1.0260000228881836px"/><path id="Path_25519" data-name="Path 25519" d="M43,184.32s3.5-2,9.49,2.25" style="fill:none;stroke:#2a2e59;stroke-width:1.0260000228881836px"/><path id="Path_25520" data-name="Path 25520" d="M16.78,178.57s2.74-2.5,9,.25" style="fill:none;stroke:#2a2e59;stroke-width:1.0260000228881836px"/><path id="Path_25521" data-name="Path 25521" d="M18.78,181.07a7.51,7.51,0,0,1,7.74,1" style="fill:none;stroke:#2a2e59;stroke-width:1.0260000228881836px"/><line id="Line_122" data-name="Line 122" x1="28.01" y1="185.07" x2="26.52" y2="236.01" style="fill:none;stroke:#2a2e59;stroke-width:1.0260000228881836px"/><path id="Path_25522" data-name="Path 25522" d="M48.66,142.36s5.66,3.33,8-2" style="fill:none;stroke:#2a2e59;stroke-width:1.0260000228881836px"/><path id="Path_25523" data-name="Path 25523" d="M54.32,143s2.66,20.64,2,34.3" style="fill:none;stroke:#2a2e59;stroke-width:1.0260000228881836px"/><line id="Line_123" data-name="Line 123" x1="7.04" y1="65.45" x2="9.7" y2="94.08" style="fill:none;stroke:#524b81;stroke-width:1.0260000228881836px"/><path id="Path_25524" data-name="Path 25524" d="M52.74,75.43s19.73,14.24,29,11.49" style="fill:none;stroke:#524b81;stroke-width:1.0260000228881836px"/><path id="Path_25527" data-name="Path 25527" d="M52,52.71S41.5,58.2,48.49,70.94" style="fill:none;stroke:#524b81;stroke-width:1.0260000228881836px"/><path id="Path_25528" data-name="Path 25528" d="M37.13,36.1s1.75,4.5,7.62,3.75" style="fill:none;stroke:#e79370;stroke-width:1.0260000228881836px"/><path id="Path_25533" data-name="Path 25533" d="M30.39,11.38c-4.87-2.37-11.12.5-11.12.5a6.48,6.48,0,0,1,4.25-4.37" style="fill:none;stroke:#a03a45;stroke-width:1.3680000305175781px"/><path id="Path_25534" data-name="Path 25534" d="M19.52,13.87s1.25-.12,2.88,2.38" style="fill:none;stroke:#a03a45;stroke-width:1.3680000305175781px"/><path id="Path_25535" data-name="Path 25535" d="M41,2.68s6.16,1,6.33,7.16" style="fill:none;stroke:#a03a45;stroke-width:1.3680000305175781px"/></g></g></svg>