<svg xmlns="http://www.w3.org/2000/svg" xmlns:xlink="http://www.w3.org/1999/xlink" viewBox="0 0 36.47 43.59"><defs><clipPath id="clip-path"><rect x="1.42" y="1.07" width="35.05" height="42.52" style="fill:none"/></clipPath><clipPath id="clip-path-2"><rect x="3.06" y="6.36" width="7.19" height="9.3" transform="translate(-2.09 1.58) rotate(-11.68)" style="fill:none"/></clipPath></defs><g id="Layer_2" data-name="Layer 2"><g id="Group_6281" data-name="Group 6281"><g id="Group_6274" data-name="Group 6274"><g style="clip-path:url(#clip-path)"><g id="Group_6273" data-name="Group 6273"><rect id="Rectangle_1952" data-name="Rectangle 1952" x="4.94" y="3.51" width="28.01" height="37.63" transform="translate(-4.13 4.3) rotate(-11.68)" style="fill:#fff3e8"/></g></g></g><g id="Group_6275" data-name="Group 6275"><rect id="Rectangle_1954" data-name="Rectangle 1954" x="3.52" y="2.45" width="28.01" height="37.63" transform="translate(-3.94 3.99) rotate(-11.68)" style="fill:#fff3e8"/><rect id="Rectangle_1955" data-name="Rectangle 1955" x="3.06" y="6.36" width="7.19" height="9.3" transform="translate(-2.09 1.58) rotate(-11.68)" style="fill:#f93c37"/></g><g style="clip-path:url(#clip-path-2)"><g id="Group_6277" data-name="Group 6277"><path id="Path_22093" data-name="Path 22093" d="M5,7.67a2.08,2.08,0,0,0-.75,1.54c0,.8.43,1.57.32,2.37a3.84,3.84,0,0,1-.31.94,2.62,2.62,0,0,0-.25,1,1,1,0,0,0,.42.85,1.52,1.52,0,0,0,.89.13,10.18,10.18,0,0,0,3-.69,2.3,2.3,0,0,0,.93-.57,1.61,1.61,0,0,0,.34-1.34A4.14,4.14,0,0,0,9,10.53a6.26,6.26,0,0,1-.57-1.3,9.1,9.1,0,0,1-.16-.91,2.39,2.39,0,0,0-.18-.79A1.16,1.16,0,0,0,7.62,7a1.15,1.15,0,0,0-.71-.07,2.6,2.6,0,0,0-.55.21A2.9,2.9,0,0,1,6,7.19a2.35,2.35,0,0,0-1,.47" style="fill:#17061f"/><path id="Path_22094" data-name="Path 22094" d="M8.73,12.75c1,.1,1.94,2.56,1.94,2.56a2,2,0,0,1-1.41.88Z" style="fill:#ffb300"/><path id="Path_22095" data-name="Path 22095" d="M11.87,22.57l-.07.07c-1.14,1.09-3.69,1.16-5,1.12H6.65l-.57,0c0-.06,0-.12,0-.19v0c0-.11,0-.24-.07-.37s-.06-.4-.09-.63,0-.24,0-.37-.05-.4-.07-.62,0-.24,0-.37,0-.41-.07-.62,0-.25,0-.37l-.06-.63,0-.37-.06-.62,0-.37c0-.19,0-.38,0-.57v-.06a.77.77,0,0,0,0-.15,1.49,1.49,0,0,0,0-.21v-.1a1.5,1.5,0,0,1,0-.22l0-.3h0a1.49,1.49,0,0,0,0-.21.92.92,0,0,0,0-.16V16c0-.08,0-.16,0-.23a2.11,2.11,0,0,1,0-.26.28.28,0,0,0,0-.09l0-.28c0-.22,0-.44,0-.62s0-.26,0-.37c0-.35,0-.57,0-.63v0l.14-.08h0l.53-.3.08-.05L5.94,13l.18-.1.08,0,1.21-.25.22,0h0l.23,0H8l.49.05h.09l.16,0,0,0q.11.27.21.6l.12.35q.09.28.21.6c0,.12.07.23.11.35l0,.08.06.21a2.31,2.31,0,0,1,.1.28s0,0,0,0v0a.88.88,0,0,1,.05.15l.06.18,0,.1a1.72,1.72,0,0,1,.07.21l.09.28h0l.06.2c0,.05,0,.1,0,.15s.1.29.14.44l0,.16c0,.12.08.24.11.35s.13.41.19.6a2.42,2.42,0,0,1,.1.36c.07.2.13.4.19.6s.05.16.08.24l0,.11c.07.21.13.41.19.6s.07.24.1.35.13.42.18.6a3.21,3.21,0,0,1,.1.35c.08.23.14.44.19.6s.08.26.1.36l.07.23" style="fill:#ffb300"/><path id="Path_22096" data-name="Path 22096" d="M8,12.66v0a.19.19,0,0,1-.14.16A.49.49,0,0,1,8,13.4a.65.65,0,0,1-.46.36.66.66,0,0,1-.28,0A.37.37,0,0,1,7,13.62a.44.44,0,0,1-.16.22.69.69,0,0,1-.25.1A.63.63,0,0,1,6,13.79a.48.48,0,0,1-.12-.56.19.19,0,0,1-.19-.1v0l.09,0L5.94,13l.18-.1.08-.05,1.21-.25.22,0h0l.23,0Z" style="fill:#fff"/><path id="Path_22097" data-name="Path 22097" d="M5.06,13.5C4.44,13.86,3.3,17,3.3,17a9.87,9.87,0,0,0,2.18,1.21l.28-1.25Z" style="fill:#ffb300"/><path id="Path_22098" data-name="Path 22098" d="M8.35,10.09a1.48,1.48,0,0,1-.3,1.1,3.25,3.25,0,0,1-.35.39c-.26.27-.4.48-.26,1.17a.69.69,0,0,1-.81.54A.71.71,0,0,1,6.2,13a6,6,0,0,0-.76-1.95,1.06,1.06,0,0,0-.12-.2h0s0-.15-.06-.37c0,0,0-.06,0-.08a5.26,5.26,0,0,1-.08-1.63c.35-1.15,2.39-1.2,2.71-.42a5.85,5.85,0,0,1,.48,1.74" style="fill:#ffa483"/><path id="Path_22099" data-name="Path 22099" d="M8.09,8.78A2,2,0,0,1,7,8.08a.63.63,0,0,1-.11.35A2.22,2.22,0,0,1,6,9.3a1.49,1.49,0,0,1-.25.73,1.51,1.51,0,0,1-.6.49,4.57,4.57,0,0,1-.39-1.34,1.76,1.76,0,0,1,.48-1.29,2,2,0,0,1,.72-.37,2,2,0,0,1,1.45.07,1.27,1.27,0,0,1,.71,1.19" style="fill:#17061f"/><path id="Path_22100" data-name="Path 22100" d="M7.49,9.42A.41.41,0,0,1,8,9.34a.09.09,0,0,1,0,.1.07.07,0,0,1-.08,0H8a.31.31,0,0,0-.23,0l-.1.05s0,.06-.09.05l0,0a.09.09,0,0,1,0-.1" style="fill:#17061f"/><path id="Path_22101" data-name="Path 22101" d="M7,9.52a.53.53,0,0,0-.58.15.08.08,0,0,0,0,.11s.09,0,.11,0h0a.37.37,0,0,1,.24-.12h.13s.08,0,.12,0l0,0a.08.08,0,0,0,0-.1H7" style="fill:#17061f"/><path id="Path_22102" data-name="Path 22102" d="M7.51,10.68a.54.54,0,0,0,.2-.1.07.07,0,0,0,0-.09.09.09,0,0,0-.07,0h0a.34.34,0,0,1-.42,0,.08.08,0,0,0-.1,0,.06.06,0,0,0,0,.07.48.48,0,0,0,.4.09" style="fill:#d96b5a"/><path id="Path_22103" data-name="Path 22103" d="M7.59,10.27h0c0-.12,0-.15-.07-.15a.19.19,0,0,0-.13.05,0,0,0,0,0,0,0h0a.12.12,0,0,1,.1,0s0,0,0,.11,0,0,0,0h0" style="fill:#d96b5a"/><path id="Path_22104" data-name="Path 22104" d="M6.71,10a.13.13,0,0,0,.15.1A.13.13,0,0,0,7,10a.12.12,0,0,0-.14-.09.12.12,0,0,0-.1.14h0"/><path id="Path_22105" data-name="Path 22105" d="M6.83,10s0,0,0,0a0,0,0,0,0,0,0h0s0,0,0,0a.07.07,0,0,0,0,.06" style="fill:#fff"/><path id="Path_22106" data-name="Path 22106" d="M7.65,9.85a.12.12,0,0,0,.14.1.13.13,0,0,0,.1-.15.14.14,0,0,0-.14-.1.14.14,0,0,0-.11.15h0"/><path id="Path_22107" data-name="Path 22107" d="M7.76,9.79s0,0,0,0,0,0,0-.05h0a0,0,0,0,0-.06,0h0a0,0,0,0,0,0,0" style="fill:#fff"/><path id="Path_22108" data-name="Path 22108" d="M4.89,11a.4.4,0,0,0,.54-.18.41.41,0,0,0-.19-.54.4.4,0,0,0-.49.12.45.45,0,0,0,.14.6" style="fill:#ffa483"/><path id="Path_22109" data-name="Path 22109" d="M4.88,10.44a.34.34,0,0,1,.26,0,.24.24,0,0,1,.11.06.15.15,0,0,1,0,.13.31.31,0,0,1,0,.1.13.13,0,0,0,0,.06.06.06,0,0,0,0,.09h0s0,0,.06,0a0,0,0,0,1,0,0,0,0,0,0,1,0,.05l-.06,0a.14.14,0,0,1-.17-.11.09.09,0,0,1,0-.07.2.2,0,0,1,0-.08.1.1,0,0,0,0-.07s0-.05,0-.07l0,0a.15.15,0,0,0-.09.06.11.11,0,0,0,0,.1s0,0,0,0h0l0,0a.18.18,0,0,1,0-.16l0-.05a.23.23,0,0,0-.15.05.12.12,0,0,0,0,.16s0,0,0,.05a0,0,0,0,1,0,0h0a.19.19,0,0,1,0-.26" style="fill:#d96b5a"/></g></g><rect id="Rectangle_1958" data-name="Rectangle 1958" x="11.14" y="5.64" width="11.87" height="0.72" transform="translate(-0.86 3.58) rotate(-11.68)" style="fill:#ffc800"/><rect id="Rectangle_1959" data-name="Rectangle 1959" x="11.7" y="8.17" width="14.62" height="0.72" transform="translate(-1.33 4.02) rotate(-11.66)" style="fill:#ffc800"/><rect id="Rectangle_1960" data-name="Rectangle 1960" x="11.5" y="7.58" width="7.28" height="0.72" transform="translate(-1.3 3.24) rotate(-11.71)" style="fill:#ffc800"/><rect id="Rectangle_1961" data-name="Rectangle 1961" x="19.49" y="5.93" width="7.28" height="0.72" transform="translate(-0.79 4.8) rotate(-11.66)" style="fill:#ffc800"/><rect id="Rectangle_1962" data-name="Rectangle 1962" x="12.08" y="10.58" width="4.05" height="0.72" transform="translate(-1.92 3.08) rotate(-11.69)" style="fill:#ffc800"/><rect id="Rectangle_1963" data-name="Rectangle 1963" x="23.52" y="9.6" width="4.04" height="0.72" transform="translate(-1.49 5.38) rotate(-11.68)" style="fill:#ffc800"/><rect id="Rectangle_1964" data-name="Rectangle 1964" x="12.29" y="11.28" width="10.15" height="0.72" transform="translate(-2 3.77) rotate(-11.71)" style="fill:#ffc800"/><rect id="Rectangle_1965" data-name="Rectangle 1965" x="16.78" y="8.93" width="10.58" height="0.72" transform="translate(-1.42 4.65) rotate(-11.66)" style="fill:#ffc800"/><path id="Path_22110" data-name="Path 22110" d="M7,20.35a1.3,1.3,0,1,1,1-1.54H8a1.29,1.29,0,0,1-1,1.53M6.52,18.1a1,1,0,1,0,1.18.78h0a1,1,0,0,0-1.18-.78" style="fill:#ffd4a8"/><path id="Path_22111" data-name="Path 22111" d="M6.82,19.52a.17.17,0,0,1-.12,0L6,19a.14.14,0,0,1,0-.2.15.15,0,0,1,.2-.06h0l.57.38,1.13-1.45a.15.15,0,0,1,.24.18h0L6.9,19.46a.1.1,0,0,1-.08.05" style="fill:#ff9300"/><rect id="Rectangle_1966" data-name="Rectangle 1966" x="9.16" y="15.62" width="18.72" height="0.39" transform="translate(-2.82 4.08) rotate(-11.7)" style="fill:#ff9300"/><rect id="Rectangle_1967" data-name="Rectangle 1967" x="15.25" y="15.8" width="12.72" height="0.39" transform="translate(-2.8 4.72) rotate(-11.71)" style="fill:#ff9300"/><rect id="Rectangle_1968" data-name="Rectangle 1968" x="9.56" y="17.92" width="11.54" height="0.39" transform="translate(-3.36 3.49) rotate(-11.71)" style="fill:#ff9300"/><rect id="Rectangle_1969" data-name="Rectangle 1969" x="9.46" y="17.77" width="5.3" height="0.39" transform="translate(-3.38 2.82) rotate(-11.66)" style="fill:#ff9300"/><rect id="Rectangle_1970" data-name="Rectangle 1970" x="21.47" y="15.97" width="6.6" height="0.39" transform="translate(-2.76 5.35) rotate(-11.68)" style="fill:#ff9300"/><path id="Path_22112" data-name="Path 22112" d="M7.9,24.81a1.28,1.28,0,0,1-1.53-1,1.3,1.3,0,1,1,2.54-.54h0a1.3,1.3,0,0,1-1,1.53m-.46-2.25a1,1,0,1,0,1.18.78h0a1,1,0,0,0-1.18-.78" style="fill:#ffd4a8"/><path id="Path_22113" data-name="Path 22113" d="M7.74,24a.14.14,0,0,1-.11,0l-.69-.45a.15.15,0,0,1,0-.21.14.14,0,0,1,.2,0l.57.38,1.13-1.46a.15.15,0,0,1,.21,0,.16.16,0,0,1,0,.21H9L7.83,23.94l-.09,0" style="fill:#ff9300"/><rect id="Rectangle_1971" data-name="Rectangle 1971" x="10.08" y="20.09" width="18.72" height="0.39" transform="translate(-3.71 4.36) rotate(-11.7)" style="fill:#ff9300"/><rect id="Rectangle_1972" data-name="Rectangle 1972" x="16.18" y="20.27" width="12.72" height="0.39" transform="translate(-3.69 5) rotate(-11.71)" style="fill:#ff9300"/><rect id="Rectangle_1973" data-name="Rectangle 1973" x="10.48" y="22.39" width="11.54" height="0.39" transform="translate(-4.25 3.77) rotate(-11.71)" style="fill:#ff9300"/><rect id="Rectangle_1974" data-name="Rectangle 1974" x="10.38" y="22.24" width="5.3" height="0.39" transform="translate(-4.26 3.1) rotate(-11.66)" style="fill:#ff9300"/><rect id="Rectangle_1975" data-name="Rectangle 1975" x="22.39" y="20.44" width="6.6" height="0.39" transform="translate(-3.65 5.63) rotate(-11.68)" style="fill:#ff9300"/><path id="Path_22114" data-name="Path 22114" d="M8.84,29.29a1.3,1.3,0,1,1,1-1.54h0a1.3,1.3,0,0,1-1,1.53M8.37,27a1,1,0,1,0,1.18.78h0A1,1,0,0,0,8.37,27" style="fill:#ffd4a8"/><path id="Path_22115" data-name="Path 22115" d="M8.66,28.47a.14.14,0,0,1-.11,0L7.86,28a.16.16,0,0,1,0-.21.15.15,0,0,1,.21,0H8l.57.38,1.13-1.46a.14.14,0,0,1,.21,0,.16.16,0,0,1,0,.21L8.75,28.41a.13.13,0,0,1-.09.05" style="fill:#ff9300"/><rect id="Rectangle_1976" data-name="Rectangle 1976" x="11.01" y="24.56" width="18.72" height="0.39" transform="translate(-4.6 4.64) rotate(-11.7)" style="fill:#ff9300"/><rect id="Rectangle_1977" data-name="Rectangle 1977" x="17.1" y="24.74" width="12.72" height="0.39" transform="translate(-4.57 5.28) rotate(-11.71)" style="fill:#ff9300"/><rect id="Rectangle_1978" data-name="Rectangle 1978" x="11.41" y="26.86" width="11.54" height="0.39" transform="translate(-5.14 4.05) rotate(-11.71)" style="fill:#ff9300"/><rect id="Rectangle_1979" data-name="Rectangle 1979" x="11.31" y="26.71" width="5.3" height="0.39" transform="translate(-5.15 3.38) rotate(-11.66)" style="fill:#ff9300"/><rect id="Rectangle_1980" data-name="Rectangle 1980" x="23.32" y="24.91" width="6.6" height="0.39" transform="translate(-4.54 5.93) rotate(-11.71)" style="fill:#ff9300"/><rect id="Rectangle_1981" data-name="Rectangle 1981" x="13.58" y="28.67" width="17" height="0.48" transform="translate(-5.39 5.06) rotate(-11.66)" style="fill:#f93c37"/><rect id="Rectangle_1982" data-name="Rectangle 1982" x="8.03" y="30.41" width="22.84" height="0.48" transform="translate(-5.79 4.56) rotate(-11.66)" style="fill:#f93c37"/><rect id="Rectangle_1983" data-name="Rectangle 1983" x="8.37" y="32.51" width="13.5" height="0.48" transform="translate(-6.32 3.74) rotate(-11.68)" style="fill:#f93c37"/><rect id="Rectangle_1984" data-name="Rectangle 1984" x="8.51" y="32.72" width="22.85" height="0.48" transform="translate(-6.25 4.71) rotate(-11.66)" style="fill:#f93c37"/><rect id="Rectangle_1985" data-name="Rectangle 1985" x="21.27" y="32.58" width="10.21" height="0.48" transform="translate(-6.1 6.02) rotate(-11.69)" style="fill:#f93c37"/><rect id="Rectangle_1986" data-name="Rectangle 1986" x="8.99" y="35.02" width="22.85" height="0.48" transform="translate(-6.7 4.85) rotate(-11.66)" style="fill:#f93c37"/><rect id="Rectangle_1987" data-name="Rectangle 1987" x="9.29" y="36.79" width="16.62" height="0.48" transform="translate(-7.15 4.34) rotate(-11.72)" style="fill:#f93c37"/><rect id="Rectangle_1988" data-name="Rectangle 1988" x="26.68" y="34.38" width="5.22" height="0.48" transform="translate(-6.4 6.65) rotate(-11.69)" style="fill:#f93c37"/><rect id="Rectangle_1989" data-name="Rectangle 1989" x="8.87" y="35.07" width="10.94" height="0.48" transform="matrix(0.98, -0.2, 0.2, 0.98, -6.87, 3.65)" style="fill:#f93c37"/><rect id="Rectangle_1990" data-name="Rectangle 1990" x="22.64" y="30.09" width="8.34" height="0.48" transform="translate(-5.59 6.06) rotate(-11.68)" style="fill:#f93c37"/></g></g></svg>