<svg xmlns="http://www.w3.org/2000/svg" viewBox="0 0 86.68 255.18"><g id="Layer_2" data-name="Layer 2"><g id="Layer_1-2" data-name="Layer 1"><path id="Path_25598" data-name="Path 25598" d="M36.58,7s-1.4,2.8-2.24,8.94,1.4,41.65,1.4,41.65l24-2.51L48.88,8.67Z"/><path id="Path_25599" data-name="Path 25599" d="M22.32,157l-8.39,41.51,16.36.42S34.48,162,32.8,162s-10.48-5-10.48-5" style="fill:#45242c"/><path id="Path_25600" data-name="Path 25600" d="M60.34,246.58s-6.15,6.42-8.67,7.82c.56,1.12,9.5,1.12,12.86-.55s5.87-5.6,5.87-5.6l-.27,4.2H71.8s1.68-5.87,1.68-7.27-1.68-3.36-1.68-3.36Z" style="fill:#713336"/><path id="Path_25601" data-name="Path 25601" d="M57.83,163.83,64,239.31l7.27-.56s8.38-55.35,5-74.36-18.45-.56-18.45-.56" style="fill:#ffc59d"/><path id="Path_25602" data-name="Path 25602" d="M64,239.31s-2.23,5.87-5.31,8.66,4.76,2.8,8.11,0,3.64-4.47,4.75-5-.27-4.19-.27-4.19Z" style="fill:#ffc59d"/><path id="Path_25603" data-name="Path 25603" d="M9.86,245.31s-7.14,5.3-9.86,6.26c.36,1.2,9.18,2.7,12.77,1.61s6.73-4.52,6.73-4.52l-1,4.09,1.65.28s2.64-5.5,2.88-6.88S22,242.56,22,242.56Z" style="fill:#713336"/><path id="Path_25604" data-name="Path 25604" d="M21.33,163.32l-6.66,75.43,7.26.68S39.53,186.28,39.42,167s-18.09-3.66-18.09-3.66" style="fill:#ffc59d"/><path id="Path_25605" data-name="Path 25605" d="M14.67,238.76s-3.2,5.41-6.7,7.64,4.21,3.56,8,1.37,4.34-3.8,5.53-4.16.43-4.18.43-4.18Z" style="fill:#ffc59d"/><path id="Path_25608" data-name="Path 25608" d="M28.64,63.19S18.85,78.84,18.57,77.45s-2.23,16.77-.28,16.49S35.35,78,35.35,78Z" style="fill:#ffc59d"/><path id="Path_25609" data-name="Path 25609" d="M37.63,44.6s-5.24,2.1-7.76,5.73-9.79,20.13-9.79,20.13A22.44,22.44,0,0,0,32.94,80l12.3-22.64Z" style="fill:#e86d5e"/><path id="Path_25610" data-name="Path 25610" d="M31.13,98.27s.42,6.71.42,9.23c0,0-10.07,48.64-10.49,60s8,34.39,8,34.39,36.07-.84,47.8-3.36l1.26-24.32s1.68-42.35,0-54.51-8.8-18.45-8.8-18.45l-2.1-5.87Z" style="fill:#713336"/><path id="Path_25611" data-name="Path 25611" d="M62,41.66s9.43,4.4,12.37,9S86.06,80.24,86.06,80.24,76.21,83.8,67.61,83.8c0,0,.84,8,1.68,10.49s-2.1,3.56-2.1,3.56-20.55,5.66-35.86,2.31c0,0-1.89-.42-1.89-1.26s.21-2.94.21-2.94-1.46-14.25-1.88-16.77-5-9.37-4.61-12.09S30.7,51.72,30.7,51.72s4.83-5.65,6.93-7.12S45,43.13,45,43.13Z" style="fill:#e86d5e"/><path id="Path_25612" data-name="Path 25612" d="M44.07,34.12c0,.32,1.2,7.44-2.74,12.48s11.61,4.92,15.22-.33c3.28-4.71,3-5.48,3-5.48s-2.63-8.54-1.86-14.12c-.22-5-13.8-2-13.58,7.44" style="fill:#ffc59d"/><path id="Path_25613" data-name="Path 25613" d="M44,4.41s-4.53,1.16-7.1,8.12S36,34.28,37.73,36s6.9,1.08,14.12-1.3C59.47,32.2,62,24.28,63.4,19.06,66,9.05,57.31-1.24,44,4.41" style="fill:#ffc59d"/><path id="Path_25614" data-name="Path 25614" d="M35.18,12.3s4.19,10.07,20.13,10.63L59,40.71s6.78,3.26,9.43,4.72c0,0,3.08-32.29-4.19-40.12S44.12-.56,39.09,3.91s-3.91,8.39-3.91,8.39"/><path id="Path_25615" data-name="Path 25615" d="M62,41.66l-3.57-3.35s-3.14,9-14.26,9.64a7.68,7.68,0,0,1-.62-5.66l-1.89,1.47s-4,5.66-3.56,7.33,5.73-1.25,5.73-1.25,6.29,3.77,8.8,4,9-11.53,9.37-12.16" style="fill:#fff"/><path id="Path_25616" data-name="Path 25616" d="M55.56,22.67s1.68-2.77,3.36-1.75-1.07,7.3-3.36,7.44-1.07-4.08,0-5.69" style="fill:#e79370"/><line id="Line_124" data-name="Line 124" x1="59.5" y1="59.83" x2="65.93" y2="82.76" style="fill:none;stroke:#bb524f;stroke-width:1.1490000486373901px"/><path id="Path_25617" data-name="Path 25617" d="M55.52,61.16a15.18,15.18,0,0,0,6.29,7.34" style="fill:none;stroke:#bb524f;stroke-width:1.1490000486373901px"/><path id="Path_25618" data-name="Path 25618" d="M62.86,55.71a7.72,7.72,0,0,1,7.54-6.29" style="fill:none;stroke:#bb524f;stroke-width:1.1490000486373901px"/><path id="Path_25619" data-name="Path 25619" d="M29.94,53.19S23.09,64.44,23.16,67.1s4.47,10.21,4.47,10.21l5.46,14.26" style="fill:none;stroke:#bb524f;stroke-width:1.1490000486373901px"/><line id="Line_125" data-name="Line 125" x1="53.63" y1="99.95" x2="60.97" y2="91.56" style="fill:none;stroke:#bb524f;stroke-width:1.1490000486373901px"/><path id="Path_25620" data-name="Path 25620" d="M45,36.49a13.21,13.21,0,0,0,8.11-6.15" style="fill:none;stroke:#e79370;stroke-width:1.0260000228881836px"/><path id="Path_25621" data-name="Path 25621" d="M33.71,106s11.53,3.56,22.44-1" style="fill:none;stroke:#562525;stroke-width:1.1490000486373901px"/><path id="Path_25622" data-name="Path 25622" d="M37.14,110.15s5.87,2,15.37-1.67" style="fill:none;stroke:#562525;stroke-width:1.1490000486373901px"/><path id="Path_25624" data-name="Path 25624" d="M83,81.22c.27.84,2.51,7.41,3.63,10.76s-13.7-1.11-13.7-1.11L69.71,83.6Z" style="fill:#ffc59d"/><path id="Path_25626" data-name="Path 25626" d="M49.67,23.1a.26.26,0,0,1,0,.3c-.06.12-.17.18-.25.14a6.89,6.89,0,0,0-2.29-.77,7.32,7.32,0,0,0-2.47.06h0c-.19,0-.32-.19-.3-.44a.53.53,0,0,1,.41-.49,7.7,7.7,0,0,1,2.58.17,7.5,7.5,0,0,1,2.31,1" style="fill:#070c3a"/><path id="Path_25627" data-name="Path 25627" d="M36.5,22.5a.23.23,0,0,0-.07.25c0,.11.11.17.18.14a5.44,5.44,0,0,1,3.92-.13h0c.16,0,.29-.12.3-.35a.46.46,0,0,0-.27-.46,5.73,5.73,0,0,0-4.08.55" style="fill:#070c3a"/><path id="Path_25628" data-name="Path 25628" d="M46.58,31.83c.14.8-.79,1.67-2.14,2s-2.63-.05-2.92-.81Z" style="fill:#cc7662"/><path id="Path_25629" data-name="Path 25629" d="M44,25.88A1,1,0,1,0,45.1,25a1,1,0,0,0-1.13.84h0" style="fill:#070c3a"/><path id="Path_25630" data-name="Path 25630" d="M38.64,25.44a1,1,0,1,0,1-1,1,1,0,0,0-1,1h0" style="fill:#070c3a"/><path id="Path_25631" data-name="Path 25631" d="M42.28,26.94l-.9,2.76,2.15.21" style="fill:none;stroke:#070c3a;stroke-width:0.5px"/></g></g></svg>