<svg xmlns="http://www.w3.org/2000/svg" viewBox="0 0 30.27 69.56"><g id="Layer_2" data-name="Layer 2"><g id="Layer_1-2" data-name="Layer 1"><path id="Path_25501" data-name="Path 25501" d="M15.48,25.35l-1,.1L16.72,21s5.66-.35,6.57,2l-2.6,5.76Z" style="fill:#ffc59d"/><path id="Path_25502" data-name="Path 25502" d="M18.67,12.81s-.22-4.51,1.38-5.15a4.14,4.14,0,0,1,3.4.61s2.6-.26,3.42.84a4.94,4.94,0,0,1,.76,2.79,2.63,2.63,0,0,1,1.85,1.72,11.22,11.22,0,0,1-.3,4.08s-1.7,2.08-3.66,1.57-6.85-6.46-6.85-6.46" style="fill:#ffc59d"/><path id="Path_25503" data-name="Path 25503" d="M15.7,16.45s-.6-5.9,0-6.68S22.87,0,22.87,0a3.28,3.28,0,0,1,.57,3.28C22.67,5,19.6,10.33,19.6,10.33v4.53a10,10,0,0,1-3.89,1.59" style="fill:#ffc59d"/><path id="Path_25504" data-name="Path 25504" d="M16.18,21.17s-1.55-9.48-.49-10.78,6.25-.54,7.24-.16,3.74,3.91,4.12,5.3S24.84,22,23.29,23.06s-6.21-.08-7.11-1.9" style="fill:#ffc59d"/><path id="Path_25505" data-name="Path 25505" d="M12.52,27.42l2-3.66s4.67-.83,7,2.83c.66,1.33.33,1.33.33,1.33l-1.5,3Z" style="fill:#dee0e8"/><path id="Path_25513" data-name="Path 25513" d="M0,51.48l12-25s6.75-2.41,9.41,3.92c0,0-7.58,29.46-13.9,38.79C3.49,72.54,0,51.48,0,51.48Z" style="fill:#7e78c7"/><path id="Path_25525" data-name="Path 25525" d="M2,54.22a8.25,8.25,0,0,1,3.75,7.5" style="fill:none;stroke:#524b81;stroke-width:1.0260000228881836px"/><path id="Path_25526" data-name="Path 25526" d="M1,52.23a6,6,0,0,1,6.74,3" style="fill:none;stroke:#524b81;stroke-width:1.0260000228881836px"/><path id="Path_25529" data-name="Path 25529" d="M19.39,9.15l2-1.75a3,3,0,0,1,2.1.87" style="fill:none;stroke:#e79370;stroke-width:1.0260000228881836px"/><path id="Path_25530" data-name="Path 25530" d="M21.72,9.44a29.78,29.78,0,0,1,2.79-1.62s2.54.62,2.91,1.95a3.39,3.39,0,0,1,.09,2" style="fill:none;stroke:#e79370;stroke-width:1.0260000228881836px"/><path id="Path_25531" data-name="Path 25531" d="M25,11.85c.12,0,3.54.17,3.54.17a3,3,0,0,1,1.2,2.46,12.66,12.66,0,0,1-.57,3.22,4.25,4.25,0,0,1-3.3,1.69" style="fill:none;stroke:#e79370;stroke-width:1.0260000228881836px"/><path id="Path_25532" data-name="Path 25532" d="M27,15.35a2.06,2.06,0,0,1-.13,1.87c-.54,1.21-1.2,4.37-3.55,5.85" style="fill:none;stroke:#e79370;stroke-width:1.0260000228881836px"/></g></g></svg>