<svg xmlns="http://www.w3.org/2000/svg" viewBox="0 0 38.04 55.41"><g id="Layer_2" data-name="Layer 2"><g id="Layer_1-2" data-name="Layer 1"><path id="Path_25606" data-name="Path 25606" d="M14.46,4.81,0,2s-.22,2,1.1,2.4l1.31.44s3.29,7.88,4.82,8.76S18,18.25,18,18.25L20.37,9Z" style="fill:#ffc59d"/><path id="Path_25607" data-name="Path 25607" d="M24.86,16.5s-.14-1-2.07-4.9a40.41,40.41,0,0,1-2.63-6.13s-6.79-2.63-7.88-3.94A5,5,0,0,0,10.52,0a3.48,3.48,0,0,0,.66,4.16c2,1.75,3.72,3.07,3.72,3.07s-.22,5,.44,7.44A6.46,6.46,0,0,0,18,18.25Z" style="fill:#ffc59d"/><path id="Path_25608" data-name="Path 25608" d="M37.3,38.87C37,37.47,24.72,15.94,24.72,15.94L18,18.24S28.07,49.77,34.5,54.8c0,0,.56.84,2.52.56S37.58,40.26,37.3,38.87Z" style="fill:#ffc59d"/></g></g></svg>