<svg xmlns="http://www.w3.org/2000/svg" viewBox="0 0 74.19 59.22"><g id="Layer_2" data-name="Layer 2"><g id="Layer_1-2" data-name="Layer 1"><rect id="Rectangle_2918" data-name="Rectangle 2918" x="6.78" y="21.14" width="25.58" height="33.96" transform="translate(-16.44 14.89) rotate(-30)" style="fill:#fff"/><path id="Path_25623" data-name="Path 25623" d="M43.12,28.4s-3.49,3.85-4.54,4.69-8.18,1.46-8.18,1.46-3.14,5.25-4,5-.63-.84-.63-.84-.21-9.44.42-10.48,10.9-4,10.9-4l1.26-1.47Z" style="fill:#ffc59d"/><path id="Path_25624" data-name="Path 25624" d="M74.15,1.85c1.12,3.35-24,21-27.95,24L43.12,28.4l-4.75-5.58L60.45.73S73-1.51,74.15,1.85Z" style="fill:#ffc59d"/><line id="Line_126" data-name="Line 126" x1="26.42" y1="39.59" x2="27.74" y2="33.71" style="fill:none;stroke:#e79370;stroke-width:1.0260000228881836px"/><line id="Line_127" data-name="Line 127" x1="25.65" y1="34.27" x2="27.19" y2="30.92" style="fill:none;stroke:#e79370;stroke-width:1.0260000228881836px"/><path id="Path_25625" data-name="Path 25625" d="M26.21,28.26l-.56,11.32h1.82l2.93-5" style="fill:none;stroke:#e79370;stroke-width:1.0260000228881836px"/></g></g></svg>